M48
;Layer_Color=9474304
;FILE_FORMAT=4:3
METRIC,LZ
;TYPE=PLATED
T1F00S00C0.300
T2F00S00C0.500
T3F00S00C0.750
T4F00S00C0.800
T5F00S00C1.300
%
T01
X008Y006375
X0082
X0084
X009
X0092
X0094
X0095Y0066
X0096Y006775
X0095Y007075
X0095Y007375
X0095Y007925
X0074Y006375
X0072
X007
X0064
X0062
X006
X0054
X0052
X005
X0051Y0066
X0053
X005375Y0068
X0052
X005
X0048
X0046
X0044
X0042
X004
X0041Y00695
X0043
X0045
X0047
X0049
X0051
X0053
X005375Y007125
X005375Y0073
X005
X0048
X0046
X00445
X004325
X004125
X0043925Y0074746
X00445Y0077
Y00785
X0049Y00785
X00505Y00785
Y00765
X0049
X005375Y007725
X005375Y0079
X0049Y0066
X0047
X0045
X0043
X0041
X0042Y0064
X0044
X004
X0038
X0036
X0037Y0066
X0039
X0038Y0068
X0036
X0034
X0035Y0066
X0039Y00695
X0038Y0071
X0038Y00725
X0038Y007725
X0038Y0079
X0038Y008075
X0037Y0082
X0035
X0036Y0084
X003775
X0041Y0082
X00425Y0083
X00445
X00465Y008325
X00495Y0083
X00505Y0082
Y00805
X005375Y00815
X005375Y0084
X0053Y0086
X0051
X0052Y0088
X005375
X0053Y009
X0051
X0049
X005Y0088
X0046
X0044
X004225
X0043Y009
Y0086
X004125
X0045
X0046Y00805
X00445Y008
X0052Y0092
X0054
X0056
X0058
X006
X0062
X0064
X0066
X0068
X007
X0072
X0074
X0076
X0078
X0075Y009375
X0073
X0071
X0065
X0063
X0061
X0055
X0053
X0081
X0083
X0085
X0086Y0092
X0088
X009
X0092
X0094
X0096
X0095Y009375
X0093
X0091
X0095Y009
Y0086
X0096Y0084
X0095Y008225
X0084Y0092
X0082
X008
T02
X00345Y0071
X00364
X00355Y0073
X003375
Y0077
X00355
X00364Y0079
X00345
T03
X00975Y0075
T04
X00975Y006925
Y007225
Y007775
X00355Y00865
X0041Y00915
X0046Y00949
X0049
X00975Y008075
T05
X00875Y00621
X00775
X00675
X00575
X00475
X00575Y00949
X00675
X00775
X00875
X00975Y0088
M30
