G04*
G04 #@! TF.GenerationSoftware,Altium Limited,Altium Designer,21.7.2 (23)*
G04*
G04 Layer_Physical_Order=1*
G04 Layer_Color=255*
%FSLAX43Y43*%
%MOMM*%
G71*
G04*
G04 #@! TF.SameCoordinates,EF449257-7E68-4E29-9D8B-EB38C799C825*
G04*
G04*
G04 #@! TF.FilePolarity,Positive*
G04*
G01*
G75*
%ADD17R,0.556X0.179*%
%ADD34C,0.600*%
%ADD37C,0.500*%
%ADD38R,4.750X4.000*%
%ADD39R,0.900X0.800*%
%ADD40R,0.800X0.900*%
%ADD41R,1.020X0.640*%
%ADD42R,1.700X1.250*%
%ADD43R,0.610X1.194*%
%ADD44R,1.000X3.050*%
%ADD45R,1.000X3.300*%
%ADD46R,3.300X1.000*%
%ADD47R,3.400X1.000*%
%ADD48R,2.540X0.635*%
%ADD49C,0.635*%
%ADD50C,1.000*%
%ADD51C,0.254*%
%ADD52C,0.512*%
%ADD53C,0.900*%
%ADD54R,5.250X4.000*%
%ADD55C,1.350*%
%ADD56C,1.500*%
%ADD57C,2.400*%
%ADD58C,1.000*%
G36*
X88657Y94105D02*
X88805Y94360D01*
X88880Y94641D01*
X97241D01*
Y89380D01*
X96960Y89305D01*
X96705Y89157D01*
X97681Y88181D01*
X97500Y88000D01*
X97681Y87819D01*
X96705Y86843D01*
X96960Y86695D01*
X97241Y86620D01*
Y75892D01*
X97141Y75866D01*
X96930Y75743D01*
X96860Y75674D01*
X96844Y75664D01*
X96823Y75645D01*
X96809Y75635D01*
X96791Y75625D01*
X96767Y75615D01*
X96738Y75604D01*
X96702Y75595D01*
X96664Y75588D01*
X96607Y75583D01*
X93000D01*
Y76096D01*
X93954D01*
Y77488D01*
X93200D01*
Y78512D01*
X93954D01*
Y79904D01*
X93000D01*
Y82096D01*
X93954D01*
Y83488D01*
X93200D01*
Y84512D01*
X93954D01*
Y85904D01*
X93000D01*
Y87796D01*
X93954D01*
Y89063D01*
X93200D01*
Y90087D01*
X93954D01*
Y91354D01*
X92512D01*
Y90600D01*
X91488D01*
Y91354D01*
X90046D01*
Y90500D01*
X88154D01*
Y91354D01*
X86762D01*
Y90600D01*
X85738D01*
Y91354D01*
X84346D01*
Y90500D01*
X82154D01*
Y91354D01*
X80762D01*
Y90600D01*
X79738D01*
Y91354D01*
X78346D01*
Y90500D01*
X76154D01*
Y91354D01*
X74762D01*
Y90600D01*
X73738D01*
Y91354D01*
X72346D01*
Y90500D01*
X70154D01*
Y91354D01*
X68762D01*
Y90600D01*
X67738D01*
Y91354D01*
X66346D01*
Y90500D01*
X64154D01*
Y91354D01*
X62762D01*
Y90600D01*
X61738D01*
Y91354D01*
X60346D01*
Y90500D01*
X58454D01*
Y91354D01*
X57012D01*
Y90600D01*
X55988D01*
Y91354D01*
X54546D01*
Y90087D01*
X55300D01*
Y89063D01*
X54546D01*
Y87796D01*
X55500D01*
Y85904D01*
X54546D01*
Y84512D01*
X55300D01*
Y83488D01*
X54546D01*
Y82096D01*
X55500D01*
Y79904D01*
X54546D01*
Y78512D01*
X55300D01*
Y77488D01*
X54546D01*
Y76096D01*
X55500D01*
Y75583D01*
X55500Y75583D01*
X50521D01*
X50429Y75587D01*
X50361Y75595D01*
X50354Y75596D01*
Y75704D01*
X50107D01*
X50097Y75706D01*
X50087Y75704D01*
X49081D01*
X49046Y75704D01*
X48954D01*
X48919Y75704D01*
X47913D01*
X47903Y75706D01*
X47893Y75704D01*
X47646D01*
Y75596D01*
X47644Y75596D01*
X47452Y75583D01*
X46250D01*
X46206Y75574D01*
X45486D01*
Y75507D01*
X45352Y75480D01*
X45248Y75411D01*
X45242Y75409D01*
X45228Y75407D01*
X44958Y75388D01*
X44851D01*
X44702Y75359D01*
X44679Y75343D01*
X44319D01*
Y74657D01*
X44679D01*
X44702Y74641D01*
X44851Y74612D01*
X44955D01*
X45078Y74609D01*
X45184Y74600D01*
X45219Y74595D01*
X45242Y74591D01*
X45248Y74589D01*
X45352Y74520D01*
X45486Y74493D01*
Y74426D01*
X46206D01*
X46250Y74417D01*
X47479D01*
X47571Y74413D01*
X47639Y74405D01*
X47646Y74404D01*
Y74296D01*
X47893D01*
X47903Y74294D01*
X47913Y74296D01*
X48919D01*
X48954Y74296D01*
X49046D01*
X49081Y74296D01*
X50087D01*
X50097Y74294D01*
X50107Y74296D01*
X50354D01*
Y74404D01*
X50356Y74404D01*
X50548Y74417D01*
X55500D01*
X55500Y74417D01*
Y73904D01*
X54546D01*
Y72512D01*
X55300D01*
Y71488D01*
X54546D01*
Y70096D01*
X55500D01*
Y68204D01*
X54546D01*
Y66937D01*
X55300D01*
Y65913D01*
X54546D01*
Y64646D01*
X55988D01*
Y65400D01*
X57012D01*
Y64646D01*
X58454D01*
Y65500D01*
X60346D01*
Y64646D01*
X61738D01*
Y65400D01*
X62762D01*
Y64646D01*
X64154D01*
Y65500D01*
X66346D01*
Y64646D01*
X67738D01*
Y65400D01*
X68762D01*
Y64646D01*
X70154D01*
Y65500D01*
X72346D01*
Y64646D01*
X73738D01*
Y65400D01*
X74762D01*
Y64646D01*
X76154D01*
Y65500D01*
X78346D01*
Y64646D01*
X79738D01*
Y65400D01*
X80762D01*
Y64646D01*
X82154D01*
Y65500D01*
X84346D01*
Y64646D01*
X85738D01*
Y65400D01*
X86762D01*
Y64646D01*
X88154D01*
Y65500D01*
X90046D01*
Y64646D01*
X91488D01*
Y65400D01*
X92512D01*
Y64646D01*
X93954D01*
Y65913D01*
X93200D01*
Y66937D01*
X93954D01*
Y68204D01*
X93000D01*
Y70096D01*
X93954D01*
Y71488D01*
X93200D01*
Y72512D01*
X93954D01*
Y73904D01*
X93000D01*
Y74417D01*
X96622D01*
X96660Y74412D01*
X96702Y74405D01*
X96738Y74396D01*
X96767Y74385D01*
X96791Y74375D01*
X96809Y74365D01*
X96823Y74355D01*
X96844Y74336D01*
X96860Y74326D01*
X96930Y74257D01*
X97141Y74134D01*
X97241Y74108D01*
X97241Y62359D01*
X88880D01*
X88805Y62640D01*
X88657Y62895D01*
X87681Y61919D01*
X87500Y62100D01*
X87319Y61919D01*
X86343Y62895D01*
X86195Y62640D01*
X86120Y62359D01*
X78880D01*
X78805Y62640D01*
X78657Y62895D01*
X77681Y61919D01*
X77500Y62100D01*
X77319Y61919D01*
X76343Y62895D01*
X76195Y62640D01*
X76120Y62359D01*
X68880D01*
X68805Y62640D01*
X68657Y62895D01*
X67681Y61919D01*
X67500Y62100D01*
X67319Y61919D01*
X66343Y62895D01*
X66195Y62640D01*
X66120Y62359D01*
X58880Y62359D01*
X58805Y62640D01*
X58657Y62895D01*
X57681Y61919D01*
X57500Y62100D01*
X57319Y61919D01*
X56343Y62895D01*
X56195Y62640D01*
X56120Y62359D01*
X48880D01*
X48805Y62640D01*
X48657Y62895D01*
X47681Y61919D01*
X47500Y62100D01*
X47319Y61919D01*
X46343Y62895D01*
X46195Y62640D01*
X46120Y62359D01*
X33500D01*
X33338D01*
X33021Y62422D01*
X32723Y62546D01*
X32454Y62725D01*
X32225Y62954D01*
X32046Y63223D01*
X31922Y63521D01*
X31859Y63838D01*
X31859Y64000D01*
Y74428D01*
X33044D01*
X33100Y74417D01*
X35729D01*
X35821Y74413D01*
X35857Y74409D01*
X35880Y74302D01*
X35800Y74200D01*
X35412D01*
Y72512D01*
X37475D01*
Y74169D01*
X37475Y74200D01*
X37550Y74296D01*
X38337D01*
X38347Y74294D01*
X38357Y74296D01*
X38604D01*
Y74404D01*
X38606Y74404D01*
X38798Y74417D01*
X41500D01*
X41544Y74426D01*
X42264D01*
Y74480D01*
X42300D01*
X42499Y74520D01*
X42603Y74589D01*
X42609Y74591D01*
X42623Y74593D01*
X42893Y74612D01*
X43000D01*
X43149Y74641D01*
X43172Y74657D01*
X43532D01*
Y75851D01*
X43172D01*
X43149Y75867D01*
X43000Y75896D01*
X42703D01*
X42387Y76212D01*
X42307Y76303D01*
X42278Y76341D01*
X42264Y76362D01*
Y76607D01*
X42266Y76617D01*
X42264Y76627D01*
Y76732D01*
X42296Y76846D01*
X42379Y76846D01*
X42543D01*
X42553Y76844D01*
X42554Y76844D01*
X42554Y76844D01*
X42564Y76846D01*
X43704D01*
Y78154D01*
X42564D01*
X42554Y78156D01*
X42554Y78156D01*
X42553Y78156D01*
X42543Y78154D01*
X42331D01*
X42296Y78154D01*
Y78154D01*
X42204D01*
Y78154D01*
X41957D01*
X41947Y78156D01*
X41946Y78156D01*
X41946Y78156D01*
X41936Y78154D01*
X40796D01*
Y77113D01*
X40794Y77103D01*
X40796Y77093D01*
Y76874D01*
X40736D01*
Y76627D01*
X40734Y76617D01*
X40736Y76607D01*
Y75726D01*
X41456D01*
X41500Y75717D01*
X41544Y75726D01*
X41655D01*
X41670Y75723D01*
X41696Y75701D01*
X41693Y75665D01*
X41629Y75574D01*
X41544D01*
X41500Y75583D01*
X38771D01*
X38679Y75587D01*
X38611Y75595D01*
X38604Y75596D01*
Y75704D01*
X38357D01*
X38347Y75706D01*
X38337Y75704D01*
X37550D01*
X37475Y75800D01*
X37475Y75831D01*
Y77488D01*
X35412D01*
Y75800D01*
X35793D01*
X35876Y75696D01*
X35854Y75593D01*
X35702Y75583D01*
X33100D01*
X33044Y75572D01*
X31859D01*
Y86241D01*
X39000D01*
X39006Y86242D01*
X39013Y86241D01*
X39209Y86251D01*
X39227Y86256D01*
X39247D01*
X39631Y86332D01*
X39655Y86342D01*
X39680Y86347D01*
X40042Y86497D01*
X40063Y86511D01*
X40087Y86521D01*
X40413Y86739D01*
X40431Y86757D01*
X40452Y86771D01*
X40729Y87048D01*
X40743Y87069D01*
X40761Y87087D01*
X40979Y87413D01*
X40989Y87437D01*
X41003Y87458D01*
X41153Y87820D01*
X41158Y87845D01*
X41168Y87869D01*
X41244Y88253D01*
Y88273D01*
X41249Y88291D01*
X41259Y88487D01*
X41258Y88494D01*
X41259Y88500D01*
Y94641D01*
X43614D01*
X43741Y94641D01*
Y90700D01*
X43761Y90601D01*
X43817Y90517D01*
X43901Y90461D01*
X44000Y90441D01*
X44196D01*
Y90346D01*
X45336D01*
X45346Y90344D01*
X45346Y90344D01*
X45347Y90344D01*
X45357Y90346D01*
X45843D01*
X45853Y90344D01*
X45854Y90344D01*
X45854Y90344D01*
X45864Y90346D01*
X47004D01*
X47004Y90346D01*
X47096Y90321D01*
X47096Y90321D01*
X47121Y90321D01*
X47343D01*
X47353Y90319D01*
X47363Y90321D01*
X49304D01*
Y90441D01*
X51000D01*
X51099Y90461D01*
X51183Y90517D01*
X51239Y90601D01*
X51259Y90700D01*
Y94641D01*
X51386Y94641D01*
X56120Y94641D01*
X56195Y94360D01*
X56343Y94105D01*
X57319Y95081D01*
X57500Y94900D01*
X57681Y95081D01*
X58657Y94105D01*
X58805Y94360D01*
X58880Y94641D01*
X66120D01*
X66195Y94360D01*
X66343Y94105D01*
X67319Y95081D01*
X67500Y94900D01*
X67681Y95081D01*
X68657Y94105D01*
X68805Y94360D01*
X68880Y94641D01*
X76120D01*
X76195Y94360D01*
X76343Y94105D01*
X77319Y95081D01*
X77500Y94900D01*
X77681Y95081D01*
X78657Y94105D01*
X78805Y94360D01*
X78880Y94641D01*
X86120Y94641D01*
X86195Y94360D01*
X86343Y94105D01*
X87319Y95081D01*
X87500Y94900D01*
X87681Y95081D01*
X88657Y94105D01*
D02*
G37*
G36*
X45853Y91320D02*
X45982Y91317D01*
Y90683D01*
X45861Y90682D01*
X45853Y90681D01*
Y90603D01*
X45847Y90618D01*
X45828Y90632D01*
X45796Y90644D01*
X45751Y90654D01*
X45694Y90663D01*
X45642Y90667D01*
X45449Y90654D01*
X45404Y90644D01*
X45372Y90632D01*
X45353Y90618D01*
X45347Y90603D01*
Y90680D01*
X45218Y90683D01*
Y91317D01*
X45339Y91318D01*
X45347Y91319D01*
Y91397D01*
X45353Y91382D01*
X45372Y91368D01*
X45404Y91356D01*
X45449Y91346D01*
X45506Y91337D01*
X45558Y91333D01*
X45751Y91346D01*
X45796Y91356D01*
X45828Y91368D01*
X45847Y91382D01*
X45853Y91397D01*
Y91320D01*
D02*
G37*
G36*
X51000Y90700D02*
X49304D01*
Y92079D01*
X47096D01*
Y91686D01*
X47140Y91693D01*
X47217Y91712D01*
X47276Y91734D01*
X47319Y91760D01*
X47345Y91789D01*
X47353Y91822D01*
Y90578D01*
X47345Y90611D01*
X47319Y90640D01*
X47276Y90666D01*
X47217Y90688D01*
X47140Y90707D01*
X47096Y90714D01*
Y90700D01*
X46950D01*
Y90733D01*
X46935Y90735D01*
X46662Y90748D01*
X46500Y90750D01*
Y90817D01*
X46300D01*
Y91000D01*
X46117D01*
Y91600D01*
X45650D01*
Y91600D01*
X45550D01*
Y91600D01*
X45083D01*
Y91000D01*
X44900D01*
Y90817D01*
X44250D01*
Y90700D01*
X44000D01*
Y94641D01*
X51000D01*
Y90700D01*
D02*
G37*
G36*
X42553Y77818D02*
X42582Y77817D01*
Y77183D01*
X42553Y77182D01*
Y77103D01*
X42547Y77118D01*
X42528Y77132D01*
X42496Y77144D01*
X42451Y77154D01*
X42394Y77163D01*
X42298Y77171D01*
X42049Y77154D01*
X42004Y77144D01*
X41972Y77132D01*
X41953Y77118D01*
X41947Y77103D01*
X41922Y77097D01*
X41900Y77078D01*
X41881Y77046D01*
X41864Y77001D01*
X41850Y76944D01*
X41841Y76890D01*
X41848Y76846D01*
X41865Y76776D01*
X41886Y76719D01*
X41910Y76674D01*
X41939Y76642D01*
X41971Y76623D01*
X42007Y76617D01*
X41820D01*
X41819Y76589D01*
X41818Y76468D01*
X41182D01*
X41181Y76589D01*
X41179Y76617D01*
X40993D01*
X41029Y76623D01*
X41061Y76642D01*
X41090Y76674D01*
X41114Y76719D01*
X41135Y76776D01*
X41152Y76846D01*
X41159Y76890D01*
X41150Y76944D01*
X41136Y77001D01*
X41119Y77046D01*
X41100Y77078D01*
X41078Y77097D01*
X41053Y77103D01*
X41178D01*
X41182Y77252D01*
X41818D01*
X41819Y77131D01*
X41821Y77103D01*
X41947D01*
Y77182D01*
X41918Y77183D01*
Y77817D01*
X41947Y77818D01*
Y77897D01*
X41953Y77882D01*
X41972Y77868D01*
X42004Y77856D01*
X42049Y77846D01*
X42106Y77837D01*
X42202Y77829D01*
X42451Y77846D01*
X42496Y77856D01*
X42528Y77868D01*
X42547Y77882D01*
X42553Y77897D01*
Y77818D01*
D02*
G37*
G36*
X41993Y76379D02*
X41991Y76351D01*
X41998Y76319D01*
X42012Y76281D01*
X42035Y76238D01*
X42067Y76191D01*
X42107Y76139D01*
X42211Y76020D01*
X42276Y75953D01*
X42067Y75803D01*
X42012Y75857D01*
X41915Y75940D01*
X41872Y75970D01*
X41834Y75992D01*
X41800Y76006D01*
X41771Y76013D01*
X41746Y76012D01*
X41725Y76003D01*
X41708Y75986D01*
X42004Y76402D01*
X41993Y76379D01*
D02*
G37*
G36*
X45378Y74811D02*
X45361Y74823D01*
X45335Y74833D01*
X45302Y74843D01*
X45261Y74851D01*
X45213Y74858D01*
X45091Y74867D01*
X44851Y74873D01*
Y75127D01*
X44939Y75128D01*
X45261Y75149D01*
X45302Y75157D01*
X45335Y75167D01*
X45361Y75177D01*
X45378Y75189D01*
Y74811D01*
D02*
G37*
G36*
X42490Y75177D02*
X42516Y75167D01*
X42549Y75157D01*
X42590Y75149D01*
X42638Y75142D01*
X42760Y75133D01*
X43000Y75127D01*
Y74873D01*
X42912Y74872D01*
X42590Y74851D01*
X42549Y74843D01*
X42516Y74833D01*
X42490Y74823D01*
X42473Y74811D01*
Y75189D01*
X42490Y75177D01*
D02*
G37*
G36*
X42007Y75286D02*
X42016Y75280D01*
X42031Y75274D01*
X42051Y75269D01*
X42078Y75265D01*
X42149Y75259D01*
X42300Y75256D01*
Y74744D01*
X42244Y74744D01*
X42051Y74731D01*
X42031Y74726D01*
X42016Y74720D01*
X42007Y74714D01*
X42004Y74707D01*
Y75293D01*
X42007Y75286D01*
D02*
G37*
G36*
X87307Y70550D02*
X89846D01*
Y84868D01*
Y84868D01*
X89846Y84868D01*
X89846Y84868D01*
X89847Y84868D01*
X90482D01*
X90482Y84868D01*
X90482Y84868D01*
X90482Y84868D01*
Y84868D01*
Y75160D01*
X91122D01*
Y75299D01*
X94297D01*
Y74701D01*
X91122D01*
Y74840D01*
X90482D01*
Y70550D01*
X90482Y70550D01*
X90482Y70550D01*
X90482Y70550D01*
X90482Y70550D01*
X90482Y70550D01*
X90482Y70550D01*
X89847Y69915D01*
X89847Y69915D01*
X89847Y69915D01*
X89847Y69915D01*
X89846Y69915D01*
X89846Y69915D01*
X89846Y69915D01*
X87307D01*
X86672Y70550D01*
Y86185D01*
X87307D01*
Y70550D01*
D02*
G37*
G36*
X38353Y75422D02*
X38372Y75400D01*
X38404Y75381D01*
X38449Y75364D01*
X38506Y75350D01*
X38576Y75338D01*
X38658Y75329D01*
X38861Y75319D01*
X38982Y75317D01*
Y74683D01*
X38861Y74681D01*
X38576Y74662D01*
X38506Y74650D01*
X38449Y74636D01*
X38404Y74619D01*
X38372Y74600D01*
X38353Y74578D01*
X38347Y74553D01*
Y75447D01*
X38353Y75422D01*
D02*
G37*
G36*
X36153Y74553D02*
X36147Y74578D01*
X36128Y74600D01*
X36096Y74619D01*
X36051Y74636D01*
X35994Y74650D01*
X35924Y74662D01*
X35842Y74671D01*
X35639Y74681D01*
X35518Y74683D01*
Y75317D01*
X35639Y75319D01*
X35924Y75338D01*
X35994Y75350D01*
X36051Y75364D01*
X36096Y75381D01*
X36128Y75400D01*
X36147Y75422D01*
X36153Y75447D01*
Y74553D01*
D02*
G37*
G36*
X50103Y75422D02*
X50122Y75400D01*
X50154Y75381D01*
X50199Y75364D01*
X50256Y75350D01*
X50326Y75338D01*
X50408Y75329D01*
X50611Y75319D01*
X50732Y75317D01*
Y74683D01*
X50611Y74681D01*
X50326Y74662D01*
X50256Y74650D01*
X50199Y74636D01*
X50154Y74619D01*
X50122Y74600D01*
X50103Y74578D01*
X50097Y74553D01*
Y75447D01*
X50103Y75422D01*
D02*
G37*
G36*
X47903Y74553D02*
X47897Y74578D01*
X47878Y74600D01*
X47846Y74619D01*
X47801Y74636D01*
X47744Y74650D01*
X47674Y74662D01*
X47592Y74671D01*
X47389Y74681D01*
X47268Y74683D01*
Y75317D01*
X47389Y75319D01*
X47674Y75338D01*
X47744Y75350D01*
X47801Y75364D01*
X47846Y75381D01*
X47878Y75400D01*
X47897Y75422D01*
X47903Y75447D01*
Y74553D01*
D02*
G37*
G36*
X97018Y74527D02*
X96985Y74557D01*
X96949Y74583D01*
X96907Y74607D01*
X96862Y74627D01*
X96812Y74644D01*
X96758Y74658D01*
X96700Y74669D01*
X96637Y74676D01*
X96571Y74681D01*
X96499Y74683D01*
Y75317D01*
X96571Y75319D01*
X96700Y75331D01*
X96758Y75342D01*
X96812Y75356D01*
X96862Y75373D01*
X96907Y75393D01*
X96949Y75417D01*
X96985Y75443D01*
X97018Y75473D01*
Y74527D01*
D02*
G37*
G36*
X60903Y86185D02*
X61537Y86185D01*
Y86185D01*
X61538Y86185D01*
X61538Y86185D01*
X61538Y86185D01*
X61538Y86185D01*
X61538Y86185D01*
X61538Y70550D01*
X61538Y70550D01*
X61538Y70550D01*
X61538Y70550D01*
X61538Y70550D01*
X61538Y70550D01*
X61538Y70550D01*
X60903Y69915D01*
X60903Y69915D01*
X60903Y69915D01*
X60903Y69915D01*
X60903Y69915D01*
X60903Y69915D01*
X60903Y69915D01*
X58362Y69915D01*
X58362Y69915D01*
X58362Y69915D01*
X58362Y69915D01*
X58362Y69915D01*
X58362Y69915D01*
X58362Y69915D01*
X57727Y70550D01*
X57727Y70550D01*
X57727Y70550D01*
X57727Y70550D01*
X57727Y70550D01*
X57727Y70550D01*
X57727Y70550D01*
Y74840D01*
X57088D01*
Y74701D01*
X53912D01*
Y75299D01*
X57088D01*
Y75160D01*
X57727D01*
Y84868D01*
X57727Y84868D01*
X57727Y84868D01*
X57727Y84868D01*
X57727Y84868D01*
X57728Y84868D01*
X58362Y84868D01*
Y84868D01*
X58363Y84868D01*
X58363Y84868D01*
X58363Y84868D01*
X58363Y84868D01*
X58363Y84868D01*
X58363Y70550D01*
X60902D01*
Y86185D01*
X60902Y86185D01*
X60902Y86185D01*
X60902Y86185D01*
X60902Y86185D01*
X60903Y86185D01*
D02*
G37*
G36*
X81260Y70550D02*
X80625Y69915D01*
X78085D01*
X77450Y70550D01*
Y86185D01*
X78085D01*
Y70550D01*
X80625D01*
Y86185D01*
X81260D01*
Y70550D01*
D02*
G37*
G36*
X70760D02*
X70125Y69915D01*
X67585D01*
X66950Y70550D01*
Y86185D01*
X67585D01*
Y70550D01*
X70125D01*
Y86185D01*
X70760D01*
Y70550D01*
D02*
G37*
G36*
X85534Y86185D02*
X85534Y86185D01*
X85534Y86185D01*
X85534Y86185D01*
X86169Y85550D01*
X86169Y85550D01*
X86169Y85550D01*
X86169Y85550D01*
X86169Y85550D01*
Y85550D01*
Y69915D01*
Y69915D01*
X86169Y69915D01*
X86169Y69915D01*
X86169Y69915D01*
X85534D01*
X85533Y69915D01*
X85533Y69915D01*
X85533Y69915D01*
Y69915D01*
Y85550D01*
X82994D01*
Y69915D01*
Y69915D01*
X82994Y69915D01*
X82994Y69915D01*
X82994Y69915D01*
X82359D01*
X82358Y69915D01*
X82358Y69915D01*
X82358Y69915D01*
Y69915D01*
Y85550D01*
Y85550D01*
X82358Y85550D01*
X82358Y85550D01*
X82358Y85550D01*
X82358Y85550D01*
X82993Y86185D01*
X82993D01*
X82993Y86185D01*
X82993Y86185D01*
X82993Y86185D01*
X82994Y86185D01*
X85534D01*
X85534Y86185D01*
D02*
G37*
G36*
X75375D02*
X75375Y86185D01*
X75375Y86185D01*
X75375Y86185D01*
X76010Y85550D01*
X76010Y85550D01*
X76010Y85550D01*
X76010Y85550D01*
X76010Y85550D01*
Y85550D01*
Y69915D01*
Y69915D01*
X76010Y69915D01*
X76010Y69915D01*
X76010Y69915D01*
X75375D01*
X75374Y69915D01*
X75374Y69915D01*
X75374Y69915D01*
Y69915D01*
Y85550D01*
X72835D01*
Y69915D01*
Y69915D01*
X72835Y69915D01*
X72835Y69915D01*
X72835Y69915D01*
X72200D01*
X72199Y69915D01*
X72199Y69915D01*
X72199Y69915D01*
Y69915D01*
Y85550D01*
Y85550D01*
X72199Y85550D01*
X72199Y85550D01*
X72199Y85550D01*
X72199Y85550D01*
X72834Y86185D01*
X72834D01*
X72834Y86185D01*
X72834Y86185D01*
X72834Y86185D01*
X72835Y86185D01*
X75375D01*
X75375Y86185D01*
D02*
G37*
G36*
X65216D02*
X65216Y86185D01*
X65216Y86185D01*
X65216Y86185D01*
X65851Y85550D01*
X65851Y85550D01*
X65851Y85550D01*
X65851Y85550D01*
X65851Y85550D01*
Y85550D01*
Y69915D01*
Y69915D01*
X65851Y69915D01*
X65851Y69915D01*
X65851Y69915D01*
X65216D01*
X65215Y69915D01*
X65215Y69915D01*
X65215Y69915D01*
Y69915D01*
Y85550D01*
X62676D01*
Y69915D01*
Y69915D01*
X62676Y69915D01*
X62676Y69915D01*
X62676Y69915D01*
X62041D01*
X62040Y69915D01*
X62040Y69915D01*
X62040Y69915D01*
Y69915D01*
Y85550D01*
Y85550D01*
X62040Y85550D01*
X62040Y85550D01*
X62040Y85550D01*
X62040Y85550D01*
X62675Y86185D01*
X62675D01*
X62675Y86185D01*
X62675Y86185D01*
X62675Y86185D01*
X62676Y86185D01*
X65216D01*
X65216Y86185D01*
D02*
G37*
%LPC*%
G36*
X87500Y94538D02*
X86705Y93743D01*
X86960Y93595D01*
X87316Y93500D01*
X87684D01*
X88040Y93595D01*
X88295Y93743D01*
X87500Y94538D01*
D02*
G37*
G36*
X77500D02*
X76705Y93743D01*
X76960Y93595D01*
X77316Y93500D01*
X77684D01*
X78040Y93595D01*
X78295Y93743D01*
X77500Y94538D01*
D02*
G37*
G36*
X67500D02*
X66705Y93743D01*
X66960Y93595D01*
X67316Y93500D01*
X67684D01*
X68040Y93595D01*
X68295Y93743D01*
X67500Y94538D01*
D02*
G37*
G36*
X57500D02*
X56705Y93743D01*
X56960Y93595D01*
X57316Y93500D01*
X57684D01*
X58040Y93595D01*
X58295Y93743D01*
X57500Y94538D01*
D02*
G37*
G36*
X46482Y90200D02*
Y89783D01*
X46950D01*
Y90200D01*
X46482D01*
D02*
G37*
G36*
X44717D02*
X44250D01*
Y89783D01*
X44717D01*
Y90200D01*
D02*
G37*
G36*
X46950Y89418D02*
X46482D01*
Y89000D01*
X46950D01*
Y89418D01*
D02*
G37*
G36*
X44717D02*
X44250D01*
Y89000D01*
X44717D01*
Y89418D01*
D02*
G37*
G36*
X45650Y90200D02*
X45550D01*
X45523Y90200D01*
X45083D01*
Y89600D01*
X44900D01*
D01*
X45083D01*
Y89000D01*
X45523D01*
X45550Y89000D01*
X45650D01*
X45677Y89000D01*
X46117D01*
Y89600D01*
Y90200D01*
X45677D01*
X45650Y90200D01*
D02*
G37*
G36*
X96343Y88795D02*
X96195Y88540D01*
X96100Y88184D01*
Y87816D01*
X96195Y87460D01*
X96343Y87205D01*
X97138Y88000D01*
X96343Y88795D01*
D02*
G37*
G36*
X47100Y86850D02*
X46682D01*
Y86382D01*
X47100D01*
Y86850D01*
D02*
G37*
G36*
X46318D02*
X45900D01*
Y86382D01*
X46318D01*
Y86850D01*
D02*
G37*
G36*
X47100Y86018D02*
X46682D01*
Y85550D01*
X47100D01*
Y86018D01*
D02*
G37*
G36*
X46318D02*
X45900D01*
Y85550D01*
X46318D01*
Y86018D01*
D02*
G37*
G36*
X45138Y85278D02*
X43746D01*
Y85036D01*
X45138D01*
Y85278D01*
D02*
G37*
G36*
X42454D02*
X41062D01*
Y84524D01*
X40038D01*
Y85278D01*
X38646D01*
Y83886D01*
X39400D01*
Y82862D01*
X38646D01*
Y81470D01*
X40154D01*
Y83770D01*
X42454D01*
Y85278D01*
D02*
G37*
G36*
X45138Y84012D02*
X43746D01*
Y83770D01*
X45138D01*
Y84012D01*
D02*
G37*
G36*
X49304Y88879D02*
X47096D01*
Y87388D01*
X47094Y87378D01*
X47096Y87368D01*
Y87121D01*
X47295D01*
X47348Y87025D01*
X47354Y87004D01*
X47286Y86904D01*
X47246D01*
Y85496D01*
X47439D01*
Y85278D01*
X46162D01*
Y84524D01*
Y83770D01*
X47439D01*
Y82799D01*
X46986Y82783D01*
X46412D01*
X46189Y82738D01*
X46000Y82612D01*
X45842Y82454D01*
X45358D01*
Y81046D01*
X46666D01*
Y81617D01*
X47167D01*
Y81303D01*
X47167Y81272D01*
X47161Y81204D01*
X47096D01*
Y80957D01*
X47094Y80947D01*
X47094Y80946D01*
X47094Y80946D01*
X47096Y80936D01*
Y80064D01*
X47094Y80054D01*
X47094Y80054D01*
X47094Y80053D01*
X47096Y80043D01*
Y79831D01*
X47096Y79796D01*
X47096D01*
Y79704D01*
X47096D01*
Y79457D01*
X47094Y79447D01*
X47094Y79446D01*
X47094Y79446D01*
X47096Y79436D01*
Y78296D01*
X48404D01*
Y79436D01*
X48406Y79446D01*
X48406Y79446D01*
X48406Y79447D01*
X48404Y79457D01*
Y79669D01*
X48404Y79704D01*
X48404D01*
Y79796D01*
X48404D01*
Y80043D01*
X48406Y80053D01*
X48406Y80054D01*
X48406Y80054D01*
X48404Y80064D01*
Y80936D01*
X48406Y80946D01*
X48406Y80946D01*
X48406Y80947D01*
X48404Y80957D01*
Y81204D01*
X48345D01*
X48333Y81389D01*
Y81457D01*
X48397Y81465D01*
X48580Y81541D01*
X48738Y81662D01*
X48859Y81820D01*
X48935Y82003D01*
X48961Y82200D01*
Y83770D01*
X51146D01*
Y81470D01*
X52654D01*
Y82862D01*
X51900D01*
Y83886D01*
X52654D01*
Y85278D01*
X51262D01*
Y84524D01*
X50238D01*
Y85278D01*
X48961D01*
Y86460D01*
X48962Y86558D01*
X48972Y86715D01*
X48987Y86849D01*
X49008Y86959D01*
X49031Y87042D01*
X49055Y87096D01*
X49069Y87120D01*
X49079Y87121D01*
X49304D01*
Y87368D01*
X49306Y87378D01*
X49304Y87388D01*
Y88879D01*
D02*
G37*
G36*
X45142Y82454D02*
X43834D01*
Y82262D01*
X43416Y81790D01*
X43106Y81480D01*
X43053Y81431D01*
X42981Y81374D01*
X42912Y81325D01*
X42847Y81285D01*
X42787Y81254D01*
X42732Y81232D01*
X42684Y81217D01*
X42641Y81209D01*
X42586Y81205D01*
X42581Y81204D01*
X42346D01*
Y80968D01*
X42345Y80962D01*
X42346Y80952D01*
Y80941D01*
X42345Y80930D01*
X42346Y80925D01*
Y80064D01*
X42344Y80054D01*
X42344Y80054D01*
X42344Y80053D01*
X42346Y80043D01*
Y79796D01*
X42346Y79796D01*
X42330Y79710D01*
X42302Y79678D01*
X42296D01*
Y79431D01*
X42294Y79421D01*
X42296Y79411D01*
Y78370D01*
X43704D01*
Y79411D01*
X43706Y79421D01*
X43704Y79431D01*
Y79678D01*
X43676D01*
X43654Y79796D01*
X43654D01*
Y80032D01*
X43655Y80038D01*
X43655Y80039D01*
X43656Y80040D01*
X43659Y80116D01*
X43669Y80180D01*
X43686Y80246D01*
X43709Y80313D01*
X43741Y80383D01*
X43781Y80455D01*
X43829Y80529D01*
X43887Y80606D01*
X43926Y80652D01*
X44064Y80790D01*
X44191Y80908D01*
X44295Y80992D01*
X44371Y81046D01*
X44630D01*
X44636Y81045D01*
X44646Y81046D01*
X45142D01*
Y82454D01*
D02*
G37*
G36*
X49750Y81150D02*
X49333D01*
Y80683D01*
X49750D01*
Y81150D01*
D02*
G37*
G36*
X42200D02*
X41783D01*
Y80683D01*
X42200D01*
Y81150D01*
D02*
G37*
G36*
X48967D02*
X48550D01*
Y80683D01*
X48967D01*
Y81150D01*
D02*
G37*
G36*
X41417D02*
X41000D01*
Y80683D01*
X41417D01*
Y81150D01*
D02*
G37*
G36*
X49750Y80317D02*
X49333D01*
Y79850D01*
X49750D01*
Y80317D01*
D02*
G37*
G36*
X48967D02*
X48550D01*
Y79850D01*
X48967D01*
Y80317D01*
D02*
G37*
G36*
X42200D02*
X41783D01*
Y79850D01*
X42200D01*
Y80317D01*
D02*
G37*
G36*
X41417D02*
X41000D01*
Y79850D01*
X41417D01*
Y80317D01*
D02*
G37*
G36*
X42150Y79500D02*
X41682D01*
Y79082D01*
X42150D01*
Y79500D01*
D02*
G37*
G36*
X41318D02*
X40850D01*
Y79082D01*
X41318D01*
Y79500D01*
D02*
G37*
G36*
X37475Y80200D02*
X35412D01*
Y78512D01*
X37475D01*
Y80200D01*
D02*
G37*
G36*
X34388D02*
X32325D01*
Y78512D01*
X34388D01*
Y80200D01*
D02*
G37*
G36*
X52654Y79698D02*
X52412D01*
Y78306D01*
X52654D01*
Y79698D01*
D02*
G37*
G36*
X51388D02*
X51146D01*
Y78306D01*
X51388D01*
Y79698D01*
D02*
G37*
G36*
X40154D02*
X39912D01*
Y78306D01*
X40154D01*
Y79698D01*
D02*
G37*
G36*
X38888D02*
X38646D01*
Y78306D01*
X38888D01*
Y79698D01*
D02*
G37*
G36*
X42150Y78717D02*
X41682D01*
Y78300D01*
X42150D01*
Y78717D01*
D02*
G37*
G36*
X41318D02*
X40850D01*
Y78300D01*
X41318D01*
Y78717D01*
D02*
G37*
G36*
X48250Y78150D02*
X47833D01*
Y77683D01*
X48250D01*
Y78150D01*
D02*
G37*
G36*
X47467D02*
X47050D01*
Y77683D01*
X47467D01*
Y78150D01*
D02*
G37*
G36*
X48250Y77317D02*
X47833D01*
Y76850D01*
X48250D01*
Y77317D01*
D02*
G37*
G36*
X52654Y77282D02*
X52412D01*
Y75890D01*
X52654D01*
Y77282D01*
D02*
G37*
G36*
X51388D02*
X51146D01*
Y75890D01*
X51388D01*
Y77282D01*
D02*
G37*
G36*
X40154D02*
X39912D01*
Y75890D01*
X40154D01*
Y77282D01*
D02*
G37*
G36*
X38888D02*
X38646D01*
Y75890D01*
X38888D01*
Y77282D01*
D02*
G37*
G36*
X34388Y77488D02*
X32325D01*
Y75800D01*
X34388D01*
Y77488D01*
D02*
G37*
G36*
X46880Y79704D02*
X45572D01*
Y78563D01*
X45570Y78553D01*
X45571Y78548D01*
X45570Y78542D01*
X45572Y78535D01*
Y78296D01*
X45572Y78296D01*
X45596Y78204D01*
X45596Y78204D01*
Y77957D01*
X45594Y77947D01*
X45596Y77938D01*
X45595Y77930D01*
X45596Y77925D01*
Y77064D01*
X45594Y77054D01*
X45594Y77054D01*
X45594Y77053D01*
X45596Y77043D01*
Y76874D01*
X45486D01*
Y76627D01*
X45484Y76617D01*
X45486Y76607D01*
Y75726D01*
X46206D01*
X46250Y75717D01*
X46294Y75726D01*
X47014D01*
Y76607D01*
X47016Y76617D01*
X47014Y76627D01*
Y76738D01*
X47050Y76850D01*
X47121Y76850D01*
X47467Y76850D01*
Y77317D01*
X47050D01*
Y77053D01*
X46960Y76960D01*
X46957Y76959D01*
X46907Y77051D01*
X46906Y77054D01*
X46904Y77064D01*
Y77937D01*
X46906Y77947D01*
X46905Y77952D01*
X46906Y77958D01*
X46904Y77965D01*
Y78204D01*
X46904Y78204D01*
X46880Y78296D01*
X46880Y78296D01*
Y78543D01*
X46882Y78553D01*
X46880Y78562D01*
X46881Y78570D01*
X46880Y78575D01*
Y79704D01*
D02*
G37*
G36*
X45329Y74273D02*
X44978D01*
Y74111D01*
X45329D01*
Y74273D01*
D02*
G37*
G36*
X44724D02*
X44373D01*
Y74111D01*
X44724D01*
Y74273D01*
D02*
G37*
G36*
X43478D02*
X43100D01*
Y74084D01*
X43478D01*
Y74273D01*
D02*
G37*
G36*
X42900D02*
X42522D01*
Y74084D01*
X42900D01*
Y74273D01*
D02*
G37*
G36*
X45329Y73857D02*
X44978D01*
Y73695D01*
X45329D01*
Y73857D01*
D02*
G37*
G36*
X44724D02*
X44373D01*
Y73695D01*
X44724D01*
Y73857D01*
D02*
G37*
G36*
X43478Y73884D02*
X43100D01*
Y73695D01*
X43478D01*
Y73884D01*
D02*
G37*
G36*
X42900D02*
X42522D01*
Y73695D01*
X42900D01*
Y73884D01*
D02*
G37*
G36*
X34388Y74200D02*
X32325D01*
Y72512D01*
X34388D01*
Y74200D01*
D02*
G37*
G36*
X47554Y71818D02*
X46162D01*
Y71576D01*
X47554D01*
Y71818D01*
D02*
G37*
G36*
X45138D02*
X43746D01*
Y71576D01*
X45138D01*
Y71818D01*
D02*
G37*
G36*
X52654Y74118D02*
X51146D01*
Y71818D01*
X48846D01*
Y70310D01*
X50238D01*
Y71064D01*
X51262D01*
Y70310D01*
X52654D01*
Y71702D01*
X51900D01*
Y72726D01*
X52654D01*
Y74118D01*
D02*
G37*
G36*
X47554Y70552D02*
X46162D01*
Y70310D01*
X47554D01*
Y70552D01*
D02*
G37*
G36*
X45138D02*
X43746D01*
Y70310D01*
X45138D01*
Y70552D01*
D02*
G37*
G36*
X40154Y74118D02*
X38646D01*
Y72726D01*
X39400D01*
Y71702D01*
X38646D01*
Y70310D01*
X40038D01*
Y71064D01*
X41062D01*
Y70310D01*
X42454D01*
Y71818D01*
X40154D01*
Y74118D01*
D02*
G37*
G36*
X37475Y71488D02*
X35412D01*
Y69800D01*
X37475D01*
Y71488D01*
D02*
G37*
G36*
X34388D02*
X32325D01*
Y69800D01*
X34388D01*
Y71488D01*
D02*
G37*
G36*
X87684Y63500D02*
X87316D01*
X86960Y63405D01*
X86705Y63257D01*
X87500Y62462D01*
X88295Y63257D01*
X88040Y63405D01*
X87684Y63500D01*
D02*
G37*
G36*
X77684D02*
X77316D01*
X76960Y63405D01*
X76705Y63257D01*
X77500Y62462D01*
X78295Y63257D01*
X78040Y63405D01*
X77684Y63500D01*
D02*
G37*
G36*
X67684D02*
X67316D01*
X66960Y63405D01*
X66705Y63257D01*
X67500Y62462D01*
X68295Y63257D01*
X68040Y63405D01*
X67684Y63500D01*
D02*
G37*
G36*
X57684D02*
X57316D01*
X56960Y63405D01*
X56705Y63257D01*
X57500Y62462D01*
X58295Y63257D01*
X58040Y63405D01*
X57684Y63500D01*
D02*
G37*
G36*
X47684D02*
X47316D01*
X46960Y63405D01*
X46705Y63257D01*
X47500Y62462D01*
X48295Y63257D01*
X48040Y63405D01*
X47684Y63500D01*
D02*
G37*
%LPD*%
G36*
X48981Y87368D02*
X48922Y87338D01*
X48870Y87288D01*
X48825Y87218D01*
X48787Y87128D01*
X48756Y87018D01*
X48731Y86888D01*
X48714Y86738D01*
X48703Y86568D01*
X48700Y86378D01*
X47700D01*
X47697Y86568D01*
X47669Y86888D01*
X47644Y87018D01*
X47613Y87128D01*
X47575Y87218D01*
X47530Y87288D01*
X47478Y87338D01*
X47419Y87368D01*
X47353Y87378D01*
X49047D01*
X48981Y87368D01*
D02*
G37*
G36*
X47847Y82114D02*
X48257Y81703D01*
X48233Y81699D01*
X48208Y81692D01*
X48182Y81682D01*
X48155Y81668D01*
X48127Y81652D01*
X48099Y81633D01*
X48069Y81610D01*
X48036Y81582D01*
X48068D01*
X48068Y81461D01*
X48096Y81049D01*
X48106Y81004D01*
X48118Y80972D01*
X48132Y80953D01*
X48147Y80947D01*
X47353D01*
X47368Y80953D01*
X47382Y80972D01*
X47394Y81004D01*
X47404Y81049D01*
X47413Y81106D01*
X47425Y81258D01*
X47432Y81582D01*
X47918D01*
X47631Y81869D01*
X47457Y81877D01*
X46814Y81882D01*
Y82518D01*
X47847Y82554D01*
Y82114D01*
D02*
G37*
G36*
X48068Y80053D02*
X48147D01*
X48132Y80047D01*
X48118Y80028D01*
X48106Y79996D01*
X48096Y79951D01*
X48087Y79894D01*
X48079Y79798D01*
X48096Y79549D01*
X48106Y79504D01*
X48118Y79472D01*
X48132Y79453D01*
X48147Y79447D01*
X48068D01*
X48068Y79418D01*
X47432D01*
X47432Y79447D01*
X47353D01*
X47368Y79453D01*
X47382Y79472D01*
X47394Y79504D01*
X47404Y79549D01*
X47413Y79606D01*
X47421Y79702D01*
X47404Y79951D01*
X47394Y79996D01*
X47382Y80028D01*
X47368Y80047D01*
X47353Y80053D01*
X47432D01*
X47432Y80082D01*
X48068D01*
X48068Y80053D01*
D02*
G37*
G36*
X44651Y81303D02*
X44611Y81348D01*
X44560Y81373D01*
X44498Y81379D01*
X44424Y81364D01*
X44340Y81329D01*
X44245Y81274D01*
X44138Y81199D01*
X44021Y81104D01*
X43794Y80892D01*
X43761Y80857D01*
X43684Y80768D01*
X43617Y80678D01*
X43559Y80588D01*
X43509Y80499D01*
X43469Y80410D01*
X43437Y80320D01*
X43415Y80231D01*
X43401Y80142D01*
X43397Y80053D01*
X43382Y80047D01*
X43368Y80028D01*
X43356Y79996D01*
X43346Y79951D01*
X43337Y79894D01*
X43329Y79790D01*
X43338Y79650D01*
X43350Y79580D01*
X43364Y79523D01*
X43381Y79478D01*
X43400Y79446D01*
X43422Y79427D01*
X43447Y79421D01*
X43318D01*
X43318Y79418D01*
X42682D01*
X42682Y79421D01*
X42553D01*
X42578Y79427D01*
X42600Y79446D01*
X42619Y79478D01*
X42636Y79523D01*
X42650Y79580D01*
X42662Y79650D01*
X42669Y79720D01*
X42654Y79951D01*
X42644Y79996D01*
X42632Y80028D01*
X42618Y80047D01*
X42603Y80053D01*
X42682D01*
X42682Y80056D01*
X43318D01*
X43318Y80053D01*
X43397D01*
X42603Y80947D01*
X42673Y80951D01*
X42745Y80965D01*
X42819Y80987D01*
X42896Y81019D01*
X42974Y81059D01*
X43054Y81109D01*
X43137Y81167D01*
X43222Y81234D01*
X43397Y81396D01*
X43478Y81315D01*
X43418Y81417D01*
X43546Y81546D01*
X44064Y82132D01*
X44084Y82170D01*
X44091Y82197D01*
X44651Y81303D01*
D02*
G37*
G36*
X46556Y78553D02*
X46623D01*
X46610Y78547D01*
X46599Y78528D01*
X46589Y78496D01*
X46580Y78451D01*
X46572Y78394D01*
X46566Y78305D01*
X46578Y78106D01*
X46588Y78049D01*
X46600Y78004D01*
X46614Y77972D01*
X46630Y77953D01*
X46647Y77947D01*
X46556D01*
X46556Y77918D01*
X45921D01*
X45920Y77947D01*
X45853D01*
X45866Y77953D01*
X45877Y77972D01*
X45887Y78004D01*
X45896Y78049D01*
X45904Y78106D01*
X45910Y78195D01*
X45898Y78394D01*
X45888Y78451D01*
X45876Y78496D01*
X45862Y78528D01*
X45846Y78547D01*
X45829Y78553D01*
X45920D01*
X45921Y78582D01*
X46556D01*
X46556Y78553D01*
D02*
G37*
G36*
X46569Y77131D02*
X46575Y77053D01*
X46647D01*
X46632Y77047D01*
X46618Y77028D01*
X46606Y76996D01*
X46596Y76951D01*
X46589Y76903D01*
X46598Y76846D01*
X46615Y76776D01*
X46636Y76719D01*
X46660Y76674D01*
X46689Y76642D01*
X46721Y76623D01*
X46757Y76617D01*
X46572D01*
X46568Y76418D01*
X45932D01*
X45932Y76539D01*
X45926Y76617D01*
X45743D01*
X45779Y76623D01*
X45811Y76642D01*
X45840Y76674D01*
X45864Y76719D01*
X45885Y76776D01*
X45902Y76846D01*
X45908Y76884D01*
X45904Y76951D01*
X45894Y76996D01*
X45882Y77028D01*
X45868Y77047D01*
X45853Y77053D01*
X45926D01*
X45932Y77252D01*
X46568D01*
X46569Y77131D01*
D02*
G37*
%LPC*%
G36*
X46500Y91600D02*
X46482D01*
Y91183D01*
X46500D01*
Y91600D01*
D02*
G37*
G36*
X44717D02*
X44250D01*
Y91183D01*
X44717D01*
Y91600D01*
D02*
G37*
%LPD*%
D17*
X43000Y73984D02*
D03*
X44851D02*
D03*
Y75508D02*
D03*
X43000D02*
D03*
Y75000D02*
D03*
Y74492D02*
D03*
X44851D02*
D03*
Y75000D02*
D03*
D34*
X43925Y74746D02*
D03*
X38000Y80750D02*
D03*
Y71000D02*
D03*
X41250Y86000D02*
D03*
X42250Y88000D02*
D03*
X95000Y73750D02*
D03*
X96000Y92000D02*
D03*
Y84000D02*
D03*
Y67750D02*
D03*
X95000Y93750D02*
D03*
X94000Y92000D02*
D03*
X95000Y90000D02*
D03*
Y86000D02*
D03*
Y82250D02*
D03*
Y66000D02*
D03*
X94000Y63750D02*
D03*
X93000Y93750D02*
D03*
X92000Y92000D02*
D03*
Y63750D02*
D03*
X91000Y93750D02*
D03*
X90000Y92000D02*
D03*
Y63750D02*
D03*
X88000Y92000D02*
D03*
X86000D02*
D03*
X85000Y93750D02*
D03*
X84000Y92000D02*
D03*
Y63750D02*
D03*
X83000Y93750D02*
D03*
X82000Y92000D02*
D03*
Y63750D02*
D03*
X81000Y93750D02*
D03*
X80000Y92000D02*
D03*
Y63750D02*
D03*
X78000Y92000D02*
D03*
X76000D02*
D03*
X75000Y93750D02*
D03*
X74000Y92000D02*
D03*
Y63750D02*
D03*
X73000Y93750D02*
D03*
X72000Y92000D02*
D03*
Y63750D02*
D03*
X71000Y93750D02*
D03*
X70000Y92000D02*
D03*
Y63750D02*
D03*
X68000Y92000D02*
D03*
X66000D02*
D03*
X65000Y93750D02*
D03*
X64000Y92000D02*
D03*
Y63750D02*
D03*
X63000Y93750D02*
D03*
X62000Y92000D02*
D03*
Y63750D02*
D03*
X61000Y93750D02*
D03*
X60000Y92000D02*
D03*
Y63750D02*
D03*
X58000Y92000D02*
D03*
X56000D02*
D03*
X55000Y93750D02*
D03*
X54000Y92000D02*
D03*
X53750Y88000D02*
D03*
Y84000D02*
D03*
Y79000D02*
D03*
Y71250D02*
D03*
Y68000D02*
D03*
X54000Y63750D02*
D03*
X53000Y93750D02*
D03*
X52000Y92000D02*
D03*
X53000Y90000D02*
D03*
X52000Y88000D02*
D03*
X53000Y86000D02*
D03*
X52000Y68000D02*
D03*
X53000Y66000D02*
D03*
X52000Y63750D02*
D03*
X51000Y90000D02*
D03*
X50000Y88000D02*
D03*
X51000Y86000D02*
D03*
X50000Y68000D02*
D03*
X51000Y66000D02*
D03*
X50000Y63750D02*
D03*
X49000Y90000D02*
D03*
Y78500D02*
D03*
X48000Y68000D02*
D03*
X49000Y66000D02*
D03*
X46000Y88000D02*
D03*
Y68000D02*
D03*
X47000Y66000D02*
D03*
X44000Y88000D02*
D03*
X45000Y86000D02*
D03*
X44000Y68000D02*
D03*
X45000Y66000D02*
D03*
X44000Y64000D02*
D03*
X43000Y90000D02*
D03*
Y86000D02*
D03*
X42000Y68000D02*
D03*
X43000Y66000D02*
D03*
X42000Y64000D02*
D03*
X41000Y82000D02*
D03*
X40000Y68000D02*
D03*
X41000Y66000D02*
D03*
X40000Y64000D02*
D03*
X37750Y84000D02*
D03*
X38000Y79000D02*
D03*
Y72500D02*
D03*
Y68000D02*
D03*
X39000Y66000D02*
D03*
X38000Y64000D02*
D03*
X36000Y84000D02*
D03*
X37000Y82000D02*
D03*
X36000Y68000D02*
D03*
X37000Y66000D02*
D03*
X36000Y64000D02*
D03*
X35000Y82000D02*
D03*
X34000Y68000D02*
D03*
X35000Y66000D02*
D03*
X38000Y77250D02*
D03*
X53750Y81500D02*
D03*
Y73000D02*
D03*
X95000Y70750D02*
D03*
Y79250D02*
D03*
X43250Y73000D02*
D03*
X44500D02*
D03*
X46500Y83250D02*
D03*
X44500Y83000D02*
D03*
X42500D02*
D03*
X49000Y76500D02*
D03*
X50500D02*
D03*
Y78500D02*
D03*
Y80500D02*
D03*
Y82000D02*
D03*
X49500Y83000D02*
D03*
X46000Y80500D02*
D03*
X44500Y80000D02*
D03*
Y78500D02*
D03*
Y77000D02*
D03*
X41250Y73000D02*
D03*
X46000D02*
D03*
X48000D02*
D03*
X50000D02*
D03*
X53750Y77250D02*
D03*
X53000Y69500D02*
D03*
X51000D02*
D03*
X49000D02*
D03*
X47000D02*
D03*
X45000D02*
D03*
X43000D02*
D03*
X41000D02*
D03*
X39000D02*
D03*
D37*
X55500Y75000D02*
D03*
X93000D02*
D03*
D38*
X34900Y78000D02*
D03*
Y72000D02*
D03*
D39*
X41500Y78900D02*
D03*
X46300Y91000D02*
D03*
Y89600D02*
D03*
X44900Y91000D02*
D03*
Y89600D02*
D03*
X43000Y79024D02*
D03*
Y77500D02*
D03*
X41500D02*
D03*
D40*
X41600Y80500D02*
D03*
X47650Y77500D02*
D03*
X49150Y80500D02*
D03*
X46500Y86200D02*
D03*
X44488Y81750D02*
D03*
X46012D02*
D03*
X47900Y86200D02*
D03*
X47750Y79000D02*
D03*
X46226D02*
D03*
X47750Y80500D02*
D03*
X46250Y77500D02*
D03*
X49700Y75000D02*
D03*
X48300D02*
D03*
X43000Y80500D02*
D03*
X37950Y75000D02*
D03*
X36550D02*
D03*
D41*
X41500Y76300D02*
D03*
Y75000D02*
D03*
X46250Y76300D02*
D03*
Y75000D02*
D03*
D42*
X48200Y88000D02*
D03*
Y91200D02*
D03*
D43*
X43925Y74746D02*
D03*
D44*
X55300Y89575D02*
D03*
X93200Y66425D02*
D03*
Y89575D02*
D03*
X55300Y66425D02*
D03*
D45*
X39400Y77794D02*
D03*
Y72214D02*
D03*
X51900D02*
D03*
Y77794D02*
D03*
Y83374D02*
D03*
X39400D02*
D03*
X93200Y78000D02*
D03*
Y72000D02*
D03*
Y84000D02*
D03*
X55300D02*
D03*
Y72000D02*
D03*
Y78000D02*
D03*
D46*
X45650Y71064D02*
D03*
X40550D02*
D03*
X50750D02*
D03*
Y84524D02*
D03*
X45650D02*
D03*
X40550D02*
D03*
X74250Y65400D02*
D03*
X80250D02*
D03*
X68250D02*
D03*
X86250D02*
D03*
X62250D02*
D03*
Y90600D02*
D03*
X86250D02*
D03*
X68250D02*
D03*
X80250D02*
D03*
X74250D02*
D03*
D47*
X92000Y65400D02*
D03*
X56500D02*
D03*
Y90600D02*
D03*
X92000D02*
D03*
D48*
X33100Y75000D02*
D03*
D49*
X49700Y75000D02*
X55500D01*
X46412Y82200D02*
X48200D01*
X46012Y81800D02*
X46412Y82200D01*
X47750Y80500D02*
Y81750D01*
Y79000D02*
Y80500D01*
Y81750D02*
X48200Y82200D01*
X46238Y77512D02*
Y78988D01*
X46226Y79000D02*
X46238Y78988D01*
Y77512D02*
X46250Y77500D01*
X43000Y80500D02*
Y80550D01*
X42994Y80506D02*
X43000Y80500D01*
X44488Y81750D02*
X44488Y81750D01*
X43000Y80550D02*
X44200Y81750D01*
X44488D01*
X43000Y79024D02*
Y80500D01*
X46250Y76300D02*
Y77500D01*
X41500Y76300D02*
Y77500D01*
X43000D01*
X44900Y91000D02*
X46300D01*
X93000Y75000D02*
X97500D01*
X55500Y75000D02*
X55500Y75000D01*
X48300D02*
X48300Y75000D01*
X46250Y75000D02*
X48300D01*
X37950Y75000D02*
X41500D01*
X33100Y75000D02*
X36550D01*
X36550Y75000D01*
D50*
X48200Y82200D02*
Y88000D01*
D51*
X41693Y76107D02*
X41943D01*
X42542Y75508D02*
X43000D01*
X41943Y76107D02*
X42542Y75508D01*
X42300Y75000D02*
X43000D01*
X41500Y76300D02*
X41693Y76107D01*
X44851Y75000D02*
X45551D01*
D52*
X41500Y75000D02*
X42300D01*
X45551D02*
X46250D01*
D53*
X46500Y91200D02*
X48200D01*
D54*
X34625Y78000D02*
D03*
Y72000D02*
D03*
D55*
X97500Y75000D02*
D03*
D56*
X41000Y91500D02*
D03*
X35500Y86500D02*
D03*
X49000Y94900D02*
D03*
X46000D02*
D03*
X97500Y69250D02*
D03*
Y80750D02*
D03*
Y72250D02*
D03*
Y77750D02*
D03*
D57*
X47500Y62100D02*
D03*
X87500Y94900D02*
D03*
X77500D02*
D03*
X67500D02*
D03*
X57500D02*
D03*
X97500Y88000D02*
D03*
X87500Y62100D02*
D03*
X77500D02*
D03*
X67500D02*
D03*
X57500D02*
D03*
D58*
X36400Y71000D02*
D03*
X34500D02*
D03*
X35500Y73000D02*
D03*
X33750D02*
D03*
X36400Y79000D02*
D03*
X34500D02*
D03*
X35500Y77000D02*
D03*
X33750D02*
D03*
M02*
