G04*
G04 #@! TF.GenerationSoftware,Altium Limited,Altium Designer,21.7.2 (23)*
G04*
G04 Layer_Color=8388736*
%FSLAX43Y43*%
%MOMM*%
G71*
G04*
G04 #@! TF.SameCoordinates,BA6C0E96-0EA7-48B6-9F13-DCA0F4556CE8*
G04*
G04*
G04 #@! TF.FilePolarity,Negative*
G04*
G01*
G75*
%ADD14R,5.425X3.500*%
%ADD15C,0.703*%
%ADD16R,0.556X0.179*%
%ADD17R,1.003X1.103*%
%ADD18R,4.242X3.492*%
%ADD19R,1.223X0.843*%
%ADD20R,1.528X1.148*%
%ADD21R,1.103X1.003*%
%ADD22R,1.903X1.453*%
%ADD23R,1.308X1.408*%
%ADD24R,0.813X1.397*%
%ADD25R,1.203X3.253*%
%ADD26R,1.203X3.503*%
%ADD27R,3.503X1.203*%
%ADD28R,3.603X1.203*%
%ADD29R,3.049X1.144*%
%ADD30C,1.020*%
%ADD31C,0.762*%
%ADD32C,1.143*%
%ADD33C,0.600*%
%ADD34C,1.703*%
%ADD35C,2.603*%
%ADD36C,1.858*%
G36*
X97024Y75726D02*
X97031Y75726D01*
X97035Y75726D01*
X97040Y75726D01*
X97046Y75725D01*
X97053Y75724D01*
X97057Y75724D01*
X97062Y75723D01*
X97068Y75722D01*
X97074Y75720D01*
X97079Y75719D01*
X97084Y75718D01*
X97090Y75716D01*
X97096Y75715D01*
X97100Y75713D01*
X97105Y75711D01*
X97111Y75709D01*
X97117Y75707D01*
X97121Y75705D01*
X97125Y75703D01*
X97131Y75700D01*
X97137Y75697D01*
X97141Y75695D01*
X97145Y75693D01*
X97150Y75689D01*
X97156Y75686D01*
X97160Y75683D01*
X97164Y75681D01*
X97169Y75677D01*
X97174Y75673D01*
X97178Y75670D01*
X97181Y75667D01*
X97186Y75663D01*
X97191Y75659D01*
X97194Y75656D01*
X97198Y75652D01*
X97202Y75648D01*
X97206Y75643D01*
X97210Y75639D01*
X97213Y75636D01*
X97217Y75631D01*
X97221Y75626D01*
X97223Y75622D01*
X97226Y75618D01*
X97230Y75613D01*
X97233Y75608D01*
X97236Y75604D01*
X97238Y75600D01*
X97241Y75594D01*
X97244Y75589D01*
X97246Y75584D01*
X97248Y75580D01*
X97251Y75574D01*
X97253Y75568D01*
X97255Y75564D01*
X97257Y75559D01*
X97259Y75553D01*
X97261Y75547D01*
X97262Y75543D01*
X97264Y75538D01*
X97265Y75532D01*
X97267Y75526D01*
X97267Y75521D01*
X97268Y75517D01*
X97269Y75510D01*
X97270Y75504D01*
X97271Y75499D01*
X97271Y75495D01*
X97271Y75488D01*
X97272Y75482D01*
X97272Y75477D01*
X97272Y75473D01*
Y74527D01*
X97272Y74523D01*
X97272Y74518D01*
X97271Y74512D01*
X97271Y74505D01*
X97271Y74501D01*
X97270Y74496D01*
X97269Y74490D01*
X97268Y74483D01*
X97267Y74479D01*
X97267Y74474D01*
X97265Y74468D01*
X97264Y74462D01*
X97262Y74457D01*
X97261Y74453D01*
X97259Y74447D01*
X97257Y74441D01*
X97255Y74436D01*
X97253Y74432D01*
X97251Y74426D01*
X97248Y74420D01*
X97246Y74416D01*
X97244Y74411D01*
X97241Y74406D01*
X97238Y74400D01*
X97236Y74396D01*
X97233Y74392D01*
X97230Y74387D01*
X97226Y74382D01*
X97223Y74378D01*
X97221Y74374D01*
X97217Y74369D01*
X97213Y74364D01*
X97209Y74361D01*
X97206Y74357D01*
X97202Y74352D01*
X97198Y74348D01*
X97194Y74344D01*
X97191Y74341D01*
X97186Y74337D01*
X97181Y74333D01*
X97178Y74330D01*
X97174Y74327D01*
X97169Y74323D01*
X97164Y74319D01*
X97160Y74317D01*
X97156Y74314D01*
X97150Y74311D01*
X97145Y74307D01*
X97141Y74305D01*
X97137Y74303D01*
X97131Y74300D01*
X97125Y74297D01*
X97121Y74295D01*
X97117Y74293D01*
X97111Y74291D01*
X97105Y74289D01*
X97100Y74287D01*
X97096Y74285D01*
X97090Y74284D01*
X97084Y74282D01*
X97079Y74281D01*
X97074Y74280D01*
X97068Y74278D01*
X97062Y74277D01*
X97057Y74276D01*
X97053Y74276D01*
X97046Y74275D01*
X97040Y74274D01*
X97035Y74274D01*
X97031Y74274D01*
X97024Y74274D01*
X97018Y74273D01*
X97013Y74273D01*
X97008Y74273D01*
X97002Y74274D01*
X96996Y74274D01*
X96991Y74275D01*
X96986Y74275D01*
X96980Y74276D01*
X96974Y74277D01*
X96969Y74278D01*
X96964Y74279D01*
X96958Y74281D01*
X96952Y74282D01*
X96948Y74283D01*
X96943Y74285D01*
X96937Y74287D01*
X96931Y74289D01*
X96927Y74290D01*
X96922Y74292D01*
X96916Y74295D01*
X96911Y74297D01*
X96906Y74299D01*
X96902Y74301D01*
X96896Y74304D01*
X96891Y74307D01*
X96887Y74310D01*
X96883Y74312D01*
X96877Y74316D01*
X96872Y74319D01*
X96868Y74322D01*
X96864Y74325D01*
X96860Y74329D01*
X96855Y74333D01*
X96851Y74336D01*
X96847Y74339D01*
X96826Y74359D01*
X96812Y74369D01*
X96793Y74379D01*
X96769Y74390D01*
X96739Y74400D01*
X96703Y74409D01*
X96661Y74417D01*
X96613Y74423D01*
X96559Y74427D01*
X96494Y74428D01*
X96485Y74429D01*
X96477Y74429D01*
X96474Y74430D01*
X96472Y74430D01*
X96463Y74431D01*
X96455Y74432D01*
X96452Y74433D01*
X96450Y74433D01*
X96442Y74435D01*
X96434Y74437D01*
X96431Y74438D01*
X96428Y74438D01*
X96420Y74441D01*
X96412Y74444D01*
X96410Y74445D01*
X96407Y74446D01*
X96400Y74449D01*
X96392Y74452D01*
X96389Y74453D01*
X96387Y74454D01*
X96380Y74458D01*
X96372Y74462D01*
X96370Y74464D01*
X96367Y74465D01*
X96360Y74470D01*
X96354Y74474D01*
X96351Y74476D01*
X96349Y74477D01*
X96342Y74483D01*
X96336Y74488D01*
X96334Y74490D01*
X96332Y74491D01*
X96326Y74497D01*
X96320Y74503D01*
X96318Y74505D01*
X96316Y74507D01*
X96310Y74513D01*
X96305Y74519D01*
X96303Y74521D01*
X96301Y74523D01*
X96296Y74530D01*
X96291Y74537D01*
X96290Y74539D01*
X96288Y74541D01*
X96284Y74548D01*
X96279Y74555D01*
X96278Y74558D01*
X96276Y74560D01*
X96273Y74568D01*
X96269Y74575D01*
X96268Y74578D01*
X96267Y74580D01*
X96264Y74588D01*
X96260Y74596D01*
X96260Y74598D01*
X96259Y74601D01*
X96256Y74609D01*
X96254Y74617D01*
X96253Y74619D01*
X96252Y74622D01*
X96251Y74630D01*
X96249Y74638D01*
X96249Y74641D01*
X96248Y74644D01*
X96247Y74652D01*
X96246Y74660D01*
X96246Y74663D01*
X96246Y74666D01*
X96245Y74674D01*
X96245Y74683D01*
Y75317D01*
X96245Y75326D01*
X96246Y75334D01*
X96246Y75337D01*
X96246Y75340D01*
X96247Y75348D01*
X96248Y75356D01*
X96249Y75359D01*
X96249Y75362D01*
X96251Y75370D01*
X96252Y75378D01*
X96253Y75381D01*
X96254Y75383D01*
X96256Y75391D01*
X96259Y75399D01*
X96260Y75402D01*
X96260Y75404D01*
X96264Y75412D01*
X96267Y75420D01*
X96268Y75422D01*
X96269Y75425D01*
X96273Y75432D01*
X96276Y75440D01*
X96278Y75442D01*
X96279Y75445D01*
X96284Y75452D01*
X96288Y75459D01*
X96290Y75461D01*
X96291Y75463D01*
X96296Y75470D01*
X96301Y75477D01*
X96303Y75479D01*
X96305Y75481D01*
X96310Y75487D01*
X96316Y75493D01*
X96318Y75495D01*
X96320Y75497D01*
X96326Y75503D01*
X96332Y75509D01*
X96334Y75510D01*
X96336Y75512D01*
X96343Y75517D01*
X96349Y75523D01*
X96351Y75524D01*
X96354Y75526D01*
X96361Y75530D01*
X96367Y75535D01*
X96370Y75536D01*
X96372Y75538D01*
X96380Y75542D01*
X96387Y75546D01*
X96389Y75547D01*
X96392Y75548D01*
X96400Y75551D01*
X96407Y75554D01*
X96410Y75555D01*
X96412Y75556D01*
X96420Y75559D01*
X96428Y75562D01*
X96431Y75562D01*
X96434Y75563D01*
X96442Y75565D01*
X96450Y75567D01*
X96452Y75567D01*
X96455Y75568D01*
X96463Y75569D01*
X96472Y75570D01*
X96474Y75570D01*
X96477Y75571D01*
X96485Y75571D01*
X96494Y75572D01*
X96556Y75573D01*
X96665Y75583D01*
X96703Y75591D01*
X96739Y75600D01*
X96769Y75610D01*
X96793Y75621D01*
X96812Y75631D01*
X96826Y75641D01*
X96847Y75661D01*
X96851Y75664D01*
X96855Y75667D01*
X96860Y75671D01*
X96864Y75675D01*
X96868Y75678D01*
X96872Y75681D01*
X96877Y75684D01*
X96883Y75688D01*
X96887Y75690D01*
X96891Y75693D01*
X96896Y75696D01*
X96902Y75699D01*
X96906Y75701D01*
X96911Y75703D01*
X96916Y75705D01*
X96922Y75708D01*
X96927Y75710D01*
X96931Y75711D01*
X96937Y75713D01*
X96943Y75715D01*
X96948Y75717D01*
X96952Y75718D01*
X96958Y75719D01*
X96964Y75721D01*
X96969Y75722D01*
X96974Y75723D01*
X96980Y75724D01*
X96986Y75725D01*
X96991Y75725D01*
X96996Y75726D01*
X97002Y75726D01*
X97008Y75727D01*
X97013Y75727D01*
X97018Y75727D01*
X97024Y75726D01*
D02*
G37*
G36*
X36163Y75701D02*
X36173Y75700D01*
X36174Y75700D01*
X36175Y75700D01*
X36185Y75699D01*
X36195Y75698D01*
X36196Y75697D01*
X36197Y75697D01*
X36207Y75695D01*
X36217Y75693D01*
X36218Y75693D01*
X36219Y75693D01*
X36229Y75689D01*
X36238Y75687D01*
X36239Y75686D01*
X36240Y75686D01*
X36249Y75682D01*
X36258Y75678D01*
X36259Y75678D01*
X36261Y75677D01*
X36269Y75673D01*
X36278Y75668D01*
X36279Y75668D01*
X36280Y75667D01*
X36289Y75662D01*
X36297Y75657D01*
X36298Y75656D01*
X36299Y75655D01*
X36307Y75649D01*
X36315Y75643D01*
X36316Y75642D01*
X36316Y75642D01*
X36324Y75635D01*
X36331Y75628D01*
X36332Y75628D01*
X36333Y75627D01*
X36340Y75619D01*
X36346Y75612D01*
X36347Y75611D01*
X36348Y75610D01*
X36354Y75602D01*
X36360Y75595D01*
X36361Y75594D01*
X36361Y75593D01*
X36367Y75584D01*
X36372Y75576D01*
X36373Y75575D01*
X36373Y75574D01*
X36378Y75565D01*
X36382Y75557D01*
X36383Y75555D01*
X36383Y75554D01*
X36387Y75545D01*
X36391Y75536D01*
X36391Y75535D01*
X36392Y75534D01*
X36395Y75524D01*
X36398Y75515D01*
X36398Y75514D01*
X36399Y75513D01*
X36401Y75503D01*
X36403Y75493D01*
X36403Y75492D01*
X36403Y75491D01*
X36405Y75481D01*
X36406Y75471D01*
X36406Y75470D01*
X36406Y75469D01*
X36407Y75459D01*
X36407Y75449D01*
X36407Y75448D01*
X36407Y75447D01*
Y74553D01*
X36407Y74552D01*
X36407Y74551D01*
X36407Y74541D01*
X36406Y74531D01*
X36406Y74530D01*
X36406Y74529D01*
X36405Y74519D01*
X36403Y74509D01*
X36403Y74508D01*
X36403Y74507D01*
X36401Y74497D01*
X36399Y74487D01*
X36398Y74486D01*
X36398Y74485D01*
X36395Y74476D01*
X36392Y74466D01*
X36392Y74465D01*
X36391Y74464D01*
X36387Y74455D01*
X36383Y74446D01*
X36383Y74445D01*
X36382Y74443D01*
X36378Y74435D01*
X36373Y74426D01*
X36373Y74425D01*
X36372Y74424D01*
X36367Y74416D01*
X36361Y74407D01*
X36361Y74406D01*
X36360Y74405D01*
X36354Y74398D01*
X36348Y74390D01*
X36347Y74389D01*
X36346Y74388D01*
X36340Y74381D01*
X36333Y74373D01*
X36332Y74372D01*
X36331Y74372D01*
X36324Y74365D01*
X36316Y74358D01*
X36316Y74358D01*
X36315Y74357D01*
X36307Y74351D01*
X36299Y74345D01*
X36298Y74344D01*
X36297Y74343D01*
X36289Y74338D01*
X36280Y74333D01*
X36279Y74332D01*
X36278Y74332D01*
X36269Y74327D01*
X36261Y74323D01*
X36259Y74322D01*
X36258Y74322D01*
X36249Y74318D01*
X36240Y74314D01*
X36239Y74314D01*
X36238Y74313D01*
X36228Y74310D01*
X36219Y74307D01*
X36218Y74307D01*
X36217Y74307D01*
X36207Y74305D01*
X36197Y74303D01*
X36196Y74303D01*
X36195Y74302D01*
X36185Y74301D01*
X36175Y74300D01*
X36174Y74300D01*
X36173Y74300D01*
X36163Y74299D01*
X36153Y74299D01*
X36152Y74299D01*
X36151Y74299D01*
X36141Y74299D01*
X36131Y74300D01*
X36130Y74300D01*
X36129Y74300D01*
X36119Y74301D01*
X36109Y74303D01*
X36108Y74303D01*
X36107Y74303D01*
X36097Y74305D01*
X36087Y74307D01*
X36086Y74308D01*
X36085Y74308D01*
X36076Y74311D01*
X36066Y74314D01*
X36065Y74315D01*
X36064Y74315D01*
X36055Y74319D01*
X36046Y74323D01*
X36045Y74323D01*
X36043Y74324D01*
X36035Y74328D01*
X36026Y74333D01*
X36025Y74334D01*
X36024Y74334D01*
X36016Y74339D01*
X36007Y74345D01*
X36006Y74346D01*
X36005Y74346D01*
X35998Y74352D01*
X35990Y74358D01*
X35989Y74359D01*
X35988Y74360D01*
X35981Y74367D01*
X35973Y74373D01*
X35972Y74374D01*
X35972Y74375D01*
X35965Y74382D01*
X35958Y74390D01*
X35958Y74391D01*
X35957Y74391D01*
X35951Y74399D01*
X35943Y74401D01*
X35890Y74410D01*
X35822Y74417D01*
X35631Y74427D01*
X35515Y74428D01*
X35506Y74429D01*
X35496Y74429D01*
X35495Y74429D01*
X35493Y74429D01*
X35483Y74431D01*
X35474Y74432D01*
X35473Y74432D01*
X35471Y74433D01*
X35462Y74435D01*
X35452Y74437D01*
X35451Y74437D01*
X35450Y74438D01*
X35440Y74441D01*
X35431Y74444D01*
X35430Y74444D01*
X35429Y74445D01*
X35420Y74448D01*
X35411Y74452D01*
X35409Y74453D01*
X35408Y74453D01*
X35399Y74458D01*
X35391Y74462D01*
X35390Y74463D01*
X35389Y74464D01*
X35380Y74469D01*
X35372Y74474D01*
X35371Y74475D01*
X35370Y74476D01*
X35362Y74482D01*
X35355Y74488D01*
X35354Y74489D01*
X35353Y74490D01*
X35345Y74496D01*
X35338Y74503D01*
X35337Y74504D01*
X35336Y74505D01*
X35330Y74512D01*
X35323Y74519D01*
X35322Y74520D01*
X35322Y74521D01*
X35316Y74529D01*
X35310Y74537D01*
X35309Y74538D01*
X35308Y74539D01*
X35303Y74547D01*
X35298Y74555D01*
X35297Y74557D01*
X35297Y74558D01*
X35292Y74566D01*
X35288Y74575D01*
X35287Y74576D01*
X35286Y74578D01*
X35283Y74587D01*
X35279Y74596D01*
X35279Y74597D01*
X35278Y74598D01*
X35275Y74607D01*
X35272Y74617D01*
X35272Y74618D01*
X35272Y74619D01*
X35270Y74629D01*
X35268Y74638D01*
X35267Y74640D01*
X35267Y74641D01*
X35266Y74651D01*
X35265Y74660D01*
X35265Y74662D01*
X35265Y74663D01*
X35264Y74673D01*
X35264Y74683D01*
Y75317D01*
X35264Y75327D01*
X35265Y75337D01*
X35265Y75338D01*
X35265Y75340D01*
X35266Y75349D01*
X35267Y75359D01*
X35267Y75360D01*
X35268Y75362D01*
X35270Y75371D01*
X35272Y75381D01*
X35272Y75382D01*
X35272Y75383D01*
X35275Y75393D01*
X35278Y75402D01*
X35279Y75403D01*
X35279Y75404D01*
X35283Y75413D01*
X35286Y75422D01*
X35287Y75424D01*
X35288Y75425D01*
X35292Y75434D01*
X35297Y75442D01*
X35297Y75443D01*
X35298Y75445D01*
X35303Y75453D01*
X35308Y75461D01*
X35309Y75462D01*
X35310Y75463D01*
X35316Y75471D01*
X35322Y75479D01*
X35322Y75480D01*
X35323Y75481D01*
X35330Y75488D01*
X35336Y75495D01*
X35337Y75496D01*
X35338Y75497D01*
X35345Y75504D01*
X35353Y75510D01*
X35354Y75511D01*
X35355Y75512D01*
X35362Y75518D01*
X35370Y75524D01*
X35371Y75525D01*
X35372Y75526D01*
X35380Y75531D01*
X35389Y75536D01*
X35390Y75537D01*
X35391Y75538D01*
X35399Y75542D01*
X35408Y75547D01*
X35409Y75547D01*
X35411Y75548D01*
X35420Y75552D01*
X35429Y75555D01*
X35430Y75556D01*
X35431Y75556D01*
X35440Y75559D01*
X35450Y75562D01*
X35451Y75563D01*
X35452Y75563D01*
X35462Y75565D01*
X35471Y75567D01*
X35473Y75568D01*
X35474Y75568D01*
X35483Y75569D01*
X35493Y75571D01*
X35495Y75571D01*
X35496Y75571D01*
X35506Y75571D01*
X35515Y75572D01*
X35629Y75573D01*
X35895Y75591D01*
X35943Y75599D01*
X35951Y75601D01*
X35957Y75609D01*
X35958Y75609D01*
X35958Y75610D01*
X35965Y75618D01*
X35972Y75625D01*
X35972Y75626D01*
X35973Y75627D01*
X35981Y75634D01*
X35988Y75640D01*
X35989Y75641D01*
X35990Y75642D01*
X35998Y75648D01*
X36005Y75654D01*
X36006Y75654D01*
X36007Y75655D01*
X36016Y75661D01*
X36024Y75666D01*
X36025Y75667D01*
X36026Y75667D01*
X36035Y75672D01*
X36043Y75676D01*
X36045Y75677D01*
X36046Y75677D01*
X36055Y75681D01*
X36064Y75685D01*
X36065Y75685D01*
X36066Y75686D01*
X36076Y75689D01*
X36085Y75692D01*
X36086Y75692D01*
X36087Y75693D01*
X36097Y75695D01*
X36107Y75697D01*
X36108Y75697D01*
X36109Y75697D01*
X36119Y75699D01*
X36129Y75700D01*
X36130Y75700D01*
X36131Y75700D01*
X36141Y75701D01*
X36151Y75701D01*
X36152Y75701D01*
X36153Y75701D01*
X36163Y75701D01*
D02*
G37*
G36*
X47913Y75701D02*
X47923Y75700D01*
X47924Y75700D01*
X47925Y75700D01*
X47935Y75699D01*
X47945Y75698D01*
X47946Y75697D01*
X47947Y75697D01*
X47957Y75695D01*
X47967Y75693D01*
X47968Y75693D01*
X47969Y75693D01*
X47978Y75690D01*
X47988Y75687D01*
X47989Y75686D01*
X47990Y75686D01*
X47999Y75682D01*
X48008Y75678D01*
X48009Y75678D01*
X48010Y75677D01*
X48019Y75673D01*
X48028Y75668D01*
X48029Y75668D01*
X48030Y75667D01*
X48038Y75662D01*
X48047Y75657D01*
X48048Y75656D01*
X48049Y75655D01*
X48057Y75649D01*
X48065Y75643D01*
X48066Y75642D01*
X48066Y75642D01*
X48074Y75635D01*
X48081Y75628D01*
X48082Y75628D01*
X48083Y75627D01*
X48089Y75619D01*
X48096Y75612D01*
X48097Y75611D01*
X48098Y75610D01*
X48104Y75603D01*
X48110Y75595D01*
X48111Y75594D01*
X48111Y75593D01*
X48117Y75585D01*
X48122Y75576D01*
X48123Y75575D01*
X48123Y75574D01*
X48128Y75565D01*
X48132Y75557D01*
X48133Y75555D01*
X48133Y75554D01*
X48137Y75545D01*
X48141Y75536D01*
X48141Y75535D01*
X48142Y75534D01*
X48145Y75524D01*
X48148Y75515D01*
X48148Y75514D01*
X48149Y75513D01*
X48151Y75503D01*
X48153Y75493D01*
X48153Y75492D01*
X48153Y75491D01*
X48155Y75482D01*
X48156Y75471D01*
X48156Y75470D01*
X48156Y75469D01*
X48157Y75459D01*
X48157Y75449D01*
X48157Y75448D01*
X48157Y75447D01*
Y74553D01*
X48157Y74552D01*
X48157Y74551D01*
X48157Y74541D01*
X48156Y74531D01*
X48156Y74530D01*
X48156Y74529D01*
X48155Y74519D01*
X48153Y74509D01*
X48153Y74508D01*
X48153Y74507D01*
X48151Y74497D01*
X48149Y74487D01*
X48148Y74486D01*
X48148Y74485D01*
X48145Y74476D01*
X48142Y74466D01*
X48141Y74465D01*
X48141Y74464D01*
X48137Y74455D01*
X48133Y74446D01*
X48133Y74445D01*
X48132Y74443D01*
X48128Y74435D01*
X48123Y74426D01*
X48123Y74425D01*
X48122Y74424D01*
X48117Y74416D01*
X48111Y74407D01*
X48111Y74406D01*
X48110Y74405D01*
X48104Y74398D01*
X48098Y74390D01*
X48097Y74389D01*
X48096Y74388D01*
X48090Y74381D01*
X48083Y74373D01*
X48082Y74372D01*
X48081Y74372D01*
X48074Y74365D01*
X48066Y74358D01*
X48066Y74358D01*
X48065Y74357D01*
X48057Y74351D01*
X48049Y74345D01*
X48048Y74344D01*
X48047Y74343D01*
X48039Y74338D01*
X48030Y74333D01*
X48029Y74332D01*
X48028Y74332D01*
X48019Y74327D01*
X48010Y74323D01*
X48009Y74322D01*
X48008Y74322D01*
X47999Y74318D01*
X47990Y74314D01*
X47989Y74314D01*
X47988Y74313D01*
X47978Y74310D01*
X47969Y74307D01*
X47968Y74307D01*
X47967Y74307D01*
X47957Y74305D01*
X47947Y74303D01*
X47946Y74303D01*
X47945Y74302D01*
X47935Y74301D01*
X47925Y74300D01*
X47924Y74300D01*
X47923Y74300D01*
X47913Y74299D01*
X47903Y74299D01*
X47902Y74299D01*
X47901Y74299D01*
X47891Y74299D01*
X47881Y74300D01*
X47880Y74300D01*
X47879Y74300D01*
X47869Y74301D01*
X47859Y74303D01*
X47858Y74303D01*
X47857Y74303D01*
X47847Y74305D01*
X47837Y74307D01*
X47836Y74308D01*
X47835Y74308D01*
X47826Y74311D01*
X47816Y74314D01*
X47815Y74315D01*
X47814Y74315D01*
X47805Y74319D01*
X47796Y74323D01*
X47795Y74323D01*
X47793Y74324D01*
X47785Y74328D01*
X47776Y74333D01*
X47775Y74333D01*
X47774Y74334D01*
X47766Y74339D01*
X47757Y74345D01*
X47756Y74345D01*
X47755Y74346D01*
X47748Y74352D01*
X47740Y74358D01*
X47739Y74359D01*
X47738Y74360D01*
X47731Y74366D01*
X47723Y74373D01*
X47722Y74374D01*
X47722Y74375D01*
X47715Y74382D01*
X47708Y74390D01*
X47708Y74391D01*
X47707Y74391D01*
X47701Y74399D01*
X47693Y74401D01*
X47640Y74410D01*
X47572Y74417D01*
X47381Y74427D01*
X47265Y74428D01*
X47256Y74429D01*
X47246Y74429D01*
X47245Y74429D01*
X47243Y74429D01*
X47233Y74431D01*
X47224Y74432D01*
X47223Y74432D01*
X47221Y74433D01*
X47212Y74435D01*
X47202Y74437D01*
X47201Y74437D01*
X47200Y74438D01*
X47190Y74441D01*
X47181Y74444D01*
X47180Y74444D01*
X47179Y74445D01*
X47170Y74448D01*
X47161Y74452D01*
X47159Y74453D01*
X47158Y74453D01*
X47149Y74458D01*
X47141Y74462D01*
X47140Y74463D01*
X47139Y74464D01*
X47130Y74469D01*
X47122Y74474D01*
X47121Y74475D01*
X47120Y74476D01*
X47112Y74482D01*
X47105Y74488D01*
X47104Y74489D01*
X47103Y74490D01*
X47095Y74496D01*
X47088Y74503D01*
X47087Y74504D01*
X47086Y74505D01*
X47080Y74512D01*
X47073Y74519D01*
X47072Y74520D01*
X47072Y74521D01*
X47066Y74529D01*
X47060Y74537D01*
X47059Y74538D01*
X47058Y74539D01*
X47053Y74547D01*
X47048Y74555D01*
X47047Y74557D01*
X47047Y74558D01*
X47042Y74566D01*
X47038Y74575D01*
X47037Y74576D01*
X47036Y74578D01*
X47033Y74587D01*
X47029Y74596D01*
X47029Y74597D01*
X47028Y74598D01*
X47025Y74607D01*
X47022Y74617D01*
X47022Y74618D01*
X47022Y74619D01*
X47020Y74629D01*
X47018Y74638D01*
X47017Y74640D01*
X47017Y74641D01*
X47016Y74651D01*
X47015Y74660D01*
X47015Y74662D01*
X47015Y74663D01*
X47014Y74673D01*
X47014Y74683D01*
Y75317D01*
X47014Y75327D01*
X47015Y75337D01*
X47015Y75338D01*
X47015Y75340D01*
X47016Y75349D01*
X47017Y75359D01*
X47017Y75360D01*
X47018Y75362D01*
X47020Y75371D01*
X47022Y75381D01*
X47022Y75382D01*
X47022Y75383D01*
X47025Y75393D01*
X47028Y75402D01*
X47029Y75403D01*
X47029Y75404D01*
X47033Y75413D01*
X47036Y75422D01*
X47037Y75424D01*
X47038Y75425D01*
X47042Y75434D01*
X47047Y75442D01*
X47047Y75443D01*
X47048Y75445D01*
X47053Y75453D01*
X47058Y75461D01*
X47059Y75462D01*
X47060Y75463D01*
X47066Y75471D01*
X47072Y75479D01*
X47072Y75480D01*
X47073Y75481D01*
X47080Y75488D01*
X47086Y75495D01*
X47087Y75496D01*
X47088Y75497D01*
X47095Y75504D01*
X47103Y75510D01*
X47104Y75511D01*
X47105Y75512D01*
X47112Y75518D01*
X47120Y75524D01*
X47121Y75525D01*
X47122Y75526D01*
X47130Y75531D01*
X47139Y75536D01*
X47140Y75537D01*
X47141Y75538D01*
X47149Y75542D01*
X47158Y75547D01*
X47159Y75547D01*
X47161Y75548D01*
X47170Y75552D01*
X47179Y75555D01*
X47180Y75556D01*
X47181Y75556D01*
X47190Y75559D01*
X47200Y75562D01*
X47201Y75563D01*
X47202Y75563D01*
X47212Y75565D01*
X47221Y75567D01*
X47223Y75568D01*
X47224Y75568D01*
X47233Y75569D01*
X47243Y75571D01*
X47245Y75571D01*
X47246Y75571D01*
X47256Y75571D01*
X47265Y75572D01*
X47379Y75573D01*
X47645Y75591D01*
X47693Y75599D01*
X47701Y75601D01*
X47707Y75609D01*
X47708Y75609D01*
X47708Y75610D01*
X47715Y75618D01*
X47722Y75625D01*
X47722Y75626D01*
X47723Y75627D01*
X47731Y75633D01*
X47738Y75640D01*
X47739Y75641D01*
X47740Y75642D01*
X47747Y75648D01*
X47755Y75654D01*
X47756Y75655D01*
X47757Y75655D01*
X47765Y75660D01*
X47774Y75666D01*
X47775Y75667D01*
X47776Y75667D01*
X47785Y75672D01*
X47793Y75676D01*
X47795Y75677D01*
X47796Y75677D01*
X47805Y75681D01*
X47814Y75685D01*
X47815Y75685D01*
X47816Y75686D01*
X47826Y75689D01*
X47835Y75692D01*
X47836Y75692D01*
X47837Y75693D01*
X47847Y75695D01*
X47857Y75697D01*
X47858Y75697D01*
X47859Y75697D01*
X47868Y75699D01*
X47879Y75700D01*
X47880Y75700D01*
X47881Y75700D01*
X47891Y75701D01*
X47901Y75701D01*
X47902Y75701D01*
X47903Y75701D01*
X47913Y75701D01*
D02*
G37*
G36*
X45380Y75443D02*
X45383Y75443D01*
X45392Y75443D01*
X45400Y75442D01*
X45403Y75442D01*
X45405Y75442D01*
X45414Y75440D01*
X45422Y75439D01*
X45425Y75439D01*
X45427Y75438D01*
X45436Y75436D01*
X45444Y75434D01*
X45446Y75434D01*
X45448Y75433D01*
X45457Y75430D01*
X45465Y75428D01*
X45467Y75427D01*
X45469Y75426D01*
X45477Y75423D01*
X45486Y75419D01*
X45488Y75418D01*
X45490Y75417D01*
X45498Y75413D01*
X45505Y75409D01*
X45507Y75408D01*
X45509Y75407D01*
X45517Y75402D01*
X45524Y75397D01*
X45526Y75396D01*
X45528Y75394D01*
X45535Y75389D01*
X45542Y75384D01*
X45543Y75382D01*
X45545Y75381D01*
X45551Y75375D01*
X45558Y75369D01*
X45560Y75367D01*
X45561Y75365D01*
X45567Y75359D01*
X45573Y75352D01*
X45574Y75350D01*
X45576Y75349D01*
X45581Y75342D01*
X45586Y75335D01*
X45588Y75333D01*
X45589Y75331D01*
X45594Y75323D01*
X45598Y75316D01*
X45599Y75314D01*
X45601Y75312D01*
X45604Y75304D01*
X45609Y75296D01*
X45609Y75294D01*
X45610Y75292D01*
X45614Y75284D01*
X45617Y75276D01*
X45618Y75274D01*
X45619Y75272D01*
X45621Y75263D01*
X45624Y75255D01*
X45624Y75253D01*
X45625Y75250D01*
X45627Y75241D01*
X45629Y75233D01*
X45629Y75231D01*
X45629Y75229D01*
X45630Y75220D01*
X45631Y75211D01*
X45632Y75209D01*
X45632Y75206D01*
X45632Y75198D01*
X45632Y75189D01*
Y74811D01*
X45632Y74802D01*
X45632Y74794D01*
X45632Y74791D01*
X45631Y74789D01*
X45630Y74780D01*
X45629Y74771D01*
X45629Y74769D01*
X45629Y74767D01*
X45627Y74758D01*
X45625Y74750D01*
X45624Y74748D01*
X45624Y74745D01*
X45621Y74737D01*
X45619Y74728D01*
X45618Y74726D01*
X45617Y74724D01*
X45614Y74716D01*
X45610Y74708D01*
X45609Y74706D01*
X45609Y74704D01*
X45604Y74696D01*
X45601Y74688D01*
X45599Y74686D01*
X45598Y74684D01*
X45594Y74677D01*
X45589Y74669D01*
X45588Y74667D01*
X45586Y74665D01*
X45581Y74658D01*
X45576Y74651D01*
X45574Y74649D01*
X45573Y74648D01*
X45567Y74641D01*
X45561Y74635D01*
X45560Y74633D01*
X45558Y74631D01*
X45551Y74625D01*
X45545Y74619D01*
X45543Y74618D01*
X45542Y74616D01*
X45535Y74611D01*
X45528Y74605D01*
X45526Y74604D01*
X45524Y74603D01*
X45517Y74598D01*
X45509Y74593D01*
X45507Y74592D01*
X45505Y74591D01*
X45498Y74587D01*
X45490Y74583D01*
X45488Y74582D01*
X45486Y74581D01*
X45477Y74577D01*
X45469Y74574D01*
X45467Y74573D01*
X45465Y74572D01*
X45457Y74570D01*
X45448Y74567D01*
X45446Y74566D01*
X45444Y74566D01*
X45436Y74564D01*
X45427Y74562D01*
X45425Y74561D01*
X45422Y74561D01*
X45414Y74560D01*
X45405Y74558D01*
X45403Y74558D01*
X45400Y74558D01*
X45392Y74557D01*
X45383Y74557D01*
X45380Y74557D01*
X45378Y74557D01*
X45369Y74557D01*
X45361Y74557D01*
X45358Y74558D01*
X45356Y74558D01*
X45347Y74559D01*
X45339Y74560D01*
X45336Y74560D01*
X45334Y74561D01*
X45326Y74563D01*
X45317Y74564D01*
X45315Y74565D01*
X45312Y74566D01*
X45304Y74568D01*
X45296Y74571D01*
X45293Y74572D01*
X45291Y74572D01*
X45283Y74576D01*
X45275Y74579D01*
X45273Y74580D01*
X45271Y74581D01*
X45263Y74585D01*
X45255Y74589D01*
X45253Y74590D01*
X45251Y74591D01*
X45245Y74595D01*
X45243Y74595D01*
X45219Y74600D01*
X45185Y74605D01*
X45078Y74613D01*
X44845Y74619D01*
X44837Y74619D01*
X44829Y74620D01*
X44826Y74620D01*
X44823Y74620D01*
X44815Y74622D01*
X44807Y74623D01*
X44804Y74623D01*
X44801Y74624D01*
X44793Y74626D01*
X44785Y74627D01*
X44782Y74628D01*
X44780Y74629D01*
X44772Y74632D01*
X44764Y74634D01*
X44761Y74635D01*
X44759Y74636D01*
X44751Y74639D01*
X44744Y74643D01*
X44741Y74644D01*
X44738Y74645D01*
X44731Y74649D01*
X44724Y74653D01*
X44721Y74654D01*
X44719Y74656D01*
X44712Y74660D01*
X44705Y74665D01*
X44703Y74667D01*
X44700Y74668D01*
X44694Y74673D01*
X44688Y74678D01*
X44685Y74680D01*
X44683Y74682D01*
X44677Y74688D01*
X44671Y74693D01*
X44669Y74695D01*
X44667Y74697D01*
X44662Y74704D01*
X44656Y74710D01*
X44654Y74712D01*
X44653Y74714D01*
X44648Y74721D01*
X44643Y74727D01*
X44641Y74730D01*
X44639Y74732D01*
X44635Y74739D01*
X44631Y74746D01*
X44629Y74748D01*
X44628Y74751D01*
X44624Y74758D01*
X44621Y74766D01*
X44619Y74768D01*
X44618Y74771D01*
X44615Y74779D01*
X44612Y74786D01*
X44611Y74789D01*
X44610Y74792D01*
X44608Y74799D01*
X44605Y74807D01*
X44605Y74810D01*
X44604Y74813D01*
X44602Y74821D01*
X44601Y74829D01*
X44600Y74832D01*
X44600Y74835D01*
X44599Y74843D01*
X44598Y74851D01*
X44598Y74854D01*
X44597Y74857D01*
X44597Y74865D01*
X44597Y74873D01*
Y75127D01*
X44597Y75137D01*
X44598Y75147D01*
X44598Y75148D01*
X44598Y75149D01*
X44599Y75159D01*
X44600Y75169D01*
X44600Y75170D01*
X44601Y75171D01*
X44603Y75181D01*
X44605Y75191D01*
X44605Y75192D01*
X44605Y75193D01*
X44608Y75202D01*
X44611Y75212D01*
X44612Y75213D01*
X44612Y75214D01*
X44616Y75223D01*
X44620Y75233D01*
X44620Y75234D01*
X44621Y75234D01*
X44625Y75243D01*
X44630Y75253D01*
X44630Y75253D01*
X44631Y75254D01*
X44636Y75263D01*
X44642Y75271D01*
X44642Y75272D01*
X44643Y75273D01*
X44649Y75281D01*
X44655Y75289D01*
X44656Y75290D01*
X44656Y75290D01*
X44663Y75298D01*
X44670Y75305D01*
X44671Y75306D01*
X44671Y75307D01*
X44679Y75314D01*
X44686Y75321D01*
X44687Y75321D01*
X44688Y75322D01*
X44696Y75328D01*
X44704Y75334D01*
X44704Y75335D01*
X44705Y75335D01*
X44714Y75341D01*
X44722Y75346D01*
X44723Y75347D01*
X44724Y75347D01*
X44733Y75352D01*
X44742Y75357D01*
X44743Y75357D01*
X44744Y75357D01*
X44753Y75361D01*
X44762Y75365D01*
X44763Y75366D01*
X44764Y75366D01*
X44774Y75369D01*
X44783Y75372D01*
X44784Y75372D01*
X44785Y75373D01*
X44795Y75375D01*
X44805Y75377D01*
X44806Y75377D01*
X44807Y75377D01*
X44817Y75379D01*
X44827Y75380D01*
X44828Y75380D01*
X44829Y75380D01*
X44839Y75381D01*
X44849Y75381D01*
X44930Y75382D01*
X45228Y75402D01*
X45243Y75405D01*
X45245Y75405D01*
X45251Y75409D01*
X45253Y75410D01*
X45255Y75411D01*
X45263Y75415D01*
X45271Y75419D01*
X45273Y75420D01*
X45275Y75421D01*
X45283Y75424D01*
X45291Y75428D01*
X45293Y75428D01*
X45296Y75429D01*
X45304Y75432D01*
X45312Y75434D01*
X45315Y75435D01*
X45317Y75436D01*
X45326Y75437D01*
X45334Y75439D01*
X45336Y75440D01*
X45339Y75440D01*
X45347Y75441D01*
X45356Y75442D01*
X45358Y75442D01*
X45361Y75442D01*
X45369Y75443D01*
X45378Y75443D01*
X45380Y75443D01*
D02*
G37*
G36*
X42009Y75547D02*
X42014Y75547D01*
X42020Y75547D01*
X42026Y75546D01*
X42031Y75546D01*
X42036Y75545D01*
X42042Y75544D01*
X42048Y75543D01*
X42053Y75542D01*
X42058Y75542D01*
X42064Y75540D01*
X42070Y75539D01*
X42074Y75537D01*
X42079Y75536D01*
X42085Y75534D01*
X42091Y75532D01*
X42095Y75530D01*
X42100Y75528D01*
X42106Y75526D01*
X42111Y75523D01*
X42116Y75521D01*
X42120Y75519D01*
X42125Y75516D01*
X42162Y75513D01*
X42306Y75510D01*
X42314Y75510D01*
X42322Y75509D01*
X42325Y75509D01*
X42328Y75509D01*
X42336Y75507D01*
X42344Y75506D01*
X42347Y75506D01*
X42350Y75505D01*
X42358Y75503D01*
X42366Y75502D01*
X42368Y75501D01*
X42371Y75500D01*
X42379Y75497D01*
X42387Y75495D01*
X42390Y75494D01*
X42392Y75493D01*
X42400Y75490D01*
X42407Y75486D01*
X42410Y75485D01*
X42412Y75484D01*
X42420Y75480D01*
X42427Y75476D01*
X42430Y75475D01*
X42432Y75473D01*
X42439Y75469D01*
X42446Y75464D01*
X42448Y75463D01*
X42450Y75461D01*
X42457Y75456D01*
X42463Y75451D01*
X42465Y75449D01*
X42468Y75447D01*
X42472Y75443D01*
X42473Y75443D01*
X42482Y75443D01*
X42490Y75442D01*
X42493Y75442D01*
X42495Y75442D01*
X42504Y75441D01*
X42512Y75440D01*
X42515Y75440D01*
X42517Y75439D01*
X42525Y75437D01*
X42534Y75436D01*
X42536Y75435D01*
X42539Y75434D01*
X42547Y75432D01*
X42555Y75429D01*
X42558Y75428D01*
X42560Y75428D01*
X42568Y75424D01*
X42576Y75421D01*
X42578Y75420D01*
X42580Y75419D01*
X42588Y75415D01*
X42596Y75411D01*
X42598Y75410D01*
X42600Y75409D01*
X42606Y75405D01*
X42608Y75405D01*
X42632Y75400D01*
X42666Y75395D01*
X42773Y75387D01*
X43006Y75381D01*
X43014Y75381D01*
X43022Y75380D01*
X43025Y75380D01*
X43028Y75380D01*
X43036Y75378D01*
X43044Y75377D01*
X43047Y75377D01*
X43050Y75376D01*
X43058Y75374D01*
X43066Y75373D01*
X43069Y75372D01*
X43071Y75371D01*
X43079Y75368D01*
X43087Y75366D01*
X43090Y75365D01*
X43092Y75364D01*
X43100Y75361D01*
X43107Y75357D01*
X43110Y75356D01*
X43113Y75355D01*
X43120Y75351D01*
X43127Y75347D01*
X43130Y75346D01*
X43132Y75344D01*
X43139Y75340D01*
X43146Y75335D01*
X43148Y75333D01*
X43151Y75332D01*
X43157Y75327D01*
X43163Y75322D01*
X43166Y75320D01*
X43168Y75318D01*
X43174Y75312D01*
X43180Y75307D01*
X43182Y75305D01*
X43184Y75303D01*
X43189Y75296D01*
X43195Y75290D01*
X43197Y75288D01*
X43198Y75286D01*
X43203Y75279D01*
X43208Y75273D01*
X43210Y75270D01*
X43212Y75268D01*
X43216Y75261D01*
X43220Y75254D01*
X43222Y75252D01*
X43223Y75249D01*
X43227Y75242D01*
X43230Y75234D01*
X43232Y75232D01*
X43233Y75229D01*
X43236Y75221D01*
X43239Y75214D01*
X43240Y75211D01*
X43241Y75208D01*
X43243Y75201D01*
X43246Y75193D01*
X43246Y75190D01*
X43247Y75187D01*
X43249Y75179D01*
X43250Y75171D01*
X43251Y75168D01*
X43251Y75165D01*
X43252Y75157D01*
X43253Y75149D01*
X43253Y75146D01*
X43254Y75143D01*
X43254Y75135D01*
X43254Y75127D01*
Y74873D01*
X43254Y74863D01*
X43253Y74853D01*
X43253Y74852D01*
X43253Y74851D01*
X43252Y74841D01*
X43251Y74831D01*
X43250Y74830D01*
X43250Y74829D01*
X43248Y74819D01*
X43246Y74809D01*
X43246Y74808D01*
X43246Y74807D01*
X43243Y74798D01*
X43240Y74788D01*
X43239Y74787D01*
X43239Y74786D01*
X43235Y74777D01*
X43231Y74767D01*
X43231Y74766D01*
X43230Y74766D01*
X43226Y74757D01*
X43221Y74747D01*
X43221Y74747D01*
X43220Y74746D01*
X43215Y74737D01*
X43209Y74729D01*
X43209Y74728D01*
X43208Y74727D01*
X43202Y74719D01*
X43196Y74711D01*
X43195Y74710D01*
X43195Y74710D01*
X43188Y74702D01*
X43181Y74694D01*
X43180Y74694D01*
X43180Y74693D01*
X43172Y74686D01*
X43165Y74679D01*
X43164Y74679D01*
X43163Y74678D01*
X43155Y74672D01*
X43147Y74666D01*
X43147Y74665D01*
X43146Y74665D01*
X43137Y74659D01*
X43129Y74654D01*
X43128Y74653D01*
X43127Y74653D01*
X43118Y74648D01*
X43109Y74643D01*
X43108Y74643D01*
X43107Y74643D01*
X43098Y74639D01*
X43089Y74635D01*
X43088Y74634D01*
X43087Y74634D01*
X43077Y74631D01*
X43068Y74628D01*
X43067Y74628D01*
X43066Y74627D01*
X43056Y74625D01*
X43046Y74623D01*
X43045Y74623D01*
X43044Y74623D01*
X43034Y74621D01*
X43024Y74620D01*
X43023Y74620D01*
X43022Y74620D01*
X43012Y74619D01*
X43002Y74619D01*
X42921Y74618D01*
X42623Y74598D01*
X42608Y74595D01*
X42606Y74595D01*
X42600Y74591D01*
X42598Y74590D01*
X42596Y74589D01*
X42588Y74585D01*
X42580Y74581D01*
X42578Y74580D01*
X42576Y74579D01*
X42568Y74576D01*
X42560Y74572D01*
X42558Y74572D01*
X42555Y74571D01*
X42547Y74568D01*
X42539Y74566D01*
X42536Y74565D01*
X42534Y74564D01*
X42525Y74563D01*
X42517Y74561D01*
X42515Y74560D01*
X42512Y74560D01*
X42504Y74559D01*
X42495Y74558D01*
X42493Y74558D01*
X42490Y74557D01*
X42482Y74557D01*
X42473Y74557D01*
X42472Y74557D01*
X42465Y74550D01*
X42464Y74550D01*
X42463Y74549D01*
X42455Y74543D01*
X42447Y74537D01*
X42446Y74536D01*
X42446Y74536D01*
X42437Y74530D01*
X42429Y74525D01*
X42428Y74524D01*
X42427Y74524D01*
X42418Y74519D01*
X42409Y74514D01*
X42408Y74514D01*
X42407Y74514D01*
X42398Y74510D01*
X42389Y74506D01*
X42388Y74505D01*
X42387Y74505D01*
X42377Y74502D01*
X42367Y74499D01*
X42367Y74499D01*
X42366Y74498D01*
X42356Y74496D01*
X42346Y74494D01*
X42345Y74494D01*
X42344Y74494D01*
X42334Y74492D01*
X42324Y74491D01*
X42323Y74491D01*
X42322Y74491D01*
X42312Y74490D01*
X42302Y74490D01*
X42253Y74489D01*
X42119Y74480D01*
X42116Y74479D01*
X42111Y74477D01*
X42106Y74474D01*
X42100Y74472D01*
X42095Y74470D01*
X42091Y74468D01*
X42085Y74466D01*
X42079Y74464D01*
X42074Y74463D01*
X42070Y74461D01*
X42064Y74460D01*
X42058Y74458D01*
X42053Y74458D01*
X42048Y74457D01*
X42042Y74456D01*
X42036Y74455D01*
X42031Y74454D01*
X42026Y74454D01*
X42020Y74453D01*
X42014Y74453D01*
X42009Y74453D01*
X42004Y74453D01*
X41998Y74453D01*
X41991Y74453D01*
X41987Y74453D01*
X41982Y74454D01*
X41976Y74454D01*
X41969Y74455D01*
X41965Y74456D01*
X41960Y74457D01*
X41954Y74458D01*
X41947Y74459D01*
X41943Y74460D01*
X41938Y74461D01*
X41932Y74463D01*
X41926Y74465D01*
X41922Y74467D01*
X41917Y74468D01*
X41911Y74470D01*
X41905Y74473D01*
X41901Y74475D01*
X41896Y74477D01*
X41891Y74479D01*
X41885Y74482D01*
X41881Y74485D01*
X41877Y74487D01*
X41871Y74490D01*
X41866Y74493D01*
X41862Y74496D01*
X41858Y74499D01*
X41853Y74503D01*
X41848Y74506D01*
X41844Y74509D01*
X41840Y74512D01*
X41836Y74516D01*
X41831Y74520D01*
X41828Y74524D01*
X41824Y74527D01*
X41820Y74532D01*
X41815Y74536D01*
X41812Y74540D01*
X41809Y74544D01*
X41805Y74549D01*
X41801Y74553D01*
X41799Y74557D01*
X41796Y74561D01*
X41792Y74566D01*
X41789Y74572D01*
X41786Y74576D01*
X41784Y74580D01*
X41781Y74585D01*
X41778Y74591D01*
X41776Y74595D01*
X41773Y74600D01*
X41771Y74605D01*
X41768Y74611D01*
X41767Y74616D01*
X41765Y74620D01*
X41763Y74626D01*
X41761Y74632D01*
X41760Y74637D01*
X41758Y74641D01*
X41757Y74647D01*
X41755Y74653D01*
X41755Y74658D01*
X41754Y74663D01*
X41753Y74669D01*
X41752Y74675D01*
X41751Y74680D01*
X41751Y74685D01*
X41750Y74691D01*
X41750Y74697D01*
X41750Y74702D01*
X41750Y74707D01*
Y75293D01*
X41750Y75298D01*
X41750Y75303D01*
X41750Y75309D01*
X41751Y75315D01*
X41751Y75320D01*
X41752Y75325D01*
X41753Y75331D01*
X41754Y75337D01*
X41755Y75342D01*
X41755Y75347D01*
X41757Y75353D01*
X41758Y75359D01*
X41760Y75363D01*
X41761Y75368D01*
X41763Y75374D01*
X41765Y75380D01*
X41767Y75384D01*
X41768Y75389D01*
X41771Y75395D01*
X41773Y75400D01*
X41776Y75405D01*
X41778Y75409D01*
X41781Y75415D01*
X41784Y75420D01*
X41786Y75424D01*
X41789Y75428D01*
X41792Y75434D01*
X41796Y75439D01*
X41799Y75443D01*
X41801Y75447D01*
X41805Y75452D01*
X41809Y75456D01*
X41812Y75460D01*
X41815Y75464D01*
X41820Y75468D01*
X41824Y75473D01*
X41828Y75476D01*
X41831Y75480D01*
X41836Y75484D01*
X41840Y75488D01*
X41844Y75491D01*
X41848Y75494D01*
X41853Y75497D01*
X41858Y75501D01*
X41862Y75504D01*
X41866Y75507D01*
X41871Y75510D01*
X41877Y75513D01*
X41881Y75515D01*
X41885Y75518D01*
X41891Y75521D01*
X41896Y75523D01*
X41901Y75525D01*
X41905Y75527D01*
X41911Y75530D01*
X41917Y75532D01*
X41922Y75533D01*
X41926Y75535D01*
X41932Y75537D01*
X41938Y75539D01*
X41943Y75540D01*
X41947Y75541D01*
X41954Y75542D01*
X41960Y75543D01*
X41965Y75544D01*
X41969Y75545D01*
X41976Y75546D01*
X41982Y75546D01*
X41987Y75547D01*
X41991Y75547D01*
X41998Y75547D01*
X42004Y75547D01*
X42009Y75547D01*
D02*
G37*
G36*
X38348Y75701D02*
X38349Y75701D01*
X38359Y75701D01*
X38369Y75700D01*
X38370Y75700D01*
X38371Y75700D01*
X38382Y75699D01*
X38391Y75697D01*
X38392Y75697D01*
X38393Y75697D01*
X38403Y75695D01*
X38413Y75693D01*
X38414Y75692D01*
X38415Y75692D01*
X38424Y75689D01*
X38434Y75686D01*
X38435Y75685D01*
X38436Y75685D01*
X38445Y75681D01*
X38454Y75677D01*
X38455Y75677D01*
X38457Y75676D01*
X38465Y75672D01*
X38474Y75667D01*
X38475Y75667D01*
X38476Y75666D01*
X38484Y75661D01*
X38493Y75655D01*
X38494Y75655D01*
X38495Y75654D01*
X38502Y75648D01*
X38510Y75642D01*
X38511Y75641D01*
X38512Y75640D01*
X38519Y75634D01*
X38527Y75627D01*
X38528Y75626D01*
X38528Y75625D01*
X38535Y75618D01*
X38542Y75610D01*
X38542Y75609D01*
X38543Y75609D01*
X38549Y75601D01*
X38557Y75599D01*
X38610Y75590D01*
X38678Y75583D01*
X38869Y75573D01*
X38985Y75572D01*
X38994Y75571D01*
X39004Y75571D01*
X39005Y75571D01*
X39007Y75571D01*
X39017Y75569D01*
X39026Y75568D01*
X39027Y75568D01*
X39029Y75567D01*
X39038Y75565D01*
X39048Y75563D01*
X39049Y75563D01*
X39050Y75562D01*
X39060Y75559D01*
X39069Y75556D01*
X39070Y75556D01*
X39071Y75555D01*
X39080Y75552D01*
X39089Y75548D01*
X39091Y75547D01*
X39092Y75547D01*
X39101Y75542D01*
X39109Y75538D01*
X39110Y75537D01*
X39111Y75536D01*
X39120Y75531D01*
X39128Y75526D01*
X39129Y75525D01*
X39130Y75524D01*
X39138Y75518D01*
X39145Y75512D01*
X39146Y75511D01*
X39147Y75510D01*
X39155Y75504D01*
X39162Y75497D01*
X39163Y75496D01*
X39164Y75495D01*
X39170Y75488D01*
X39177Y75481D01*
X39178Y75480D01*
X39178Y75479D01*
X39184Y75471D01*
X39190Y75463D01*
X39191Y75462D01*
X39192Y75461D01*
X39197Y75453D01*
X39202Y75445D01*
X39203Y75443D01*
X39203Y75442D01*
X39208Y75433D01*
X39212Y75425D01*
X39213Y75424D01*
X39214Y75422D01*
X39217Y75413D01*
X39221Y75404D01*
X39221Y75403D01*
X39222Y75402D01*
X39225Y75393D01*
X39228Y75383D01*
X39228Y75382D01*
X39228Y75381D01*
X39230Y75371D01*
X39232Y75362D01*
X39233Y75360D01*
X39233Y75359D01*
X39234Y75349D01*
X39235Y75340D01*
X39235Y75338D01*
X39235Y75337D01*
X39236Y75327D01*
X39236Y75317D01*
Y74683D01*
X39236Y74673D01*
X39235Y74663D01*
X39235Y74662D01*
X39235Y74660D01*
X39234Y74651D01*
X39233Y74641D01*
X39233Y74640D01*
X39232Y74638D01*
X39230Y74629D01*
X39228Y74619D01*
X39228Y74618D01*
X39228Y74617D01*
X39225Y74607D01*
X39222Y74598D01*
X39221Y74597D01*
X39221Y74596D01*
X39217Y74587D01*
X39214Y74578D01*
X39213Y74576D01*
X39212Y74575D01*
X39208Y74566D01*
X39203Y74558D01*
X39203Y74557D01*
X39202Y74555D01*
X39197Y74547D01*
X39192Y74539D01*
X39191Y74538D01*
X39190Y74537D01*
X39184Y74529D01*
X39178Y74521D01*
X39178Y74520D01*
X39177Y74519D01*
X39170Y74512D01*
X39164Y74505D01*
X39163Y74504D01*
X39162Y74503D01*
X39155Y74496D01*
X39147Y74490D01*
X39146Y74489D01*
X39145Y74488D01*
X39138Y74482D01*
X39130Y74476D01*
X39129Y74475D01*
X39128Y74474D01*
X39120Y74469D01*
X39111Y74464D01*
X39110Y74463D01*
X39109Y74462D01*
X39100Y74458D01*
X39092Y74453D01*
X39091Y74453D01*
X39089Y74452D01*
X39080Y74448D01*
X39071Y74445D01*
X39070Y74444D01*
X39069Y74444D01*
X39060Y74441D01*
X39050Y74438D01*
X39049Y74437D01*
X39048Y74437D01*
X39038Y74435D01*
X39029Y74433D01*
X39027Y74432D01*
X39026Y74432D01*
X39017Y74431D01*
X39007Y74429D01*
X39005Y74429D01*
X39004Y74429D01*
X38994Y74429D01*
X38985Y74428D01*
X38871Y74427D01*
X38605Y74409D01*
X38557Y74401D01*
X38549Y74399D01*
X38543Y74391D01*
X38542Y74391D01*
X38542Y74390D01*
X38535Y74382D01*
X38528Y74375D01*
X38528Y74374D01*
X38527Y74373D01*
X38519Y74367D01*
X38512Y74360D01*
X38511Y74359D01*
X38510Y74358D01*
X38503Y74352D01*
X38495Y74346D01*
X38494Y74345D01*
X38493Y74345D01*
X38485Y74340D01*
X38476Y74334D01*
X38475Y74333D01*
X38474Y74333D01*
X38465Y74328D01*
X38457Y74324D01*
X38455Y74323D01*
X38454Y74323D01*
X38445Y74319D01*
X38436Y74315D01*
X38435Y74315D01*
X38434Y74314D01*
X38424Y74311D01*
X38415Y74308D01*
X38414Y74308D01*
X38413Y74307D01*
X38403Y74305D01*
X38393Y74303D01*
X38392Y74303D01*
X38391Y74303D01*
X38382Y74301D01*
X38371Y74300D01*
X38370Y74300D01*
X38369Y74300D01*
X38359Y74299D01*
X38349Y74299D01*
X38348Y74299D01*
X38347Y74299D01*
X38337Y74299D01*
X38327Y74300D01*
X38326Y74300D01*
X38325Y74300D01*
X38315Y74301D01*
X38305Y74302D01*
X38304Y74303D01*
X38303Y74303D01*
X38293Y74305D01*
X38283Y74307D01*
X38282Y74307D01*
X38281Y74307D01*
X38272Y74310D01*
X38262Y74313D01*
X38261Y74314D01*
X38260Y74314D01*
X38251Y74318D01*
X38242Y74322D01*
X38241Y74322D01*
X38239Y74323D01*
X38231Y74327D01*
X38222Y74332D01*
X38221Y74332D01*
X38220Y74333D01*
X38212Y74338D01*
X38203Y74343D01*
X38202Y74344D01*
X38201Y74345D01*
X38193Y74351D01*
X38185Y74357D01*
X38184Y74358D01*
X38184Y74358D01*
X38176Y74365D01*
X38169Y74372D01*
X38168Y74372D01*
X38167Y74373D01*
X38161Y74381D01*
X38154Y74388D01*
X38153Y74389D01*
X38152Y74390D01*
X38146Y74397D01*
X38140Y74405D01*
X38139Y74406D01*
X38139Y74407D01*
X38133Y74415D01*
X38128Y74424D01*
X38127Y74425D01*
X38127Y74426D01*
X38122Y74435D01*
X38118Y74443D01*
X38117Y74445D01*
X38117Y74446D01*
X38113Y74455D01*
X38109Y74464D01*
X38108Y74465D01*
X38108Y74466D01*
X38105Y74476D01*
X38102Y74485D01*
X38102Y74486D01*
X38101Y74487D01*
X38099Y74497D01*
X38097Y74507D01*
X38097Y74508D01*
X38097Y74509D01*
X38095Y74518D01*
X38094Y74529D01*
X38094Y74530D01*
X38094Y74531D01*
X38093Y74541D01*
X38093Y74551D01*
X38093Y74552D01*
X38093Y74553D01*
Y75447D01*
X38093Y75448D01*
X38093Y75449D01*
X38093Y75459D01*
X38094Y75469D01*
X38094Y75470D01*
X38094Y75471D01*
X38095Y75481D01*
X38097Y75491D01*
X38097Y75492D01*
X38097Y75493D01*
X38099Y75503D01*
X38101Y75513D01*
X38102Y75514D01*
X38102Y75515D01*
X38105Y75524D01*
X38108Y75534D01*
X38108Y75535D01*
X38109Y75536D01*
X38113Y75545D01*
X38117Y75554D01*
X38117Y75555D01*
X38118Y75557D01*
X38122Y75565D01*
X38127Y75574D01*
X38127Y75575D01*
X38128Y75576D01*
X38133Y75584D01*
X38139Y75593D01*
X38139Y75594D01*
X38140Y75595D01*
X38146Y75602D01*
X38152Y75610D01*
X38153Y75611D01*
X38154Y75612D01*
X38160Y75619D01*
X38167Y75627D01*
X38168Y75628D01*
X38169Y75628D01*
X38176Y75635D01*
X38184Y75642D01*
X38184Y75642D01*
X38185Y75643D01*
X38193Y75649D01*
X38201Y75655D01*
X38202Y75656D01*
X38203Y75657D01*
X38211Y75662D01*
X38220Y75667D01*
X38221Y75668D01*
X38222Y75668D01*
X38231Y75673D01*
X38239Y75677D01*
X38241Y75678D01*
X38242Y75678D01*
X38251Y75682D01*
X38260Y75686D01*
X38261Y75686D01*
X38262Y75687D01*
X38272Y75690D01*
X38281Y75693D01*
X38282Y75693D01*
X38283Y75693D01*
X38293Y75695D01*
X38303Y75697D01*
X38304Y75697D01*
X38305Y75698D01*
X38315Y75699D01*
X38325Y75700D01*
X38326Y75700D01*
X38327Y75700D01*
X38337Y75701D01*
X38347Y75701D01*
X38348Y75701D01*
D02*
G37*
G36*
X50098Y75701D02*
X50099Y75701D01*
X50109Y75701D01*
X50119Y75700D01*
X50120Y75700D01*
X50121Y75700D01*
X50131Y75699D01*
X50141Y75697D01*
X50142Y75697D01*
X50143Y75697D01*
X50153Y75695D01*
X50163Y75693D01*
X50164Y75692D01*
X50165Y75692D01*
X50174Y75689D01*
X50184Y75686D01*
X50185Y75685D01*
X50186Y75685D01*
X50195Y75681D01*
X50204Y75677D01*
X50205Y75677D01*
X50207Y75676D01*
X50215Y75672D01*
X50224Y75667D01*
X50225Y75666D01*
X50226Y75666D01*
X50234Y75661D01*
X50243Y75655D01*
X50244Y75654D01*
X50245Y75654D01*
X50252Y75648D01*
X50260Y75642D01*
X50261Y75641D01*
X50262Y75640D01*
X50269Y75633D01*
X50277Y75627D01*
X50278Y75626D01*
X50278Y75625D01*
X50285Y75618D01*
X50292Y75610D01*
X50292Y75609D01*
X50293Y75609D01*
X50299Y75601D01*
X50307Y75599D01*
X50360Y75590D01*
X50428Y75583D01*
X50619Y75573D01*
X50735Y75572D01*
X50744Y75571D01*
X50754Y75571D01*
X50755Y75571D01*
X50757Y75571D01*
X50767Y75569D01*
X50776Y75568D01*
X50777Y75568D01*
X50779Y75567D01*
X50788Y75565D01*
X50798Y75563D01*
X50799Y75563D01*
X50800Y75562D01*
X50810Y75559D01*
X50819Y75556D01*
X50820Y75556D01*
X50821Y75555D01*
X50830Y75552D01*
X50839Y75548D01*
X50841Y75547D01*
X50842Y75547D01*
X50850Y75542D01*
X50859Y75538D01*
X50860Y75537D01*
X50861Y75536D01*
X50870Y75531D01*
X50878Y75526D01*
X50879Y75525D01*
X50880Y75524D01*
X50888Y75518D01*
X50895Y75512D01*
X50896Y75511D01*
X50897Y75510D01*
X50905Y75504D01*
X50912Y75497D01*
X50913Y75496D01*
X50914Y75495D01*
X50920Y75488D01*
X50927Y75481D01*
X50928Y75480D01*
X50928Y75479D01*
X50934Y75471D01*
X50940Y75463D01*
X50941Y75462D01*
X50942Y75461D01*
X50947Y75453D01*
X50952Y75445D01*
X50953Y75443D01*
X50953Y75442D01*
X50958Y75434D01*
X50962Y75425D01*
X50963Y75424D01*
X50964Y75422D01*
X50967Y75413D01*
X50971Y75404D01*
X50971Y75403D01*
X50972Y75402D01*
X50975Y75393D01*
X50978Y75383D01*
X50978Y75382D01*
X50978Y75381D01*
X50980Y75371D01*
X50982Y75362D01*
X50982Y75360D01*
X50983Y75359D01*
X50984Y75349D01*
X50985Y75340D01*
X50985Y75338D01*
X50985Y75337D01*
X50986Y75327D01*
X50986Y75317D01*
Y74683D01*
X50986Y74673D01*
X50985Y74663D01*
X50985Y74662D01*
X50985Y74660D01*
X50984Y74651D01*
X50983Y74641D01*
X50982Y74640D01*
X50982Y74638D01*
X50980Y74629D01*
X50978Y74619D01*
X50978Y74618D01*
X50978Y74617D01*
X50975Y74607D01*
X50972Y74598D01*
X50971Y74597D01*
X50971Y74596D01*
X50967Y74587D01*
X50964Y74578D01*
X50963Y74576D01*
X50962Y74575D01*
X50958Y74566D01*
X50953Y74558D01*
X50953Y74557D01*
X50952Y74555D01*
X50947Y74547D01*
X50942Y74539D01*
X50941Y74538D01*
X50940Y74537D01*
X50934Y74529D01*
X50928Y74521D01*
X50928Y74520D01*
X50927Y74519D01*
X50920Y74512D01*
X50914Y74505D01*
X50913Y74504D01*
X50912Y74503D01*
X50905Y74496D01*
X50897Y74490D01*
X50896Y74489D01*
X50895Y74488D01*
X50888Y74482D01*
X50880Y74476D01*
X50879Y74475D01*
X50878Y74474D01*
X50870Y74469D01*
X50861Y74464D01*
X50860Y74463D01*
X50859Y74462D01*
X50851Y74458D01*
X50842Y74453D01*
X50841Y74453D01*
X50839Y74452D01*
X50830Y74448D01*
X50821Y74445D01*
X50820Y74444D01*
X50819Y74444D01*
X50810Y74441D01*
X50800Y74438D01*
X50799Y74437D01*
X50798Y74437D01*
X50788Y74435D01*
X50779Y74433D01*
X50777Y74432D01*
X50776Y74432D01*
X50767Y74431D01*
X50757Y74429D01*
X50755Y74429D01*
X50754Y74429D01*
X50744Y74429D01*
X50735Y74428D01*
X50621Y74427D01*
X50355Y74409D01*
X50307Y74401D01*
X50299Y74399D01*
X50293Y74391D01*
X50292Y74391D01*
X50292Y74390D01*
X50285Y74382D01*
X50278Y74375D01*
X50278Y74374D01*
X50277Y74373D01*
X50269Y74367D01*
X50262Y74360D01*
X50261Y74359D01*
X50260Y74358D01*
X50253Y74352D01*
X50245Y74346D01*
X50244Y74345D01*
X50243Y74345D01*
X50235Y74340D01*
X50226Y74334D01*
X50225Y74333D01*
X50224Y74333D01*
X50215Y74328D01*
X50207Y74324D01*
X50205Y74323D01*
X50204Y74323D01*
X50195Y74319D01*
X50186Y74315D01*
X50185Y74315D01*
X50184Y74314D01*
X50174Y74311D01*
X50165Y74308D01*
X50164Y74308D01*
X50163Y74307D01*
X50153Y74305D01*
X50143Y74303D01*
X50142Y74303D01*
X50141Y74303D01*
X50131Y74301D01*
X50121Y74300D01*
X50120Y74300D01*
X50119Y74300D01*
X50109Y74299D01*
X50099Y74299D01*
X50098Y74299D01*
X50097Y74299D01*
X50087Y74299D01*
X50077Y74300D01*
X50076Y74300D01*
X50075Y74300D01*
X50065Y74301D01*
X50055Y74302D01*
X50054Y74303D01*
X50053Y74303D01*
X50043Y74305D01*
X50033Y74307D01*
X50032Y74307D01*
X50031Y74307D01*
X50022Y74310D01*
X50012Y74313D01*
X50011Y74314D01*
X50010Y74314D01*
X50001Y74318D01*
X49992Y74322D01*
X49991Y74322D01*
X49989Y74323D01*
X49981Y74327D01*
X49972Y74332D01*
X49971Y74332D01*
X49970Y74333D01*
X49962Y74338D01*
X49953Y74343D01*
X49952Y74344D01*
X49951Y74345D01*
X49943Y74351D01*
X49935Y74357D01*
X49934Y74358D01*
X49934Y74358D01*
X49926Y74365D01*
X49919Y74372D01*
X49918Y74372D01*
X49917Y74373D01*
X49911Y74381D01*
X49904Y74388D01*
X49903Y74389D01*
X49902Y74390D01*
X49896Y74397D01*
X49890Y74405D01*
X49889Y74406D01*
X49889Y74407D01*
X49883Y74415D01*
X49878Y74424D01*
X49877Y74425D01*
X49877Y74426D01*
X49872Y74435D01*
X49868Y74443D01*
X49867Y74445D01*
X49867Y74446D01*
X49863Y74455D01*
X49859Y74464D01*
X49858Y74465D01*
X49858Y74466D01*
X49855Y74476D01*
X49852Y74485D01*
X49852Y74486D01*
X49851Y74487D01*
X49849Y74497D01*
X49847Y74507D01*
X49847Y74508D01*
X49847Y74509D01*
X49845Y74518D01*
X49844Y74529D01*
X49844Y74530D01*
X49844Y74531D01*
X49843Y74541D01*
X49843Y74551D01*
X49843Y74552D01*
X49843Y74553D01*
Y75447D01*
X49843Y75448D01*
X49843Y75449D01*
X49843Y75459D01*
X49844Y75469D01*
X49844Y75470D01*
X49844Y75471D01*
X49845Y75481D01*
X49847Y75491D01*
X49847Y75492D01*
X49847Y75493D01*
X49849Y75503D01*
X49851Y75513D01*
X49852Y75514D01*
X49852Y75515D01*
X49855Y75524D01*
X49858Y75534D01*
X49858Y75535D01*
X49859Y75536D01*
X49863Y75545D01*
X49867Y75554D01*
X49867Y75555D01*
X49868Y75557D01*
X49872Y75565D01*
X49877Y75574D01*
X49877Y75575D01*
X49878Y75576D01*
X49883Y75584D01*
X49889Y75593D01*
X49889Y75594D01*
X49890Y75595D01*
X49896Y75602D01*
X49902Y75610D01*
X49903Y75611D01*
X49904Y75612D01*
X49910Y75619D01*
X49917Y75627D01*
X49918Y75628D01*
X49919Y75628D01*
X49926Y75635D01*
X49934Y75642D01*
X49934Y75642D01*
X49935Y75643D01*
X49943Y75649D01*
X49951Y75655D01*
X49952Y75656D01*
X49953Y75657D01*
X49961Y75662D01*
X49970Y75667D01*
X49971Y75668D01*
X49972Y75668D01*
X49981Y75673D01*
X49989Y75677D01*
X49991Y75678D01*
X49992Y75678D01*
X50001Y75682D01*
X50010Y75686D01*
X50011Y75686D01*
X50012Y75687D01*
X50022Y75690D01*
X50031Y75693D01*
X50032Y75693D01*
X50033Y75693D01*
X50043Y75695D01*
X50053Y75697D01*
X50054Y75697D01*
X50055Y75698D01*
X50065Y75699D01*
X50075Y75700D01*
X50076Y75700D01*
X50077Y75700D01*
X50087Y75701D01*
X50097Y75701D01*
X50098Y75701D01*
D02*
G37*
G36*
X93000Y90500D02*
X93000Y75553D01*
X94297D01*
X94319Y75552D01*
X94341Y75550D01*
X94363Y75545D01*
X94384Y75538D01*
X94404Y75530D01*
X94424Y75519D01*
X94443Y75507D01*
X94460Y75494D01*
X94476Y75479D01*
X94491Y75463D01*
X94505Y75445D01*
X94517Y75426D01*
X94527Y75407D01*
X94536Y75386D01*
X94542Y75365D01*
X94547Y75343D01*
X94550Y75321D01*
X94551Y75299D01*
Y74701D01*
X94550Y74679D01*
X94547Y74657D01*
X94542Y74635D01*
X94536Y74614D01*
X94527Y74593D01*
X94517Y74574D01*
X94505Y74555D01*
X94491Y74537D01*
X94476Y74521D01*
X94460Y74506D01*
X94443Y74493D01*
X94424Y74481D01*
X94404Y74470D01*
X94384Y74462D01*
X94363Y74455D01*
X94341Y74450D01*
X94319Y74448D01*
X94297Y74447D01*
X93000D01*
X93000Y65500D01*
X55500D01*
X55500Y74447D01*
X53912D01*
X53890Y74448D01*
X53868Y74450D01*
X53847Y74455D01*
X53826Y74462D01*
X53805Y74470D01*
X53785Y74481D01*
X53767Y74493D01*
X53749Y74506D01*
X53733Y74521D01*
X53718Y74537D01*
X53704Y74555D01*
X53692Y74574D01*
X53682Y74593D01*
X53674Y74614D01*
X53667Y74635D01*
X53662Y74657D01*
X53659Y74679D01*
X53658Y74701D01*
Y75299D01*
X53659Y75321D01*
X53662Y75343D01*
X53667Y75365D01*
X53674Y75386D01*
X53682Y75407D01*
X53692Y75426D01*
X53704Y75445D01*
X53718Y75463D01*
X53733Y75479D01*
X53749Y75494D01*
X53767Y75507D01*
X53785Y75519D01*
X53805Y75530D01*
X53826Y75538D01*
X53847Y75545D01*
X53868Y75550D01*
X53890Y75552D01*
X53912Y75553D01*
X55500D01*
X55500Y90500D01*
X93000Y90500D01*
D02*
G37*
D14*
X34312Y72000D02*
D03*
Y78000D02*
D03*
D15*
X55500Y75000D02*
D03*
X93000D02*
D03*
D16*
X44851Y75508D02*
D03*
X43000D02*
D03*
Y75000D02*
D03*
Y74492D02*
D03*
Y73984D02*
D03*
X44851D02*
D03*
Y74492D02*
D03*
Y75000D02*
D03*
D17*
X44488Y81750D02*
D03*
X46012D02*
D03*
X47900Y86200D02*
D03*
X46500D02*
D03*
X47750Y79000D02*
D03*
X46226D02*
D03*
X49150Y80500D02*
D03*
X47750D02*
D03*
X47650Y77500D02*
D03*
X46250D02*
D03*
X43000Y80500D02*
D03*
X41600D02*
D03*
D18*
X34900Y72000D02*
D03*
Y78000D02*
D03*
D19*
X41500Y76300D02*
D03*
X46250D02*
D03*
D20*
X41500Y75000D02*
D03*
X46250D02*
D03*
D21*
X46300Y91000D02*
D03*
Y89600D02*
D03*
X44900Y91000D02*
D03*
Y89600D02*
D03*
X43000Y79024D02*
D03*
Y77500D02*
D03*
X41500D02*
D03*
Y78900D02*
D03*
D22*
X48200Y88000D02*
D03*
Y91200D02*
D03*
D23*
X49700Y75000D02*
D03*
X48300D02*
D03*
X37950Y75000D02*
D03*
X36550D02*
D03*
D24*
X43925Y74746D02*
D03*
D25*
X55300Y89575D02*
D03*
X93200Y66425D02*
D03*
Y89575D02*
D03*
X55300Y66425D02*
D03*
D26*
X39400Y77794D02*
D03*
Y72214D02*
D03*
X51900D02*
D03*
Y77794D02*
D03*
Y83374D02*
D03*
X39400D02*
D03*
X93200Y78000D02*
D03*
Y72000D02*
D03*
Y84000D02*
D03*
X55300D02*
D03*
Y72000D02*
D03*
Y78000D02*
D03*
D27*
X45650Y71064D02*
D03*
X40550D02*
D03*
X50750D02*
D03*
Y84524D02*
D03*
X45650D02*
D03*
X40550D02*
D03*
X74250Y65400D02*
D03*
X80250D02*
D03*
X68250D02*
D03*
X86250D02*
D03*
X62250D02*
D03*
Y90600D02*
D03*
X86250D02*
D03*
X68250D02*
D03*
X80250D02*
D03*
X74250D02*
D03*
D28*
X92000Y65400D02*
D03*
X56500D02*
D03*
Y90600D02*
D03*
X92000D02*
D03*
D29*
X33100Y75000D02*
D03*
D30*
X41500D02*
X42300D01*
X45551D02*
X46250D01*
D31*
X42300Y75000D02*
X43000D01*
X44851D02*
X45551D01*
D32*
X93000Y75000D02*
X97500D01*
X49700Y75000D02*
X55500D01*
X55500Y75000D01*
X46250D02*
X48300D01*
X37950Y75000D02*
X41500D01*
X33100Y75000D02*
X36550D01*
X36550Y75000D01*
D33*
X43925Y74746D02*
D03*
D34*
X41000Y91500D02*
D03*
X35500Y86500D02*
D03*
X49000Y94900D02*
D03*
X46000D02*
D03*
X97500Y69250D02*
D03*
Y80750D02*
D03*
Y72250D02*
D03*
Y77750D02*
D03*
D35*
X47500Y62100D02*
D03*
X87500Y94900D02*
D03*
X77500D02*
D03*
X67500D02*
D03*
X57500D02*
D03*
X97500Y88000D02*
D03*
X87500Y62100D02*
D03*
X77500D02*
D03*
X67500D02*
D03*
X57500D02*
D03*
D36*
X97500Y75000D02*
D03*
M02*
