G04*
G04 #@! TF.GenerationSoftware,Altium Limited,Altium Designer,21.7.2 (23)*
G04*
G04 Layer_Color=65535*
%FSLAX43Y43*%
%MOMM*%
G71*
G04*
G04 #@! TF.SameCoordinates,5998CA45-D286-49D3-9E6F-6FB49040685C*
G04*
G04*
G04 #@! TF.FilePolarity,Positive*
G04*
G01*
G75*
%ADD10C,0.252*%
%ADD11C,0.150*%
%ADD12C,0.200*%
%ADD13C,0.152*%
G36*
X50830Y68637D02*
X50849Y68630D01*
X50860Y68622D01*
X50861Y68620D01*
X50863Y68619D01*
X50871Y68611D01*
X50878Y68602D01*
X50884Y68583D01*
X50886Y68576D01*
X50887Y68569D01*
Y68565D01*
Y68563D01*
Y67459D01*
X50886Y67446D01*
X50884Y67434D01*
X50876Y67415D01*
X50871Y67408D01*
X50867Y67402D01*
X50865Y67400D01*
X50863Y67398D01*
X50854Y67391D01*
X50845Y67387D01*
X50826Y67380D01*
X50819D01*
X50813Y67378D01*
X50808D01*
X50797Y67380D01*
X50786Y67382D01*
X50769Y67389D01*
X50761Y67393D01*
X50756Y67395D01*
X50754Y67398D01*
X50752D01*
X50745Y67408D01*
X50739Y67417D01*
X50732Y67435D01*
X50730Y67443D01*
X50728Y67450D01*
Y67454D01*
Y67456D01*
Y67991D01*
X50276D01*
Y67456D01*
X50275Y67443D01*
X50273Y67432D01*
X50265Y67413D01*
X50256Y67402D01*
X50254Y67400D01*
X50252Y67398D01*
X50243Y67391D01*
X50234Y67387D01*
X50217Y67380D01*
X50208D01*
X50202Y67378D01*
X50197D01*
X50186Y67380D01*
X50175Y67382D01*
X50156Y67389D01*
X50149Y67393D01*
X50143Y67395D01*
X50141Y67398D01*
X50139D01*
X50132Y67408D01*
X50126Y67417D01*
X50119Y67435D01*
X50117Y67443D01*
X50115Y67450D01*
Y67454D01*
Y67456D01*
Y68559D01*
X50117Y68572D01*
X50119Y68583D01*
X50126Y68602D01*
X50130Y68607D01*
X50134Y68613D01*
X50137Y68615D01*
Y68617D01*
X50147Y68624D01*
X50158Y68630D01*
X50176Y68637D01*
X50184D01*
X50191Y68639D01*
X50208D01*
X50219Y68635D01*
X50236Y68628D01*
X50243Y68624D01*
X50249Y68620D01*
X50250Y68619D01*
X50252Y68617D01*
X50260Y68609D01*
X50267Y68600D01*
X50273Y68580D01*
X50275Y68572D01*
X50276Y68565D01*
Y68561D01*
Y68559D01*
Y68146D01*
X50728D01*
Y68563D01*
X50730Y68574D01*
X50732Y68585D01*
X50739Y68604D01*
X50747Y68615D01*
X50750Y68617D01*
Y68619D01*
X50760Y68626D01*
X50769Y68632D01*
X50787Y68639D01*
X50797D01*
X50802Y68641D01*
X50819D01*
X50830Y68637D01*
D02*
G37*
G36*
X49825Y68641D02*
X49834Y68639D01*
X49850Y68630D01*
X49862Y68620D01*
X49863Y68619D01*
X49865Y68617D01*
X49873Y68607D01*
X49878Y68596D01*
X49886Y68576D01*
Y68567D01*
X49888Y68559D01*
Y68556D01*
Y68554D01*
Y67456D01*
X49886Y67443D01*
X49884Y67430D01*
X49876Y67411D01*
X49871Y67406D01*
X49867Y67400D01*
X49865Y67398D01*
X49863Y67396D01*
X49845Y67385D01*
X49826Y67380D01*
X49817D01*
X49812Y67378D01*
X49806D01*
X49795Y67380D01*
X49786Y67382D01*
X49767Y67389D01*
X49760Y67393D01*
X49754Y67395D01*
X49752Y67398D01*
X49750D01*
X49743Y67408D01*
X49738Y67417D01*
X49730Y67435D01*
X49728Y67443D01*
X49726Y67450D01*
Y67454D01*
Y67456D01*
Y68313D01*
X49512Y67926D01*
X49499Y67900D01*
X49488Y67882D01*
X49475Y67869D01*
X49463Y67859D01*
X49454Y67854D01*
X49447Y67852D01*
X49441Y67850D01*
X49439D01*
X49425Y67852D01*
X49412Y67858D01*
X49401Y67865D01*
X49389Y67874D01*
X49382Y67883D01*
X49376Y67891D01*
X49373Y67896D01*
X49371Y67898D01*
X49151Y68313D01*
Y67456D01*
X49149Y67443D01*
X49147Y67432D01*
X49139Y67413D01*
X49130Y67402D01*
X49128Y67400D01*
X49126Y67398D01*
X49117Y67391D01*
X49108Y67387D01*
X49091Y67380D01*
X49082D01*
X49076Y67378D01*
X49071D01*
X49060Y67380D01*
X49049Y67382D01*
X49030Y67389D01*
X49023Y67393D01*
X49017Y67395D01*
X49015Y67398D01*
X49014D01*
X49006Y67408D01*
X49001Y67417D01*
X48993Y67435D01*
X48991Y67443D01*
X48989Y67450D01*
Y67454D01*
Y67456D01*
Y68554D01*
X48991Y68567D01*
X48993Y68580D01*
X49001Y68600D01*
X49004Y68607D01*
X49008Y68613D01*
X49012Y68615D01*
Y68617D01*
X49021Y68626D01*
X49030Y68632D01*
X49047Y68639D01*
X49054Y68641D01*
X49060Y68643D01*
X49065D01*
X49082Y68641D01*
X49097Y68635D01*
X49110Y68628D01*
X49119Y68619D01*
X49128Y68609D01*
X49134Y68602D01*
X49138Y68596D01*
X49139Y68594D01*
X49439Y68078D01*
X49736Y68567D01*
X49749Y68593D01*
X49762Y68611D01*
X49775Y68624D01*
X49786Y68633D01*
X49797Y68639D01*
X49806Y68641D01*
X49812Y68643D01*
X49813D01*
X49825Y68641D01*
D02*
G37*
G36*
X43814Y67900D02*
X43825Y67898D01*
X43836Y67895D01*
X43844Y67891D01*
X43851Y67885D01*
X43855Y67882D01*
X43859Y67880D01*
Y67878D01*
X43866Y67869D01*
X43870Y67859D01*
X43877Y67843D01*
Y67835D01*
X43879Y67830D01*
Y67826D01*
Y67824D01*
Y67813D01*
X43875Y67804D01*
X43870Y67785D01*
X43866Y67778D01*
X43862Y67772D01*
X43860Y67771D01*
X43859Y67769D01*
X43849Y67761D01*
X43840Y67756D01*
X43821Y67748D01*
X43812Y67746D01*
X43805Y67745D01*
X43310D01*
X43297Y67746D01*
X43286Y67748D01*
X43268Y67756D01*
X43260Y67759D01*
X43255Y67763D01*
X43253Y67767D01*
X43251D01*
X43244Y67776D01*
X43238Y67785D01*
X43233Y67804D01*
X43231Y67813D01*
X43229Y67819D01*
Y67822D01*
Y67824D01*
X43231Y67835D01*
X43233Y67846D01*
X43240Y67863D01*
X43246Y67874D01*
X43249Y67876D01*
Y67878D01*
X43259Y67885D01*
X43268Y67893D01*
X43288Y67898D01*
X43297Y67900D01*
X43305Y67902D01*
X43799D01*
X43814Y67900D01*
D02*
G37*
G36*
X51717Y68267D02*
X51737Y68259D01*
X51754Y68248D01*
X51763Y68237D01*
X51771Y68224D01*
X51772Y68215D01*
X51774Y68207D01*
Y68204D01*
Y68195D01*
X51771Y68183D01*
X51765Y68165D01*
X51761Y68156D01*
X51758Y68148D01*
X51756Y68145D01*
X51754Y68143D01*
X51332Y67533D01*
X51702D01*
X51713Y67530D01*
X51724Y67526D01*
X51732Y67522D01*
X51739Y67519D01*
X51743Y67515D01*
X51747Y67513D01*
Y67511D01*
X51754Y67502D01*
X51758Y67493D01*
X51765Y67476D01*
Y67467D01*
X51767Y67461D01*
Y67458D01*
Y67456D01*
Y67445D01*
X51763Y67435D01*
X51758Y67419D01*
X51750Y67406D01*
X51748Y67404D01*
X51747Y67402D01*
X51737Y67395D01*
X51728Y67389D01*
X51710Y67382D01*
X51700Y67380D01*
X51693Y67378D01*
X51184D01*
X51169Y67382D01*
X51147Y67389D01*
X51132Y67398D01*
X51121Y67411D01*
X51115Y67424D01*
X51111Y67434D01*
X51110Y67441D01*
Y67445D01*
X51111Y67454D01*
X51113Y67465D01*
X51121Y67483D01*
X51124Y67491D01*
X51128Y67496D01*
X51132Y67500D01*
Y67502D01*
X51556Y68111D01*
X51198D01*
X51186Y68113D01*
X51174Y68115D01*
X51156Y68124D01*
X51148Y68128D01*
X51143Y68132D01*
X51141Y68133D01*
X51139Y68135D01*
X51132Y68145D01*
X51126Y68154D01*
X51121Y68172D01*
X51119Y68180D01*
X51117Y68185D01*
Y68189D01*
Y68191D01*
X51119Y68202D01*
X51121Y68213D01*
X51128Y68230D01*
X51134Y68241D01*
X51137Y68243D01*
Y68245D01*
X51147Y68252D01*
X51156Y68259D01*
X51176Y68265D01*
X51186Y68267D01*
X51193Y68269D01*
X51702D01*
X51717Y68267D01*
D02*
G37*
G36*
X47767Y68635D02*
X47808Y68626D01*
X47841Y68611D01*
X47871Y68596D01*
X47895Y68582D01*
X47914Y68567D01*
X47925Y68557D01*
X47928Y68556D01*
Y68554D01*
X47943Y68537D01*
X47956Y68520D01*
X47977Y68487D01*
X47991Y68452D01*
X48001Y68420D01*
X48008Y68393D01*
X48010Y68380D01*
Y68370D01*
X48012Y68361D01*
Y68356D01*
Y68352D01*
Y68350D01*
Y67665D01*
Y67643D01*
X48008Y67622D01*
X47999Y67582D01*
X47986Y67546D01*
X47971Y67517D01*
X47954Y67493D01*
X47941Y67474D01*
X47932Y67463D01*
X47930Y67461D01*
X47928Y67459D01*
X47912Y67445D01*
X47895Y67434D01*
X47862Y67413D01*
X47827Y67398D01*
X47795Y67389D01*
X47767Y67382D01*
X47754Y67380D01*
X47745D01*
X47736Y67378D01*
X47651D01*
X47628Y67380D01*
X47608Y67382D01*
X47567Y67393D01*
X47532Y67408D01*
X47501Y67426D01*
X47477Y67443D01*
X47458Y67458D01*
X47451Y67463D01*
X47445Y67469D01*
X47443Y67471D01*
X47441Y67472D01*
X47427Y67485D01*
X47416Y67500D01*
X47395Y67532D01*
X47382Y67565D01*
X47371Y67595D01*
X47366Y67622D01*
X47364Y67645D01*
X47362Y67654D01*
Y67659D01*
Y67663D01*
Y67665D01*
Y68350D01*
X47364Y68372D01*
X47366Y68393D01*
X47375Y68432D01*
X47390Y68467D01*
X47404Y68496D01*
X47419Y68519D01*
X47434Y68537D01*
X47443Y68548D01*
X47447Y68552D01*
X47464Y68567D01*
X47480Y68582D01*
X47516Y68602D01*
X47549Y68619D01*
X47580Y68628D01*
X47608Y68635D01*
X47621Y68637D01*
X47630D01*
X47640Y68639D01*
X47747D01*
X47767Y68635D01*
D02*
G37*
G36*
X46706D02*
X46723Y68628D01*
X46730Y68624D01*
X46736Y68620D01*
X46738Y68619D01*
X46740Y68617D01*
X46749Y68607D01*
X46755Y68598D01*
X46762Y68582D01*
X46764Y68572D01*
X46766Y68567D01*
Y68563D01*
Y68561D01*
Y68552D01*
X46764Y68545D01*
X46762Y68539D01*
Y68537D01*
X46542Y67780D01*
X46792D01*
Y67948D01*
X46793Y67959D01*
X46795Y67970D01*
X46803Y67989D01*
X46810Y68000D01*
X46814Y68002D01*
Y68004D01*
X46823Y68011D01*
X46832Y68017D01*
X46851Y68024D01*
X46858D01*
X46866Y68026D01*
X46882D01*
X46892Y68022D01*
X46910Y68015D01*
X46921Y68008D01*
X46923Y68006D01*
X46925Y68004D01*
X46932Y67996D01*
X46940Y67987D01*
X46945Y67969D01*
X46947Y67961D01*
X46949Y67954D01*
Y67950D01*
Y67948D01*
Y67780D01*
X47053D01*
X47066Y67778D01*
X47079Y67776D01*
X47097Y67769D01*
X47103Y67763D01*
X47108Y67759D01*
X47112Y67758D01*
Y67756D01*
X47119Y67746D01*
X47123Y67737D01*
X47130Y67721D01*
Y67713D01*
X47132Y67708D01*
Y67704D01*
Y67702D01*
Y67691D01*
X47129Y67680D01*
X47123Y67663D01*
X47119Y67656D01*
X47116Y67650D01*
X47114Y67648D01*
X47112Y67646D01*
X47103Y67639D01*
X47093Y67633D01*
X47075Y67626D01*
X47066Y67624D01*
X47058Y67622D01*
X46949D01*
Y67456D01*
Y67443D01*
X46945Y67432D01*
X46938Y67413D01*
X46930Y67402D01*
X46929Y67400D01*
X46927Y67398D01*
X46917Y67391D01*
X46908Y67387D01*
X46892Y67380D01*
X46882D01*
X46877Y67378D01*
X46871D01*
X46860Y67380D01*
X46849Y67382D01*
X46830Y67389D01*
X46823Y67393D01*
X46817Y67395D01*
X46816Y67398D01*
X46814D01*
X46806Y67408D01*
X46801Y67417D01*
X46795Y67435D01*
X46793Y67443D01*
X46792Y67450D01*
Y67454D01*
Y67456D01*
Y67622D01*
X46427D01*
X46414Y67626D01*
X46393Y67633D01*
X46379Y67645D01*
X46369Y67658D01*
X46362Y67669D01*
X46360Y67680D01*
X46358Y67687D01*
Y67691D01*
X46360Y67704D01*
Y67708D01*
Y67709D01*
X46362Y67717D01*
X46364Y67721D01*
X46366Y67724D01*
X46608Y68580D01*
X46617Y68598D01*
X46627Y68611D01*
X46634Y68620D01*
X46638Y68622D01*
X46655Y68632D01*
X46669Y68637D01*
X46680Y68639D01*
X46695D01*
X46706Y68635D01*
D02*
G37*
G36*
X46082D02*
X46101Y68628D01*
X46116Y68619D01*
X46127Y68606D01*
X46132Y68593D01*
X46134Y68583D01*
X46136Y68576D01*
Y68572D01*
Y68561D01*
X46134Y68557D01*
Y68556D01*
Y68550D01*
Y68545D01*
X46132Y68539D01*
Y68537D01*
X45825Y67435D01*
X45818Y67417D01*
X45806Y67402D01*
X45795Y67393D01*
X45782Y67385D01*
X45771Y67382D01*
X45760Y67380D01*
X45753Y67378D01*
X45751D01*
X45738Y67380D01*
X45727Y67382D01*
X45708Y67389D01*
X45701Y67393D01*
X45695Y67395D01*
X45694Y67398D01*
X45692D01*
X45684Y67406D01*
X45679Y67415D01*
X45673Y67434D01*
X45671Y67441D01*
X45669Y67448D01*
Y67452D01*
Y67454D01*
Y67465D01*
X45671Y67472D01*
X45673Y67476D01*
Y67478D01*
X45956Y68480D01*
X45645D01*
Y68437D01*
X45644Y68424D01*
X45642Y68411D01*
X45634Y68393D01*
X45629Y68387D01*
X45625Y68382D01*
X45623Y68380D01*
X45621Y68378D01*
X45612Y68370D01*
X45603Y68367D01*
X45586Y68359D01*
X45577D01*
X45571Y68357D01*
X45566D01*
X45555Y68359D01*
X45544Y68361D01*
X45525Y68369D01*
X45518Y68372D01*
X45512Y68374D01*
X45510Y68378D01*
X45508D01*
X45501Y68387D01*
X45495Y68396D01*
X45488Y68417D01*
X45486Y68424D01*
X45484Y68432D01*
Y68435D01*
Y68437D01*
Y68559D01*
X45486Y68574D01*
X45488Y68585D01*
X45497Y68606D01*
X45510Y68620D01*
X45525Y68630D01*
X45540Y68635D01*
X45553Y68637D01*
X45562Y68639D01*
X46069D01*
X46082Y68635D01*
D02*
G37*
G36*
X45205Y68643D02*
X45214Y68641D01*
X45229Y68633D01*
X45238Y68624D01*
X45242Y68622D01*
Y68620D01*
X45249Y68611D01*
X45253Y68602D01*
X45260Y68582D01*
Y68572D01*
X45262Y68567D01*
Y68561D01*
Y68559D01*
Y67456D01*
X45260Y67443D01*
X45258Y67432D01*
X45251Y67413D01*
X45242Y67402D01*
X45240Y67400D01*
X45238Y67398D01*
X45229Y67391D01*
X45219Y67387D01*
X45203Y67380D01*
X45194D01*
X45188Y67378D01*
X45182D01*
X45171Y67380D01*
X45160Y67382D01*
X45144Y67389D01*
X45136Y67393D01*
X45131Y67395D01*
X45129Y67398D01*
X45127D01*
X45119Y67408D01*
X45114Y67417D01*
X45107Y67435D01*
X45105Y67443D01*
X45103Y67450D01*
Y67454D01*
Y67456D01*
Y68393D01*
X44997Y68282D01*
X44986Y68265D01*
X44975Y68254D01*
X44966Y68245D01*
X44957Y68239D01*
X44949Y68235D01*
X44944Y68233D01*
X44938D01*
X44927Y68235D01*
X44916Y68237D01*
X44897Y68246D01*
X44890Y68250D01*
X44884Y68254D01*
X44882Y68256D01*
X44881Y68257D01*
X44873Y68267D01*
X44868Y68276D01*
X44860Y68295D01*
X44858Y68304D01*
X44857Y68309D01*
Y68313D01*
Y68315D01*
X44858Y68326D01*
X44860Y68335D01*
X44870Y68354D01*
X44875Y68361D01*
X44879Y68367D01*
X44881Y68369D01*
X44882Y68370D01*
X45125Y68613D01*
X45138Y68624D01*
X45149Y68632D01*
X45162Y68637D01*
X45171Y68641D01*
X45181Y68643D01*
X45188Y68644D01*
X45194D01*
X45205Y68643D01*
D02*
G37*
G36*
X42007Y68635D02*
X42048Y68626D01*
X42081Y68611D01*
X42111Y68596D01*
X42135Y68582D01*
X42153Y68567D01*
X42164Y68557D01*
X42168Y68556D01*
Y68554D01*
X42183Y68537D01*
X42196Y68520D01*
X42216Y68487D01*
X42231Y68452D01*
X42240Y68420D01*
X42248Y68393D01*
X42249Y68380D01*
Y68370D01*
X42251Y68361D01*
Y68356D01*
Y68352D01*
Y68350D01*
Y67665D01*
Y67643D01*
X42248Y67622D01*
X42238Y67582D01*
X42225Y67546D01*
X42211Y67517D01*
X42194Y67493D01*
X42181Y67474D01*
X42172Y67463D01*
X42170Y67461D01*
X42168Y67459D01*
X42151Y67445D01*
X42135Y67434D01*
X42101Y67413D01*
X42066Y67398D01*
X42035Y67389D01*
X42007Y67382D01*
X41994Y67380D01*
X41985D01*
X41975Y67378D01*
X41890D01*
X41868Y67380D01*
X41848Y67382D01*
X41807Y67393D01*
X41772Y67408D01*
X41740Y67426D01*
X41716Y67443D01*
X41698Y67458D01*
X41690Y67463D01*
X41685Y67469D01*
X41683Y67471D01*
X41681Y67472D01*
X41666Y67485D01*
X41655Y67500D01*
X41635Y67532D01*
X41622Y67565D01*
X41611Y67595D01*
X41605Y67622D01*
X41603Y67645D01*
X41601Y67654D01*
Y67659D01*
Y67663D01*
Y67665D01*
Y68350D01*
X41603Y68372D01*
X41605Y68393D01*
X41614Y68432D01*
X41629Y68467D01*
X41644Y68496D01*
X41659Y68519D01*
X41674Y68537D01*
X41683Y68548D01*
X41687Y68552D01*
X41703Y68567D01*
X41720Y68582D01*
X41755Y68602D01*
X41788Y68619D01*
X41820Y68628D01*
X41848Y68635D01*
X41861Y68637D01*
X41870D01*
X41879Y68639D01*
X41986D01*
X42007Y68635D01*
D02*
G37*
G36*
X41188Y68637D02*
X41200Y68635D01*
X41218Y68626D01*
X41229Y68617D01*
X41231Y68615D01*
X41233Y68613D01*
X41240Y68604D01*
X41246Y68594D01*
X41253Y68578D01*
Y68570D01*
X41255Y68565D01*
Y68561D01*
Y68559D01*
X41253Y68543D01*
X41248Y68526D01*
X41238Y68515D01*
X41229Y68504D01*
X41218Y68496D01*
X41211Y68489D01*
X41203Y68487D01*
X41201Y68485D01*
X41168Y68470D01*
X41138Y68452D01*
X41111Y68433D01*
X41085Y68413D01*
X41062Y68393D01*
X41040Y68372D01*
X41022Y68352D01*
X41005Y68332D01*
X40990Y68311D01*
X40977Y68293D01*
X40966Y68276D01*
X40957Y68263D01*
X40951Y68250D01*
X40946Y68241D01*
X40944Y68235D01*
X40942Y68233D01*
X40935Y68213D01*
X40929Y68196D01*
X40924Y68182D01*
X40920Y68169D01*
X40916Y68159D01*
X40913Y68152D01*
X40911Y68148D01*
Y68146D01*
X41112D01*
X41153Y68143D01*
X41188Y68135D01*
X41220Y68122D01*
X41248Y68109D01*
X41270Y68096D01*
X41287Y68083D01*
X41296Y68076D01*
X41300Y68072D01*
X41325Y68043D01*
X41344Y68011D01*
X41357Y67980D01*
X41366Y67950D01*
X41372Y67924D01*
X41374Y67904D01*
X41375Y67896D01*
Y67891D01*
Y67887D01*
Y67885D01*
Y67641D01*
X41372Y67600D01*
X41364Y67565D01*
X41351Y67532D01*
X41338Y67506D01*
X41324Y67482D01*
X41311Y67467D01*
X41303Y67456D01*
X41300Y67452D01*
X41270Y67428D01*
X41238Y67409D01*
X41207Y67396D01*
X41177Y67387D01*
X41151Y67382D01*
X41131Y67380D01*
X41124Y67378D01*
X40990D01*
X40970Y67380D01*
X40951Y67382D01*
X40914Y67391D01*
X40881Y67406D01*
X40853Y67421D01*
X40829Y67435D01*
X40813Y67450D01*
X40801Y67459D01*
X40800Y67463D01*
X40798D01*
X40774Y67489D01*
X40755Y67519D01*
X40744Y67548D01*
X40735Y67578D01*
X40729Y67602D01*
X40727Y67622D01*
X40725Y67630D01*
Y67635D01*
Y67639D01*
Y67641D01*
Y67948D01*
X40729Y68013D01*
X40737Y68076D01*
X40748Y68132D01*
X40753Y68159D01*
X40761Y68183D01*
X40766Y68204D01*
X40772Y68224D01*
X40777Y68241D01*
X40783Y68256D01*
X40788Y68269D01*
X40790Y68276D01*
X40794Y68282D01*
Y68283D01*
X40814Y68326D01*
X40837Y68365D01*
X40861Y68400D01*
X40883Y68432D01*
X40903Y68456D01*
X40920Y68474D01*
X40925Y68482D01*
X40931Y68487D01*
X40933Y68489D01*
X40935Y68491D01*
X40970Y68522D01*
X41003Y68550D01*
X41037Y68572D01*
X41068Y68591D01*
X41094Y68606D01*
X41114Y68617D01*
X41122Y68620D01*
X41127Y68622D01*
X41131Y68624D01*
X41133D01*
X41151Y68633D01*
X41166Y68637D01*
X41174Y68639D01*
X41177D01*
X41188Y68637D01*
D02*
G37*
G36*
X40313D02*
X40324Y68635D01*
X40342Y68626D01*
X40353Y68617D01*
X40355Y68615D01*
X40357Y68613D01*
X40364Y68604D01*
X40370Y68594D01*
X40377Y68578D01*
Y68570D01*
X40379Y68565D01*
Y68561D01*
Y68559D01*
X40377Y68543D01*
X40372Y68526D01*
X40363Y68515D01*
X40353Y68504D01*
X40342Y68496D01*
X40335Y68489D01*
X40327Y68487D01*
X40326Y68485D01*
X40292Y68470D01*
X40263Y68452D01*
X40235Y68433D01*
X40209Y68413D01*
X40187Y68393D01*
X40164Y68372D01*
X40146Y68352D01*
X40129Y68332D01*
X40114Y68311D01*
X40101Y68293D01*
X40090Y68276D01*
X40081Y68263D01*
X40076Y68250D01*
X40070Y68241D01*
X40068Y68235D01*
X40066Y68233D01*
X40059Y68213D01*
X40053Y68196D01*
X40048Y68182D01*
X40044Y68169D01*
X40040Y68159D01*
X40037Y68152D01*
X40035Y68148D01*
Y68146D01*
X40237D01*
X40277Y68143D01*
X40313Y68135D01*
X40344Y68122D01*
X40372Y68109D01*
X40394Y68096D01*
X40411Y68083D01*
X40420Y68076D01*
X40424Y68072D01*
X40450Y68043D01*
X40468Y68011D01*
X40481Y67980D01*
X40490Y67950D01*
X40496Y67924D01*
X40498Y67904D01*
X40500Y67896D01*
Y67891D01*
Y67887D01*
Y67885D01*
Y67641D01*
X40496Y67600D01*
X40488Y67565D01*
X40476Y67532D01*
X40463Y67506D01*
X40448Y67482D01*
X40435Y67467D01*
X40427Y67456D01*
X40424Y67452D01*
X40394Y67428D01*
X40363Y67409D01*
X40331Y67396D01*
X40301Y67387D01*
X40276Y67382D01*
X40255Y67380D01*
X40248Y67378D01*
X40114D01*
X40094Y67380D01*
X40076Y67382D01*
X40039Y67391D01*
X40005Y67406D01*
X39977Y67421D01*
X39953Y67435D01*
X39937Y67450D01*
X39926Y67459D01*
X39924Y67463D01*
X39922D01*
X39898Y67489D01*
X39879Y67519D01*
X39868Y67548D01*
X39859Y67578D01*
X39853Y67602D01*
X39852Y67622D01*
X39850Y67630D01*
Y67635D01*
Y67639D01*
Y67641D01*
Y67948D01*
X39853Y68013D01*
X39861Y68076D01*
X39872Y68132D01*
X39877Y68159D01*
X39885Y68183D01*
X39890Y68204D01*
X39896Y68224D01*
X39902Y68241D01*
X39907Y68256D01*
X39913Y68269D01*
X39914Y68276D01*
X39918Y68282D01*
Y68283D01*
X39939Y68326D01*
X39961Y68365D01*
X39985Y68400D01*
X40007Y68432D01*
X40027Y68456D01*
X40044Y68474D01*
X40050Y68482D01*
X40055Y68487D01*
X40057Y68489D01*
X40059Y68491D01*
X40094Y68522D01*
X40127Y68550D01*
X40161Y68572D01*
X40192Y68591D01*
X40218Y68606D01*
X40239Y68617D01*
X40246Y68620D01*
X40251Y68622D01*
X40255Y68624D01*
X40257D01*
X40276Y68633D01*
X40290Y68637D01*
X40298Y68639D01*
X40301D01*
X40313Y68637D01*
D02*
G37*
G36*
X39570Y68643D02*
X39579Y68641D01*
X39594Y68633D01*
X39603Y68624D01*
X39607Y68622D01*
Y68620D01*
X39614Y68611D01*
X39618Y68602D01*
X39626Y68582D01*
Y68572D01*
X39627Y68567D01*
Y68561D01*
Y68559D01*
Y67456D01*
X39626Y67443D01*
X39624Y67432D01*
X39616Y67413D01*
X39607Y67402D01*
X39605Y67400D01*
X39603Y67398D01*
X39594Y67391D01*
X39585Y67387D01*
X39568Y67380D01*
X39559D01*
X39553Y67378D01*
X39548D01*
X39537Y67380D01*
X39526Y67382D01*
X39509Y67389D01*
X39502Y67393D01*
X39496Y67395D01*
X39494Y67398D01*
X39492D01*
X39485Y67408D01*
X39479Y67417D01*
X39472Y67435D01*
X39470Y67443D01*
X39468Y67450D01*
Y67454D01*
Y67456D01*
Y68393D01*
X39363Y68282D01*
X39352Y68265D01*
X39340Y68254D01*
X39331Y68245D01*
X39322Y68239D01*
X39315Y68235D01*
X39309Y68233D01*
X39303D01*
X39292Y68235D01*
X39281Y68237D01*
X39263Y68246D01*
X39255Y68250D01*
X39250Y68254D01*
X39248Y68256D01*
X39246Y68257D01*
X39239Y68267D01*
X39233Y68276D01*
X39226Y68295D01*
X39224Y68304D01*
X39222Y68309D01*
Y68313D01*
Y68315D01*
X39224Y68326D01*
X39226Y68335D01*
X39235Y68354D01*
X39240Y68361D01*
X39244Y68367D01*
X39246Y68369D01*
X39248Y68370D01*
X39490Y68613D01*
X39503Y68624D01*
X39515Y68632D01*
X39527Y68637D01*
X39537Y68641D01*
X39546Y68643D01*
X39553Y68644D01*
X39559D01*
X39570Y68643D01*
D02*
G37*
G36*
X47764Y67113D02*
X47780Y67105D01*
X47788Y67102D01*
X47793Y67098D01*
X47795Y67096D01*
X47797Y67094D01*
X47804Y67087D01*
X47812Y67078D01*
X47817Y67057D01*
X47819Y67050D01*
X47821Y67042D01*
Y67039D01*
Y67037D01*
Y65941D01*
Y65928D01*
X47817Y65915D01*
X47810Y65896D01*
X47806Y65889D01*
X47803Y65883D01*
X47801Y65881D01*
X47799Y65880D01*
X47790Y65872D01*
X47780Y65867D01*
X47764Y65859D01*
X47756Y65857D01*
X47751Y65856D01*
X47745D01*
X47728Y65857D01*
X47714Y65865D01*
X47701Y65872D01*
X47690Y65883D01*
X47680Y65893D01*
X47675Y65902D01*
X47671Y65907D01*
X47669Y65909D01*
X47210Y66774D01*
Y65933D01*
X47208Y65920D01*
X47206Y65909D01*
X47199Y65891D01*
X47190Y65880D01*
X47188Y65878D01*
X47186Y65876D01*
X47177Y65868D01*
X47167Y65865D01*
X47151Y65857D01*
X47141D01*
X47136Y65856D01*
X47130D01*
X47119Y65857D01*
X47108Y65859D01*
X47090Y65867D01*
X47082Y65870D01*
X47077Y65872D01*
X47075Y65876D01*
X47073D01*
X47066Y65885D01*
X47060Y65894D01*
X47053Y65913D01*
X47051Y65920D01*
X47049Y65928D01*
Y65931D01*
Y65933D01*
Y67031D01*
X47051Y67044D01*
X47053Y67057D01*
X47060Y67076D01*
X47064Y67083D01*
X47067Y67089D01*
X47071Y67091D01*
Y67092D01*
X47080Y67100D01*
X47090Y67107D01*
X47106Y67113D01*
X47114Y67115D01*
X47119Y67117D01*
X47125D01*
X47141Y67115D01*
X47156Y67109D01*
X47169Y67102D01*
X47179Y67094D01*
X47188Y67087D01*
X47193Y67079D01*
X47195Y67074D01*
X47197Y67072D01*
X47660Y66196D01*
Y67037D01*
X47662Y67050D01*
X47664Y67061D01*
X47671Y67079D01*
X47675Y67085D01*
X47678Y67091D01*
X47682Y67092D01*
Y67094D01*
X47691Y67102D01*
X47703Y67107D01*
X47721Y67115D01*
X47728D01*
X47736Y67117D01*
X47753D01*
X47764Y67113D01*
D02*
G37*
G36*
X48527Y67122D02*
X48543Y67115D01*
X48554Y67104D01*
X48565Y67092D01*
X48573Y67079D01*
X48578Y67068D01*
X48582Y67061D01*
Y67057D01*
X48952Y65957D01*
X48954Y65946D01*
X48956Y65939D01*
Y65933D01*
Y65931D01*
X48954Y65920D01*
X48952Y65909D01*
X48943Y65891D01*
X48934Y65880D01*
X48932Y65878D01*
X48930Y65876D01*
X48921Y65868D01*
X48910Y65865D01*
X48893Y65857D01*
X48886D01*
X48880Y65856D01*
X48875D01*
X48865Y65857D01*
X48854Y65859D01*
X48845Y65861D01*
X48841D01*
X48830Y65867D01*
X48821Y65874D01*
X48814Y65883D01*
X48808Y65891D01*
X48804Y65898D01*
X48801Y65904D01*
X48799Y65907D01*
Y65909D01*
X48715Y66163D01*
X48299D01*
X48215Y65915D01*
X48208Y65894D01*
X48197Y65881D01*
X48184Y65870D01*
X48171Y65863D01*
X48160Y65859D01*
X48149Y65857D01*
X48141Y65856D01*
X48140D01*
X48128Y65857D01*
X48119Y65859D01*
X48101Y65867D01*
X48093Y65870D01*
X48088Y65872D01*
X48086Y65876D01*
X48084D01*
X48075Y65885D01*
X48069Y65894D01*
X48062Y65913D01*
X48060Y65920D01*
X48058Y65926D01*
Y65930D01*
Y65931D01*
X48060Y65943D01*
X48062Y65952D01*
X48064Y65959D01*
X48065Y65961D01*
X48432Y67061D01*
X48443Y67083D01*
X48454Y67098D01*
X48467Y67109D01*
X48478Y67118D01*
X48490Y67122D01*
X48499Y67124D01*
X48506Y67126D01*
X48508D01*
X48527Y67122D01*
D02*
G37*
G36*
X46277Y67113D02*
X46293Y67105D01*
X46301Y67102D01*
X46306Y67098D01*
X46308Y67096D01*
X46310Y67094D01*
X46318Y67087D01*
X46325Y67078D01*
X46330Y67057D01*
X46332Y67050D01*
X46334Y67042D01*
Y67039D01*
Y67037D01*
Y66011D01*
X46758D01*
X46769Y66007D01*
X46780Y66004D01*
X46788Y66000D01*
X46795Y65996D01*
X46799Y65993D01*
X46803Y65991D01*
Y65989D01*
X46810Y65980D01*
X46814Y65970D01*
X46821Y65954D01*
Y65944D01*
X46823Y65939D01*
Y65935D01*
Y65933D01*
Y65922D01*
X46819Y65913D01*
X46814Y65896D01*
X46806Y65883D01*
X46805Y65881D01*
X46803Y65880D01*
X46793Y65872D01*
X46784Y65867D01*
X46766Y65859D01*
X46756Y65857D01*
X46749Y65856D01*
X46255D01*
X46240Y65857D01*
X46229Y65859D01*
X46208Y65868D01*
X46193Y65880D01*
X46184Y65894D01*
X46177Y65909D01*
X46175Y65920D01*
X46173Y65930D01*
Y65933D01*
Y67037D01*
X46175Y67050D01*
X46177Y67061D01*
X46184Y67079D01*
X46188Y67085D01*
X46192Y67091D01*
X46195Y67092D01*
Y67094D01*
X46205Y67102D01*
X46216Y67107D01*
X46234Y67115D01*
X46242D01*
X46249Y67117D01*
X46266D01*
X46277Y67113D01*
D02*
G37*
G36*
X44908D02*
X44944Y67105D01*
X44973Y67094D01*
X44997Y67081D01*
X45018Y67068D01*
X45032Y67057D01*
X45040Y67050D01*
X45044Y67046D01*
X45058Y67029D01*
X45073Y67015D01*
X45094Y66981D01*
X45110Y66948D01*
X45119Y66918D01*
X45127Y66892D01*
X45129Y66872D01*
X45131Y66865D01*
Y66859D01*
Y66855D01*
Y66854D01*
Y66729D01*
X45129Y66694D01*
X45121Y66665D01*
X45114Y66637D01*
X45103Y66617D01*
X45094Y66598D01*
X45084Y66587D01*
X45077Y66578D01*
X45075Y66576D01*
X45094Y66565D01*
X45110Y66554D01*
X45125Y66539D01*
X45136Y66526D01*
X45145Y66513D01*
X45153Y66502D01*
X45157Y66494D01*
X45158Y66492D01*
X45169Y66470D01*
X45177Y66448D01*
X45184Y66426D01*
X45188Y66405D01*
X45190Y66389D01*
X45192Y66374D01*
Y66367D01*
Y66363D01*
Y66118D01*
X45188Y66078D01*
X45181Y66043D01*
X45168Y66009D01*
X45155Y65983D01*
X45140Y65959D01*
X45127Y65944D01*
X45119Y65933D01*
X45116Y65930D01*
X45086Y65906D01*
X45055Y65887D01*
X45023Y65874D01*
X44995Y65865D01*
X44970Y65859D01*
X44949Y65857D01*
X44942Y65856D01*
X44501D01*
X44486Y65857D01*
X44475Y65859D01*
X44455Y65868D01*
X44440Y65880D01*
X44431Y65894D01*
X44423Y65909D01*
X44421Y65920D01*
X44420Y65930D01*
Y65933D01*
Y67037D01*
X44421Y67052D01*
X44423Y67063D01*
X44433Y67083D01*
X44445Y67098D01*
X44460Y67107D01*
X44475Y67113D01*
X44488Y67115D01*
X44497Y67117D01*
X44870D01*
X44908Y67113D01*
D02*
G37*
G36*
X44136D02*
X44155Y67105D01*
X44166Y67098D01*
X44168Y67096D01*
X44170Y67094D01*
X44177Y67087D01*
X44184Y67078D01*
X44190Y67057D01*
X44192Y67050D01*
X44194Y67042D01*
Y67039D01*
Y67037D01*
Y65933D01*
Y65920D01*
X44190Y65907D01*
X44181Y65889D01*
X44168Y65874D01*
X44155Y65865D01*
X44140Y65859D01*
X44127Y65857D01*
X44118Y65856D01*
X43809D01*
X43788Y65857D01*
X43770Y65859D01*
X43733Y65868D01*
X43699Y65883D01*
X43671Y65898D01*
X43647Y65913D01*
X43631Y65928D01*
X43620Y65937D01*
X43618Y65941D01*
X43616D01*
X43592Y65967D01*
X43573Y65996D01*
X43562Y66026D01*
X43553Y66055D01*
X43547Y66080D01*
X43546Y66100D01*
X43544Y66107D01*
Y66113D01*
Y66117D01*
Y66118D01*
Y66487D01*
X43547Y66526D01*
X43555Y66559D01*
X43568Y66591D01*
X43583Y66617D01*
X43596Y66639D01*
X43609Y66655D01*
X43616Y66665D01*
X43620Y66668D01*
X43649Y66694D01*
X43683Y66713D01*
X43714Y66728D01*
X43744Y66737D01*
X43770Y66742D01*
X43790Y66744D01*
X43797Y66746D01*
X44036D01*
Y67037D01*
X44038Y67050D01*
X44040Y67061D01*
X44047Y67079D01*
X44051Y67085D01*
X44055Y67091D01*
X44058Y67092D01*
Y67094D01*
X44068Y67102D01*
X44077Y67107D01*
X44096Y67115D01*
X44103D01*
X44108Y67117D01*
X44125D01*
X44136Y67113D01*
D02*
G37*
G36*
X43073D02*
X43114Y67104D01*
X43147Y67089D01*
X43177Y67074D01*
X43201Y67059D01*
X43220Y67044D01*
X43231Y67035D01*
X43235Y67033D01*
Y67031D01*
X43249Y67015D01*
X43262Y66998D01*
X43283Y66965D01*
X43297Y66929D01*
X43307Y66898D01*
X43314Y66870D01*
X43316Y66857D01*
Y66848D01*
X43318Y66839D01*
Y66833D01*
Y66829D01*
Y66828D01*
Y66143D01*
Y66120D01*
X43314Y66100D01*
X43305Y66059D01*
X43292Y66024D01*
X43277Y65994D01*
X43260Y65970D01*
X43247Y65952D01*
X43238Y65941D01*
X43236Y65939D01*
X43235Y65937D01*
X43218Y65922D01*
X43201Y65911D01*
X43168Y65891D01*
X43133Y65876D01*
X43101Y65867D01*
X43073Y65859D01*
X43060Y65857D01*
X43051D01*
X43042Y65856D01*
X42957D01*
X42935Y65857D01*
X42914Y65859D01*
X42873Y65870D01*
X42838Y65885D01*
X42807Y65904D01*
X42783Y65920D01*
X42764Y65935D01*
X42757Y65941D01*
X42751Y65946D01*
X42749Y65948D01*
X42748Y65950D01*
X42733Y65963D01*
X42722Y65978D01*
X42701Y66009D01*
X42688Y66043D01*
X42677Y66072D01*
X42672Y66100D01*
X42670Y66122D01*
X42668Y66131D01*
Y66137D01*
Y66141D01*
Y66143D01*
Y66828D01*
X42670Y66850D01*
X42672Y66870D01*
X42681Y66909D01*
X42696Y66944D01*
X42710Y66974D01*
X42725Y66996D01*
X42740Y67015D01*
X42749Y67026D01*
X42753Y67029D01*
X42770Y67044D01*
X42786Y67059D01*
X42822Y67079D01*
X42855Y67096D01*
X42886Y67105D01*
X42914Y67113D01*
X42927Y67115D01*
X42936D01*
X42946Y67117D01*
X43053D01*
X43073Y67113D01*
D02*
G37*
G36*
X42388Y67120D02*
X42398Y67118D01*
X42412Y67111D01*
X42422Y67102D01*
X42425Y67100D01*
Y67098D01*
X42433Y67089D01*
X42436Y67079D01*
X42444Y67059D01*
Y67050D01*
X42446Y67044D01*
Y67039D01*
Y67037D01*
Y65933D01*
X42444Y65920D01*
X42442Y65909D01*
X42435Y65891D01*
X42425Y65880D01*
X42423Y65878D01*
X42422Y65876D01*
X42412Y65868D01*
X42403Y65865D01*
X42386Y65857D01*
X42377D01*
X42372Y65856D01*
X42366D01*
X42355Y65857D01*
X42344Y65859D01*
X42327Y65867D01*
X42320Y65870D01*
X42314Y65872D01*
X42312Y65876D01*
X42311D01*
X42303Y65885D01*
X42298Y65894D01*
X42290Y65913D01*
X42288Y65920D01*
X42286Y65928D01*
Y65931D01*
Y65933D01*
Y66870D01*
X42181Y66759D01*
X42170Y66742D01*
X42159Y66731D01*
X42149Y66722D01*
X42140Y66717D01*
X42133Y66713D01*
X42127Y66711D01*
X42122D01*
X42111Y66713D01*
X42099Y66715D01*
X42081Y66724D01*
X42074Y66728D01*
X42068Y66731D01*
X42066Y66733D01*
X42064Y66735D01*
X42057Y66744D01*
X42051Y66754D01*
X42044Y66772D01*
X42042Y66781D01*
X42040Y66787D01*
Y66791D01*
Y66792D01*
X42042Y66804D01*
X42044Y66813D01*
X42053Y66831D01*
X42059Y66839D01*
X42062Y66844D01*
X42064Y66846D01*
X42066Y66848D01*
X42309Y67091D01*
X42322Y67102D01*
X42333Y67109D01*
X42346Y67115D01*
X42355Y67118D01*
X42364Y67120D01*
X42372Y67122D01*
X42377D01*
X42388Y67120D01*
D02*
G37*
G36*
X48511Y93474D02*
X48525Y93468D01*
X48530Y93465D01*
X48535Y93462D01*
X48536Y93461D01*
X48538Y93460D01*
X48543Y93453D01*
X48549Y93445D01*
X48553Y93433D01*
X48554Y93427D01*
X48556Y93423D01*
Y93420D01*
Y93419D01*
Y93412D01*
X48554Y93409D01*
Y93407D01*
Y93400D01*
X48553Y93399D01*
Y93398D01*
X48273Y92567D01*
X48265Y92550D01*
X48256Y92538D01*
X48247Y92529D01*
X48237Y92524D01*
X48229Y92519D01*
X48222Y92518D01*
X48218Y92516D01*
X48216D01*
X48202Y92519D01*
X48189Y92525D01*
X48179Y92532D01*
X48171Y92542D01*
X48165Y92552D01*
X48161Y92559D01*
X48158Y92564D01*
X48157Y92567D01*
X47876Y93398D01*
X47875Y93405D01*
X47874Y93407D01*
Y93414D01*
Y93417D01*
Y93419D01*
X47875Y93427D01*
X47876Y93436D01*
X47883Y93448D01*
X47890Y93457D01*
X47892Y93458D01*
X47893Y93460D01*
X47900Y93465D01*
X47909Y93469D01*
X47922Y93475D01*
X47927D01*
X47931Y93476D01*
X47936D01*
X47945Y93475D01*
X47954Y93474D01*
X47961Y93471D01*
X47964Y93469D01*
X47972Y93465D01*
X47978Y93460D01*
X47988Y93448D01*
X47991Y93443D01*
X47992Y93438D01*
X47993Y93436D01*
Y93434D01*
X48216Y92746D01*
X48439Y93434D01*
X48444Y93447D01*
X48452Y93457D01*
X48457Y93464D01*
X48460Y93465D01*
X48471Y93472D01*
X48483Y93475D01*
X48491Y93476D01*
X48504D01*
X48511Y93474D01*
D02*
G37*
G36*
X46224D02*
X46238Y93468D01*
X46244Y93465D01*
X46248Y93462D01*
X46250Y93461D01*
X46251Y93460D01*
X46257Y93453D01*
X46262Y93445D01*
X46267Y93433D01*
X46268Y93427D01*
X46269Y93423D01*
Y93420D01*
Y93419D01*
Y93412D01*
X46268Y93409D01*
Y93407D01*
Y93400D01*
X46267Y93399D01*
Y93398D01*
X45986Y92567D01*
X45979Y92550D01*
X45969Y92538D01*
X45961Y92529D01*
X45951Y92524D01*
X45942Y92519D01*
X45935Y92518D01*
X45931Y92516D01*
X45930D01*
X45916Y92519D01*
X45903Y92525D01*
X45893Y92532D01*
X45884Y92542D01*
X45879Y92552D01*
X45875Y92559D01*
X45872Y92564D01*
X45870Y92567D01*
X45590Y93398D01*
X45588Y93405D01*
X45587Y93407D01*
Y93414D01*
Y93417D01*
Y93419D01*
X45588Y93427D01*
X45590Y93436D01*
X45597Y93448D01*
X45604Y93457D01*
X45605Y93458D01*
X45607Y93460D01*
X45614Y93465D01*
X45622Y93469D01*
X45635Y93475D01*
X45641D01*
X45645Y93476D01*
X45649D01*
X45659Y93475D01*
X45667Y93474D01*
X45674Y93471D01*
X45677Y93469D01*
X45686Y93465D01*
X45691Y93460D01*
X45701Y93448D01*
X45704Y93443D01*
X45705Y93438D01*
X45707Y93436D01*
Y93434D01*
X45930Y92746D01*
X46152Y93434D01*
X46158Y93447D01*
X46165Y93457D01*
X46171Y93464D01*
X46173Y93465D01*
X46185Y93472D01*
X46196Y93475D01*
X46204Y93476D01*
X46217D01*
X46224Y93474D01*
D02*
G37*
G36*
X49912D02*
X49939Y93468D01*
X49961Y93460D01*
X49980Y93450D01*
X49995Y93440D01*
X50006Y93431D01*
X50012Y93426D01*
X50015Y93423D01*
X50026Y93410D01*
X50037Y93399D01*
X50053Y93374D01*
X50066Y93348D01*
X50073Y93326D01*
X50078Y93306D01*
X50080Y93290D01*
X50081Y93285D01*
Y93281D01*
Y93278D01*
Y93276D01*
Y92717D01*
X50078Y92686D01*
X50073Y92659D01*
X50063Y92633D01*
X50053Y92614D01*
X50042Y92595D01*
X50032Y92584D01*
X50026Y92576D01*
X50023Y92573D01*
X50001Y92555D01*
X49977Y92540D01*
X49953Y92531D01*
X49932Y92524D01*
X49912Y92519D01*
X49896Y92518D01*
X49891Y92516D01*
X49555D01*
X49544Y92518D01*
X49536Y92519D01*
X49520Y92526D01*
X49509Y92535D01*
X49502Y92546D01*
X49496Y92557D01*
X49495Y92566D01*
X49493Y92573D01*
Y92576D01*
Y93416D01*
X49495Y93427D01*
X49496Y93436D01*
X49503Y93451D01*
X49513Y93462D01*
X49524Y93469D01*
X49536Y93474D01*
X49545Y93475D01*
X49553Y93476D01*
X49882D01*
X49912Y93474D01*
D02*
G37*
G36*
X49149D02*
X49176Y93468D01*
X49199Y93460D01*
X49217Y93450D01*
X49233Y93440D01*
X49244Y93431D01*
X49249Y93426D01*
X49252Y93423D01*
X49264Y93410D01*
X49275Y93399D01*
X49290Y93374D01*
X49303Y93348D01*
X49310Y93326D01*
X49316Y93306D01*
X49317Y93290D01*
X49319Y93285D01*
Y93281D01*
Y93278D01*
Y93276D01*
Y92717D01*
X49316Y92686D01*
X49310Y92659D01*
X49300Y92633D01*
X49290Y92614D01*
X49279Y92595D01*
X49269Y92584D01*
X49264Y92576D01*
X49261Y92573D01*
X49238Y92555D01*
X49214Y92540D01*
X49190Y92531D01*
X49169Y92524D01*
X49149Y92519D01*
X49134Y92518D01*
X49128Y92516D01*
X48793D01*
X48781Y92518D01*
X48773Y92519D01*
X48757Y92526D01*
X48746Y92535D01*
X48739Y92546D01*
X48733Y92557D01*
X48732Y92566D01*
X48731Y92573D01*
Y92576D01*
Y93416D01*
X48732Y93427D01*
X48733Y93436D01*
X48741Y93451D01*
X48750Y93462D01*
X48762Y93469D01*
X48773Y93474D01*
X48783Y93475D01*
X48790Y93476D01*
X49120D01*
X49149Y93474D01*
D02*
G37*
G36*
X47379Y93481D02*
X47391Y93475D01*
X47400Y93467D01*
X47408Y93458D01*
X47414Y93448D01*
X47418Y93440D01*
X47421Y93434D01*
Y93431D01*
X47703Y92594D01*
X47704Y92586D01*
X47706Y92580D01*
Y92576D01*
Y92574D01*
X47704Y92566D01*
X47703Y92557D01*
X47696Y92543D01*
X47689Y92535D01*
X47687Y92533D01*
X47686Y92532D01*
X47679Y92526D01*
X47671Y92524D01*
X47658Y92518D01*
X47652D01*
X47648Y92516D01*
X47644D01*
X47637Y92518D01*
X47628Y92519D01*
X47621Y92521D01*
X47618D01*
X47610Y92525D01*
X47603Y92531D01*
X47597Y92538D01*
X47593Y92543D01*
X47590Y92549D01*
X47587Y92553D01*
X47586Y92556D01*
Y92557D01*
X47523Y92750D01*
X47205D01*
X47142Y92562D01*
X47136Y92546D01*
X47128Y92536D01*
X47118Y92528D01*
X47108Y92522D01*
X47100Y92519D01*
X47091Y92518D01*
X47086Y92516D01*
X47084D01*
X47076Y92518D01*
X47069Y92519D01*
X47055Y92525D01*
X47049Y92528D01*
X47045Y92529D01*
X47043Y92532D01*
X47042D01*
X47035Y92539D01*
X47031Y92546D01*
X47025Y92560D01*
X47024Y92566D01*
X47022Y92570D01*
Y92573D01*
Y92574D01*
X47024Y92583D01*
X47025Y92590D01*
X47026Y92595D01*
X47028Y92597D01*
X47307Y93434D01*
X47315Y93451D01*
X47324Y93462D01*
X47334Y93471D01*
X47342Y93478D01*
X47351Y93481D01*
X47358Y93482D01*
X47363Y93484D01*
X47365D01*
X47379Y93481D01*
D02*
G37*
G36*
X45185Y93474D02*
X45205Y93472D01*
X45222Y93468D01*
X45239Y93464D01*
X45254Y93458D01*
X45267Y93453D01*
X45291Y93440D01*
X45308Y93426D01*
X45321Y93414D01*
X45328Y93406D01*
X45330Y93405D01*
Y93403D01*
X45345Y93389D01*
X45357Y93375D01*
X45367Y93359D01*
X45377Y93345D01*
X45385Y93330D01*
X45391Y93316D01*
X45401Y93289D01*
X45407Y93265D01*
X45408Y93255D01*
X45409Y93247D01*
X45411Y93240D01*
Y93234D01*
Y93231D01*
Y93230D01*
X45409Y93207D01*
X45407Y93186D01*
X45404Y93168D01*
X45400Y93149D01*
X45394Y93135D01*
X45391Y93125D01*
X45388Y93118D01*
X45387Y93116D01*
X45377Y93097D01*
X45367Y93082D01*
X45356Y93069D01*
X45345Y93058D01*
X45335Y93049D01*
X45328Y93044D01*
X45322Y93041D01*
X45321Y93039D01*
X45335Y93030D01*
X45347Y93018D01*
X45359Y93006D01*
X45369Y92993D01*
X45376Y92982D01*
X45381Y92973D01*
X45384Y92968D01*
X45385Y92965D01*
X45394Y92946D01*
X45400Y92927D01*
X45405Y92908D01*
X45408Y92891D01*
X45409Y92877D01*
X45411Y92866D01*
Y92859D01*
Y92856D01*
Y92762D01*
X45409Y92743D01*
X45408Y92725D01*
X45400Y92691D01*
X45388Y92662D01*
X45376Y92636D01*
X45361Y92615D01*
X45356Y92607D01*
X45350Y92600D01*
X45346Y92594D01*
X45342Y92590D01*
X45340Y92588D01*
X45339Y92587D01*
X45325Y92574D01*
X45311Y92564D01*
X45297Y92555D01*
X45281Y92546D01*
X45252Y92533D01*
X45225Y92525D01*
X45201Y92521D01*
X45191Y92519D01*
X45181Y92518D01*
X45174Y92516D01*
X44977D01*
X44967Y92518D01*
X44958Y92519D01*
X44944Y92525D01*
X44939Y92528D01*
X44934Y92531D01*
X44933Y92533D01*
X44932D01*
X44926Y92540D01*
X44923Y92547D01*
X44917Y92560D01*
Y92566D01*
X44916Y92570D01*
Y92573D01*
Y92574D01*
X44917Y92583D01*
X44919Y92591D01*
X44924Y92604D01*
X44927Y92610D01*
X44929Y92614D01*
X44932Y92615D01*
Y92617D01*
X44939Y92622D01*
X44946Y92628D01*
X44961Y92632D01*
X44967Y92633D01*
X44972Y92635D01*
X45164D01*
X45182Y92636D01*
X45198Y92641D01*
X45204Y92642D01*
X45208Y92643D01*
X45211Y92645D01*
X45212D01*
X45228Y92653D01*
X45240Y92662D01*
X45249Y92669D01*
X45250Y92672D01*
X45252D01*
X45264Y92686D01*
X45273Y92698D01*
X45275Y92704D01*
X45278Y92708D01*
X45280Y92711D01*
Y92712D01*
X45285Y92729D01*
X45288Y92746D01*
X45290Y92752D01*
Y92758D01*
Y92760D01*
Y92762D01*
Y92856D01*
X45288Y92875D01*
X45285Y92890D01*
X45283Y92896D01*
X45281Y92900D01*
X45280Y92903D01*
Y92904D01*
X45271Y92920D01*
X45261Y92932D01*
X45254Y92941D01*
X45253Y92942D01*
X45252Y92944D01*
X45239Y92956D01*
X45226Y92965D01*
X45221Y92968D01*
X45216Y92970D01*
X45213Y92972D01*
X45212D01*
X45195Y92977D01*
X45180Y92980D01*
X45174Y92982D01*
X45070D01*
X45060Y92983D01*
X45051Y92984D01*
X45037Y92990D01*
X45033Y92993D01*
X45029Y92996D01*
X45027Y92999D01*
X45026D01*
X45020Y93006D01*
X45016Y93013D01*
X45012Y93027D01*
X45010Y93034D01*
X45009Y93038D01*
Y93041D01*
Y93042D01*
X45010Y93051D01*
X45012Y93058D01*
X45018Y93070D01*
X45022Y93079D01*
X45025Y93080D01*
Y93082D01*
X45032Y93087D01*
X45039Y93093D01*
X45054Y93097D01*
X45060Y93099D01*
X45065Y93100D01*
X45164D01*
X45184Y93102D01*
X45201Y93106D01*
X45216Y93113D01*
X45229Y93120D01*
X45239Y93127D01*
X45247Y93134D01*
X45252Y93138D01*
X45253Y93140D01*
X45264Y93155D01*
X45273Y93171D01*
X45278Y93186D01*
X45283Y93200D01*
X45285Y93213D01*
X45287Y93223D01*
Y93228D01*
Y93231D01*
X45285Y93250D01*
X45283Y93266D01*
X45277Y93281D01*
X45273Y93293D01*
X45267Y93303D01*
X45261Y93310D01*
X45259Y93314D01*
X45257Y93316D01*
X45243Y93328D01*
X45229Y93338D01*
X45213Y93344D01*
X45198Y93350D01*
X45185Y93352D01*
X45174Y93354D01*
X44977D01*
X44967Y93355D01*
X44958Y93357D01*
X44944Y93362D01*
X44939Y93365D01*
X44934Y93368D01*
X44933Y93371D01*
X44932D01*
X44926Y93378D01*
X44923Y93386D01*
X44917Y93400D01*
Y93406D01*
X44916Y93412D01*
Y93414D01*
Y93416D01*
X44917Y93424D01*
X44919Y93431D01*
X44924Y93444D01*
X44929Y93453D01*
X44932Y93454D01*
Y93455D01*
X44939Y93462D01*
X44946Y93467D01*
X44961Y93472D01*
X44967Y93474D01*
X44972Y93475D01*
X45164D01*
X45185Y93474D01*
D02*
G37*
G36*
X36579Y81877D02*
X36596Y81869D01*
X36604Y81866D01*
X36609Y81862D01*
X36611Y81860D01*
X36613Y81858D01*
X36620Y81851D01*
X36628Y81842D01*
X36633Y81821D01*
X36635Y81814D01*
X36637Y81806D01*
Y81803D01*
Y81801D01*
Y80705D01*
Y80692D01*
X36633Y80679D01*
X36626Y80660D01*
X36622Y80653D01*
X36618Y80647D01*
X36616Y80645D01*
X36615Y80644D01*
X36605Y80636D01*
X36596Y80631D01*
X36579Y80623D01*
X36572Y80621D01*
X36566Y80620D01*
X36561D01*
X36544Y80621D01*
X36529Y80629D01*
X36516Y80636D01*
X36505Y80647D01*
X36496Y80657D01*
X36491Y80666D01*
X36487Y80671D01*
X36485Y80673D01*
X36026Y81538D01*
Y80697D01*
X36024Y80684D01*
X36022Y80673D01*
X36015Y80655D01*
X36005Y80644D01*
X36004Y80642D01*
X36002Y80640D01*
X35992Y80632D01*
X35983Y80629D01*
X35967Y80621D01*
X35957D01*
X35952Y80620D01*
X35946D01*
X35935Y80621D01*
X35924Y80623D01*
X35905Y80631D01*
X35898Y80634D01*
X35892Y80636D01*
X35891Y80640D01*
X35889D01*
X35881Y80649D01*
X35876Y80658D01*
X35868Y80677D01*
X35867Y80684D01*
X35865Y80692D01*
Y80695D01*
Y80697D01*
Y81795D01*
X35867Y81808D01*
X35868Y81821D01*
X35876Y81840D01*
X35880Y81847D01*
X35883Y81853D01*
X35887Y81855D01*
Y81856D01*
X35896Y81864D01*
X35905Y81871D01*
X35922Y81877D01*
X35930Y81879D01*
X35935Y81880D01*
X35941D01*
X35957Y81879D01*
X35972Y81873D01*
X35985Y81866D01*
X35994Y81858D01*
X36004Y81851D01*
X36009Y81843D01*
X36011Y81838D01*
X36013Y81836D01*
X36476Y80960D01*
Y81801D01*
X36478Y81814D01*
X36479Y81825D01*
X36487Y81843D01*
X36491Y81849D01*
X36494Y81855D01*
X36498Y81856D01*
Y81858D01*
X36507Y81866D01*
X36518Y81871D01*
X36537Y81879D01*
X36544D01*
X36552Y81880D01*
X36568D01*
X36579Y81877D01*
D02*
G37*
G36*
X35592D02*
X35609Y81869D01*
X35617Y81866D01*
X35622Y81862D01*
X35624Y81860D01*
X35626Y81858D01*
X35633Y81851D01*
X35641Y81842D01*
X35646Y81821D01*
X35648Y81814D01*
X35650Y81806D01*
Y81803D01*
Y81801D01*
Y80697D01*
X35648Y80684D01*
X35646Y80673D01*
X35639Y80655D01*
X35630Y80644D01*
X35628Y80642D01*
X35626Y80640D01*
X35617Y80632D01*
X35607Y80629D01*
X35591Y80621D01*
X35581D01*
X35576Y80620D01*
X35570D01*
X35559Y80621D01*
X35548Y80623D01*
X35530Y80631D01*
X35522Y80634D01*
X35517Y80636D01*
X35515Y80640D01*
X35513D01*
X35505Y80649D01*
X35500Y80658D01*
X35493Y80677D01*
X35491Y80684D01*
X35489Y80692D01*
Y80695D01*
Y80697D01*
Y81801D01*
X35491Y81814D01*
X35493Y81825D01*
X35500Y81843D01*
X35504Y81849D01*
X35507Y81855D01*
X35511Y81856D01*
Y81858D01*
X35520Y81866D01*
X35531Y81871D01*
X35550Y81879D01*
X35557D01*
X35565Y81880D01*
X35581D01*
X35592Y81877D01*
D02*
G37*
G36*
X34446Y81879D02*
X34457Y81877D01*
X34469Y81873D01*
X34476Y81869D01*
X34483Y81864D01*
X34487Y81860D01*
X34491Y81858D01*
Y81856D01*
X34498Y81847D01*
X34502Y81838D01*
X34509Y81819D01*
Y81812D01*
X34511Y81806D01*
Y81803D01*
Y81801D01*
Y81790D01*
X34507Y81781D01*
X34502Y81762D01*
X34498Y81755D01*
X34494Y81749D01*
X34493Y81747D01*
X34491Y81745D01*
X34482Y81738D01*
X34472Y81732D01*
X34454Y81725D01*
X34444Y81723D01*
X34437Y81721D01*
X34022D01*
Y81390D01*
X34446D01*
X34457Y81386D01*
X34469Y81382D01*
X34476Y81379D01*
X34483Y81375D01*
X34487Y81371D01*
X34491Y81369D01*
Y81368D01*
X34498Y81358D01*
X34502Y81349D01*
X34509Y81332D01*
Y81323D01*
X34511Y81318D01*
Y81314D01*
Y81312D01*
Y81301D01*
X34507Y81290D01*
X34502Y81273D01*
X34498Y81266D01*
X34494Y81260D01*
X34493Y81258D01*
X34491Y81256D01*
X34482Y81249D01*
X34472Y81244D01*
X34454Y81236D01*
X34444Y81234D01*
X34437Y81232D01*
X34022D01*
Y80697D01*
X34020Y80684D01*
X34019Y80673D01*
X34011Y80655D01*
X34002Y80644D01*
X34000Y80642D01*
X33998Y80640D01*
X33989Y80632D01*
X33980Y80629D01*
X33963Y80621D01*
X33954D01*
X33948Y80620D01*
X33943D01*
X33932Y80621D01*
X33920Y80623D01*
X33902Y80631D01*
X33895Y80634D01*
X33889Y80636D01*
X33887Y80640D01*
X33885D01*
X33878Y80649D01*
X33872Y80658D01*
X33865Y80677D01*
X33863Y80684D01*
X33861Y80692D01*
Y80695D01*
Y80697D01*
Y81801D01*
X33863Y81816D01*
X33865Y81827D01*
X33874Y81847D01*
X33887Y81862D01*
X33902Y81871D01*
X33917Y81877D01*
X33930Y81879D01*
X33939Y81880D01*
X34432D01*
X34446Y81879D01*
D02*
G37*
G36*
X33409Y81877D02*
X33445Y81869D01*
X33474Y81858D01*
X33498Y81845D01*
X33519Y81832D01*
X33533Y81821D01*
X33541Y81814D01*
X33545Y81810D01*
X33559Y81793D01*
X33574Y81779D01*
X33595Y81745D01*
X33611Y81712D01*
X33620Y81682D01*
X33628Y81656D01*
X33630Y81636D01*
X33632Y81629D01*
Y81623D01*
Y81619D01*
Y81618D01*
Y81371D01*
X33630Y81351D01*
X33628Y81332D01*
X33619Y81295D01*
X33604Y81262D01*
X33587Y81234D01*
X33570Y81210D01*
X33558Y81194D01*
X33546Y81182D01*
X33545Y81181D01*
X33543Y81179D01*
X33517Y81155D01*
X33489Y81138D01*
X33461Y81125D01*
X33433Y81118D01*
X33408Y81112D01*
X33389Y81110D01*
X33382Y81108D01*
X33376D01*
X33620Y80740D01*
X33628Y80723D01*
X33630Y80710D01*
X33632Y80699D01*
Y80697D01*
Y80695D01*
X33630Y80684D01*
X33628Y80673D01*
X33620Y80657D01*
X33611Y80645D01*
X33609Y80644D01*
X33608Y80642D01*
X33598Y80634D01*
X33589Y80629D01*
X33570Y80623D01*
X33561Y80621D01*
X33556Y80620D01*
X33550D01*
X33535Y80621D01*
X33522Y80625D01*
X33511Y80631D01*
X33504Y80636D01*
X33496Y80642D01*
X33493Y80647D01*
X33491Y80651D01*
X33489Y80653D01*
X33202Y81108D01*
X33021D01*
Y80697D01*
X33019Y80684D01*
X33017Y80673D01*
X33009Y80655D01*
X33000Y80644D01*
X32998Y80642D01*
X32996Y80640D01*
X32987Y80632D01*
X32978Y80629D01*
X32961Y80621D01*
X32952D01*
X32946Y80620D01*
X32941D01*
X32930Y80621D01*
X32919Y80623D01*
X32900Y80631D01*
X32893Y80634D01*
X32887Y80636D01*
X32885Y80640D01*
X32884D01*
X32876Y80649D01*
X32871Y80658D01*
X32863Y80677D01*
X32861Y80684D01*
X32859Y80692D01*
Y80695D01*
Y80697D01*
Y81801D01*
X32861Y81816D01*
X32863Y81827D01*
X32872Y81847D01*
X32885Y81862D01*
X32900Y81871D01*
X32915Y81877D01*
X32928Y81879D01*
X32937Y81880D01*
X33371D01*
X33409Y81877D01*
D02*
G37*
G36*
X50351Y88973D02*
X50369Y88972D01*
X50403Y88963D01*
X50432Y88952D01*
X50458Y88940D01*
X50479Y88926D01*
X50487Y88920D01*
X50494Y88914D01*
X50500Y88910D01*
X50504Y88906D01*
X50505Y88905D01*
X50507Y88903D01*
X50519Y88889D01*
X50529Y88875D01*
X50539Y88861D01*
X50547Y88846D01*
X50560Y88816D01*
X50568Y88790D01*
X50572Y88766D01*
X50574Y88756D01*
X50575Y88746D01*
X50577Y88739D01*
Y88543D01*
X50575Y88534D01*
X50574Y88525D01*
X50568Y88511D01*
X50565Y88506D01*
X50563Y88501D01*
X50560Y88500D01*
Y88499D01*
X50553Y88493D01*
X50546Y88490D01*
X50533Y88485D01*
X50528D01*
X50523Y88483D01*
X50521D01*
X50519D01*
X50511Y88485D01*
X50502Y88486D01*
X50490Y88492D01*
X50484Y88494D01*
X50480Y88496D01*
X50479Y88499D01*
X50477D01*
X50472Y88506D01*
X50466Y88513D01*
X50462Y88528D01*
X50460Y88534D01*
X50459Y88539D01*
Y88730D01*
X50458Y88748D01*
X50453Y88763D01*
X50452Y88769D01*
X50451Y88773D01*
X50449Y88776D01*
Y88777D01*
X50441Y88793D01*
X50432Y88805D01*
X50425Y88814D01*
X50423Y88815D01*
Y88816D01*
X50409Y88829D01*
X50396Y88837D01*
X50390Y88840D01*
X50386Y88843D01*
X50383Y88844D01*
X50382D01*
X50365Y88850D01*
X50348Y88853D01*
X50343Y88854D01*
X50337D01*
X50334D01*
X50333D01*
X50239D01*
X50221Y88853D01*
X50206Y88850D01*
X50200Y88847D01*
X50196Y88846D01*
X50193Y88844D01*
X50192D01*
X50176Y88836D01*
X50164Y88826D01*
X50155Y88819D01*
X50154Y88818D01*
X50152Y88816D01*
X50140Y88804D01*
X50131Y88791D01*
X50129Y88786D01*
X50126Y88781D01*
X50124Y88779D01*
Y88777D01*
X50119Y88760D01*
X50116Y88745D01*
X50115Y88739D01*
Y88636D01*
X50113Y88626D01*
X50112Y88618D01*
X50106Y88604D01*
X50104Y88599D01*
X50101Y88595D01*
X50098Y88594D01*
Y88592D01*
X50091Y88587D01*
X50084Y88583D01*
X50070Y88578D01*
X50063Y88577D01*
X50059Y88576D01*
X50056D01*
X50055D01*
X50046Y88577D01*
X50039Y88578D01*
X50027Y88584D01*
X50018Y88588D01*
X50017Y88591D01*
X50015D01*
X50010Y88598D01*
X50004Y88605D01*
X50000Y88620D01*
X49999Y88626D01*
X49997Y88632D01*
Y88730D01*
X49996Y88749D01*
X49992Y88766D01*
X49985Y88781D01*
X49978Y88794D01*
X49971Y88804D01*
X49964Y88812D01*
X49959Y88816D01*
X49958Y88818D01*
X49943Y88829D01*
X49927Y88837D01*
X49912Y88843D01*
X49898Y88847D01*
X49885Y88850D01*
X49875Y88851D01*
X49870D01*
X49867D01*
X49849Y88850D01*
X49832Y88847D01*
X49818Y88842D01*
X49805Y88837D01*
X49796Y88832D01*
X49789Y88826D01*
X49784Y88823D01*
X49783Y88822D01*
X49770Y88808D01*
X49761Y88794D01*
X49755Y88779D01*
X49749Y88763D01*
X49747Y88751D01*
X49745Y88739D01*
Y88543D01*
X49744Y88534D01*
X49742Y88525D01*
X49737Y88511D01*
X49734Y88506D01*
X49731Y88501D01*
X49728Y88500D01*
Y88499D01*
X49721Y88493D01*
X49713Y88490D01*
X49699Y88485D01*
X49693D01*
X49688Y88483D01*
X49685D01*
X49684D01*
X49675Y88485D01*
X49668Y88486D01*
X49656Y88492D01*
X49647Y88496D01*
X49646Y88499D01*
X49644D01*
X49637Y88506D01*
X49633Y88513D01*
X49628Y88528D01*
X49626Y88534D01*
X49625Y88539D01*
Y88730D01*
X49626Y88751D01*
X49628Y88770D01*
X49632Y88787D01*
X49636Y88804D01*
X49642Y88819D01*
X49647Y88832D01*
X49660Y88856D01*
X49674Y88872D01*
X49685Y88885D01*
X49693Y88892D01*
X49695Y88895D01*
X49696D01*
X49710Y88909D01*
X49724Y88921D01*
X49740Y88931D01*
X49754Y88941D01*
X49769Y88949D01*
X49783Y88955D01*
X49810Y88965D01*
X49833Y88970D01*
X49843Y88972D01*
X49852Y88973D01*
X49859Y88975D01*
X49864D01*
X49867D01*
X49868D01*
X49891Y88973D01*
X49912Y88970D01*
X49930Y88968D01*
X49948Y88963D01*
X49962Y88958D01*
X49972Y88955D01*
X49979Y88952D01*
X49982Y88951D01*
X50000Y88941D01*
X50015Y88931D01*
X50028Y88920D01*
X50039Y88909D01*
X50048Y88899D01*
X50053Y88892D01*
X50056Y88886D01*
X50057Y88885D01*
X50067Y88899D01*
X50078Y88912D01*
X50091Y88923D01*
X50104Y88933D01*
X50115Y88940D01*
X50123Y88945D01*
X50129Y88948D01*
X50131Y88949D01*
X50150Y88958D01*
X50169Y88963D01*
X50187Y88969D01*
X50204Y88972D01*
X50218Y88973D01*
X50229Y88975D01*
X50236D01*
X50239D01*
X50333D01*
X50351Y88973D01*
D02*
G37*
G36*
X50533Y88314D02*
X50546Y88310D01*
X50556Y88304D01*
X50557Y88303D01*
X50558Y88301D01*
X50564Y88294D01*
X50568Y88287D01*
X50574Y88273D01*
X50575Y88266D01*
X50577Y88261D01*
Y87887D01*
X50575Y87876D01*
X50574Y87867D01*
X50567Y87852D01*
X50558Y87841D01*
X50547Y87834D01*
X50536Y87828D01*
X50528Y87827D01*
X50521Y87825D01*
X50518D01*
X49684D01*
X49674Y87827D01*
X49665Y87828D01*
X49651Y87834D01*
X49647Y87837D01*
X49643Y87839D01*
X49642Y87842D01*
X49640D01*
X49635Y87849D01*
X49630Y87858D01*
X49625Y87872D01*
Y87877D01*
X49623Y87883D01*
Y87895D01*
X49626Y87904D01*
X49632Y87916D01*
X49635Y87922D01*
X49637Y87926D01*
X49639Y87928D01*
X49640Y87929D01*
X49646Y87935D01*
X49653Y87940D01*
X49668Y87944D01*
X49674Y87946D01*
X49679Y87947D01*
X49682D01*
X49684D01*
X50459D01*
Y88268D01*
X50462Y88276D01*
X50465Y88285D01*
X50467Y88290D01*
X50470Y88296D01*
X50473Y88299D01*
X50474Y88301D01*
X50476D01*
X50483Y88307D01*
X50490Y88310D01*
X50502Y88315D01*
X50509D01*
X50514Y88317D01*
X50516D01*
X50518D01*
X50526D01*
X50533Y88314D01*
D02*
G37*
G36*
X46506Y88622D02*
X46527Y88621D01*
X46564Y88612D01*
X46595Y88603D01*
X46620Y88590D01*
X46631Y88583D01*
X46639Y88577D01*
X46648Y88570D01*
X46655Y88566D01*
X46659Y88562D01*
X46663Y88558D01*
X46665Y88556D01*
X46666Y88555D01*
X46686Y88538D01*
X46702Y88521D01*
X46718Y88503D01*
X46730Y88484D01*
X46740Y88465D01*
X46750Y88447D01*
X46757Y88429D01*
X46763Y88411D01*
X46767Y88394D01*
X46771Y88380D01*
X46774Y88366D01*
X46775Y88353D01*
Y88345D01*
X46777Y88337D01*
Y88331D01*
X46775Y88306D01*
X46772Y88282D01*
X46768Y88260D01*
X46761Y88237D01*
X46754Y88218D01*
X46746Y88199D01*
X46736Y88183D01*
X46728Y88167D01*
X46718Y88155D01*
X46709Y88142D01*
X46701Y88132D01*
X46694Y88124D01*
X46687Y88117D01*
X46683Y88113D01*
X46680Y88110D01*
X46679Y88108D01*
X46665Y88096D01*
X46649Y88086D01*
X46634Y88076D01*
X46617Y88068D01*
X46585Y88055D01*
X46554Y88047D01*
X46527Y88043D01*
X46515Y88041D01*
X46505Y88040D01*
X46497Y88038D01*
X46491D01*
X46487D01*
X46485D01*
X46457Y88040D01*
X46431Y88044D01*
X46407Y88050D01*
X46385Y88055D01*
X46368Y88061D01*
X46354Y88066D01*
X46345Y88071D01*
X46344Y88072D01*
X46343D01*
X46320Y88086D01*
X46299Y88100D01*
X46283Y88115D01*
X46270Y88131D01*
X46259Y88143D01*
X46252Y88155D01*
X46248Y88162D01*
X46246Y88164D01*
X46236Y88152D01*
X46225Y88141D01*
X46214Y88131D01*
X46201Y88122D01*
X46192Y88115D01*
X46183Y88111D01*
X46178Y88108D01*
X46175Y88107D01*
X46155Y88100D01*
X46137Y88094D01*
X46119Y88092D01*
X46102Y88089D01*
X46089Y88087D01*
X46078Y88086D01*
X46071D01*
X46068D01*
X46050Y88087D01*
X46032Y88089D01*
X46000Y88096D01*
X45970Y88106D01*
X45947Y88118D01*
X45927Y88129D01*
X45919Y88135D01*
X45912Y88139D01*
X45906Y88143D01*
X45902Y88146D01*
X45900Y88149D01*
X45899D01*
X45885Y88162D01*
X45874Y88176D01*
X45864Y88190D01*
X45856Y88205D01*
X45842Y88234D01*
X45833Y88264D01*
X45828Y88290D01*
X45826Y88302D01*
X45825Y88311D01*
X45823Y88320D01*
Y88331D01*
X45825Y88352D01*
X45826Y88373D01*
X45836Y88409D01*
X45849Y88440D01*
X45863Y88467D01*
X45870Y88478D01*
X45877Y88488D01*
X45884Y88496D01*
X45889Y88503D01*
X45895Y88509D01*
X45899Y88513D01*
X45900Y88514D01*
X45902Y88516D01*
X45914Y88527D01*
X45928Y88535D01*
X45956Y88551D01*
X45984Y88562D01*
X46010Y88569D01*
X46033Y88573D01*
X46043Y88575D01*
X46052D01*
X46059Y88576D01*
X46064D01*
X46067D01*
X46068D01*
X46089Y88575D01*
X46109Y88573D01*
X46127Y88569D01*
X46143Y88566D01*
X46155Y88562D01*
X46166Y88558D01*
X46172Y88556D01*
X46175Y88555D01*
X46192Y88547D01*
X46207Y88538D01*
X46220Y88528D01*
X46229Y88520D01*
X46238Y88512D01*
X46243Y88505D01*
X46246Y88500D01*
X46248Y88499D01*
X46260Y88520D01*
X46276Y88538D01*
X46291Y88554D01*
X46306Y88566D01*
X46322Y88577D01*
X46333Y88584D01*
X46341Y88589D01*
X46343Y88590D01*
X46344D01*
X46369Y88601D01*
X46394Y88609D01*
X46418Y88615D01*
X46439Y88619D01*
X46457Y88622D01*
X46473Y88623D01*
X46478D01*
X46483D01*
X46484D01*
X46485D01*
X46506Y88622D01*
D02*
G37*
G36*
X46733Y87865D02*
X46746Y87861D01*
X46756Y87855D01*
X46757Y87854D01*
X46758Y87852D01*
X46764Y87845D01*
X46768Y87838D01*
X46774Y87824D01*
X46775Y87817D01*
X46777Y87812D01*
Y87577D01*
X46775Y87561D01*
X46774Y87547D01*
X46767Y87519D01*
X46756Y87494D01*
X46744Y87473D01*
X46733Y87455D01*
X46722Y87442D01*
X46715Y87434D01*
X46712Y87432D01*
Y87431D01*
X46693Y87413D01*
X46670Y87399D01*
X46648Y87391D01*
X46625Y87383D01*
X46607Y87379D01*
X46592Y87378D01*
X46586Y87377D01*
X46582D01*
X46579D01*
X46578D01*
X46022D01*
X45993Y87379D01*
X45965Y87385D01*
X45941Y87395D01*
X45921Y87406D01*
X45905Y87416D01*
X45892Y87425D01*
X45885Y87431D01*
X45882Y87434D01*
X45863Y87456D01*
X45849Y87481D01*
X45837Y87505D01*
X45830Y87528D01*
X45826Y87547D01*
X45825Y87563D01*
X45823Y87568D01*
Y87808D01*
X45825Y87819D01*
X45826Y87827D01*
X45829Y87836D01*
X45832Y87841D01*
X45836Y87847D01*
X45839Y87850D01*
X45840Y87852D01*
X45842D01*
X45849Y87858D01*
X45856Y87861D01*
X45870Y87866D01*
X45875D01*
X45879Y87868D01*
X45882D01*
X45884D01*
X45892D01*
X45899Y87865D01*
X45913Y87861D01*
X45919Y87858D01*
X45923Y87855D01*
X45924Y87854D01*
X45926Y87852D01*
X45931Y87845D01*
X45935Y87838D01*
X45941Y87824D01*
X45942Y87817D01*
X45944Y87812D01*
Y87577D01*
X45945Y87564D01*
X45947Y87554D01*
X45951Y87544D01*
X45955Y87536D01*
X45959Y87529D01*
X45962Y87525D01*
X45965Y87522D01*
X45966Y87521D01*
X45975Y87514D01*
X45984Y87508D01*
X45994Y87504D01*
X46003Y87501D01*
X46011Y87500D01*
X46017Y87498D01*
X46021D01*
X46022D01*
X46578D01*
X46590Y87500D01*
X46602Y87502D01*
X46611Y87505D01*
X46620Y87509D01*
X46627Y87514D01*
X46632Y87518D01*
X46635Y87519D01*
X46637Y87521D01*
X46644Y87529D01*
X46649Y87539D01*
X46653Y87549D01*
X46656Y87557D01*
X46658Y87565D01*
X46659Y87571D01*
Y87819D01*
X46662Y87827D01*
X46665Y87836D01*
X46667Y87841D01*
X46670Y87847D01*
X46673Y87850D01*
X46674Y87852D01*
X46676D01*
X46683Y87858D01*
X46690Y87861D01*
X46702Y87866D01*
X46709D01*
X46714Y87868D01*
X46716D01*
X46718D01*
X46726D01*
X46733Y87865D01*
D02*
G37*
G36*
X45207Y86674D02*
X45234Y86668D01*
X45256Y86660D01*
X45276Y86650D01*
X45291Y86640D01*
X45302Y86632D01*
X45308Y86626D01*
X45311Y86623D01*
X45322Y86611D01*
X45333Y86600D01*
X45349Y86574D01*
X45361Y86549D01*
X45368Y86527D01*
X45374Y86507D01*
X45375Y86492D01*
X45377Y86486D01*
Y86482D01*
Y86479D01*
Y86478D01*
Y86247D01*
X45375Y86197D01*
X45370Y86149D01*
X45361Y86106D01*
X45357Y86086D01*
X45353Y86068D01*
X45347Y86051D01*
X45343Y86036D01*
X45339Y86023D01*
X45336Y86012D01*
X45332Y86003D01*
X45330Y85996D01*
X45328Y85992D01*
Y85991D01*
X45312Y85959D01*
X45295Y85928D01*
X45277Y85901D01*
X45259Y85879D01*
X45244Y85859D01*
X45231Y85845D01*
X45227Y85840D01*
X45223Y85835D01*
X45221Y85834D01*
X45220Y85833D01*
X45193Y85809D01*
X45167Y85788D01*
X45140Y85770D01*
X45115Y85754D01*
X45094Y85743D01*
X45084Y85739D01*
X45077Y85735D01*
X45070Y85732D01*
X45066Y85729D01*
X45063Y85728D01*
X45062D01*
X45053Y85725D01*
X45046Y85723D01*
X45038D01*
X45030Y85725D01*
X45021Y85726D01*
X45007Y85733D01*
X44999Y85739D01*
X44997Y85740D01*
X44996Y85742D01*
X44990Y85749D01*
X44986Y85757D01*
X44982Y85771D01*
X44981Y85777D01*
X44979Y85781D01*
Y85784D01*
Y85785D01*
X44981Y85796D01*
X44983Y85806D01*
X44986Y85813D01*
X44988Y85816D01*
X44996Y85826D01*
X45006Y85833D01*
X45014Y85837D01*
X45016Y85838D01*
X45017D01*
X45041Y85849D01*
X45063Y85862D01*
X45084Y85875D01*
X45101Y85887D01*
X45115Y85898D01*
X45126Y85907D01*
X45132Y85912D01*
X45134Y85915D01*
X45153Y85936D01*
X45168Y85957D01*
X45183Y85980D01*
X45195Y85999D01*
X45204Y86017D01*
X45211Y86033D01*
X45214Y86038D01*
X45216Y86043D01*
X45217Y86044D01*
Y86045D01*
X45221Y86054D01*
X45224Y86064D01*
X45227Y86071D01*
X45228Y86072D01*
Y86073D01*
X45231Y86080D01*
X45232Y86085D01*
X45237Y86090D01*
X45238Y86093D01*
X45086D01*
X45055Y86096D01*
X45028Y86101D01*
X45003Y86111D01*
X44983Y86122D01*
X44965Y86132D01*
X44954Y86142D01*
X44946Y86148D01*
X44943Y86150D01*
X44923Y86173D01*
X44909Y86198D01*
X44899Y86220D01*
X44892Y86243D01*
X44888Y86262D01*
X44887Y86278D01*
X44885Y86283D01*
Y86287D01*
Y86290D01*
Y86292D01*
Y86478D01*
X44888Y86507D01*
X44894Y86535D01*
X44904Y86559D01*
X44915Y86579D01*
X44925Y86595D01*
X44934Y86608D01*
X44940Y86615D01*
X44943Y86618D01*
X44965Y86637D01*
X44990Y86651D01*
X45014Y86663D01*
X45037Y86670D01*
X45056Y86674D01*
X45072Y86675D01*
X45077Y86677D01*
X45178D01*
X45207Y86674D01*
D02*
G37*
G36*
X44666Y86675D02*
X44674Y86674D01*
X44682Y86671D01*
X44688Y86668D01*
X44694Y86664D01*
X44696Y86661D01*
X44699Y86660D01*
Y86658D01*
X44705Y86651D01*
X44708Y86644D01*
X44713Y86630D01*
Y86625D01*
X44715Y86621D01*
Y86618D01*
Y86616D01*
Y86608D01*
X44712Y86601D01*
X44708Y86587D01*
X44705Y86581D01*
X44702Y86577D01*
X44701Y86576D01*
X44699Y86574D01*
X44692Y86569D01*
X44685Y86565D01*
X44671Y86559D01*
X44664Y86558D01*
X44659Y86556D01*
X44424D01*
X44411Y86555D01*
X44401Y86553D01*
X44391Y86549D01*
X44383Y86545D01*
X44376Y86541D01*
X44372Y86538D01*
X44369Y86535D01*
X44368Y86534D01*
X44361Y86525D01*
X44355Y86516D01*
X44351Y86506D01*
X44348Y86497D01*
X44347Y86489D01*
X44345Y86483D01*
Y86479D01*
Y86478D01*
Y85922D01*
X44347Y85910D01*
X44349Y85898D01*
X44352Y85889D01*
X44356Y85880D01*
X44361Y85873D01*
X44365Y85868D01*
X44366Y85865D01*
X44368Y85863D01*
X44376Y85856D01*
X44386Y85851D01*
X44396Y85847D01*
X44404Y85844D01*
X44412Y85842D01*
X44418Y85841D01*
X44666D01*
X44674Y85838D01*
X44682Y85835D01*
X44688Y85833D01*
X44694Y85830D01*
X44696Y85827D01*
X44699Y85826D01*
Y85824D01*
X44705Y85817D01*
X44708Y85810D01*
X44713Y85798D01*
Y85791D01*
X44715Y85786D01*
Y85784D01*
Y85782D01*
Y85774D01*
X44712Y85767D01*
X44708Y85754D01*
X44702Y85744D01*
X44701Y85743D01*
X44699Y85742D01*
X44692Y85736D01*
X44685Y85732D01*
X44671Y85726D01*
X44664Y85725D01*
X44659Y85723D01*
X44424D01*
X44408Y85725D01*
X44394Y85726D01*
X44366Y85733D01*
X44341Y85744D01*
X44320Y85756D01*
X44302Y85767D01*
X44289Y85778D01*
X44281Y85785D01*
X44279Y85788D01*
X44278D01*
X44260Y85807D01*
X44246Y85830D01*
X44237Y85852D01*
X44230Y85875D01*
X44226Y85893D01*
X44225Y85908D01*
X44223Y85914D01*
Y85918D01*
Y85921D01*
Y85922D01*
Y86478D01*
X44226Y86507D01*
X44232Y86535D01*
X44242Y86559D01*
X44253Y86579D01*
X44263Y86595D01*
X44272Y86608D01*
X44278Y86615D01*
X44281Y86618D01*
X44303Y86637D01*
X44328Y86651D01*
X44352Y86663D01*
X44375Y86670D01*
X44394Y86674D01*
X44410Y86675D01*
X44415Y86677D01*
X44654D01*
X44666Y86675D01*
D02*
G37*
G36*
X44485Y88576D02*
X44486D01*
X44491D01*
X44495D01*
X44499Y88575D01*
X44500D01*
X45333Y88342D01*
X45347Y88337D01*
X45358Y88328D01*
X45365Y88320D01*
X45371Y88310D01*
X45374Y88302D01*
X45375Y88293D01*
X45377Y88288D01*
Y88286D01*
X45375Y88276D01*
X45374Y88268D01*
X45368Y88254D01*
X45365Y88248D01*
X45364Y88244D01*
X45361Y88243D01*
Y88241D01*
X45356Y88236D01*
X45349Y88232D01*
X45335Y88227D01*
X45329Y88226D01*
X45323Y88225D01*
X45321D01*
X45319D01*
X45311D01*
X45305Y88226D01*
X45302Y88227D01*
X45301D01*
X44544Y88442D01*
Y88206D01*
X44576D01*
X44586Y88205D01*
X44596Y88204D01*
X44610Y88198D01*
X44614Y88194D01*
X44618Y88191D01*
X44619Y88190D01*
X44621Y88188D01*
X44626Y88181D01*
X44629Y88174D01*
X44635Y88162D01*
Y88155D01*
X44636Y88150D01*
Y88146D01*
X44635Y88138D01*
X44633Y88129D01*
X44628Y88115D01*
X44625Y88110D01*
X44624Y88106D01*
X44621Y88104D01*
Y88103D01*
X44614Y88097D01*
X44607Y88093D01*
X44591Y88087D01*
X44586Y88086D01*
X44580Y88085D01*
X44577D01*
X44576D01*
X44484D01*
X44472Y88086D01*
X44464Y88087D01*
X44449Y88094D01*
X44437Y88104D01*
X44430Y88115D01*
X44426Y88127D01*
X44425Y88136D01*
X44423Y88143D01*
Y88527D01*
X44426Y88537D01*
X44432Y88551D01*
X44439Y88562D01*
X44449Y88570D01*
X44458Y88575D01*
X44465Y88576D01*
X44471Y88577D01*
X44474D01*
X44482D01*
X44485Y88576D01*
D02*
G37*
G36*
X45333Y87911D02*
X45346Y87907D01*
X45356Y87901D01*
X45357Y87900D01*
X45358Y87899D01*
X45364Y87892D01*
X45368Y87885D01*
X45374Y87871D01*
X45375Y87864D01*
X45377Y87858D01*
Y87623D01*
X45375Y87607D01*
X45374Y87593D01*
X45367Y87565D01*
X45356Y87540D01*
X45344Y87519D01*
X45333Y87501D01*
X45322Y87488D01*
X45315Y87480D01*
X45312Y87479D01*
Y87477D01*
X45293Y87459D01*
X45270Y87445D01*
X45248Y87437D01*
X45225Y87430D01*
X45207Y87425D01*
X45192Y87424D01*
X45186Y87423D01*
X45182D01*
X45179D01*
X45178D01*
X44622D01*
X44593Y87425D01*
X44565Y87431D01*
X44541Y87441D01*
X44521Y87452D01*
X44505Y87462D01*
X44492Y87472D01*
X44485Y87477D01*
X44482Y87480D01*
X44463Y87502D01*
X44449Y87528D01*
X44437Y87551D01*
X44430Y87574D01*
X44426Y87593D01*
X44425Y87609D01*
X44423Y87614D01*
Y87854D01*
X44425Y87865D01*
X44426Y87873D01*
X44429Y87882D01*
X44432Y87887D01*
X44436Y87893D01*
X44439Y87896D01*
X44440Y87899D01*
X44442D01*
X44449Y87904D01*
X44456Y87907D01*
X44470Y87913D01*
X44475D01*
X44479Y87914D01*
X44482D01*
X44484D01*
X44492D01*
X44499Y87911D01*
X44513Y87907D01*
X44519Y87904D01*
X44523Y87901D01*
X44524Y87900D01*
X44526Y87899D01*
X44531Y87892D01*
X44535Y87885D01*
X44541Y87871D01*
X44542Y87864D01*
X44544Y87858D01*
Y87623D01*
X44545Y87610D01*
X44547Y87600D01*
X44551Y87591D01*
X44555Y87582D01*
X44559Y87575D01*
X44562Y87571D01*
X44565Y87568D01*
X44566Y87567D01*
X44575Y87560D01*
X44584Y87554D01*
X44594Y87550D01*
X44603Y87547D01*
X44611Y87546D01*
X44617Y87544D01*
X44621D01*
X44622D01*
X45178D01*
X45190Y87546D01*
X45202Y87549D01*
X45211Y87551D01*
X45220Y87556D01*
X45227Y87560D01*
X45232Y87564D01*
X45235Y87565D01*
X45237Y87567D01*
X45244Y87575D01*
X45249Y87585D01*
X45253Y87595D01*
X45256Y87603D01*
X45258Y87612D01*
X45259Y87617D01*
Y87865D01*
X45262Y87873D01*
X45265Y87882D01*
X45267Y87887D01*
X45270Y87893D01*
X45273Y87896D01*
X45274Y87899D01*
X45276D01*
X45283Y87904D01*
X45290Y87907D01*
X45302Y87913D01*
X45309D01*
X45314Y87914D01*
X45316D01*
X45318D01*
X45326D01*
X45333Y87911D01*
D02*
G37*
G36*
X49770Y79474D02*
X49790Y79472D01*
X49807Y79468D01*
X49823Y79464D01*
X49839Y79458D01*
X49851Y79453D01*
X49875Y79440D01*
X49892Y79426D01*
X49905Y79415D01*
X49912Y79407D01*
X49914Y79405D01*
Y79404D01*
X49928Y79390D01*
X49941Y79376D01*
X49951Y79360D01*
X49961Y79346D01*
X49969Y79331D01*
X49975Y79317D01*
X49984Y79290D01*
X49990Y79267D01*
X49991Y79257D01*
X49993Y79248D01*
X49994Y79241D01*
Y79236D01*
Y79233D01*
Y79232D01*
X49993Y79209D01*
X49990Y79188D01*
X49987Y79170D01*
X49983Y79152D01*
X49977Y79138D01*
X49975Y79128D01*
X49972Y79121D01*
X49970Y79118D01*
X49961Y79100D01*
X49951Y79085D01*
X49940Y79072D01*
X49928Y79061D01*
X49919Y79052D01*
X49912Y79047D01*
X49906Y79044D01*
X49905Y79043D01*
X49919Y79033D01*
X49931Y79022D01*
X49942Y79009D01*
X49952Y78996D01*
X49959Y78985D01*
X49965Y78977D01*
X49968Y78971D01*
X49969Y78969D01*
X49977Y78950D01*
X49983Y78931D01*
X49989Y78913D01*
X49991Y78896D01*
X49993Y78882D01*
X49994Y78871D01*
Y78864D01*
Y78861D01*
Y78767D01*
X49993Y78749D01*
X49991Y78731D01*
X49983Y78697D01*
X49972Y78668D01*
X49959Y78642D01*
X49945Y78621D01*
X49940Y78613D01*
X49934Y78606D01*
X49930Y78600D01*
X49926Y78596D01*
X49924Y78595D01*
X49923Y78593D01*
X49909Y78581D01*
X49895Y78571D01*
X49881Y78561D01*
X49865Y78553D01*
X49836Y78540D01*
X49809Y78532D01*
X49786Y78528D01*
X49776Y78526D01*
X49766Y78525D01*
X49759Y78523D01*
X49563D01*
X49553Y78525D01*
X49545Y78526D01*
X49531Y78532D01*
X49525Y78535D01*
X49521Y78537D01*
X49520Y78540D01*
X49518D01*
X49513Y78547D01*
X49510Y78554D01*
X49504Y78567D01*
Y78572D01*
X49503Y78577D01*
Y78579D01*
Y78581D01*
X49504Y78589D01*
X49506Y78598D01*
X49511Y78610D01*
X49514Y78616D01*
X49516Y78620D01*
X49518Y78621D01*
Y78623D01*
X49525Y78628D01*
X49532Y78634D01*
X49548Y78638D01*
X49553Y78640D01*
X49559Y78641D01*
X49749D01*
X49767Y78642D01*
X49783Y78647D01*
X49788Y78648D01*
X49793Y78649D01*
X49795Y78651D01*
X49797D01*
X49812Y78659D01*
X49825Y78668D01*
X49833Y78675D01*
X49835Y78677D01*
X49836D01*
X49849Y78691D01*
X49857Y78704D01*
X49860Y78710D01*
X49863Y78714D01*
X49864Y78717D01*
Y78718D01*
X49870Y78735D01*
X49872Y78752D01*
X49874Y78757D01*
Y78763D01*
Y78766D01*
Y78767D01*
Y78861D01*
X49872Y78879D01*
X49870Y78894D01*
X49867Y78900D01*
X49865Y78904D01*
X49864Y78907D01*
Y78908D01*
X49856Y78924D01*
X49846Y78936D01*
X49839Y78945D01*
X49837Y78946D01*
X49836Y78948D01*
X49823Y78960D01*
X49811Y78969D01*
X49805Y78971D01*
X49801Y78974D01*
X49798Y78976D01*
X49797D01*
X49780Y78981D01*
X49765Y78984D01*
X49759Y78985D01*
X49655D01*
X49646Y78987D01*
X49637Y78988D01*
X49623Y78994D01*
X49619Y78996D01*
X49615Y78999D01*
X49614Y79002D01*
X49612D01*
X49607Y79009D01*
X49602Y79016D01*
X49598Y79030D01*
X49597Y79037D01*
X49595Y79041D01*
Y79044D01*
Y79045D01*
X49597Y79054D01*
X49598Y79061D01*
X49604Y79073D01*
X49608Y79082D01*
X49611Y79083D01*
Y79085D01*
X49618Y79090D01*
X49625Y79096D01*
X49640Y79100D01*
X49646Y79101D01*
X49651Y79103D01*
X49749D01*
X49769Y79104D01*
X49786Y79108D01*
X49801Y79115D01*
X49814Y79122D01*
X49823Y79129D01*
X49832Y79136D01*
X49836Y79141D01*
X49837Y79142D01*
X49849Y79157D01*
X49857Y79173D01*
X49863Y79188D01*
X49867Y79202D01*
X49870Y79215D01*
X49871Y79225D01*
Y79230D01*
Y79233D01*
X49870Y79251D01*
X49867Y79268D01*
X49861Y79282D01*
X49857Y79295D01*
X49851Y79304D01*
X49846Y79311D01*
X49843Y79316D01*
X49842Y79317D01*
X49828Y79330D01*
X49814Y79339D01*
X49798Y79345D01*
X49783Y79351D01*
X49770Y79353D01*
X49759Y79355D01*
X49563D01*
X49553Y79356D01*
X49545Y79358D01*
X49531Y79363D01*
X49525Y79366D01*
X49521Y79369D01*
X49520Y79372D01*
X49518D01*
X49513Y79379D01*
X49510Y79387D01*
X49504Y79401D01*
Y79407D01*
X49503Y79412D01*
Y79415D01*
Y79416D01*
X49504Y79425D01*
X49506Y79432D01*
X49511Y79444D01*
X49516Y79453D01*
X49518Y79454D01*
Y79456D01*
X49525Y79463D01*
X49532Y79467D01*
X49548Y79472D01*
X49553Y79474D01*
X49559Y79475D01*
X49749D01*
X49770Y79474D01*
D02*
G37*
G36*
X49166D02*
X49192Y79468D01*
X49215Y79460D01*
X49233Y79450D01*
X49248Y79440D01*
X49259Y79432D01*
X49265Y79426D01*
X49268Y79423D01*
X49279Y79411D01*
X49290Y79400D01*
X49306Y79374D01*
X49318Y79349D01*
X49325Y79327D01*
X49331Y79307D01*
X49332Y79292D01*
X49334Y79286D01*
Y79282D01*
Y79279D01*
Y79278D01*
Y79092D01*
X49332Y79076D01*
X49331Y79062D01*
X49324Y79034D01*
X49313Y79009D01*
X49300Y78988D01*
X49287Y78970D01*
X49278Y78957D01*
X49269Y78949D01*
X49268Y78948D01*
X49266Y78946D01*
X49247Y78928D01*
X49226Y78915D01*
X49205Y78906D01*
X49184Y78900D01*
X49164Y78896D01*
X49150Y78894D01*
X49145Y78893D01*
X49140D01*
X49325Y78614D01*
X49331Y78602D01*
X49332Y78592D01*
X49334Y78584D01*
Y78582D01*
Y78581D01*
X49332Y78572D01*
X49331Y78564D01*
X49325Y78551D01*
X49318Y78543D01*
X49317Y78542D01*
X49315Y78540D01*
X49308Y78535D01*
X49301Y78530D01*
X49287Y78526D01*
X49280Y78525D01*
X49276Y78523D01*
X49272D01*
X49261Y78525D01*
X49251Y78528D01*
X49243Y78532D01*
X49237Y78536D01*
X49231Y78540D01*
X49229Y78544D01*
X49227Y78547D01*
X49226Y78549D01*
X49009Y78893D01*
X48872D01*
Y78582D01*
X48870Y78572D01*
X48869Y78564D01*
X48863Y78550D01*
X48856Y78542D01*
X48855Y78540D01*
X48854Y78539D01*
X48847Y78533D01*
X48840Y78530D01*
X48827Y78525D01*
X48820D01*
X48816Y78523D01*
X48812D01*
X48803Y78525D01*
X48795Y78526D01*
X48781Y78532D01*
X48775Y78535D01*
X48771Y78536D01*
X48770Y78539D01*
X48768D01*
X48763Y78546D01*
X48758Y78553D01*
X48753Y78567D01*
X48751Y78572D01*
X48750Y78578D01*
Y78581D01*
Y78582D01*
Y79416D01*
X48751Y79428D01*
X48753Y79436D01*
X48760Y79451D01*
X48770Y79463D01*
X48781Y79470D01*
X48792Y79474D01*
X48802Y79475D01*
X48809Y79477D01*
X49136D01*
X49166Y79474D01*
D02*
G37*
G36*
X45220Y83527D02*
X45227Y83526D01*
X45238Y83520D01*
X45245Y83513D01*
X45248Y83512D01*
Y83510D01*
X45254Y83503D01*
X45257Y83496D01*
X45262Y83481D01*
Y83474D01*
X45264Y83470D01*
Y83466D01*
Y83464D01*
Y82630D01*
X45262Y82620D01*
X45261Y82612D01*
X45255Y82598D01*
X45248Y82590D01*
X45247Y82588D01*
X45245Y82587D01*
X45238Y82581D01*
X45231Y82578D01*
X45219Y82573D01*
X45212D01*
X45208Y82571D01*
X45203D01*
X45195Y82573D01*
X45187Y82574D01*
X45174Y82580D01*
X45168Y82583D01*
X45164Y82584D01*
X45163Y82587D01*
X45161D01*
X45156Y82594D01*
X45152Y82601D01*
X45146Y82615D01*
X45145Y82620D01*
X45143Y82626D01*
Y82629D01*
Y82630D01*
Y83338D01*
X45064Y83254D01*
X45055Y83242D01*
X45047Y83233D01*
X45040Y83226D01*
X45033Y83222D01*
X45027Y83219D01*
X45023Y83218D01*
X45019D01*
X45010Y83219D01*
X45002Y83221D01*
X44988Y83228D01*
X44982Y83231D01*
X44978Y83233D01*
X44977Y83235D01*
X44975Y83236D01*
X44970Y83243D01*
X44966Y83250D01*
X44960Y83264D01*
X44959Y83271D01*
X44957Y83275D01*
Y83278D01*
Y83280D01*
X44959Y83288D01*
X44960Y83295D01*
X44967Y83309D01*
X44971Y83315D01*
X44974Y83319D01*
X44975Y83320D01*
X44977Y83322D01*
X45160Y83505D01*
X45170Y83513D01*
X45178Y83519D01*
X45188Y83523D01*
X45195Y83526D01*
X45202Y83527D01*
X45208Y83529D01*
X45212D01*
X45220Y83527D01*
D02*
G37*
G36*
X44616Y83522D02*
X44642Y83516D01*
X44665Y83508D01*
X44683Y83498D01*
X44698Y83488D01*
X44709Y83480D01*
X44715Y83474D01*
X44718Y83471D01*
X44729Y83459D01*
X44740Y83447D01*
X44756Y83422D01*
X44768Y83397D01*
X44775Y83375D01*
X44781Y83355D01*
X44782Y83340D01*
X44784Y83334D01*
Y83330D01*
Y83327D01*
Y83326D01*
Y83140D01*
X44782Y83124D01*
X44781Y83110D01*
X44774Y83082D01*
X44763Y83057D01*
X44750Y83036D01*
X44737Y83018D01*
X44728Y83005D01*
X44719Y82997D01*
X44718Y82995D01*
X44716Y82994D01*
X44697Y82976D01*
X44676Y82963D01*
X44655Y82953D01*
X44634Y82948D01*
X44614Y82944D01*
X44600Y82942D01*
X44595Y82941D01*
X44590D01*
X44775Y82662D01*
X44781Y82650D01*
X44782Y82640D01*
X44784Y82632D01*
Y82630D01*
Y82629D01*
X44782Y82620D01*
X44781Y82612D01*
X44775Y82599D01*
X44768Y82591D01*
X44767Y82590D01*
X44765Y82588D01*
X44758Y82583D01*
X44751Y82578D01*
X44737Y82574D01*
X44730Y82573D01*
X44726Y82571D01*
X44722D01*
X44711Y82573D01*
X44701Y82576D01*
X44693Y82580D01*
X44687Y82584D01*
X44681Y82588D01*
X44679Y82592D01*
X44677Y82595D01*
X44676Y82597D01*
X44459Y82941D01*
X44322D01*
Y82630D01*
X44320Y82620D01*
X44319Y82612D01*
X44313Y82598D01*
X44306Y82590D01*
X44305Y82588D01*
X44304Y82587D01*
X44297Y82581D01*
X44290Y82578D01*
X44277Y82573D01*
X44270D01*
X44266Y82571D01*
X44262D01*
X44253Y82573D01*
X44245Y82574D01*
X44231Y82580D01*
X44225Y82583D01*
X44221Y82584D01*
X44220Y82587D01*
X44218D01*
X44213Y82594D01*
X44208Y82601D01*
X44203Y82615D01*
X44201Y82620D01*
X44200Y82626D01*
Y82629D01*
Y82630D01*
Y83464D01*
X44201Y83475D01*
X44203Y83484D01*
X44210Y83499D01*
X44220Y83510D01*
X44231Y83517D01*
X44242Y83522D01*
X44252Y83523D01*
X44259Y83524D01*
X44586D01*
X44616Y83522D01*
D02*
G37*
G36*
X44733Y78546D02*
X44746Y78541D01*
X44756Y78536D01*
X44757Y78534D01*
X44758Y78533D01*
X44764Y78526D01*
X44768Y78519D01*
X44774Y78505D01*
X44775Y78498D01*
X44777Y78492D01*
Y78108D01*
X44774Y78098D01*
X44768Y78081D01*
X44761Y78070D01*
X44751Y78063D01*
X44742Y78057D01*
X44735Y78056D01*
X44729Y78054D01*
X44726D01*
X44712Y78057D01*
X44700Y78061D01*
X44694Y78064D01*
X44690Y78066D01*
X44687Y78068D01*
X44686D01*
X44141Y78408D01*
X44130Y78414D01*
X44119Y78418D01*
X44108Y78421D01*
X44098Y78424D01*
X44089D01*
X44084Y78425D01*
X44080D01*
X44078D01*
X44059Y78424D01*
X44040Y78418D01*
X44024Y78413D01*
X44010Y78404D01*
X44000Y78397D01*
X43991Y78390D01*
X43986Y78385D01*
X43984Y78383D01*
X43970Y78366D01*
X43961Y78348D01*
X43954Y78331D01*
X43949Y78315D01*
X43945Y78301D01*
X43944Y78288D01*
Y78278D01*
X43945Y78266D01*
X43947Y78254D01*
X43949Y78245D01*
X43952Y78235D01*
X43956Y78228D01*
X43959Y78222D01*
X43961Y78218D01*
X43962Y78217D01*
X43976Y78197D01*
X43991Y78182D01*
X43998Y78176D01*
X44004Y78172D01*
X44008Y78169D01*
X44010Y78168D01*
X44018Y78161D01*
X44025Y78154D01*
X44029Y78145D01*
X44033Y78137D01*
X44035Y78130D01*
X44036Y78124D01*
Y78119D01*
X44035Y78110D01*
X44033Y78103D01*
X44028Y78089D01*
X44025Y78084D01*
X44022Y78080D01*
X44019Y78078D01*
Y78077D01*
X44012Y78070D01*
X44005Y78066D01*
X43991Y78060D01*
X43986Y78059D01*
X43982Y78057D01*
X43979D01*
X43977D01*
X43966Y78059D01*
X43956Y78061D01*
X43951Y78064D01*
X43948Y78066D01*
X43928Y78080D01*
X43910Y78095D01*
X43895Y78110D01*
X43882Y78124D01*
X43872Y78137D01*
X43864Y78148D01*
X43860Y78154D01*
X43858Y78157D01*
X43847Y78178D01*
X43839Y78197D01*
X43832Y78217D01*
X43828Y78235D01*
X43825Y78250D01*
X43823Y78263D01*
Y78273D01*
X43825Y78294D01*
X43826Y78313D01*
X43836Y78350D01*
X43847Y78383D01*
X43861Y78411D01*
X43870Y78422D01*
X43877Y78434D01*
X43882Y78442D01*
X43888Y78450D01*
X43893Y78456D01*
X43898Y78460D01*
X43899Y78463D01*
X43900Y78464D01*
X43914Y78478D01*
X43930Y78491D01*
X43945Y78501D01*
X43961Y78511D01*
X43976Y78519D01*
X43991Y78525D01*
X44019Y78534D01*
X44043Y78540D01*
X44054Y78541D01*
X44063Y78543D01*
X44071Y78544D01*
X44077D01*
X44080D01*
X44081D01*
X44105Y78543D01*
X44127Y78539D01*
X44147Y78534D01*
X44165Y78529D01*
X44180Y78522D01*
X44193Y78518D01*
X44200Y78513D01*
X44203Y78512D01*
X44659Y78215D01*
Y78499D01*
X44662Y78508D01*
X44665Y78516D01*
X44667Y78522D01*
X44670Y78527D01*
X44673Y78530D01*
X44674Y78533D01*
X44676D01*
X44683Y78539D01*
X44690Y78541D01*
X44702Y78547D01*
X44709D01*
X44714Y78548D01*
X44716D01*
X44718D01*
X44726D01*
X44733Y78546D01*
D02*
G37*
G36*
X44728Y77882D02*
X44736Y77881D01*
X44749Y77875D01*
X44757Y77868D01*
X44758Y77867D01*
X44760Y77865D01*
X44765Y77858D01*
X44770Y77851D01*
X44774Y77837D01*
X44775Y77830D01*
X44777Y77826D01*
Y77822D01*
X44775Y77811D01*
X44772Y77801D01*
X44768Y77793D01*
X44764Y77787D01*
X44760Y77781D01*
X44756Y77779D01*
X44753Y77777D01*
X44751Y77776D01*
X44407Y77559D01*
Y77422D01*
X44718D01*
X44728Y77420D01*
X44736Y77419D01*
X44750Y77413D01*
X44758Y77406D01*
X44760Y77405D01*
X44761Y77404D01*
X44767Y77397D01*
X44770Y77390D01*
X44775Y77377D01*
Y77370D01*
X44777Y77366D01*
Y77362D01*
X44775Y77353D01*
X44774Y77345D01*
X44768Y77331D01*
X44765Y77325D01*
X44764Y77321D01*
X44761Y77320D01*
Y77318D01*
X44754Y77313D01*
X44747Y77308D01*
X44733Y77303D01*
X44728Y77301D01*
X44722Y77300D01*
X44719D01*
X44718D01*
X43884D01*
X43872Y77301D01*
X43864Y77303D01*
X43849Y77310D01*
X43837Y77320D01*
X43830Y77331D01*
X43826Y77342D01*
X43825Y77352D01*
X43823Y77359D01*
Y77686D01*
X43826Y77716D01*
X43832Y77742D01*
X43840Y77765D01*
X43850Y77783D01*
X43860Y77798D01*
X43868Y77809D01*
X43874Y77815D01*
X43877Y77818D01*
X43889Y77829D01*
X43900Y77840D01*
X43926Y77856D01*
X43951Y77868D01*
X43973Y77875D01*
X43993Y77881D01*
X44008Y77882D01*
X44014Y77884D01*
X44018D01*
X44021D01*
X44022D01*
X44208D01*
X44224Y77882D01*
X44238Y77881D01*
X44266Y77874D01*
X44291Y77863D01*
X44312Y77850D01*
X44330Y77837D01*
X44343Y77828D01*
X44351Y77819D01*
X44352Y77818D01*
X44354Y77816D01*
X44372Y77797D01*
X44385Y77776D01*
X44394Y77755D01*
X44400Y77734D01*
X44404Y77714D01*
X44406Y77700D01*
X44407Y77695D01*
Y77690D01*
X44686Y77875D01*
X44698Y77881D01*
X44708Y77882D01*
X44716Y77884D01*
X44718D01*
X44719D01*
X44728Y77882D01*
D02*
G37*
G36*
X41930Y73967D02*
X41938Y73966D01*
X41952Y73960D01*
X41960Y73953D01*
X41962Y73952D01*
X41963Y73950D01*
X41969Y73943D01*
X41972Y73936D01*
X41977Y73924D01*
Y73917D01*
X41979Y73912D01*
Y73908D01*
X41977Y73900D01*
X41976Y73892D01*
X41970Y73879D01*
X41967Y73873D01*
X41966Y73869D01*
X41963Y73868D01*
Y73866D01*
X41956Y73861D01*
X41949Y73857D01*
X41935Y73851D01*
X41930Y73850D01*
X41924Y73848D01*
X41921D01*
X41920D01*
X41212D01*
X41296Y73768D01*
X41308Y73760D01*
X41317Y73752D01*
X41324Y73745D01*
X41328Y73738D01*
X41331Y73732D01*
X41332Y73728D01*
Y73724D01*
X41331Y73715D01*
X41329Y73707D01*
X41322Y73693D01*
X41319Y73687D01*
X41317Y73683D01*
X41315Y73682D01*
X41314Y73680D01*
X41307Y73675D01*
X41300Y73670D01*
X41286Y73665D01*
X41279Y73663D01*
X41275Y73662D01*
X41272D01*
X41270D01*
X41262Y73663D01*
X41255Y73665D01*
X41241Y73672D01*
X41235Y73676D01*
X41231Y73679D01*
X41230Y73680D01*
X41228Y73682D01*
X41045Y73865D01*
X41037Y73875D01*
X41031Y73883D01*
X41027Y73893D01*
X41024Y73900D01*
X41023Y73907D01*
X41021Y73912D01*
Y73917D01*
X41023Y73925D01*
X41024Y73932D01*
X41030Y73943D01*
X41037Y73950D01*
X41038Y73953D01*
X41040D01*
X41047Y73959D01*
X41054Y73961D01*
X41069Y73967D01*
X41076D01*
X41080Y73968D01*
X41084D01*
X41086D01*
X41920D01*
X41930Y73967D01*
D02*
G37*
G36*
X41935Y73488D02*
X41948Y73484D01*
X41958Y73479D01*
X41959Y73477D01*
X41960Y73476D01*
X41966Y73469D01*
X41970Y73462D01*
X41976Y73448D01*
X41977Y73441D01*
X41979Y73435D01*
Y73062D01*
X41977Y73050D01*
X41976Y73042D01*
X41969Y73027D01*
X41960Y73015D01*
X41949Y73008D01*
X41938Y73003D01*
X41930Y73001D01*
X41923Y73000D01*
X41920D01*
X41086D01*
X41076Y73001D01*
X41068Y73003D01*
X41054Y73008D01*
X41049Y73011D01*
X41045Y73014D01*
X41044Y73017D01*
X41042D01*
X41037Y73024D01*
X41033Y73032D01*
X41027Y73046D01*
Y73052D01*
X41026Y73057D01*
Y73070D01*
X41028Y73078D01*
X41034Y73091D01*
X41037Y73097D01*
X41040Y73101D01*
X41041Y73102D01*
X41042Y73104D01*
X41048Y73109D01*
X41055Y73115D01*
X41070Y73119D01*
X41076Y73120D01*
X41082Y73122D01*
X41084D01*
X41086D01*
X41861D01*
Y73442D01*
X41864Y73451D01*
X41867Y73459D01*
X41869Y73465D01*
X41872Y73470D01*
X41875Y73473D01*
X41876Y73476D01*
X41878D01*
X41885Y73481D01*
X41892Y73484D01*
X41904Y73490D01*
X41911D01*
X41916Y73491D01*
X41918D01*
X41920D01*
X41928D01*
X41935Y73488D01*
D02*
G37*
G36*
X46633Y74150D02*
X46646Y74146D01*
X46656Y74141D01*
X46657Y74139D01*
X46658Y74138D01*
X46664Y74131D01*
X46668Y74124D01*
X46674Y74110D01*
X46675Y74103D01*
X46677Y74097D01*
Y73712D01*
X46674Y73703D01*
X46668Y73686D01*
X46661Y73675D01*
X46651Y73668D01*
X46642Y73662D01*
X46635Y73661D01*
X46629Y73659D01*
X46626D01*
X46612Y73662D01*
X46600Y73666D01*
X46594Y73669D01*
X46590Y73670D01*
X46587Y73673D01*
X46586D01*
X46041Y74013D01*
X46030Y74019D01*
X46019Y74023D01*
X46008Y74026D01*
X45998Y74029D01*
X45989D01*
X45984Y74030D01*
X45980D01*
X45978D01*
X45959Y74029D01*
X45940Y74023D01*
X45924Y74017D01*
X45910Y74009D01*
X45900Y74002D01*
X45891Y73995D01*
X45886Y73989D01*
X45884Y73988D01*
X45870Y73971D01*
X45861Y73953D01*
X45854Y73936D01*
X45849Y73920D01*
X45845Y73906D01*
X45844Y73893D01*
Y73883D01*
X45845Y73871D01*
X45847Y73859D01*
X45849Y73850D01*
X45852Y73840D01*
X45856Y73833D01*
X45859Y73827D01*
X45861Y73823D01*
X45862Y73822D01*
X45876Y73802D01*
X45891Y73787D01*
X45898Y73781D01*
X45904Y73777D01*
X45908Y73774D01*
X45910Y73773D01*
X45918Y73766D01*
X45925Y73759D01*
X45929Y73750D01*
X45933Y73742D01*
X45935Y73735D01*
X45936Y73729D01*
Y73724D01*
X45935Y73715D01*
X45933Y73708D01*
X45928Y73694D01*
X45925Y73689D01*
X45922Y73684D01*
X45919Y73683D01*
Y73682D01*
X45912Y73675D01*
X45905Y73670D01*
X45891Y73665D01*
X45886Y73663D01*
X45882Y73662D01*
X45879D01*
X45877D01*
X45866Y73663D01*
X45856Y73666D01*
X45851Y73669D01*
X45848Y73670D01*
X45828Y73684D01*
X45810Y73700D01*
X45795Y73715D01*
X45782Y73729D01*
X45772Y73742D01*
X45764Y73753D01*
X45760Y73759D01*
X45758Y73761D01*
X45747Y73782D01*
X45739Y73802D01*
X45732Y73822D01*
X45728Y73840D01*
X45725Y73855D01*
X45723Y73868D01*
Y73878D01*
X45725Y73898D01*
X45726Y73918D01*
X45736Y73954D01*
X45747Y73988D01*
X45761Y74016D01*
X45770Y74027D01*
X45777Y74038D01*
X45782Y74047D01*
X45788Y74055D01*
X45793Y74061D01*
X45798Y74065D01*
X45799Y74068D01*
X45800Y74069D01*
X45814Y74083D01*
X45830Y74096D01*
X45845Y74106D01*
X45861Y74115D01*
X45876Y74124D01*
X45891Y74129D01*
X45919Y74139D01*
X45943Y74145D01*
X45954Y74146D01*
X45963Y74148D01*
X45971Y74149D01*
X45977D01*
X45980D01*
X45981D01*
X46005Y74148D01*
X46027Y74143D01*
X46047Y74139D01*
X46065Y74134D01*
X46080Y74127D01*
X46093Y74122D01*
X46100Y74118D01*
X46103Y74117D01*
X46559Y73820D01*
Y74104D01*
X46562Y74113D01*
X46565Y74121D01*
X46567Y74127D01*
X46570Y74132D01*
X46573Y74135D01*
X46574Y74138D01*
X46576D01*
X46583Y74143D01*
X46590Y74146D01*
X46602Y74152D01*
X46609D01*
X46614Y74153D01*
X46616D01*
X46618D01*
X46626D01*
X46633Y74150D01*
D02*
G37*
G36*
Y73488D02*
X46646Y73484D01*
X46656Y73479D01*
X46657Y73477D01*
X46658Y73476D01*
X46664Y73469D01*
X46668Y73462D01*
X46674Y73448D01*
X46675Y73441D01*
X46677Y73435D01*
Y73062D01*
X46675Y73050D01*
X46674Y73042D01*
X46667Y73027D01*
X46658Y73015D01*
X46647Y73008D01*
X46636Y73003D01*
X46628Y73001D01*
X46621Y73000D01*
X46618D01*
X45784D01*
X45774Y73001D01*
X45765Y73003D01*
X45751Y73008D01*
X45747Y73011D01*
X45743Y73014D01*
X45742Y73017D01*
X45740D01*
X45735Y73024D01*
X45730Y73032D01*
X45725Y73046D01*
Y73052D01*
X45723Y73057D01*
Y73070D01*
X45726Y73078D01*
X45732Y73091D01*
X45735Y73097D01*
X45737Y73101D01*
X45739Y73102D01*
X45740Y73104D01*
X45746Y73109D01*
X45753Y73115D01*
X45768Y73119D01*
X45774Y73120D01*
X45779Y73122D01*
X45782D01*
X45784D01*
X46559D01*
Y73442D01*
X46562Y73451D01*
X46565Y73459D01*
X46567Y73465D01*
X46570Y73470D01*
X46573Y73473D01*
X46574Y73476D01*
X46576D01*
X46583Y73481D01*
X46590Y73484D01*
X46602Y73490D01*
X46609D01*
X46614Y73491D01*
X46616D01*
X46618D01*
X46626D01*
X46633Y73488D01*
D02*
G37*
G36*
X49412Y73975D02*
X49420Y73974D01*
X49434Y73967D01*
X49443Y73960D01*
X49444Y73958D01*
X49445Y73957D01*
X49451Y73950D01*
X49455Y73943D01*
X49461Y73930D01*
Y73925D01*
X49462Y73921D01*
Y73918D01*
Y73916D01*
X49461Y73904D01*
X49457Y73891D01*
X49450Y73883D01*
X49443Y73874D01*
X49434Y73869D01*
X49429Y73863D01*
X49423Y73862D01*
X49422Y73860D01*
X49396Y73849D01*
X49374Y73835D01*
X49353Y73821D01*
X49333Y73806D01*
X49317Y73790D01*
X49300Y73775D01*
X49286Y73760D01*
X49273Y73744D01*
X49262Y73729D01*
X49252Y73715D01*
X49244Y73702D01*
X49237Y73692D01*
X49233Y73683D01*
X49229Y73676D01*
X49227Y73671D01*
X49226Y73670D01*
X49220Y73655D01*
X49216Y73642D01*
X49212Y73631D01*
X49209Y73621D01*
X49206Y73614D01*
X49203Y73608D01*
X49202Y73606D01*
Y73604D01*
X49354D01*
X49385Y73601D01*
X49412Y73596D01*
X49436Y73586D01*
X49457Y73576D01*
X49473Y73566D01*
X49486Y73557D01*
X49493Y73551D01*
X49496Y73548D01*
X49515Y73526D01*
X49529Y73502D01*
X49539Y73478D01*
X49546Y73456D01*
X49550Y73436D01*
X49552Y73421D01*
X49553Y73415D01*
Y73411D01*
Y73408D01*
Y73407D01*
Y73222D01*
X49550Y73191D01*
X49545Y73165D01*
X49535Y73140D01*
X49525Y73120D01*
X49514Y73102D01*
X49504Y73091D01*
X49499Y73082D01*
X49496Y73079D01*
X49473Y73061D01*
X49450Y73047D01*
X49426Y73037D01*
X49403Y73030D01*
X49384Y73026D01*
X49368Y73025D01*
X49363Y73023D01*
X49262D01*
X49247Y73025D01*
X49233Y73026D01*
X49205Y73033D01*
X49180Y73044D01*
X49159Y73056D01*
X49140Y73067D01*
X49128Y73078D01*
X49119Y73085D01*
X49118Y73088D01*
X49117D01*
X49098Y73107D01*
X49084Y73130D01*
X49076Y73152D01*
X49069Y73175D01*
X49065Y73193D01*
X49063Y73208D01*
X49062Y73214D01*
Y73218D01*
Y73221D01*
Y73222D01*
Y73455D01*
X49065Y73504D01*
X49070Y73551D01*
X49079Y73593D01*
X49083Y73614D01*
X49089Y73632D01*
X49093Y73648D01*
X49097Y73663D01*
X49101Y73676D01*
X49105Y73687D01*
X49110Y73697D01*
X49111Y73702D01*
X49114Y73706D01*
Y73708D01*
X49129Y73740D01*
X49146Y73769D01*
X49164Y73796D01*
X49181Y73820D01*
X49196Y73838D01*
X49209Y73852D01*
X49213Y73858D01*
X49217Y73862D01*
X49219Y73863D01*
X49220Y73865D01*
X49247Y73888D01*
X49272Y73909D01*
X49297Y73926D01*
X49321Y73940D01*
X49340Y73951D01*
X49356Y73960D01*
X49361Y73963D01*
X49366Y73964D01*
X49368Y73965D01*
X49370D01*
X49384Y73972D01*
X49395Y73975D01*
X49401Y73977D01*
X49403D01*
X49412Y73975D01*
D02*
G37*
G36*
X48842D02*
X48851Y73974D01*
X48859Y73971D01*
X48865Y73968D01*
X48870Y73964D01*
X48873Y73961D01*
X48876Y73960D01*
Y73958D01*
X48881Y73951D01*
X48884Y73944D01*
X48890Y73930D01*
Y73925D01*
X48891Y73921D01*
Y73918D01*
Y73916D01*
Y73908D01*
X48888Y73901D01*
X48884Y73887D01*
X48881Y73881D01*
X48879Y73877D01*
X48877Y73876D01*
X48876Y73874D01*
X48869Y73869D01*
X48862Y73865D01*
X48848Y73859D01*
X48841Y73858D01*
X48835Y73856D01*
X48600D01*
X48588Y73855D01*
X48578Y73853D01*
X48568Y73849D01*
X48560Y73845D01*
X48553Y73841D01*
X48548Y73838D01*
X48546Y73835D01*
X48544Y73834D01*
X48537Y73825D01*
X48532Y73816D01*
X48527Y73806D01*
X48525Y73797D01*
X48523Y73789D01*
X48522Y73783D01*
Y73779D01*
Y73778D01*
Y73222D01*
X48523Y73210D01*
X48526Y73198D01*
X48529Y73189D01*
X48533Y73180D01*
X48537Y73173D01*
X48541Y73168D01*
X48543Y73165D01*
X48544Y73163D01*
X48553Y73156D01*
X48562Y73151D01*
X48572Y73147D01*
X48581Y73144D01*
X48589Y73142D01*
X48595Y73141D01*
X48842D01*
X48851Y73138D01*
X48859Y73135D01*
X48865Y73133D01*
X48870Y73130D01*
X48873Y73127D01*
X48876Y73126D01*
Y73124D01*
X48881Y73117D01*
X48884Y73110D01*
X48890Y73098D01*
Y73091D01*
X48891Y73086D01*
Y73084D01*
Y73082D01*
Y73074D01*
X48888Y73067D01*
X48884Y73054D01*
X48879Y73044D01*
X48877Y73043D01*
X48876Y73042D01*
X48869Y73036D01*
X48862Y73032D01*
X48848Y73026D01*
X48841Y73025D01*
X48835Y73023D01*
X48600D01*
X48585Y73025D01*
X48571Y73026D01*
X48543Y73033D01*
X48518Y73044D01*
X48497Y73056D01*
X48478Y73067D01*
X48466Y73078D01*
X48457Y73085D01*
X48456Y73088D01*
X48455D01*
X48436Y73107D01*
X48422Y73130D01*
X48414Y73152D01*
X48407Y73175D01*
X48403Y73193D01*
X48401Y73208D01*
X48400Y73214D01*
Y73218D01*
Y73221D01*
Y73222D01*
Y73778D01*
X48403Y73807D01*
X48408Y73835D01*
X48418Y73859D01*
X48429Y73879D01*
X48439Y73895D01*
X48449Y73908D01*
X48455Y73915D01*
X48457Y73918D01*
X48480Y73937D01*
X48505Y73951D01*
X48529Y73963D01*
X48551Y73970D01*
X48571Y73974D01*
X48586Y73975D01*
X48592Y73977D01*
X48831D01*
X48842Y73975D01*
D02*
G37*
G36*
X38250Y73575D02*
X38268Y73574D01*
X38302Y73566D01*
X38331Y73554D01*
X38356Y73542D01*
X38377Y73528D01*
X38386Y73522D01*
X38393Y73517D01*
X38398Y73512D01*
X38402Y73508D01*
X38404Y73507D01*
X38405Y73505D01*
X38418Y73491D01*
X38429Y73477D01*
X38439Y73463D01*
X38446Y73448D01*
X38460Y73419D01*
X38468Y73392D01*
X38472Y73368D01*
X38474Y73359D01*
X38475Y73349D01*
X38477Y73342D01*
Y73147D01*
X38475Y73137D01*
X38474Y73129D01*
X38468Y73115D01*
X38465Y73109D01*
X38463Y73105D01*
X38460Y73104D01*
Y73102D01*
X38453Y73097D01*
X38446Y73093D01*
X38432Y73088D01*
X38426Y73087D01*
X38422Y73086D01*
X38419D01*
X38418D01*
X38409Y73087D01*
X38401Y73088D01*
X38388Y73094D01*
X38380Y73098D01*
X38379Y73101D01*
X38377D01*
X38372Y73108D01*
X38366Y73115D01*
X38362Y73130D01*
X38360Y73137D01*
X38359Y73143D01*
Y73332D01*
X38358Y73350D01*
X38353Y73366D01*
X38352Y73371D01*
X38351Y73375D01*
X38349Y73378D01*
Y73380D01*
X38341Y73395D01*
X38331Y73408D01*
X38324Y73416D01*
X38323Y73417D01*
X38321Y73419D01*
X38307Y73431D01*
X38295Y73440D01*
X38289Y73442D01*
X38285Y73445D01*
X38282Y73447D01*
X38281D01*
X38264Y73454D01*
X38247Y73456D01*
X38241Y73458D01*
X38236D01*
X38233D01*
X38232D01*
X38139D01*
X38121Y73456D01*
X38106Y73454D01*
X38100Y73451D01*
X38096Y73449D01*
X38093Y73448D01*
X38092D01*
X38075Y73440D01*
X38062Y73430D01*
X38054Y73423D01*
X38052Y73421D01*
X38051Y73420D01*
X38038Y73406D01*
X38030Y73394D01*
X38027Y73388D01*
X38024Y73384D01*
X38023Y73381D01*
Y73380D01*
X38017Y73363D01*
X38015Y73347D01*
X38013Y73342D01*
Y73147D01*
X38012Y73136D01*
X38011Y73128D01*
X38004Y73112D01*
X37995Y73101D01*
X37984Y73094D01*
X37973Y73088D01*
X37964Y73087D01*
X37957Y73086D01*
X37955D01*
X37584D01*
X37572Y73087D01*
X37564Y73088D01*
X37549Y73095D01*
X37537Y73105D01*
X37530Y73116D01*
X37526Y73128D01*
X37525Y73137D01*
X37523Y73144D01*
Y73517D01*
X37525Y73528D01*
X37526Y73536D01*
X37529Y73545D01*
X37532Y73550D01*
X37536Y73556D01*
X37539Y73559D01*
X37540Y73561D01*
X37542D01*
X37549Y73567D01*
X37556Y73570D01*
X37570Y73575D01*
X37575D01*
X37579Y73577D01*
X37582D01*
X37584D01*
X37592D01*
X37599Y73574D01*
X37613Y73570D01*
X37619Y73567D01*
X37623Y73564D01*
X37624Y73563D01*
X37626Y73561D01*
X37631Y73554D01*
X37635Y73547D01*
X37641Y73533D01*
X37642Y73526D01*
X37644Y73521D01*
Y73207D01*
X37896D01*
Y73332D01*
X37897Y73350D01*
X37899Y73368D01*
X37907Y73402D01*
X37918Y73431D01*
X37931Y73456D01*
X37945Y73477D01*
X37950Y73486D01*
X37956Y73493D01*
X37960Y73498D01*
X37964Y73503D01*
X37966Y73504D01*
X37967Y73505D01*
X37981Y73518D01*
X37995Y73529D01*
X38009Y73539D01*
X38024Y73547D01*
X38052Y73560D01*
X38080Y73568D01*
X38103Y73573D01*
X38114Y73574D01*
X38122Y73575D01*
X38129Y73577D01*
X38135D01*
X38138D01*
X38139D01*
X38232D01*
X38250Y73575D01*
D02*
G37*
G36*
X38433Y72912D02*
X38446Y72908D01*
X38456Y72902D01*
X38457Y72901D01*
X38458Y72899D01*
X38464Y72892D01*
X38468Y72885D01*
X38474Y72871D01*
X38475Y72864D01*
X38477Y72859D01*
Y72624D01*
X38475Y72608D01*
X38474Y72594D01*
X38467Y72566D01*
X38456Y72541D01*
X38444Y72520D01*
X38433Y72502D01*
X38422Y72489D01*
X38415Y72481D01*
X38412Y72480D01*
Y72478D01*
X38393Y72460D01*
X38370Y72446D01*
X38348Y72438D01*
X38325Y72431D01*
X38307Y72426D01*
X38292Y72425D01*
X38286Y72424D01*
X38282D01*
X38279D01*
X38278D01*
X37722D01*
X37693Y72426D01*
X37665Y72432D01*
X37641Y72442D01*
X37621Y72453D01*
X37605Y72463D01*
X37592Y72473D01*
X37585Y72478D01*
X37582Y72481D01*
X37563Y72503D01*
X37549Y72529D01*
X37537Y72552D01*
X37530Y72575D01*
X37526Y72594D01*
X37525Y72610D01*
X37523Y72615D01*
Y72855D01*
X37525Y72866D01*
X37526Y72874D01*
X37529Y72883D01*
X37532Y72888D01*
X37536Y72894D01*
X37539Y72897D01*
X37540Y72899D01*
X37542D01*
X37549Y72905D01*
X37556Y72908D01*
X37570Y72913D01*
X37575D01*
X37579Y72915D01*
X37582D01*
X37584D01*
X37592D01*
X37599Y72912D01*
X37613Y72908D01*
X37619Y72905D01*
X37623Y72902D01*
X37624Y72901D01*
X37626Y72899D01*
X37631Y72892D01*
X37635Y72885D01*
X37641Y72871D01*
X37642Y72864D01*
X37644Y72859D01*
Y72624D01*
X37645Y72611D01*
X37647Y72601D01*
X37651Y72592D01*
X37655Y72583D01*
X37659Y72576D01*
X37662Y72572D01*
X37665Y72569D01*
X37666Y72568D01*
X37675Y72561D01*
X37684Y72555D01*
X37694Y72551D01*
X37703Y72548D01*
X37711Y72547D01*
X37717Y72545D01*
X37721D01*
X37722D01*
X38278D01*
X38290Y72547D01*
X38302Y72550D01*
X38311Y72552D01*
X38320Y72557D01*
X38327Y72561D01*
X38332Y72565D01*
X38335Y72566D01*
X38337Y72568D01*
X38344Y72576D01*
X38349Y72586D01*
X38353Y72596D01*
X38356Y72604D01*
X38358Y72613D01*
X38359Y72618D01*
Y72866D01*
X38362Y72874D01*
X38365Y72883D01*
X38367Y72888D01*
X38370Y72894D01*
X38373Y72897D01*
X38374Y72899D01*
X38376D01*
X38383Y72905D01*
X38390Y72908D01*
X38402Y72913D01*
X38409D01*
X38414Y72915D01*
X38416D01*
X38418D01*
X38426D01*
X38433Y72912D01*
D02*
G37*
G36*
X49674Y77974D02*
X49686Y77968D01*
X49692Y77965D01*
X49696Y77963D01*
X49697Y77961D01*
X49699Y77960D01*
X49706Y77953D01*
X49710Y77946D01*
X49716Y77933D01*
X49717Y77926D01*
X49718Y77922D01*
Y77919D01*
Y77918D01*
Y77911D01*
X49717Y77905D01*
X49716Y77901D01*
Y77900D01*
X49549Y77327D01*
X49738D01*
Y77455D01*
X49739Y77463D01*
X49741Y77471D01*
X49746Y77485D01*
X49752Y77494D01*
X49755Y77495D01*
Y77496D01*
X49762Y77502D01*
X49769Y77506D01*
X49783Y77512D01*
X49788D01*
X49794Y77513D01*
X49807D01*
X49814Y77510D01*
X49828Y77505D01*
X49836Y77499D01*
X49837Y77498D01*
X49839Y77496D01*
X49844Y77491D01*
X49850Y77484D01*
X49854Y77470D01*
X49856Y77464D01*
X49857Y77459D01*
Y77456D01*
Y77455D01*
Y77327D01*
X49935D01*
X49945Y77326D01*
X49955Y77324D01*
X49969Y77319D01*
X49973Y77315D01*
X49977Y77312D01*
X49980Y77310D01*
Y77309D01*
X49986Y77302D01*
X49989Y77295D01*
X49994Y77282D01*
Y77277D01*
X49996Y77273D01*
Y77270D01*
Y77268D01*
Y77260D01*
X49993Y77252D01*
X49989Y77239D01*
X49986Y77233D01*
X49983Y77229D01*
X49982Y77228D01*
X49980Y77226D01*
X49973Y77221D01*
X49966Y77217D01*
X49952Y77211D01*
X49945Y77210D01*
X49940Y77208D01*
X49857D01*
Y77082D01*
Y77072D01*
X49854Y77064D01*
X49849Y77050D01*
X49843Y77042D01*
X49842Y77040D01*
X49840Y77039D01*
X49833Y77033D01*
X49826Y77030D01*
X49814Y77025D01*
X49807D01*
X49802Y77023D01*
X49798D01*
X49790Y77025D01*
X49781Y77026D01*
X49767Y77032D01*
X49762Y77035D01*
X49758Y77036D01*
X49756Y77039D01*
X49755D01*
X49749Y77046D01*
X49745Y77053D01*
X49741Y77067D01*
X49739Y77072D01*
X49738Y77078D01*
Y77081D01*
Y77082D01*
Y77208D01*
X49462D01*
X49453Y77211D01*
X49437Y77217D01*
X49426Y77225D01*
X49419Y77235D01*
X49413Y77243D01*
X49412Y77252D01*
X49411Y77257D01*
Y77260D01*
X49412Y77270D01*
Y77273D01*
Y77274D01*
X49413Y77280D01*
X49415Y77282D01*
X49416Y77285D01*
X49600Y77932D01*
X49607Y77946D01*
X49614Y77956D01*
X49619Y77963D01*
X49622Y77964D01*
X49635Y77971D01*
X49646Y77975D01*
X49654Y77977D01*
X49665D01*
X49674Y77974D01*
D02*
G37*
G36*
X49192Y77975D02*
X49201Y77974D01*
X49209Y77971D01*
X49215Y77968D01*
X49220Y77964D01*
X49223Y77961D01*
X49226Y77960D01*
Y77958D01*
X49231Y77951D01*
X49234Y77944D01*
X49240Y77930D01*
Y77925D01*
X49241Y77921D01*
Y77918D01*
Y77916D01*
Y77908D01*
X49238Y77901D01*
X49234Y77887D01*
X49231Y77881D01*
X49229Y77877D01*
X49227Y77876D01*
X49226Y77874D01*
X49219Y77869D01*
X49212Y77865D01*
X49198Y77859D01*
X49191Y77858D01*
X49185Y77856D01*
X48950D01*
X48938Y77855D01*
X48928Y77853D01*
X48918Y77849D01*
X48910Y77845D01*
X48903Y77841D01*
X48898Y77838D01*
X48896Y77835D01*
X48894Y77834D01*
X48887Y77825D01*
X48882Y77816D01*
X48877Y77806D01*
X48875Y77797D01*
X48873Y77789D01*
X48872Y77783D01*
Y77779D01*
Y77778D01*
Y77222D01*
X48873Y77210D01*
X48876Y77198D01*
X48879Y77189D01*
X48883Y77180D01*
X48887Y77173D01*
X48891Y77168D01*
X48893Y77165D01*
X48894Y77163D01*
X48903Y77156D01*
X48912Y77151D01*
X48922Y77147D01*
X48931Y77144D01*
X48939Y77142D01*
X48945Y77141D01*
X49192D01*
X49201Y77138D01*
X49209Y77135D01*
X49215Y77133D01*
X49220Y77130D01*
X49223Y77127D01*
X49226Y77126D01*
Y77124D01*
X49231Y77117D01*
X49234Y77110D01*
X49240Y77098D01*
Y77091D01*
X49241Y77086D01*
Y77084D01*
Y77082D01*
Y77074D01*
X49238Y77067D01*
X49234Y77054D01*
X49229Y77044D01*
X49227Y77043D01*
X49226Y77042D01*
X49219Y77036D01*
X49212Y77032D01*
X49198Y77026D01*
X49191Y77025D01*
X49185Y77023D01*
X48950D01*
X48935Y77025D01*
X48921Y77026D01*
X48893Y77033D01*
X48868Y77044D01*
X48847Y77056D01*
X48828Y77067D01*
X48816Y77078D01*
X48807Y77085D01*
X48806Y77088D01*
X48805D01*
X48786Y77107D01*
X48772Y77130D01*
X48764Y77152D01*
X48757Y77175D01*
X48753Y77193D01*
X48751Y77208D01*
X48750Y77214D01*
Y77218D01*
Y77221D01*
Y77222D01*
Y77778D01*
X48753Y77807D01*
X48758Y77835D01*
X48768Y77859D01*
X48779Y77879D01*
X48789Y77895D01*
X48799Y77908D01*
X48805Y77915D01*
X48807Y77918D01*
X48830Y77937D01*
X48855Y77951D01*
X48879Y77963D01*
X48901Y77970D01*
X48921Y77974D01*
X48936Y77975D01*
X48942Y77977D01*
X49181D01*
X49192Y77975D01*
D02*
G37*
G36*
X41925Y82377D02*
X41932Y82376D01*
X41943Y82370D01*
X41950Y82363D01*
X41953Y82362D01*
Y82360D01*
X41959Y82353D01*
X41961Y82346D01*
X41967Y82331D01*
Y82324D01*
X41968Y82320D01*
Y82316D01*
Y82314D01*
Y81480D01*
X41967Y81470D01*
X41966Y81462D01*
X41960Y81448D01*
X41953Y81440D01*
X41952Y81438D01*
X41950Y81437D01*
X41943Y81431D01*
X41936Y81428D01*
X41924Y81423D01*
X41917D01*
X41912Y81421D01*
X41908D01*
X41900Y81423D01*
X41892Y81424D01*
X41879Y81430D01*
X41873Y81433D01*
X41869Y81434D01*
X41868Y81437D01*
X41866D01*
X41861Y81444D01*
X41857Y81451D01*
X41851Y81465D01*
X41850Y81470D01*
X41848Y81476D01*
Y81479D01*
Y81480D01*
Y82188D01*
X41768Y82104D01*
X41760Y82092D01*
X41752Y82083D01*
X41745Y82076D01*
X41738Y82072D01*
X41732Y82069D01*
X41728Y82068D01*
X41724D01*
X41715Y82069D01*
X41707Y82071D01*
X41693Y82078D01*
X41687Y82081D01*
X41683Y82083D01*
X41682Y82085D01*
X41680Y82086D01*
X41675Y82093D01*
X41670Y82100D01*
X41665Y82114D01*
X41663Y82121D01*
X41662Y82125D01*
Y82128D01*
Y82130D01*
X41663Y82138D01*
X41665Y82145D01*
X41672Y82159D01*
X41676Y82165D01*
X41679Y82169D01*
X41680Y82170D01*
X41682Y82172D01*
X41865Y82355D01*
X41875Y82363D01*
X41883Y82369D01*
X41893Y82373D01*
X41900Y82376D01*
X41907Y82377D01*
X41912Y82379D01*
X41917D01*
X41925Y82377D01*
D02*
G37*
G36*
X41442Y82373D02*
X41451Y82372D01*
X41459Y82369D01*
X41465Y82366D01*
X41470Y82362D01*
X41473Y82359D01*
X41476Y82358D01*
Y82356D01*
X41481Y82349D01*
X41484Y82342D01*
X41490Y82328D01*
Y82323D01*
X41491Y82318D01*
Y82316D01*
Y82314D01*
Y82306D01*
X41488Y82299D01*
X41484Y82285D01*
X41481Y82279D01*
X41479Y82275D01*
X41477Y82274D01*
X41476Y82272D01*
X41469Y82267D01*
X41462Y82262D01*
X41448Y82257D01*
X41441Y82255D01*
X41435Y82254D01*
X41200D01*
X41188Y82253D01*
X41178Y82251D01*
X41168Y82247D01*
X41160Y82243D01*
X41153Y82239D01*
X41148Y82236D01*
X41146Y82233D01*
X41144Y82232D01*
X41137Y82223D01*
X41132Y82214D01*
X41127Y82204D01*
X41125Y82195D01*
X41123Y82187D01*
X41122Y82181D01*
Y82177D01*
Y82176D01*
Y81620D01*
X41123Y81607D01*
X41126Y81596D01*
X41129Y81587D01*
X41133Y81578D01*
X41137Y81571D01*
X41141Y81566D01*
X41143Y81563D01*
X41144Y81561D01*
X41153Y81554D01*
X41162Y81549D01*
X41172Y81545D01*
X41181Y81542D01*
X41189Y81540D01*
X41195Y81539D01*
X41442D01*
X41451Y81536D01*
X41459Y81533D01*
X41465Y81531D01*
X41470Y81528D01*
X41473Y81525D01*
X41476Y81524D01*
Y81522D01*
X41481Y81515D01*
X41484Y81508D01*
X41490Y81496D01*
Y81489D01*
X41491Y81484D01*
Y81482D01*
Y81480D01*
Y81472D01*
X41488Y81465D01*
X41484Y81452D01*
X41479Y81442D01*
X41477Y81441D01*
X41476Y81440D01*
X41469Y81434D01*
X41462Y81430D01*
X41448Y81424D01*
X41441Y81423D01*
X41435Y81421D01*
X41200D01*
X41185Y81423D01*
X41171Y81424D01*
X41143Y81431D01*
X41118Y81442D01*
X41097Y81454D01*
X41078Y81465D01*
X41066Y81476D01*
X41057Y81483D01*
X41056Y81486D01*
X41055D01*
X41036Y81505D01*
X41022Y81528D01*
X41014Y81550D01*
X41007Y81573D01*
X41003Y81591D01*
X41001Y81606D01*
X41000Y81612D01*
Y81616D01*
Y81619D01*
Y81620D01*
Y82176D01*
X41003Y82205D01*
X41008Y82233D01*
X41018Y82257D01*
X41029Y82276D01*
X41039Y82293D01*
X41049Y82306D01*
X41055Y82313D01*
X41057Y82316D01*
X41080Y82335D01*
X41105Y82349D01*
X41129Y82360D01*
X41151Y82367D01*
X41171Y82372D01*
X41186Y82373D01*
X41192Y82374D01*
X41431D01*
X41442Y82373D01*
D02*
G37*
G36*
X40651Y80848D02*
X40669Y80846D01*
X40703Y80838D01*
X40732Y80827D01*
X40758Y80814D01*
X40779Y80800D01*
X40787Y80794D01*
X40794Y80789D01*
X40800Y80785D01*
X40804Y80780D01*
X40805Y80779D01*
X40807Y80778D01*
X40819Y80764D01*
X40829Y80750D01*
X40839Y80736D01*
X40847Y80720D01*
X40860Y80691D01*
X40868Y80664D01*
X40872Y80640D01*
X40874Y80631D01*
X40875Y80621D01*
X40877Y80614D01*
Y80418D01*
X40875Y80408D01*
X40874Y80400D01*
X40868Y80386D01*
X40865Y80380D01*
X40863Y80376D01*
X40860Y80375D01*
Y80373D01*
X40853Y80368D01*
X40846Y80365D01*
X40833Y80359D01*
X40828D01*
X40823Y80358D01*
X40821D01*
X40819D01*
X40811Y80359D01*
X40802Y80361D01*
X40790Y80366D01*
X40784Y80369D01*
X40780Y80370D01*
X40779Y80373D01*
X40777D01*
X40772Y80380D01*
X40766Y80387D01*
X40762Y80403D01*
X40760Y80408D01*
X40759Y80414D01*
Y80604D01*
X40758Y80622D01*
X40753Y80638D01*
X40752Y80643D01*
X40751Y80647D01*
X40749Y80650D01*
Y80652D01*
X40741Y80667D01*
X40732Y80680D01*
X40725Y80688D01*
X40723Y80689D01*
Y80691D01*
X40709Y80703D01*
X40696Y80712D01*
X40690Y80715D01*
X40686Y80717D01*
X40683Y80719D01*
X40682D01*
X40665Y80724D01*
X40648Y80727D01*
X40643Y80729D01*
X40637D01*
X40634D01*
X40633D01*
X40539D01*
X40521Y80727D01*
X40506Y80724D01*
X40500Y80722D01*
X40496Y80720D01*
X40493Y80719D01*
X40492D01*
X40476Y80710D01*
X40464Y80701D01*
X40455Y80694D01*
X40454Y80692D01*
X40452Y80691D01*
X40440Y80678D01*
X40431Y80666D01*
X40429Y80660D01*
X40426Y80656D01*
X40424Y80653D01*
Y80652D01*
X40419Y80635D01*
X40416Y80619D01*
X40415Y80614D01*
Y80510D01*
X40413Y80501D01*
X40412Y80492D01*
X40406Y80478D01*
X40403Y80474D01*
X40401Y80470D01*
X40398Y80468D01*
Y80467D01*
X40391Y80461D01*
X40384Y80457D01*
X40370Y80453D01*
X40363Y80452D01*
X40359Y80450D01*
X40356D01*
X40355D01*
X40346Y80452D01*
X40339Y80453D01*
X40327Y80459D01*
X40318Y80463D01*
X40317Y80466D01*
X40315D01*
X40310Y80473D01*
X40304Y80480D01*
X40300Y80495D01*
X40299Y80501D01*
X40297Y80506D01*
Y80604D01*
X40296Y80624D01*
X40292Y80640D01*
X40285Y80656D01*
X40278Y80668D01*
X40271Y80678D01*
X40264Y80687D01*
X40259Y80691D01*
X40258Y80692D01*
X40243Y80703D01*
X40227Y80712D01*
X40212Y80717D01*
X40198Y80722D01*
X40185Y80724D01*
X40175Y80726D01*
X40170D01*
X40167D01*
X40149Y80724D01*
X40132Y80722D01*
X40118Y80716D01*
X40105Y80712D01*
X40096Y80706D01*
X40089Y80701D01*
X40084Y80698D01*
X40083Y80696D01*
X40070Y80682D01*
X40061Y80668D01*
X40055Y80653D01*
X40049Y80638D01*
X40047Y80625D01*
X40045Y80614D01*
Y80418D01*
X40044Y80408D01*
X40042Y80400D01*
X40037Y80386D01*
X40034Y80380D01*
X40031Y80376D01*
X40028Y80375D01*
Y80373D01*
X40021Y80368D01*
X40013Y80365D01*
X39999Y80359D01*
X39993D01*
X39988Y80358D01*
X39985D01*
X39984D01*
X39975Y80359D01*
X39968Y80361D01*
X39956Y80366D01*
X39947Y80370D01*
X39946Y80373D01*
X39944D01*
X39937Y80380D01*
X39933Y80387D01*
X39928Y80403D01*
X39926Y80408D01*
X39925Y80414D01*
Y80604D01*
X39926Y80625D01*
X39928Y80645D01*
X39932Y80661D01*
X39936Y80678D01*
X39942Y80694D01*
X39947Y80706D01*
X39960Y80730D01*
X39974Y80747D01*
X39985Y80759D01*
X39993Y80766D01*
X39995Y80769D01*
X39996D01*
X40010Y80783D01*
X40024Y80796D01*
X40040Y80806D01*
X40054Y80815D01*
X40069Y80824D01*
X40083Y80829D01*
X40110Y80839D01*
X40133Y80845D01*
X40143Y80846D01*
X40152Y80848D01*
X40159Y80849D01*
X40164D01*
X40167D01*
X40168D01*
X40191Y80848D01*
X40212Y80845D01*
X40230Y80842D01*
X40248Y80838D01*
X40262Y80832D01*
X40272Y80829D01*
X40279Y80827D01*
X40282Y80825D01*
X40300Y80815D01*
X40315Y80806D01*
X40328Y80794D01*
X40339Y80783D01*
X40348Y80773D01*
X40353Y80766D01*
X40356Y80761D01*
X40357Y80759D01*
X40367Y80773D01*
X40378Y80786D01*
X40391Y80797D01*
X40403Y80807D01*
X40415Y80814D01*
X40423Y80820D01*
X40429Y80822D01*
X40431Y80824D01*
X40450Y80832D01*
X40469Y80838D01*
X40487Y80843D01*
X40504Y80846D01*
X40518Y80848D01*
X40529Y80849D01*
X40536D01*
X40539D01*
X40633D01*
X40651Y80848D01*
D02*
G37*
G36*
X40833Y80188D02*
X40846Y80184D01*
X40856Y80179D01*
X40857Y80177D01*
X40858Y80176D01*
X40864Y80169D01*
X40868Y80162D01*
X40874Y80148D01*
X40875Y80141D01*
X40877Y80135D01*
Y79900D01*
X40875Y79885D01*
X40874Y79871D01*
X40867Y79843D01*
X40856Y79818D01*
X40844Y79797D01*
X40833Y79778D01*
X40822Y79766D01*
X40815Y79757D01*
X40812Y79756D01*
Y79755D01*
X40793Y79736D01*
X40770Y79722D01*
X40748Y79714D01*
X40725Y79707D01*
X40707Y79703D01*
X40692Y79701D01*
X40686Y79700D01*
X40682D01*
X40679D01*
X40678D01*
X40122D01*
X40093Y79703D01*
X40065Y79708D01*
X40041Y79718D01*
X40021Y79729D01*
X40005Y79739D01*
X39992Y79749D01*
X39985Y79755D01*
X39982Y79757D01*
X39963Y79780D01*
X39949Y79805D01*
X39937Y79829D01*
X39930Y79851D01*
X39926Y79871D01*
X39925Y79886D01*
X39923Y79892D01*
Y80131D01*
X39925Y80142D01*
X39926Y80151D01*
X39929Y80159D01*
X39932Y80165D01*
X39936Y80170D01*
X39939Y80173D01*
X39940Y80176D01*
X39942D01*
X39949Y80181D01*
X39956Y80184D01*
X39970Y80190D01*
X39975D01*
X39979Y80191D01*
X39982D01*
X39984D01*
X39992D01*
X39999Y80188D01*
X40013Y80184D01*
X40019Y80181D01*
X40023Y80179D01*
X40024Y80177D01*
X40026Y80176D01*
X40031Y80169D01*
X40035Y80162D01*
X40041Y80148D01*
X40042Y80141D01*
X40044Y80135D01*
Y79900D01*
X40045Y79888D01*
X40047Y79878D01*
X40051Y79868D01*
X40055Y79860D01*
X40059Y79853D01*
X40062Y79848D01*
X40065Y79846D01*
X40066Y79844D01*
X40075Y79837D01*
X40084Y79832D01*
X40094Y79827D01*
X40103Y79825D01*
X40111Y79823D01*
X40117Y79822D01*
X40121D01*
X40122D01*
X40678D01*
X40690Y79823D01*
X40702Y79826D01*
X40711Y79829D01*
X40720Y79833D01*
X40727Y79837D01*
X40732Y79841D01*
X40735Y79843D01*
X40737Y79844D01*
X40744Y79853D01*
X40749Y79862D01*
X40753Y79872D01*
X40756Y79881D01*
X40758Y79889D01*
X40759Y79895D01*
Y80142D01*
X40762Y80151D01*
X40765Y80159D01*
X40767Y80165D01*
X40770Y80170D01*
X40773Y80173D01*
X40774Y80176D01*
X40776D01*
X40783Y80181D01*
X40790Y80184D01*
X40802Y80190D01*
X40809D01*
X40814Y80191D01*
X40816D01*
X40818D01*
X40826D01*
X40833Y80188D01*
D02*
G37*
G36*
X50898Y80975D02*
X50918Y80974D01*
X50954Y80964D01*
X50988Y80953D01*
X51016Y80939D01*
X51027Y80930D01*
X51038Y80923D01*
X51047Y80918D01*
X51055Y80912D01*
X51061Y80907D01*
X51065Y80902D01*
X51068Y80901D01*
X51069Y80900D01*
X51083Y80886D01*
X51096Y80870D01*
X51106Y80855D01*
X51115Y80839D01*
X51124Y80824D01*
X51129Y80809D01*
X51139Y80781D01*
X51145Y80757D01*
X51146Y80746D01*
X51148Y80737D01*
X51149Y80729D01*
Y80723D01*
Y80720D01*
Y80719D01*
X51148Y80695D01*
X51143Y80673D01*
X51139Y80653D01*
X51134Y80635D01*
X51127Y80620D01*
X51122Y80607D01*
X51118Y80600D01*
X51117Y80597D01*
X50820Y80141D01*
X51104D01*
X51113Y80138D01*
X51121Y80135D01*
X51127Y80133D01*
X51132Y80130D01*
X51135Y80127D01*
X51138Y80126D01*
Y80124D01*
X51143Y80117D01*
X51146Y80110D01*
X51152Y80098D01*
Y80091D01*
X51153Y80086D01*
Y80084D01*
Y80082D01*
Y80074D01*
X51150Y80067D01*
X51146Y80054D01*
X51141Y80044D01*
X51139Y80043D01*
X51138Y80042D01*
X51131Y80036D01*
X51124Y80032D01*
X51110Y80026D01*
X51103Y80025D01*
X51097Y80023D01*
X50712D01*
X50703Y80026D01*
X50686Y80032D01*
X50675Y80039D01*
X50668Y80049D01*
X50662Y80058D01*
X50661Y80065D01*
X50659Y80071D01*
Y80074D01*
X50662Y80088D01*
X50666Y80100D01*
X50669Y80106D01*
X50670Y80110D01*
X50673Y80113D01*
Y80114D01*
X51013Y80659D01*
X51019Y80670D01*
X51023Y80681D01*
X51026Y80692D01*
X51029Y80702D01*
Y80711D01*
X51030Y80716D01*
Y80720D01*
Y80722D01*
X51029Y80741D01*
X51023Y80760D01*
X51017Y80776D01*
X51009Y80790D01*
X51002Y80800D01*
X50995Y80809D01*
X50989Y80814D01*
X50988Y80816D01*
X50971Y80830D01*
X50953Y80839D01*
X50936Y80846D01*
X50919Y80851D01*
X50905Y80855D01*
X50893Y80856D01*
X50883D01*
X50871Y80855D01*
X50859Y80853D01*
X50850Y80851D01*
X50840Y80848D01*
X50833Y80844D01*
X50827Y80841D01*
X50823Y80839D01*
X50822Y80838D01*
X50802Y80824D01*
X50787Y80809D01*
X50781Y80802D01*
X50777Y80796D01*
X50774Y80792D01*
X50773Y80790D01*
X50766Y80782D01*
X50759Y80775D01*
X50750Y80771D01*
X50742Y80767D01*
X50735Y80765D01*
X50729Y80764D01*
X50724D01*
X50715Y80765D01*
X50708Y80767D01*
X50694Y80772D01*
X50689Y80775D01*
X50684Y80778D01*
X50683Y80781D01*
X50682D01*
X50675Y80788D01*
X50670Y80795D01*
X50665Y80809D01*
X50663Y80814D01*
X50662Y80818D01*
Y80821D01*
Y80823D01*
X50663Y80834D01*
X50666Y80844D01*
X50669Y80849D01*
X50670Y80852D01*
X50684Y80872D01*
X50700Y80890D01*
X50715Y80905D01*
X50729Y80918D01*
X50742Y80928D01*
X50753Y80936D01*
X50759Y80940D01*
X50761Y80942D01*
X50782Y80953D01*
X50802Y80961D01*
X50822Y80968D01*
X50840Y80972D01*
X50855Y80975D01*
X50868Y80977D01*
X50878D01*
X50898Y80975D01*
D02*
G37*
G36*
X50442D02*
X50451Y80974D01*
X50459Y80971D01*
X50465Y80968D01*
X50470Y80964D01*
X50473Y80961D01*
X50476Y80960D01*
Y80958D01*
X50481Y80951D01*
X50484Y80944D01*
X50490Y80930D01*
Y80925D01*
X50491Y80921D01*
Y80918D01*
Y80916D01*
Y80908D01*
X50488Y80901D01*
X50484Y80887D01*
X50481Y80881D01*
X50479Y80877D01*
X50477Y80876D01*
X50476Y80874D01*
X50469Y80869D01*
X50462Y80865D01*
X50448Y80859D01*
X50441Y80858D01*
X50435Y80856D01*
X50200D01*
X50188Y80855D01*
X50178Y80853D01*
X50168Y80849D01*
X50160Y80845D01*
X50153Y80841D01*
X50148Y80838D01*
X50146Y80835D01*
X50144Y80834D01*
X50137Y80825D01*
X50132Y80816D01*
X50127Y80806D01*
X50125Y80797D01*
X50123Y80789D01*
X50122Y80783D01*
Y80779D01*
Y80778D01*
Y80222D01*
X50123Y80210D01*
X50126Y80198D01*
X50129Y80189D01*
X50133Y80180D01*
X50137Y80173D01*
X50141Y80168D01*
X50143Y80165D01*
X50144Y80163D01*
X50153Y80156D01*
X50162Y80151D01*
X50172Y80147D01*
X50181Y80144D01*
X50189Y80142D01*
X50195Y80141D01*
X50442D01*
X50451Y80138D01*
X50459Y80135D01*
X50465Y80133D01*
X50470Y80130D01*
X50473Y80127D01*
X50476Y80126D01*
Y80124D01*
X50481Y80117D01*
X50484Y80110D01*
X50490Y80098D01*
Y80091D01*
X50491Y80086D01*
Y80084D01*
Y80082D01*
Y80074D01*
X50488Y80067D01*
X50484Y80054D01*
X50479Y80044D01*
X50477Y80043D01*
X50476Y80042D01*
X50469Y80036D01*
X50462Y80032D01*
X50448Y80026D01*
X50441Y80025D01*
X50435Y80023D01*
X50200D01*
X50185Y80025D01*
X50171Y80026D01*
X50143Y80033D01*
X50118Y80044D01*
X50097Y80056D01*
X50078Y80067D01*
X50066Y80078D01*
X50057Y80085D01*
X50056Y80088D01*
X50055D01*
X50036Y80107D01*
X50022Y80130D01*
X50014Y80152D01*
X50007Y80175D01*
X50003Y80193D01*
X50001Y80208D01*
X50000Y80214D01*
Y80218D01*
Y80221D01*
Y80222D01*
Y80778D01*
X50003Y80807D01*
X50008Y80835D01*
X50018Y80859D01*
X50029Y80879D01*
X50039Y80895D01*
X50049Y80908D01*
X50055Y80915D01*
X50057Y80918D01*
X50080Y80937D01*
X50105Y80951D01*
X50129Y80963D01*
X50151Y80970D01*
X50171Y80974D01*
X50186Y80975D01*
X50192Y80977D01*
X50431D01*
X50442Y80975D01*
D02*
G37*
G36*
X44584Y73227D02*
X44591Y73226D01*
X44602Y73220D01*
X44609Y73213D01*
X44612Y73212D01*
Y73210D01*
X44617Y73203D01*
X44620Y73196D01*
X44626Y73181D01*
Y73174D01*
X44627Y73170D01*
Y73166D01*
Y73164D01*
Y72330D01*
X44626Y72320D01*
X44624Y72312D01*
X44619Y72298D01*
X44612Y72290D01*
X44610Y72288D01*
X44609Y72287D01*
X44602Y72281D01*
X44595Y72278D01*
X44582Y72273D01*
X44575D01*
X44571Y72271D01*
X44567D01*
X44558Y72273D01*
X44550Y72274D01*
X44538Y72280D01*
X44532Y72283D01*
X44528Y72284D01*
X44526Y72287D01*
X44525D01*
X44519Y72294D01*
X44515Y72301D01*
X44510Y72315D01*
X44508Y72320D01*
X44507Y72326D01*
Y72329D01*
Y72330D01*
Y73038D01*
X44427Y72954D01*
X44419Y72942D01*
X44410Y72933D01*
X44403Y72926D01*
X44396Y72922D01*
X44391Y72919D01*
X44386Y72918D01*
X44382D01*
X44374Y72919D01*
X44365Y72921D01*
X44351Y72928D01*
X44346Y72931D01*
X44342Y72933D01*
X44340Y72935D01*
X44339Y72936D01*
X44333Y72943D01*
X44329Y72950D01*
X44323Y72964D01*
X44322Y72971D01*
X44321Y72975D01*
Y72978D01*
Y72980D01*
X44322Y72988D01*
X44323Y72995D01*
X44330Y73009D01*
X44335Y73015D01*
X44337Y73019D01*
X44339Y73020D01*
X44340Y73022D01*
X44524Y73205D01*
X44533Y73213D01*
X44542Y73219D01*
X44551Y73223D01*
X44558Y73226D01*
X44565Y73227D01*
X44571Y73229D01*
X44575D01*
X44584Y73227D01*
D02*
G37*
G36*
X44101Y73223D02*
X44109Y73222D01*
X44118Y73219D01*
X44123Y73216D01*
X44129Y73212D01*
X44132Y73209D01*
X44134Y73208D01*
Y73206D01*
X44140Y73199D01*
X44143Y73192D01*
X44148Y73178D01*
Y73173D01*
X44150Y73168D01*
Y73166D01*
Y73164D01*
Y73156D01*
X44147Y73149D01*
X44143Y73135D01*
X44140Y73129D01*
X44137Y73125D01*
X44136Y73124D01*
X44134Y73122D01*
X44127Y73117D01*
X44120Y73112D01*
X44106Y73107D01*
X44099Y73105D01*
X44094Y73104D01*
X43859D01*
X43846Y73103D01*
X43836Y73101D01*
X43827Y73097D01*
X43818Y73093D01*
X43811Y73089D01*
X43807Y73086D01*
X43804Y73083D01*
X43803Y73082D01*
X43796Y73073D01*
X43790Y73063D01*
X43786Y73054D01*
X43783Y73045D01*
X43782Y73037D01*
X43780Y73031D01*
Y73027D01*
Y73026D01*
Y72470D01*
X43782Y72457D01*
X43785Y72446D01*
X43787Y72437D01*
X43792Y72428D01*
X43796Y72421D01*
X43800Y72416D01*
X43801Y72413D01*
X43803Y72411D01*
X43811Y72404D01*
X43821Y72399D01*
X43831Y72395D01*
X43839Y72392D01*
X43848Y72390D01*
X43853Y72389D01*
X44101D01*
X44109Y72386D01*
X44118Y72383D01*
X44123Y72381D01*
X44129Y72378D01*
X44132Y72375D01*
X44134Y72374D01*
Y72372D01*
X44140Y72365D01*
X44143Y72358D01*
X44148Y72346D01*
Y72339D01*
X44150Y72334D01*
Y72332D01*
Y72330D01*
Y72322D01*
X44147Y72315D01*
X44143Y72302D01*
X44137Y72292D01*
X44136Y72291D01*
X44134Y72290D01*
X44127Y72284D01*
X44120Y72280D01*
X44106Y72274D01*
X44099Y72273D01*
X44094Y72271D01*
X43859D01*
X43843Y72273D01*
X43829Y72274D01*
X43801Y72281D01*
X43776Y72292D01*
X43755Y72304D01*
X43737Y72315D01*
X43724Y72326D01*
X43716Y72333D01*
X43715Y72336D01*
X43713D01*
X43695Y72355D01*
X43681Y72378D01*
X43673Y72400D01*
X43666Y72423D01*
X43661Y72441D01*
X43660Y72456D01*
X43659Y72462D01*
Y72466D01*
Y72469D01*
Y72470D01*
Y73026D01*
X43661Y73055D01*
X43667Y73083D01*
X43677Y73107D01*
X43688Y73126D01*
X43698Y73143D01*
X43708Y73156D01*
X43713Y73163D01*
X43716Y73166D01*
X43738Y73185D01*
X43764Y73199D01*
X43787Y73210D01*
X43810Y73217D01*
X43829Y73222D01*
X43845Y73223D01*
X43850Y73224D01*
X44090D01*
X44101Y73223D01*
D02*
G37*
G36*
X43453Y73222D02*
X43465Y73216D01*
X43471Y73213D01*
X43475Y73210D01*
X43477Y73209D01*
X43478Y73208D01*
X43484Y73202D01*
X43489Y73195D01*
X43493Y73180D01*
X43495Y73174D01*
X43496Y73168D01*
Y73166D01*
Y73164D01*
Y72330D01*
X43495Y72320D01*
X43493Y72312D01*
X43488Y72298D01*
X43481Y72290D01*
X43479Y72288D01*
X43478Y72287D01*
X43471Y72281D01*
X43464Y72278D01*
X43451Y72273D01*
X43444D01*
X43440Y72271D01*
X43436D01*
X43428Y72273D01*
X43419Y72274D01*
X43405Y72280D01*
X43400Y72283D01*
X43395Y72284D01*
X43394Y72287D01*
X43393D01*
X43387Y72294D01*
X43383Y72301D01*
X43377Y72315D01*
X43376Y72320D01*
X43374Y72326D01*
Y72329D01*
Y72330D01*
Y73164D01*
X43376Y73174D01*
X43377Y73182D01*
X43383Y73196D01*
X43386Y73201D01*
X43388Y73205D01*
X43391Y73206D01*
Y73208D01*
X43398Y73213D01*
X43407Y73217D01*
X43421Y73223D01*
X43426D01*
X43432Y73224D01*
X43444D01*
X43453Y73222D01*
D02*
G37*
%LPC*%
G36*
X47734Y68480D02*
X47651D01*
X47632Y68478D01*
X47616Y68474D01*
X47599Y68467D01*
X47586Y68461D01*
X47575Y68454D01*
X47567Y68446D01*
X47562Y68443D01*
X47560Y68441D01*
X47547Y68426D01*
X47538Y68411D01*
X47532Y68396D01*
X47528Y68382D01*
X47525Y68369D01*
X47523Y68359D01*
Y68352D01*
Y68350D01*
Y67665D01*
X47525Y67645D01*
X47528Y67626D01*
X47534Y67611D01*
X47541Y67596D01*
X47549Y67585D01*
X47554Y67578D01*
X47558Y67572D01*
X47560Y67571D01*
X47575Y67558D01*
X47591Y67548D01*
X47606Y67543D01*
X47619Y67539D01*
X47632Y67535D01*
X47641Y67533D01*
X47725D01*
X47743Y67535D01*
X47762Y67539D01*
X47777Y67545D01*
X47790Y67552D01*
X47801Y67559D01*
X47808Y67565D01*
X47814Y67569D01*
X47815Y67571D01*
X47828Y67585D01*
X47838Y67602D01*
X47845Y67617D01*
X47849Y67632D01*
X47853Y67645D01*
X47854Y67656D01*
Y67663D01*
Y67665D01*
Y68350D01*
X47853Y68369D01*
X47849Y68387D01*
X47841Y68402D01*
X47836Y68415D01*
X47828Y68426D01*
X47821Y68433D01*
X47817Y68439D01*
X47815Y68441D01*
X47801Y68454D01*
X47786Y68463D01*
X47771Y68470D01*
X47756Y68474D01*
X47743Y68478D01*
X47734Y68480D01*
D02*
G37*
G36*
X41974D02*
X41890D01*
X41872Y68478D01*
X41855Y68474D01*
X41838Y68467D01*
X41825Y68461D01*
X41814Y68454D01*
X41807Y68446D01*
X41801Y68443D01*
X41799Y68441D01*
X41786Y68426D01*
X41777Y68411D01*
X41772Y68396D01*
X41768Y68382D01*
X41764Y68369D01*
X41762Y68359D01*
Y68352D01*
Y68350D01*
Y67665D01*
X41764Y67645D01*
X41768Y67626D01*
X41774Y67611D01*
X41781Y67596D01*
X41788Y67585D01*
X41794Y67578D01*
X41798Y67572D01*
X41799Y67571D01*
X41814Y67558D01*
X41831Y67548D01*
X41846Y67543D01*
X41859Y67539D01*
X41872Y67535D01*
X41881Y67533D01*
X41964D01*
X41983Y67535D01*
X42001Y67539D01*
X42016Y67545D01*
X42029Y67552D01*
X42040Y67559D01*
X42048Y67565D01*
X42053Y67569D01*
X42055Y67571D01*
X42068Y67585D01*
X42077Y67602D01*
X42085Y67617D01*
X42088Y67632D01*
X42092Y67645D01*
X42094Y67656D01*
Y67663D01*
Y67665D01*
Y68350D01*
X42092Y68369D01*
X42088Y68387D01*
X42081Y68402D01*
X42075Y68415D01*
X42068Y68426D01*
X42061Y68433D01*
X42057Y68439D01*
X42055Y68441D01*
X42040Y68454D01*
X42025Y68463D01*
X42011Y68470D01*
X41996Y68474D01*
X41983Y68478D01*
X41974Y68480D01*
D02*
G37*
G36*
X41120Y67991D02*
X40888D01*
Y67641D01*
X40890Y67624D01*
X40892Y67609D01*
X40898Y67596D01*
X40903Y67585D01*
X40907Y67576D01*
X40913Y67569D01*
X40914Y67565D01*
X40916Y67563D01*
X40927Y67554D01*
X40940Y67546D01*
X40953Y67541D01*
X40964Y67537D01*
X40975Y67535D01*
X40983Y67533D01*
X41112D01*
X41127Y67535D01*
X41142Y67539D01*
X41155Y67543D01*
X41166Y67550D01*
X41174Y67556D01*
X41181Y67559D01*
X41185Y67563D01*
X41187Y67565D01*
X41198Y67578D01*
X41205Y67591D01*
X41211Y67602D01*
X41214Y67615D01*
X41216Y67626D01*
X41218Y67633D01*
Y67639D01*
Y67641D01*
Y67885D01*
X41216Y67900D01*
X41212Y67915D01*
X41209Y67928D01*
X41203Y67939D01*
X41196Y67946D01*
X41192Y67954D01*
X41188Y67958D01*
X41187Y67959D01*
X41174Y67970D01*
X41162Y67978D01*
X41150Y67983D01*
X41138Y67987D01*
X41127Y67989D01*
X41120Y67991D01*
D02*
G37*
G36*
X40244D02*
X40013D01*
Y67641D01*
X40014Y67624D01*
X40016Y67609D01*
X40022Y67596D01*
X40027Y67585D01*
X40031Y67576D01*
X40037Y67569D01*
X40039Y67565D01*
X40040Y67563D01*
X40051Y67554D01*
X40064Y67546D01*
X40077Y67541D01*
X40089Y67537D01*
X40100Y67535D01*
X40107Y67533D01*
X40237D01*
X40251Y67535D01*
X40266Y67539D01*
X40279Y67543D01*
X40290Y67550D01*
X40298Y67556D01*
X40305Y67559D01*
X40309Y67563D01*
X40311Y67565D01*
X40322Y67578D01*
X40329Y67591D01*
X40335Y67602D01*
X40339Y67615D01*
X40340Y67626D01*
X40342Y67633D01*
Y67639D01*
Y67641D01*
Y67885D01*
X40340Y67900D01*
X40337Y67915D01*
X40333Y67928D01*
X40327Y67939D01*
X40320Y67946D01*
X40316Y67954D01*
X40313Y67958D01*
X40311Y67959D01*
X40298Y67970D01*
X40287Y67978D01*
X40274Y67983D01*
X40263Y67987D01*
X40251Y67989D01*
X40244Y67991D01*
D02*
G37*
G36*
X48506Y66828D02*
X48345Y66322D01*
X48669D01*
X48506Y66828D01*
D02*
G37*
G36*
X44877Y66957D02*
X44581D01*
Y66624D01*
X44870D01*
X44884Y66626D01*
X44897Y66630D01*
X44910Y66633D01*
X44920Y66641D01*
X44929Y66646D01*
X44934Y66650D01*
X44938Y66654D01*
X44940Y66655D01*
X44951Y66668D01*
X44958Y66679D01*
X44964Y66692D01*
X44968Y66704D01*
X44970Y66715D01*
X44971Y66722D01*
Y66728D01*
Y66729D01*
Y66854D01*
X44970Y66870D01*
X44968Y66883D01*
X44962Y66896D01*
X44957Y66907D01*
X44951Y66917D01*
X44947Y66922D01*
X44944Y66926D01*
X44942Y66928D01*
X44931Y66937D01*
X44918Y66944D01*
X44907Y66950D01*
X44895Y66954D01*
X44884Y66955D01*
X44877Y66957D01*
D02*
G37*
G36*
X44938Y66468D02*
X44581D01*
Y66011D01*
X44931D01*
X44945Y66013D01*
X44958Y66017D01*
X44971Y66020D01*
X44981Y66028D01*
X44990Y66033D01*
X44995Y66037D01*
X44999Y66041D01*
X45001Y66043D01*
X45012Y66055D01*
X45020Y66068D01*
X45025Y66080D01*
X45029Y66093D01*
X45031Y66104D01*
X45032Y66111D01*
Y66117D01*
Y66118D01*
Y66363D01*
X45031Y66378D01*
X45027Y66393D01*
X45023Y66405D01*
X45018Y66417D01*
X45010Y66424D01*
X45007Y66431D01*
X45003Y66435D01*
X45001Y66437D01*
X44990Y66448D01*
X44977Y66455D01*
X44966Y66461D01*
X44955Y66465D01*
X44945Y66467D01*
X44938Y66468D01*
D02*
G37*
G36*
X44036Y66589D02*
X43809D01*
X43792Y66587D01*
X43779Y66585D01*
X43766Y66580D01*
X43755Y66574D01*
X43746Y66568D01*
X43740Y66565D01*
X43736Y66561D01*
X43734Y66559D01*
X43725Y66548D01*
X43718Y66535D01*
X43712Y66524D01*
X43709Y66513D01*
X43707Y66502D01*
X43705Y66494D01*
Y66489D01*
Y66487D01*
Y66118D01*
X43707Y66102D01*
X43710Y66087D01*
X43714Y66074D01*
X43720Y66063D01*
X43725Y66054D01*
X43731Y66046D01*
X43733Y66043D01*
X43734Y66041D01*
X43746Y66031D01*
X43759Y66024D01*
X43771Y66018D01*
X43783Y66015D01*
X43794Y66013D01*
X43801Y66011D01*
X44036D01*
Y66589D01*
D02*
G37*
G36*
X43040Y66957D02*
X42957D01*
X42938Y66955D01*
X42922Y66952D01*
X42905Y66944D01*
X42892Y66939D01*
X42881Y66931D01*
X42873Y66924D01*
X42868Y66920D01*
X42866Y66918D01*
X42853Y66904D01*
X42844Y66889D01*
X42838Y66874D01*
X42835Y66859D01*
X42831Y66846D01*
X42829Y66837D01*
Y66829D01*
Y66828D01*
Y66143D01*
X42831Y66122D01*
X42835Y66104D01*
X42840Y66089D01*
X42847Y66074D01*
X42855Y66063D01*
X42860Y66055D01*
X42864Y66050D01*
X42866Y66048D01*
X42881Y66035D01*
X42897Y66026D01*
X42912Y66020D01*
X42925Y66017D01*
X42938Y66013D01*
X42947Y66011D01*
X43031D01*
X43049Y66013D01*
X43068Y66017D01*
X43083Y66022D01*
X43096Y66030D01*
X43107Y66037D01*
X43114Y66043D01*
X43120Y66046D01*
X43122Y66048D01*
X43135Y66063D01*
X43144Y66080D01*
X43151Y66094D01*
X43155Y66109D01*
X43159Y66122D01*
X43160Y66133D01*
Y66141D01*
Y66143D01*
Y66828D01*
X43159Y66846D01*
X43155Y66865D01*
X43147Y66879D01*
X43142Y66892D01*
X43135Y66904D01*
X43127Y66911D01*
X43123Y66917D01*
X43122Y66918D01*
X43107Y66931D01*
X43092Y66941D01*
X43077Y66948D01*
X43062Y66952D01*
X43049Y66955D01*
X43040Y66957D01*
D02*
G37*
G36*
X49888Y93355D02*
X49616D01*
Y92635D01*
X49882D01*
X49894Y92636D01*
X49904Y92639D01*
X49913Y92642D01*
X49920Y92648D01*
X49928Y92652D01*
X49932Y92655D01*
X49935Y92657D01*
X49936Y92659D01*
X49944Y92669D01*
X49950Y92679D01*
X49954Y92687D01*
X49957Y92697D01*
X49959Y92705D01*
X49960Y92711D01*
Y92715D01*
Y92717D01*
Y93276D01*
X49959Y93289D01*
X49957Y93299D01*
X49953Y93309D01*
X49949Y93317D01*
X49944Y93324D01*
X49942Y93328D01*
X49939Y93331D01*
X49937Y93333D01*
X49929Y93340D01*
X49919Y93345D01*
X49911Y93350D01*
X49902Y93352D01*
X49894Y93354D01*
X49888Y93355D01*
D02*
G37*
G36*
X49125D02*
X48853D01*
Y92635D01*
X49120D01*
X49131Y92636D01*
X49141Y92639D01*
X49151Y92642D01*
X49158Y92648D01*
X49165Y92652D01*
X49169Y92655D01*
X49172Y92657D01*
X49173Y92659D01*
X49182Y92669D01*
X49187Y92679D01*
X49192Y92687D01*
X49194Y92697D01*
X49196Y92705D01*
X49197Y92711D01*
Y92715D01*
Y92717D01*
Y93276D01*
X49196Y93289D01*
X49194Y93299D01*
X49190Y93309D01*
X49186Y93317D01*
X49182Y93324D01*
X49179Y93328D01*
X49176Y93331D01*
X49175Y93333D01*
X49166Y93340D01*
X49156Y93345D01*
X49148Y93350D01*
X49139Y93352D01*
X49131Y93354D01*
X49125Y93355D01*
D02*
G37*
G36*
X47363Y93257D02*
X47241Y92872D01*
X47487D01*
X47363Y93257D01*
D02*
G37*
G36*
X33378Y81721D02*
X33021D01*
Y81268D01*
X33371D01*
X33385Y81269D01*
X33398Y81273D01*
X33411Y81277D01*
X33421Y81282D01*
X33430Y81288D01*
X33435Y81294D01*
X33439Y81295D01*
X33441Y81297D01*
X33452Y81308D01*
X33459Y81321D01*
X33465Y81334D01*
X33469Y81345D01*
X33471Y81356D01*
X33472Y81364D01*
Y81369D01*
Y81371D01*
Y81618D01*
X33471Y81634D01*
X33469Y81647D01*
X33463Y81660D01*
X33458Y81671D01*
X33452Y81681D01*
X33448Y81686D01*
X33445Y81690D01*
X33443Y81692D01*
X33432Y81701D01*
X33419Y81708D01*
X33408Y81714D01*
X33396Y81718D01*
X33385Y81719D01*
X33378Y81721D01*
D02*
G37*
G36*
X46077Y88456D02*
X46071D01*
X46068D01*
X46050Y88454D01*
X46033Y88451D01*
X46018Y88446D01*
X46007Y88440D01*
X45997Y88435D01*
X45989Y88429D01*
X45984Y88426D01*
X45983Y88425D01*
X45970Y88411D01*
X45961Y88395D01*
X45954Y88380D01*
X45948Y88365D01*
X45945Y88352D01*
X45944Y88341D01*
Y88331D01*
X45945Y88310D01*
X45949Y88292D01*
X45956Y88276D01*
X45963Y88264D01*
X45970Y88253D01*
X45977Y88246D01*
X45982Y88240D01*
X45983Y88239D01*
X45996Y88229D01*
X46011Y88220D01*
X46025Y88215D01*
X46038Y88212D01*
X46050Y88209D01*
X46060Y88208D01*
X46066D01*
X46068D01*
X46088Y88209D01*
X46105Y88212D01*
X46120Y88218D01*
X46133Y88223D01*
X46143Y88229D01*
X46151Y88234D01*
X46155Y88237D01*
X46157Y88239D01*
X46169Y88253D01*
X46179Y88268D01*
X46186Y88283D01*
X46190Y88297D01*
X46193Y88311D01*
X46196Y88321D01*
Y88331D01*
X46194Y88352D01*
X46190Y88370D01*
X46183Y88387D01*
X46176Y88400D01*
X46169Y88411D01*
X46162Y88418D01*
X46158Y88423D01*
X46157Y88425D01*
X46143Y88435D01*
X46129Y88443D01*
X46113Y88449D01*
X46099Y88451D01*
X46087Y88454D01*
X46077Y88456D01*
D02*
G37*
G36*
X46498Y88502D02*
X46492D01*
X46488D01*
X46487D01*
X46485D01*
X46460Y88500D01*
X46438Y88495D01*
X46417Y88489D01*
X46400Y88481D01*
X46386Y88474D01*
X46375Y88467D01*
X46369Y88461D01*
X46366Y88460D01*
X46348Y88440D01*
X46336Y88419D01*
X46326Y88398D01*
X46320Y88377D01*
X46316Y88359D01*
X46315Y88345D01*
X46313Y88339D01*
Y88331D01*
X46316Y88302D01*
X46322Y88276D01*
X46331Y88254D01*
X46341Y88234D01*
X46352Y88220D01*
X46362Y88209D01*
X46368Y88204D01*
X46371Y88201D01*
X46387Y88187D01*
X46407Y88177D01*
X46427Y88170D01*
X46445Y88166D01*
X46460Y88163D01*
X46474Y88160D01*
X46483D01*
X46484D01*
X46485D01*
X46511Y88162D01*
X46534Y88167D01*
X46555Y88174D01*
X46572Y88183D01*
X46586Y88190D01*
X46597Y88197D01*
X46603Y88202D01*
X46606Y88204D01*
X46624Y88222D01*
X46637Y88243D01*
X46646Y88264D01*
X46652Y88285D01*
X46656Y88303D01*
X46658Y88317D01*
X46659Y88323D01*
Y88331D01*
X46656Y88360D01*
X46651Y88386D01*
X46641Y88408D01*
X46630Y88428D01*
X46620Y88442D01*
X46610Y88453D01*
X46604Y88458D01*
X46602Y88461D01*
X46585Y88475D01*
X46565Y88485D01*
X46546Y88492D01*
X46527Y88496D01*
X46511Y88500D01*
X46498Y88502D01*
D02*
G37*
G36*
X45183Y86556D02*
X45086D01*
X45073Y86555D01*
X45063Y86553D01*
X45053Y86549D01*
X45045Y86545D01*
X45038Y86541D01*
X45034Y86538D01*
X45031Y86535D01*
X45030Y86534D01*
X45023Y86525D01*
X45017Y86516D01*
X45013Y86506D01*
X45010Y86497D01*
X45009Y86489D01*
X45007Y86483D01*
Y86479D01*
Y86478D01*
Y86292D01*
X45009Y86279D01*
X45011Y86269D01*
X45014Y86259D01*
X45018Y86251D01*
X45023Y86244D01*
X45027Y86240D01*
X45028Y86237D01*
X45030Y86236D01*
X45038Y86229D01*
X45048Y86223D01*
X45058Y86219D01*
X45066Y86216D01*
X45074Y86215D01*
X45080Y86213D01*
X45255D01*
Y86216D01*
Y86217D01*
Y86222D01*
X45256Y86227D01*
Y86240D01*
Y86245D01*
Y86250D01*
Y86252D01*
Y86254D01*
Y86265D01*
X45258Y86278D01*
Y86303D01*
Y86314D01*
Y86322D01*
Y86328D01*
Y86331D01*
Y86352D01*
Y86376D01*
Y86401D01*
Y86425D01*
Y86446D01*
Y86454D01*
Y86462D01*
Y86469D01*
Y86474D01*
Y86476D01*
Y86478D01*
X45256Y86490D01*
X45253Y86500D01*
X45251Y86510D01*
X45246Y86518D01*
X45241Y86525D01*
X45238Y86530D01*
X45235Y86532D01*
X45234Y86534D01*
X45225Y86541D01*
X45216Y86546D01*
X45206Y86551D01*
X45197Y86553D01*
X45189Y86555D01*
X45183Y86556D01*
D02*
G37*
G36*
X49142Y79356D02*
X48872D01*
Y79013D01*
X49136D01*
X49147Y79015D01*
X49157Y79017D01*
X49167Y79020D01*
X49174Y79024D01*
X49181Y79029D01*
X49185Y79033D01*
X49188Y79034D01*
X49189Y79036D01*
X49198Y79044D01*
X49203Y79054D01*
X49208Y79064D01*
X49210Y79072D01*
X49212Y79080D01*
X49213Y79086D01*
Y79090D01*
Y79092D01*
Y79278D01*
X49212Y79290D01*
X49210Y79300D01*
X49206Y79310D01*
X49202Y79318D01*
X49198Y79325D01*
X49195Y79330D01*
X49192Y79332D01*
X49191Y79334D01*
X49182Y79341D01*
X49173Y79346D01*
X49164Y79351D01*
X49156Y79353D01*
X49147Y79355D01*
X49142Y79356D01*
D02*
G37*
G36*
X44592Y83404D02*
X44322D01*
Y83061D01*
X44586D01*
X44597Y83063D01*
X44607Y83065D01*
X44617Y83068D01*
X44624Y83072D01*
X44631Y83077D01*
X44635Y83081D01*
X44638Y83082D01*
X44639Y83084D01*
X44648Y83092D01*
X44653Y83102D01*
X44658Y83112D01*
X44660Y83120D01*
X44662Y83128D01*
X44663Y83134D01*
Y83138D01*
Y83140D01*
Y83326D01*
X44662Y83338D01*
X44660Y83348D01*
X44656Y83358D01*
X44652Y83366D01*
X44648Y83373D01*
X44645Y83377D01*
X44642Y83380D01*
X44641Y83382D01*
X44632Y83389D01*
X44623Y83394D01*
X44614Y83398D01*
X44606Y83401D01*
X44597Y83403D01*
X44592Y83404D01*
D02*
G37*
G36*
X44214Y77763D02*
X44210D01*
X44208D01*
X44022D01*
X44010Y77762D01*
X44000Y77760D01*
X43990Y77756D01*
X43982Y77752D01*
X43975Y77748D01*
X43970Y77745D01*
X43968Y77742D01*
X43966Y77741D01*
X43959Y77732D01*
X43954Y77723D01*
X43949Y77714D01*
X43947Y77706D01*
X43945Y77697D01*
X43944Y77692D01*
Y77422D01*
X44287D01*
Y77686D01*
X44285Y77697D01*
X44283Y77707D01*
X44280Y77717D01*
X44276Y77724D01*
X44271Y77731D01*
X44267Y77735D01*
X44266Y77738D01*
X44264Y77739D01*
X44256Y77748D01*
X44246Y77753D01*
X44236Y77758D01*
X44228Y77760D01*
X44220Y77762D01*
X44214Y77763D01*
D02*
G37*
G36*
X49360Y73487D02*
X49185D01*
Y73222D01*
X49187Y73210D01*
X49188Y73198D01*
X49192Y73189D01*
X49196Y73180D01*
X49199Y73173D01*
X49203Y73168D01*
X49205Y73165D01*
X49206Y73163D01*
X49215Y73156D01*
X49224Y73151D01*
X49234Y73147D01*
X49243Y73144D01*
X49251Y73142D01*
X49257Y73141D01*
X49354D01*
X49366Y73142D01*
X49377Y73145D01*
X49387Y73148D01*
X49395Y73154D01*
X49401Y73158D01*
X49406Y73161D01*
X49409Y73163D01*
X49410Y73165D01*
X49419Y73175D01*
X49424Y73184D01*
X49429Y73193D01*
X49431Y73203D01*
X49433Y73211D01*
X49434Y73217D01*
Y73221D01*
Y73222D01*
Y73407D01*
X49433Y73418D01*
X49430Y73429D01*
X49427Y73439D01*
X49423Y73448D01*
X49417Y73453D01*
X49415Y73459D01*
X49412Y73462D01*
X49410Y73463D01*
X49401Y73471D01*
X49392Y73477D01*
X49382Y73481D01*
X49374Y73484D01*
X49366Y73485D01*
X49360Y73487D01*
D02*
G37*
%LPD*%
D10*
X42627Y76046D02*
G03*
X42627Y76046I-102J0D01*
G01*
D11*
X45098Y81267D02*
X45402D01*
X45098Y82233D02*
X45402D01*
X42033Y75523D02*
Y75777D01*
X40967Y75523D02*
Y75777D01*
X46783Y90198D02*
Y90402D01*
X45817Y90198D02*
Y90402D01*
X45383Y90198D02*
Y90402D01*
X44417Y90198D02*
Y90402D01*
X47098Y85717D02*
X47302D01*
X47098Y86683D02*
X47302D01*
X46783Y75523D02*
Y75777D01*
X45717Y75523D02*
Y75777D01*
X46836Y78517D02*
X47140D01*
X46836Y79483D02*
X47140D01*
X48348Y80983D02*
X48552D01*
X48348Y80017D02*
X48552D01*
X46848Y77983D02*
X47052D01*
X46848Y77017D02*
X47052D01*
X48898Y75483D02*
X49102D01*
X48898Y74517D02*
X49102D01*
X43483Y78110D02*
Y78414D01*
X42517Y78110D02*
Y78414D01*
X42198Y80983D02*
X42402D01*
X42198Y80017D02*
X42402D01*
X41983Y78098D02*
Y78302D01*
X41017Y78098D02*
Y78302D01*
X37148Y74517D02*
X37352D01*
X37148Y75483D02*
X37352D01*
D12*
X49089Y88889D02*
Y90311D01*
X47311Y88889D02*
Y90311D01*
X58500Y90750D02*
X60300D01*
X64200D02*
X66300D01*
X70200D02*
X72300D01*
X76200D02*
X78300D01*
X82200D02*
X84300D01*
X88200D02*
X90000D01*
X55150Y85950D02*
Y87750D01*
Y79950D02*
Y82050D01*
Y73950D02*
Y76050D01*
Y68250D02*
Y70050D01*
X93350Y85950D02*
Y87750D01*
Y79950D02*
Y82050D01*
Y73950D02*
Y76050D01*
Y68250D02*
Y70050D01*
X58500Y65250D02*
X60300D01*
X64200D02*
X66300D01*
X70200D02*
X72300D01*
X76200D02*
X78300D01*
X82200D02*
X84300D01*
X88200D02*
X90000D01*
X52050Y79744D02*
Y81444D01*
Y74144D02*
Y75844D01*
X39250Y74144D02*
Y75844D01*
Y79744D02*
Y81444D01*
X42500Y70914D02*
X43700D01*
X47600D02*
X48800D01*
X47600Y84674D02*
X48800D01*
X42500D02*
X43700D01*
D13*
X43459Y73616D02*
X44392D01*
X43459Y75876D02*
X44392D01*
M02*
