G04*
G04 #@! TF.GenerationSoftware,Altium Limited,Altium Designer,21.7.2 (23)*
G04*
G04 Layer_Physical_Order=2*
G04 Layer_Color=16711680*
%FSLAX43Y43*%
%MOMM*%
G71*
G04*
G04 #@! TF.SameCoordinates,BA6C0E96-0EA7-48B6-9F13-DCA0F4556CE8*
G04*
G04*
G04 #@! TF.FilePolarity,Positive*
G04*
G01*
G75*
%ADD33C,0.600*%
%ADD55C,1.500*%
%ADD56C,2.400*%
%ADD57C,1.000*%
%ADD58C,1.350*%
%ADD59R,1.000X2.500*%
%ADD60R,1.500X1.000*%
%ADD61R,2.500X1.000*%
G36*
X88621Y94141D02*
X88758Y94379D01*
X88828Y94641D01*
X97241D01*
Y89328D01*
X96979Y89258D01*
X96741Y89121D01*
X97681Y88181D01*
X97500Y88000D01*
X97681Y87819D01*
X96741Y86879D01*
X96979Y86742D01*
X97241Y86672D01*
Y81400D01*
X96506D01*
Y80750D01*
Y80100D01*
X97241D01*
Y78400D01*
X96506D01*
Y77750D01*
Y77100D01*
X97241D01*
Y75892D01*
X97141Y75866D01*
X96948Y75754D01*
X95746D01*
Y74246D01*
X96948D01*
X97141Y74134D01*
X97241Y74108D01*
Y72900D01*
X96506D01*
Y72250D01*
Y71600D01*
X97241D01*
X97241Y69900D01*
X96506D01*
Y69250D01*
Y68600D01*
X97241D01*
Y62359D01*
X88828D01*
X88758Y62621D01*
X88621Y62859D01*
X87681Y61919D01*
X87500Y62100D01*
X87319Y61919D01*
X86379Y62859D01*
X86242Y62621D01*
X86172Y62359D01*
X78828D01*
X78758Y62621D01*
X78621Y62859D01*
X77681Y61919D01*
X77500Y62100D01*
X77319Y61919D01*
X76379Y62859D01*
X76242Y62621D01*
X76172Y62359D01*
X68828D01*
X68758Y62621D01*
X68621Y62859D01*
X67681Y61919D01*
X67500Y62100D01*
X67319Y61919D01*
X66379Y62859D01*
X66242Y62621D01*
X66172Y62359D01*
X58828Y62359D01*
X58758Y62621D01*
X58621Y62859D01*
X57681Y61919D01*
X57500Y62100D01*
X57319Y61919D01*
X56379Y62859D01*
X56242Y62621D01*
X56172Y62359D01*
X48828D01*
X48758Y62621D01*
X48621Y62859D01*
X47681Y61919D01*
X47500Y62100D01*
X47319Y61919D01*
X46379Y62859D01*
X46242Y62621D01*
X46172Y62359D01*
X33500D01*
X33338D01*
X33021Y62422D01*
X32723Y62546D01*
X32454Y62725D01*
X32225Y62954D01*
X32046Y63223D01*
X31922Y63521D01*
X31859Y63838D01*
X31859Y64000D01*
D01*
X31859Y86241D01*
X39000D01*
X39006Y86242D01*
X39013Y86241D01*
X39209Y86251D01*
X39227Y86256D01*
X39247D01*
X39631Y86332D01*
X39655Y86342D01*
X39680Y86347D01*
X40042Y86497D01*
X40063Y86511D01*
X40087Y86521D01*
X40413Y86739D01*
X40431Y86757D01*
X40452Y86771D01*
X40729Y87048D01*
X40743Y87069D01*
X40761Y87087D01*
X40979Y87413D01*
X40989Y87437D01*
X41003Y87458D01*
X41153Y87820D01*
X41158Y87845D01*
X41168Y87869D01*
X41244Y88253D01*
Y88273D01*
X41249Y88291D01*
X41259Y88487D01*
X41258Y88494D01*
X41259Y88500D01*
Y94641D01*
X45030D01*
X45064Y94512D01*
X45197Y94284D01*
X45246Y94234D01*
Y92146D01*
X46754D01*
Y94234D01*
X46803Y94284D01*
X46936Y94512D01*
X46970Y94641D01*
X48030D01*
X48064Y94512D01*
X48197Y94284D01*
X48246Y94234D01*
Y92146D01*
X49754D01*
Y94234D01*
X49803Y94284D01*
X49936Y94512D01*
X49970Y94641D01*
X56172Y94641D01*
X56242Y94379D01*
X56379Y94141D01*
X57319Y95081D01*
X57500Y94900D01*
X57681Y95081D01*
X58621Y94141D01*
X58758Y94379D01*
X58828Y94641D01*
X66172D01*
X66242Y94379D01*
X66379Y94141D01*
X67319Y95081D01*
X67500Y94900D01*
X67681Y95081D01*
X68621Y94141D01*
X68758Y94379D01*
X68828Y94641D01*
X76064D01*
X76145Y94339D01*
X76337Y94007D01*
X76607Y93737D01*
X76939Y93545D01*
X77309Y93446D01*
X77691D01*
X78061Y93545D01*
X78393Y93737D01*
X78663Y94007D01*
X78855Y94339D01*
X78936Y94641D01*
X86172Y94641D01*
X86242Y94379D01*
X86379Y94141D01*
X87319Y95081D01*
X87500Y94900D01*
X87681Y95081D01*
X88621Y94141D01*
D02*
G37*
%LPC*%
G36*
X87500Y94538D02*
X86741Y93779D01*
X86979Y93642D01*
X87322Y93550D01*
X87678D01*
X88021Y93642D01*
X88259Y93779D01*
X87500Y94538D01*
D02*
G37*
G36*
X67500D02*
X66741Y93779D01*
X66979Y93642D01*
X67322Y93550D01*
X67678D01*
X68021Y93642D01*
X68259Y93779D01*
X67500Y94538D01*
D02*
G37*
G36*
X57500D02*
X56741Y93779D01*
X56979Y93642D01*
X57322Y93550D01*
X57678D01*
X58021Y93642D01*
X58259Y93779D01*
X57500Y94538D01*
D02*
G37*
G36*
X96379Y88759D02*
X96242Y88521D01*
X96150Y88178D01*
Y87822D01*
X96242Y87479D01*
X96379Y87241D01*
X97138Y88000D01*
X96379Y88759D01*
D02*
G37*
G36*
X95994Y81400D02*
X94850D01*
Y81006D01*
X95994D01*
Y81400D01*
D02*
G37*
G36*
Y80494D02*
X94850D01*
Y80100D01*
X95994D01*
Y80494D01*
D02*
G37*
G36*
Y78400D02*
X94850D01*
Y78006D01*
X95994D01*
Y78400D01*
D02*
G37*
G36*
Y77494D02*
X94850D01*
Y77100D01*
X95994D01*
Y77494D01*
D02*
G37*
G36*
Y72900D02*
X94850D01*
Y72506D01*
X95994D01*
Y72900D01*
D02*
G37*
G36*
Y71994D02*
X94850D01*
Y71600D01*
X95994D01*
Y71994D01*
D02*
G37*
G36*
Y69900D02*
X94850D01*
Y69506D01*
X95994D01*
Y69900D01*
D02*
G37*
G36*
Y68994D02*
X94850D01*
Y68600D01*
X95994D01*
Y68994D01*
D02*
G37*
G36*
X47678Y63450D02*
X47322D01*
X46979Y63358D01*
X46741Y63221D01*
X47500Y62462D01*
X48259Y63221D01*
X48021Y63358D01*
X47678Y63450D01*
D02*
G37*
G36*
X87678D02*
X87322D01*
X86979Y63358D01*
X86741Y63221D01*
X87500Y62462D01*
X88259Y63221D01*
X88021Y63358D01*
X87678Y63450D01*
D02*
G37*
G36*
X77678D02*
X77322D01*
X76979Y63358D01*
X76741Y63221D01*
X77500Y62462D01*
X78259Y63221D01*
X78021Y63358D01*
X77678Y63450D01*
D02*
G37*
G36*
X67678D02*
X67322D01*
X66979Y63358D01*
X66741Y63221D01*
X67500Y62462D01*
X68259Y63221D01*
X68021Y63358D01*
X67678Y63450D01*
D02*
G37*
G36*
X57678D02*
X57322D01*
X56979Y63358D01*
X56741Y63221D01*
X57500Y62462D01*
X58259Y63221D01*
X58021Y63358D01*
X57678Y63450D01*
D02*
G37*
%LPD*%
D33*
X43925Y74746D02*
D03*
X38000Y80750D02*
D03*
Y71000D02*
D03*
X41250Y86000D02*
D03*
X42250Y88000D02*
D03*
X95000Y73750D02*
D03*
X96000Y92000D02*
D03*
Y84000D02*
D03*
Y67750D02*
D03*
X95000Y93750D02*
D03*
X94000Y92000D02*
D03*
X95000Y90000D02*
D03*
Y86000D02*
D03*
Y82250D02*
D03*
Y66000D02*
D03*
X94000Y63750D02*
D03*
X93000Y93750D02*
D03*
X92000Y92000D02*
D03*
Y63750D02*
D03*
X91000Y93750D02*
D03*
X90000Y92000D02*
D03*
Y63750D02*
D03*
X88000Y92000D02*
D03*
X86000D02*
D03*
X85000Y93750D02*
D03*
X84000Y92000D02*
D03*
Y63750D02*
D03*
X83000Y93750D02*
D03*
X82000Y92000D02*
D03*
Y63750D02*
D03*
X81000Y93750D02*
D03*
X80000Y92000D02*
D03*
Y63750D02*
D03*
X78000Y92000D02*
D03*
X76000D02*
D03*
X75000Y93750D02*
D03*
X74000Y92000D02*
D03*
Y63750D02*
D03*
X73000Y93750D02*
D03*
X72000Y92000D02*
D03*
Y63750D02*
D03*
X71000Y93750D02*
D03*
X70000Y92000D02*
D03*
Y63750D02*
D03*
X68000Y92000D02*
D03*
X66000D02*
D03*
X65000Y93750D02*
D03*
X64000Y92000D02*
D03*
Y63750D02*
D03*
X63000Y93750D02*
D03*
X62000Y92000D02*
D03*
Y63750D02*
D03*
X61000Y93750D02*
D03*
X60000Y92000D02*
D03*
Y63750D02*
D03*
X58000Y92000D02*
D03*
X56000D02*
D03*
X55000Y93750D02*
D03*
X54000Y92000D02*
D03*
X53750Y88000D02*
D03*
Y84000D02*
D03*
Y79000D02*
D03*
Y71250D02*
D03*
Y68000D02*
D03*
X54000Y63750D02*
D03*
X53000Y93750D02*
D03*
X52000Y92000D02*
D03*
X53000Y90000D02*
D03*
X52000Y88000D02*
D03*
X53000Y86000D02*
D03*
X52000Y68000D02*
D03*
X53000Y66000D02*
D03*
X52000Y63750D02*
D03*
X51000Y90000D02*
D03*
X50000Y88000D02*
D03*
X51000Y86000D02*
D03*
X50000Y68000D02*
D03*
X51000Y66000D02*
D03*
X50000Y63750D02*
D03*
X49000Y90000D02*
D03*
Y78500D02*
D03*
X48000Y68000D02*
D03*
X49000Y66000D02*
D03*
X46000Y88000D02*
D03*
Y68000D02*
D03*
X47000Y66000D02*
D03*
X44000Y88000D02*
D03*
X45000Y86000D02*
D03*
X44000Y68000D02*
D03*
X45000Y66000D02*
D03*
X44000Y64000D02*
D03*
X43000Y90000D02*
D03*
Y86000D02*
D03*
X42000Y68000D02*
D03*
X43000Y66000D02*
D03*
X42000Y64000D02*
D03*
X41000Y82000D02*
D03*
X40000Y68000D02*
D03*
X41000Y66000D02*
D03*
X40000Y64000D02*
D03*
X37750Y84000D02*
D03*
X38000Y79000D02*
D03*
Y72500D02*
D03*
Y68000D02*
D03*
X39000Y66000D02*
D03*
X38000Y64000D02*
D03*
X36000Y84000D02*
D03*
X37000Y82000D02*
D03*
X36000Y68000D02*
D03*
X37000Y66000D02*
D03*
X36000Y64000D02*
D03*
X35000Y82000D02*
D03*
X34000Y68000D02*
D03*
X35000Y66000D02*
D03*
X38000Y77250D02*
D03*
X53750Y81500D02*
D03*
Y73000D02*
D03*
X95000Y70750D02*
D03*
Y79250D02*
D03*
X43250Y73000D02*
D03*
X44500D02*
D03*
X46500Y83250D02*
D03*
X44500Y83000D02*
D03*
X42500D02*
D03*
X49000Y76500D02*
D03*
X50500D02*
D03*
Y78500D02*
D03*
Y80500D02*
D03*
Y82000D02*
D03*
X49500Y83000D02*
D03*
X46000Y80500D02*
D03*
X44500Y80000D02*
D03*
Y78500D02*
D03*
Y77000D02*
D03*
X41250Y73000D02*
D03*
X46000D02*
D03*
X48000D02*
D03*
X50000D02*
D03*
X53750Y77250D02*
D03*
X53000Y69500D02*
D03*
X51000D02*
D03*
X49000D02*
D03*
X47000D02*
D03*
X45000D02*
D03*
X43000D02*
D03*
X41000D02*
D03*
X39000D02*
D03*
D55*
X41000Y91500D02*
D03*
X35500Y86500D02*
D03*
X49000Y94900D02*
D03*
X46000D02*
D03*
X97500Y69250D02*
D03*
Y80750D02*
D03*
Y72250D02*
D03*
Y77750D02*
D03*
D56*
X47500Y62100D02*
D03*
X87500Y94900D02*
D03*
X77500D02*
D03*
X67500D02*
D03*
X57500D02*
D03*
X97500Y88000D02*
D03*
X87500Y62100D02*
D03*
X77500D02*
D03*
X67500D02*
D03*
X57500D02*
D03*
D57*
X36400Y71000D02*
D03*
X34500D02*
D03*
X35500Y73000D02*
D03*
X33750D02*
D03*
X36400Y79000D02*
D03*
X34500D02*
D03*
X35500Y77000D02*
D03*
X33750D02*
D03*
D58*
X97500Y75000D02*
D03*
D59*
X46000Y93650D02*
D03*
X49000D02*
D03*
D60*
X96750Y75000D02*
D03*
D61*
X96250Y80750D02*
D03*
Y69250D02*
D03*
Y72250D02*
D03*
Y77750D02*
D03*
M02*
