G04*
G04 #@! TF.GenerationSoftware,Altium Limited,Altium Designer,21.7.2 (23)*
G04*
G04 Layer_Physical_Order=2*
G04 Layer_Color=16711680*
%FSLAX43Y43*%
%MOMM*%
G71*
G04*
G04 #@! TF.SameCoordinates,EF449257-7E68-4E29-9D8B-EB38C799C825*
G04*
G04*
G04 #@! TF.FilePolarity,Positive*
G04*
G01*
G75*
%ADD34C,0.600*%
%ADD55C,1.350*%
%ADD56C,1.500*%
%ADD57C,2.400*%
%ADD58C,1.000*%
%ADD59R,1.000X2.500*%
%ADD60R,1.500X1.000*%
%ADD61R,2.500X1.000*%
G36*
X88657Y94105D02*
X88805Y94360D01*
X88880Y94641D01*
X97241D01*
Y89380D01*
X96960Y89305D01*
X96705Y89157D01*
X97681Y88181D01*
X97500Y88000D01*
X97681Y87819D01*
X96705Y86843D01*
X96960Y86695D01*
X97241Y86620D01*
Y81450D01*
X96506D01*
Y80750D01*
Y80050D01*
X97241D01*
Y78450D01*
X96506D01*
Y77750D01*
Y77050D01*
X97241D01*
Y75892D01*
X97141Y75866D01*
X96948Y75754D01*
X95746D01*
Y74246D01*
X96948D01*
X97141Y74134D01*
X97241Y74108D01*
Y72950D01*
X96506D01*
Y72250D01*
Y71550D01*
X97241D01*
X97241Y69950D01*
X96506D01*
Y69250D01*
Y68550D01*
X97241D01*
Y62359D01*
X88880D01*
X88805Y62640D01*
X88657Y62895D01*
X87681Y61919D01*
X87500Y62100D01*
X87319Y61919D01*
X86343Y62895D01*
X86195Y62640D01*
X86120Y62359D01*
X78880D01*
X78805Y62640D01*
X78657Y62895D01*
X77681Y61919D01*
X77500Y62100D01*
X77319Y61919D01*
X76343Y62895D01*
X76195Y62640D01*
X76120Y62359D01*
X68880D01*
X68805Y62640D01*
X68657Y62895D01*
X67681Y61919D01*
X67500Y62100D01*
X67319Y61919D01*
X66343Y62895D01*
X66195Y62640D01*
X66120Y62359D01*
X58880Y62359D01*
X58805Y62640D01*
X58657Y62895D01*
X57681Y61919D01*
X57500Y62100D01*
X57319Y61919D01*
X56343Y62895D01*
X56195Y62640D01*
X56120Y62359D01*
X48880D01*
X48805Y62640D01*
X48657Y62895D01*
X47681Y61919D01*
X47500Y62100D01*
X47319Y61919D01*
X46343Y62895D01*
X46195Y62640D01*
X46120Y62359D01*
X33500D01*
X33338D01*
X33021Y62422D01*
X32723Y62546D01*
X32454Y62725D01*
X32225Y62954D01*
X32046Y63223D01*
X31922Y63521D01*
X31859Y63838D01*
X31859Y64000D01*
D01*
X31859Y86241D01*
X39000D01*
X39006Y86242D01*
X39013Y86241D01*
X39209Y86251D01*
X39227Y86256D01*
X39247D01*
X39631Y86332D01*
X39655Y86342D01*
X39680Y86347D01*
X40042Y86497D01*
X40063Y86511D01*
X40087Y86521D01*
X40413Y86739D01*
X40431Y86757D01*
X40452Y86771D01*
X40729Y87048D01*
X40743Y87069D01*
X40761Y87087D01*
X40979Y87413D01*
X40989Y87437D01*
X41003Y87458D01*
X41153Y87820D01*
X41158Y87845D01*
X41168Y87869D01*
X41244Y88253D01*
Y88273D01*
X41249Y88291D01*
X41259Y88487D01*
X41258Y88494D01*
X41259Y88500D01*
Y94641D01*
X45030D01*
X45064Y94512D01*
X45197Y94284D01*
X45246Y94234D01*
Y92146D01*
X46754D01*
Y94234D01*
X46803Y94284D01*
X46936Y94512D01*
X46970Y94641D01*
X48030D01*
X48064Y94512D01*
X48197Y94284D01*
X48246Y94234D01*
Y92146D01*
X49754D01*
Y94234D01*
X49803Y94284D01*
X49936Y94512D01*
X49970Y94641D01*
X56120Y94641D01*
X56195Y94360D01*
X56343Y94105D01*
X57319Y95081D01*
X57500Y94900D01*
X57681Y95081D01*
X58657Y94105D01*
X58805Y94360D01*
X58880Y94641D01*
X66120D01*
X66195Y94360D01*
X66343Y94105D01*
X67319Y95081D01*
X67500Y94900D01*
X67681Y95081D01*
X68657Y94105D01*
X68805Y94360D01*
X68880Y94641D01*
X76120D01*
X76195Y94360D01*
X76343Y94105D01*
X77319Y95081D01*
X77500Y94900D01*
X77681Y95081D01*
X78657Y94105D01*
X78805Y94360D01*
X78880Y94641D01*
X86120Y94641D01*
X86195Y94360D01*
X86343Y94105D01*
X87319Y95081D01*
X87500Y94900D01*
X87681Y95081D01*
X88657Y94105D01*
D02*
G37*
%LPC*%
G36*
X87500Y94538D02*
X86705Y93743D01*
X86960Y93595D01*
X87316Y93500D01*
X87684D01*
X88040Y93595D01*
X88295Y93743D01*
X87500Y94538D01*
D02*
G37*
G36*
X77500D02*
X76705Y93743D01*
X76960Y93595D01*
X77316Y93500D01*
X77684D01*
X78040Y93595D01*
X78295Y93743D01*
X77500Y94538D01*
D02*
G37*
G36*
X67500D02*
X66705Y93743D01*
X66960Y93595D01*
X67316Y93500D01*
X67684D01*
X68040Y93595D01*
X68295Y93743D01*
X67500Y94538D01*
D02*
G37*
G36*
X57500D02*
X56705Y93743D01*
X56960Y93595D01*
X57316Y93500D01*
X57684D01*
X58040Y93595D01*
X58295Y93743D01*
X57500Y94538D01*
D02*
G37*
G36*
X96343Y88795D02*
X96195Y88540D01*
X96100Y88184D01*
Y87816D01*
X96195Y87460D01*
X96343Y87205D01*
X97138Y88000D01*
X96343Y88795D01*
D02*
G37*
G36*
X95994Y81450D02*
X94800D01*
Y81006D01*
X95994D01*
Y81450D01*
D02*
G37*
G36*
Y80494D02*
X94800D01*
Y80050D01*
X95994D01*
Y80494D01*
D02*
G37*
G36*
Y78450D02*
X94800D01*
Y78006D01*
X95994D01*
Y78450D01*
D02*
G37*
G36*
Y77494D02*
X94800D01*
Y77050D01*
X95994D01*
Y77494D01*
D02*
G37*
G36*
Y72950D02*
X94800D01*
Y72506D01*
X95994D01*
Y72950D01*
D02*
G37*
G36*
Y71994D02*
X94800D01*
Y71550D01*
X95994D01*
Y71994D01*
D02*
G37*
G36*
Y69950D02*
X94800D01*
Y69506D01*
X95994D01*
Y69950D01*
D02*
G37*
G36*
Y68994D02*
X94800D01*
Y68550D01*
X95994D01*
Y68994D01*
D02*
G37*
G36*
X87684Y63500D02*
X87316D01*
X86960Y63405D01*
X86705Y63257D01*
X87500Y62462D01*
X88295Y63257D01*
X88040Y63405D01*
X87684Y63500D01*
D02*
G37*
G36*
X77684D02*
X77316D01*
X76960Y63405D01*
X76705Y63257D01*
X77500Y62462D01*
X78295Y63257D01*
X78040Y63405D01*
X77684Y63500D01*
D02*
G37*
G36*
X67684D02*
X67316D01*
X66960Y63405D01*
X66705Y63257D01*
X67500Y62462D01*
X68295Y63257D01*
X68040Y63405D01*
X67684Y63500D01*
D02*
G37*
G36*
X57684D02*
X57316D01*
X56960Y63405D01*
X56705Y63257D01*
X57500Y62462D01*
X58295Y63257D01*
X58040Y63405D01*
X57684Y63500D01*
D02*
G37*
G36*
X47684D02*
X47316D01*
X46960Y63405D01*
X46705Y63257D01*
X47500Y62462D01*
X48295Y63257D01*
X48040Y63405D01*
X47684Y63500D01*
D02*
G37*
%LPD*%
D34*
X43925Y74746D02*
D03*
X38000Y80750D02*
D03*
Y71000D02*
D03*
X41250Y86000D02*
D03*
X42250Y88000D02*
D03*
X95000Y73750D02*
D03*
X96000Y92000D02*
D03*
Y84000D02*
D03*
Y67750D02*
D03*
X95000Y93750D02*
D03*
X94000Y92000D02*
D03*
X95000Y90000D02*
D03*
Y86000D02*
D03*
Y82250D02*
D03*
Y66000D02*
D03*
X94000Y63750D02*
D03*
X93000Y93750D02*
D03*
X92000Y92000D02*
D03*
Y63750D02*
D03*
X91000Y93750D02*
D03*
X90000Y92000D02*
D03*
Y63750D02*
D03*
X88000Y92000D02*
D03*
X86000D02*
D03*
X85000Y93750D02*
D03*
X84000Y92000D02*
D03*
Y63750D02*
D03*
X83000Y93750D02*
D03*
X82000Y92000D02*
D03*
Y63750D02*
D03*
X81000Y93750D02*
D03*
X80000Y92000D02*
D03*
Y63750D02*
D03*
X78000Y92000D02*
D03*
X76000D02*
D03*
X75000Y93750D02*
D03*
X74000Y92000D02*
D03*
Y63750D02*
D03*
X73000Y93750D02*
D03*
X72000Y92000D02*
D03*
Y63750D02*
D03*
X71000Y93750D02*
D03*
X70000Y92000D02*
D03*
Y63750D02*
D03*
X68000Y92000D02*
D03*
X66000D02*
D03*
X65000Y93750D02*
D03*
X64000Y92000D02*
D03*
Y63750D02*
D03*
X63000Y93750D02*
D03*
X62000Y92000D02*
D03*
Y63750D02*
D03*
X61000Y93750D02*
D03*
X60000Y92000D02*
D03*
Y63750D02*
D03*
X58000Y92000D02*
D03*
X56000D02*
D03*
X55000Y93750D02*
D03*
X54000Y92000D02*
D03*
X53750Y88000D02*
D03*
Y84000D02*
D03*
Y79000D02*
D03*
Y71250D02*
D03*
Y68000D02*
D03*
X54000Y63750D02*
D03*
X53000Y93750D02*
D03*
X52000Y92000D02*
D03*
X53000Y90000D02*
D03*
X52000Y88000D02*
D03*
X53000Y86000D02*
D03*
X52000Y68000D02*
D03*
X53000Y66000D02*
D03*
X52000Y63750D02*
D03*
X51000Y90000D02*
D03*
X50000Y88000D02*
D03*
X51000Y86000D02*
D03*
X50000Y68000D02*
D03*
X51000Y66000D02*
D03*
X50000Y63750D02*
D03*
X49000Y90000D02*
D03*
Y78500D02*
D03*
X48000Y68000D02*
D03*
X49000Y66000D02*
D03*
X46000Y88000D02*
D03*
Y68000D02*
D03*
X47000Y66000D02*
D03*
X44000Y88000D02*
D03*
X45000Y86000D02*
D03*
X44000Y68000D02*
D03*
X45000Y66000D02*
D03*
X44000Y64000D02*
D03*
X43000Y90000D02*
D03*
Y86000D02*
D03*
X42000Y68000D02*
D03*
X43000Y66000D02*
D03*
X42000Y64000D02*
D03*
X41000Y82000D02*
D03*
X40000Y68000D02*
D03*
X41000Y66000D02*
D03*
X40000Y64000D02*
D03*
X37750Y84000D02*
D03*
X38000Y79000D02*
D03*
Y72500D02*
D03*
Y68000D02*
D03*
X39000Y66000D02*
D03*
X38000Y64000D02*
D03*
X36000Y84000D02*
D03*
X37000Y82000D02*
D03*
X36000Y68000D02*
D03*
X37000Y66000D02*
D03*
X36000Y64000D02*
D03*
X35000Y82000D02*
D03*
X34000Y68000D02*
D03*
X35000Y66000D02*
D03*
X38000Y77250D02*
D03*
X53750Y81500D02*
D03*
Y73000D02*
D03*
X95000Y70750D02*
D03*
Y79250D02*
D03*
X43250Y73000D02*
D03*
X44500D02*
D03*
X46500Y83250D02*
D03*
X44500Y83000D02*
D03*
X42500D02*
D03*
X49000Y76500D02*
D03*
X50500D02*
D03*
Y78500D02*
D03*
Y80500D02*
D03*
Y82000D02*
D03*
X49500Y83000D02*
D03*
X46000Y80500D02*
D03*
X44500Y80000D02*
D03*
Y78500D02*
D03*
Y77000D02*
D03*
X41250Y73000D02*
D03*
X46000D02*
D03*
X48000D02*
D03*
X50000D02*
D03*
X53750Y77250D02*
D03*
X53000Y69500D02*
D03*
X51000D02*
D03*
X49000D02*
D03*
X47000D02*
D03*
X45000D02*
D03*
X43000D02*
D03*
X41000D02*
D03*
X39000D02*
D03*
D55*
X97500Y75000D02*
D03*
D56*
X41000Y91500D02*
D03*
X35500Y86500D02*
D03*
X49000Y94900D02*
D03*
X46000D02*
D03*
X97500Y69250D02*
D03*
Y80750D02*
D03*
Y72250D02*
D03*
Y77750D02*
D03*
D57*
X47500Y62100D02*
D03*
X87500Y94900D02*
D03*
X77500D02*
D03*
X67500D02*
D03*
X57500D02*
D03*
X97500Y88000D02*
D03*
X87500Y62100D02*
D03*
X77500D02*
D03*
X67500D02*
D03*
X57500D02*
D03*
D58*
X36400Y71000D02*
D03*
X34500D02*
D03*
X35500Y73000D02*
D03*
X33750D02*
D03*
X36400Y79000D02*
D03*
X34500D02*
D03*
X35500Y77000D02*
D03*
X33750D02*
D03*
D59*
X46000Y93650D02*
D03*
X49000D02*
D03*
D60*
X96750Y75000D02*
D03*
D61*
X96250Y80750D02*
D03*
Y69250D02*
D03*
Y72250D02*
D03*
Y77750D02*
D03*
M02*
