M48
;Layer_Color=9474304
;FILE_FORMAT=4:3
METRIC,LZ
;TYPE=PLATED
T1F00S00C0.300
T2F00S00C0.400
T3F00S00C0.500
T4F00S00C0.600
T5F00S00C4.200
%
T01
X01605Y0051
X01635
X0162Y0054
X01635Y0057
X01605
X0162Y006
X01635Y0063
X0165Y0066
Y0072
Y0078
X015
X0146Y00785
Y00765
X01445
X01455Y0073
X01435
X01415
X014Y0073125
X013875
X01377Y0072275
X013645
X0132Y0072
X01325Y0068
X01335Y0067
Y00655
X01325Y00645
X0131
X013475Y006375
X0136
X0134Y006275
X0135Y005425
X013625Y0055
X014425Y005875
X014625
X01475Y005825
X014875
X0154Y005775
X015475Y00565
X015625
X01575Y0051
X01545
X01515
X01485
X0143Y006
Y00615
X0154Y00665
X0156
X01565Y0068
X01545
X0154Y00695
X0156
X01565Y0071
X01545
X015Y0072
X0139426Y0074846
X014Y0077
X01385
X014Y00785
X0131Y0078
X01295
X01275Y00785
X01245Y00775
X01215
X01245Y00725
X012425Y00615
X012325Y0061
X012525Y006
X012575Y0056975
X0121Y00575
Y005625
X011975Y0057
X012Y0054
X01215Y0051
X01245
X0121788Y0058985
X01175Y0058
X01185Y0057
X011775Y00605
X011575
X011675Y006175
X011875
X011625Y00635
X0115
X01155Y0065
X011675
X011625Y00665
X0115
X011595Y0073
X011395
X011195
X011045Y0073125
X01092
X010815Y0072275
X01069
X0102Y00725
Y00775
X0109Y0077
X011045
Y00785
X0109876Y0074846
X011495Y00765
X011645
Y00785
X01095Y0063
X01065
X0108Y006
X0105
X01065Y0057
X01095
X0111Y0054
X0114
X0117
X01185Y0051
X01155
X01125
X01095
X01065
X01035
X01005
X00975
X00945
X00915
X00885
X00855
X00825
X00795
X0081Y0054
X0084
X0087
X009
X0093
X0096
X0099
X00975Y0057
X00945
X00915
X00885
X00855
X00825
X00795
X0081Y006
X0084
X00825Y0063
X0081Y0068
X00795
X00805Y007
X0083315Y0073725
X0084415
Y0074825
X0083315
X00795Y00785
X009Y0078
X00915Y0063
X00945
X00975
X0099Y006
X0096
X0093
X009
X0105Y0054
X0108
X0078
X0075
X0072
X0069
X0066
X0063
X006
X0057
X0054
X0051
X0048
X0045
X00465Y0057
X00495
X00525
X00555
X00585
X00615
X00645
X00675
X00705
X00735
X00765
X0075Y006
X0072
X00735Y0063
X0072Y0066
X0069
X0066
X0063
X006
X0057
X0054
X0051
X0048
X0045
X0042
X00435Y0069
X00465
X00495
X00525
X00555
X00585
X00615
X00645
X00675
X00705
X00735
X0072Y0072
X0069
X0066
X0063
X006
X0057
X0054
X0051
X0048
X0045
X0042
X00405Y0075
Y0069
Y0063
X00435
X0045Y006
X0042
X00435Y0057
Y0051
X00465
X00495
X00525
X00615
X0063Y006
X006
X00615Y0063
X00525
X0054Y006
X0051
X00735Y0051
X00765
X0079Y007
X00785Y0077
X00765
X00775Y00785
X0039Y0078
X0036
X00375Y0075
X00345
X0036Y0072
X0039
X00375Y0069
X00345
X0036Y0066
X0039
X00375Y0081
X00345
X0039Y0084
X00405Y0087
Y0081
X0077Y008
X0079
X0087Y0084
X009
X0093
X0096
X0099
X0105Y0087
X01075Y00885
X011Y0087
X011045Y0083
X010845
X011245Y008325
X011545Y0083
X011645Y0082
Y00805
X011195
X011045Y008
X011Y00925
X0112
X0111Y0094
X0113
X0117Y009
X01185Y0087
X0105Y0093
X00975Y0093
X00945
X00915
X0093Y0096
X0096
X0099
X01005Y0099
X00975
X00945
X00915
X00885
X009Y009
X0093
X00915Y0087
X00885
X0087Y009
X00915Y0081
X01215Y0084
X0121Y0088
X0123
X0122Y00895
X012
X0121Y0091
X0123
X0129315Y0085825
X0130415
X0130415Y0084725
X0129315
X01275Y008
X0126Y00795
Y0081
X0138Y0083
X014
X0142Y008325
X0145Y0083
X0146Y0082
Y00805
X01415
X014Y008
X01395Y0087
X01365
X013955Y00925
X014155
X014055Y0094
X014255
X01545Y0093
X01575
X0157Y0089
X01575Y00875
X01485Y0087
X0156Y0096
X01575Y0099
X01545
X01605
X01635
Y0093
X01605
X0159Y0096
X0159Y0089
X01595Y00875
X01635Y0087
X01665
X0165Y0084
X01635Y0081
T02
X0129275Y0058315
Y0059365
Y0060415
X0130475
Y0059365
Y0058315
X0150111Y0060865
X0151
X0151889
X0151889Y0062135
X0151Y0062135
X0150111
T03
X01687Y0071
X01706
X017135Y0073
X01696
Y0077
X017135
X01706Y0079
X01687
T04
X00975Y006925
Y007225
Y007775
X0049Y00949
X0046
X00975Y008075
T05
X01695Y0059
X00355Y0091
M30
