G04*
G04 #@! TF.GenerationSoftware,Altium Limited,Altium Designer,21.7.2 (23)*
G04*
G04 Layer_Physical_Order=2*
G04 Layer_Color=32768*
%FSLAX43Y43*%
%MOMM*%
G71*
G04*
G04 #@! TF.SameCoordinates,BD2E6C67-D46E-495A-B7F0-CE9B6F3DEFF6*
G04*
G04*
G04 #@! TF.FilePolarity,Negative*
G04*
G01*
G75*
%ADD81C,1.016*%
%ADD82C,1.100*%
%ADD83R,1.400X0.900*%
%ADD84C,0.808*%
%ADD85C,0.908*%
%ADD86C,1.108*%
G36*
X170800Y75400D02*
X173100D01*
Y74600D01*
X170800D01*
Y75400D01*
D02*
G37*
D81*
X31600Y64000D02*
G03*
X33500Y62100I1900J0D01*
G01*
X33500Y94900D02*
G03*
X31600Y93000I0J-1900D01*
G01*
X36500Y94900D02*
G03*
X38600Y97000I0J2100D01*
G01*
X40500Y102900D02*
G03*
X38600Y101000I0J-1900D01*
G01*
X166400D02*
G03*
X164500Y102900I-1900J0D01*
G01*
X166400Y92500D02*
G03*
X171000Y87900I4600J0D01*
G01*
X173400Y86000D02*
G03*
X171500Y87900I-1900J0D01*
G01*
X171500Y55100D02*
G03*
X173400Y57000I0J1900D01*
G01*
X168500Y55100D02*
G03*
X166400Y53000I0J-2100D01*
G01*
X164500Y47100D02*
G03*
X166400Y49000I0J1900D01*
G01*
X38600Y49000D02*
G03*
X40500Y47100I1900J0D01*
G01*
X38600Y57500D02*
G03*
X34000Y62100I-4600J0D01*
G01*
X31600Y64000D02*
X31600Y93000D01*
X33500Y94900D02*
X36500Y94900D01*
X38600Y97000D02*
Y101000D01*
X40500Y102900D02*
X164500Y102900D01*
X166400Y92500D02*
Y101000D01*
X171000Y87900D02*
X171500D01*
X173400Y57000D02*
X173400Y86000D01*
X168500Y55100D02*
X171500Y55100D01*
X166400Y49000D02*
Y53000D01*
X40500Y47100D02*
X164500Y47100D01*
X38600Y49000D02*
Y57500D01*
X33500Y62100D02*
X34000D01*
D82*
X97500Y75000D02*
D03*
D83*
X96750D02*
D03*
D84*
X121788Y58985D02*
D03*
X159500Y87500D02*
D03*
X159000Y89000D02*
D03*
X157000D02*
D03*
X140550Y94000D02*
D03*
X142550D02*
D03*
X141550Y92500D02*
D03*
X139550D02*
D03*
X112000D02*
D03*
X110000D02*
D03*
X111000Y94000D02*
D03*
X113000D02*
D03*
X115000Y63500D02*
D03*
X116250D02*
D03*
X115500Y65000D02*
D03*
X116750D02*
D03*
X115750Y60500D02*
D03*
X116750Y61750D02*
D03*
X117750Y60500D02*
D03*
X118750Y61750D02*
D03*
X115000Y66500D02*
D03*
X116250D02*
D03*
X125750Y56975D02*
D03*
X154000Y66500D02*
D03*
X156000D02*
D03*
X154500Y68000D02*
D03*
X156500D02*
D03*
X154000Y69500D02*
D03*
X156000D02*
D03*
X154500Y71000D02*
D03*
X156500D02*
D03*
X154000Y57750D02*
D03*
X154750Y56500D02*
D03*
X156250D02*
D03*
X144250Y58750D02*
D03*
X143000Y60000D02*
D03*
Y61500D02*
D03*
X77000Y80000D02*
D03*
X79000D02*
D03*
X77500Y78500D02*
D03*
X78500Y77000D02*
D03*
X76500D02*
D03*
X79500Y78500D02*
D03*
X81000Y68000D02*
D03*
X79500D02*
D03*
X79000Y70000D02*
D03*
X80500D02*
D03*
X127500Y80000D02*
D03*
X126000Y79500D02*
D03*
X131000Y78000D02*
D03*
X127500Y78500D02*
D03*
X129500Y78000D02*
D03*
X126000Y81000D02*
D03*
X121000Y88000D02*
D03*
X123000D02*
D03*
X120000Y89500D02*
D03*
X122000D02*
D03*
X121000Y91000D02*
D03*
X123000D02*
D03*
X157500Y87500D02*
D03*
D85*
X151889Y62135D02*
D03*
X151000Y62135D02*
D03*
X151000Y60865D02*
D03*
X151889D02*
D03*
X150111Y62135D02*
D03*
Y60865D02*
D03*
D86*
X46000Y94900D02*
D03*
X49000D02*
D03*
M02*
