G04*
G04 #@! TF.GenerationSoftware,Altium Limited,Altium Designer,21.7.2 (23)*
G04*
G04 Layer_Physical_Order=1*
G04 Layer_Color=255*
%FSLAX43Y43*%
%MOMM*%
G71*
G04*
G04 #@! TF.SameCoordinates,BD2E6C67-D46E-495A-B7F0-CE9B6F3DEFF6*
G04*
G04*
G04 #@! TF.FilePolarity,Positive*
G04*
G01*
G75*
%ADD27R,0.556X0.179*%
%ADD41C,0.600*%
%ADD45C,0.365*%
%ADD46C,0.635*%
%ADD47R,2.000X3.000*%
%ADD48R,3.000X2.000*%
%ADD49R,4.750X4.000*%
%ADD50R,2.540X0.900*%
%ADD51R,0.900X1.200*%
%ADD52R,0.900X1.500*%
%ADD53R,0.900X0.600*%
%ADD54R,0.800X0.900*%
%ADD55R,3.300X1.270*%
%ADD56R,1.020X0.640*%
%ADD57R,0.900X0.800*%
%ADD58R,0.610X1.194*%
%ADD59R,3.300X1.000*%
%ADD60R,1.000X3.300*%
%ADD61R,1.700X1.250*%
%ADD62R,1.000X2.500*%
%ADD63C,1.500*%
%ADD64C,2.400*%
%ADD65C,1.200*%
%ADD66R,2.500X1.000*%
%ADD67R,1.500X1.000*%
%ADD68C,0.512*%
%ADD69C,0.254*%
%ADD70C,0.575*%
%ADD71C,1.000*%
%ADD72C,0.900*%
%ADD73R,5.250X4.000*%
%ADD74R,2.400X3.100*%
%ADD75R,2.700X2.500*%
%ADD76R,2.290X2.290*%
%ADD77C,7.000*%
%ADD78C,0.700*%
%ADD79C,1.000*%
%ADD80C,1.350*%
G36*
X164979Y102578D02*
X165277Y102454D01*
X165546Y102275D01*
X165775Y102046D01*
X165954Y101777D01*
X166078Y101479D01*
X166141Y101162D01*
Y101000D01*
Y92500D01*
X166142Y92496D01*
X166141Y92492D01*
X166151Y92191D01*
X166154Y92178D01*
X166153Y92165D01*
X166232Y91569D01*
X166237Y91553D01*
X166238Y91536D01*
X166394Y90954D01*
X166402Y90939D01*
X166405Y90922D01*
X166635Y90366D01*
X166645Y90352D01*
X166650Y90336D01*
X166951Y89815D01*
X166962Y89802D01*
X166970Y89787D01*
X167336Y89309D01*
X167349Y89298D01*
X167358Y89284D01*
X167784Y88858D01*
X167798Y88849D01*
X167809Y88836D01*
X168287Y88470D01*
X168302Y88462D01*
X168315Y88451D01*
X168836Y88150D01*
X168852Y88145D01*
X168866Y88135D01*
X169422Y87905D01*
X169439Y87902D01*
X169454Y87894D01*
X170036Y87738D01*
X170053Y87737D01*
X170069Y87732D01*
X170665Y87653D01*
X170678Y87654D01*
X170691Y87651D01*
X170992Y87641D01*
X170996Y87642D01*
X171000Y87641D01*
X171662Y87641D01*
X171979Y87578D01*
X172277Y87454D01*
X172546Y87275D01*
X172775Y87046D01*
X172954Y86777D01*
X173078Y86479D01*
X173141Y86162D01*
Y86000D01*
Y75704D01*
X172850D01*
X172775Y75800D01*
X172775Y75831D01*
Y77488D01*
X170200D01*
X167625D01*
Y75800D01*
X170276D01*
X170351Y75704D01*
X170351Y75673D01*
Y75567D01*
X170298Y75560D01*
X170192Y75552D01*
X160093D01*
X160048Y75556D01*
X159984Y75567D01*
X159937Y75579D01*
X159908Y75591D01*
X159905Y75593D01*
X159904Y75602D01*
X159904Y75604D01*
Y76139D01*
X156096D01*
Y75592D01*
X156094Y75591D01*
X156065Y75579D01*
X156018Y75567D01*
X155953Y75556D01*
X155908Y75552D01*
X152493D01*
X152481Y75552D01*
X152410Y75559D01*
X152354Y75567D01*
Y75704D01*
X152107D01*
X152097Y75706D01*
X152087Y75704D01*
X151081D01*
X151046Y75704D01*
X150954D01*
X150919Y75704D01*
X149913D01*
X149903Y75706D01*
X149893Y75704D01*
X149646D01*
Y75567D01*
X149593Y75560D01*
X149487Y75552D01*
X142514D01*
Y75574D01*
X142267D01*
X142257Y75576D01*
X142255Y75576D01*
X142253Y75576D01*
X142244Y75574D01*
X141701D01*
X141651Y75584D01*
X141250Y75584D01*
X141212Y75576D01*
X141189Y75574D01*
X140986D01*
Y75522D01*
X140968Y75517D01*
X140832Y75495D01*
X140691Y75483D01*
X140623Y75482D01*
X140294Y75482D01*
X140293Y75482D01*
X140293Y75482D01*
X140266Y75482D01*
X140217Y75472D01*
X140168Y75462D01*
X140123Y75443D01*
X139819D01*
Y74757D01*
X140084D01*
X140119Y74733D01*
X140120Y74733D01*
X140120Y74733D01*
X140171Y74712D01*
X140171Y74712D01*
X140172Y74712D01*
X140221Y74702D01*
X140270Y74693D01*
X140270Y74693D01*
X140271Y74693D01*
X140298Y74693D01*
X140526Y74693D01*
X140529Y74693D01*
X140532Y74693D01*
X140610Y74695D01*
X140758Y74673D01*
X140891Y74622D01*
X140986Y74559D01*
Y74426D01*
X141193D01*
X141213Y74419D01*
X141232Y74420D01*
X141250Y74416D01*
X141651D01*
X141699Y74426D01*
X142247D01*
X142257Y74424D01*
X142264Y74425D01*
X142270Y74424D01*
X142301Y74426D01*
X142514D01*
Y74437D01*
X142729Y74448D01*
X149507D01*
X149519Y74448D01*
X149590Y74441D01*
X149646Y74433D01*
Y74296D01*
X149893D01*
X149903Y74294D01*
X149913Y74296D01*
X150919D01*
X150954Y74296D01*
X151046D01*
X151081Y74296D01*
X152087D01*
X152097Y74294D01*
X152107Y74296D01*
X152354D01*
Y74433D01*
X152407Y74440D01*
X152513Y74448D01*
X156002D01*
X156096Y74441D01*
Y74361D01*
X156328D01*
X156332Y74360D01*
X156341Y74361D01*
X156343D01*
X156352Y74359D01*
X156362Y74361D01*
X159637D01*
X159647Y74359D01*
X159657Y74361D01*
X159659D01*
X159668Y74360D01*
X159672Y74361D01*
X159904D01*
Y74437D01*
X160055Y74448D01*
X170212D01*
X170224Y74448D01*
X170295Y74441D01*
X170351Y74433D01*
X170351Y74296D01*
X170276Y74200D01*
X167625D01*
Y72512D01*
X170200D01*
X172775D01*
Y74169D01*
X172775Y74200D01*
X172850Y74296D01*
X173141D01*
X173141Y57000D01*
X173141Y56838D01*
X173078Y56521D01*
X172954Y56223D01*
X172775Y55954D01*
X172546Y55725D01*
X172277Y55546D01*
X171979Y55422D01*
X171662Y55359D01*
X171500D01*
X168500Y55359D01*
X168494Y55358D01*
X168487Y55359D01*
X168281Y55349D01*
X168263Y55344D01*
X168244D01*
X167840Y55264D01*
X167816Y55254D01*
X167791Y55249D01*
X167411Y55091D01*
X167390Y55077D01*
X167366Y55067D01*
X167024Y54839D01*
X167006Y54821D01*
X166985Y54806D01*
X166694Y54515D01*
X166679Y54494D01*
X166661Y54476D01*
X166433Y54134D01*
X166423Y54110D01*
X166409Y54089D01*
X166251Y53709D01*
X166246Y53684D01*
X166236Y53660D01*
X166156Y53256D01*
Y53237D01*
X166151Y53219D01*
X166141Y53013D01*
X166142Y53006D01*
X166141Y53000D01*
X166141Y49000D01*
X166141Y48838D01*
X166078Y48521D01*
X165954Y48223D01*
X165775Y47954D01*
X165546Y47725D01*
X165277Y47546D01*
X164979Y47422D01*
X164662Y47359D01*
X164500D01*
X40500Y47359D01*
X40338D01*
X40021Y47422D01*
X39723Y47546D01*
X39454Y47725D01*
X39225Y47954D01*
X39046Y48223D01*
X38922Y48521D01*
X38859Y48838D01*
Y49000D01*
Y57500D01*
X38858Y57504D01*
X38859Y57508D01*
X38849Y57809D01*
X38846Y57822D01*
X38847Y57835D01*
X38768Y58431D01*
X38763Y58447D01*
X38762Y58464D01*
X38606Y59046D01*
X38598Y59061D01*
X38595Y59078D01*
X38365Y59634D01*
X38355Y59648D01*
X38350Y59664D01*
X38049Y60185D01*
X38038Y60198D01*
X38030Y60213D01*
X37664Y60691D01*
X37651Y60702D01*
X37642Y60716D01*
X37216Y61142D01*
X37202Y61151D01*
X37191Y61164D01*
X36713Y61530D01*
X36698Y61538D01*
X36685Y61549D01*
X36164Y61850D01*
X36148Y61855D01*
X36134Y61865D01*
X35578Y62095D01*
X35561Y62098D01*
X35546Y62106D01*
X34964Y62262D01*
X34947Y62263D01*
X34931Y62268D01*
X34335Y62347D01*
X34322Y62346D01*
X34309Y62349D01*
X34008Y62359D01*
X34004Y62358D01*
X34000Y62359D01*
X33500Y62359D01*
X33338Y62359D01*
X33021Y62422D01*
X32723Y62546D01*
X32454Y62725D01*
X32225Y62954D01*
X32046Y63223D01*
X31922Y63521D01*
X31859Y63838D01*
Y64000D01*
X31859Y93000D01*
X31859Y93162D01*
X31922Y93479D01*
X32046Y93777D01*
X32225Y94046D01*
X32454Y94275D01*
X32723Y94454D01*
X33021Y94578D01*
X33338Y94641D01*
X33500D01*
X36500Y94641D01*
X36506Y94642D01*
X36513Y94641D01*
X36719Y94651D01*
X36737Y94656D01*
X36756D01*
X37160Y94736D01*
X37184Y94746D01*
X37209Y94751D01*
X37589Y94909D01*
X37610Y94923D01*
X37634Y94933D01*
X37976Y95161D01*
X37994Y95179D01*
X38015Y95194D01*
X38306Y95485D01*
X38321Y95506D01*
X38339Y95524D01*
X38567Y95866D01*
X38577Y95890D01*
X38591Y95911D01*
X38749Y96291D01*
X38754Y96316D01*
X38764Y96340D01*
X38844Y96744D01*
Y96763D01*
X38849Y96781D01*
X38859Y96987D01*
X38858Y96994D01*
X38859Y97000D01*
X38859Y101000D01*
X38859Y101162D01*
X38922Y101479D01*
X39046Y101777D01*
X39225Y102046D01*
X39454Y102275D01*
X39723Y102454D01*
X40021Y102578D01*
X40338Y102641D01*
X40500D01*
X164500Y102641D01*
X164662D01*
X164979Y102578D01*
D02*
G37*
G36*
X141651Y74675D02*
X141250D01*
X141250Y74675D01*
X141177Y74744D01*
X141010Y74854D01*
X140824Y74925D01*
X140626Y74954D01*
X140526Y74952D01*
X140296Y74952D01*
X140296Y74952D01*
X140269Y74952D01*
X140219Y74972D01*
X140180Y75011D01*
X140159Y75062D01*
X140159Y75089D01*
X140159Y75089D01*
X140160Y75115D01*
X140180Y75165D01*
X140218Y75202D01*
X140267Y75223D01*
X140294Y75223D01*
X140626Y75223D01*
X140626Y75223D01*
X140705Y75225D01*
X140863Y75238D01*
X141020Y75264D01*
X141174Y75301D01*
X141250Y75325D01*
X141651Y75325D01*
Y74675D01*
D02*
G37*
G36*
X142263Y75311D02*
X142280Y75306D01*
X142309Y75302D01*
X142349Y75298D01*
X142539Y75290D01*
X142832Y75287D01*
Y74713D01*
X142257Y74683D01*
Y75317D01*
X142263Y75311D01*
D02*
G37*
G36*
X159653Y75520D02*
X159670Y75471D01*
X159699Y75428D01*
X159739Y75391D01*
X159791Y75359D01*
X159854Y75334D01*
X159929Y75313D01*
X160015Y75299D01*
X160113Y75290D01*
X160222Y75287D01*
Y74713D01*
X160113Y74712D01*
X159791Y74689D01*
X159739Y74678D01*
X159699Y74666D01*
X159670Y74652D01*
X159653Y74636D01*
X159647Y74618D01*
Y75575D01*
X159653Y75520D01*
D02*
G37*
G36*
X156353Y74618D02*
X156347Y74636D01*
X156330Y74652D01*
X156301Y74666D01*
X156261Y74678D01*
X156209Y74689D01*
X156146Y74697D01*
X155985Y74709D01*
X155778Y74713D01*
Y75287D01*
X155888Y75290D01*
X155986Y75299D01*
X156072Y75313D01*
X156148Y75334D01*
X156211Y75359D01*
X156263Y75391D01*
X156304Y75428D01*
X156333Y75471D01*
X156350Y75520D01*
X156356Y75575D01*
X156353Y74618D01*
D02*
G37*
G36*
X170608Y74553D02*
X170602Y74583D01*
X170585Y74610D01*
X170556Y74634D01*
X170516Y74655D01*
X170464Y74673D01*
X170401Y74687D01*
X170326Y74698D01*
X170240Y74706D01*
X170033Y74713D01*
Y75287D01*
X170142Y75289D01*
X170326Y75302D01*
X170401Y75313D01*
X170464Y75327D01*
X170516Y75345D01*
X170556Y75366D01*
X170585Y75390D01*
X170602Y75417D01*
X170608Y75447D01*
Y74553D01*
D02*
G37*
G36*
X152103Y75417D02*
X152120Y75390D01*
X152149Y75366D01*
X152189Y75345D01*
X152241Y75327D01*
X152304Y75313D01*
X152379Y75302D01*
X152465Y75294D01*
X152672Y75287D01*
Y74713D01*
X152563Y74711D01*
X152379Y74698D01*
X152304Y74687D01*
X152241Y74673D01*
X152189Y74655D01*
X152149Y74634D01*
X152120Y74610D01*
X152103Y74583D01*
X152097Y74553D01*
Y75447D01*
X152103Y75417D01*
D02*
G37*
G36*
X149903Y74553D02*
X149897Y74583D01*
X149880Y74610D01*
X149851Y74634D01*
X149811Y74655D01*
X149759Y74673D01*
X149696Y74687D01*
X149621Y74698D01*
X149535Y74706D01*
X149328Y74713D01*
Y75287D01*
X149437Y75289D01*
X149621Y75302D01*
X149696Y75313D01*
X149759Y75327D01*
X149811Y75345D01*
X149851Y75366D01*
X149880Y75390D01*
X149897Y75417D01*
X149903Y75447D01*
Y74553D01*
D02*
G37*
%LPC*%
G36*
X143700Y101700D02*
X143012D01*
Y100512D01*
X143700D01*
Y101700D01*
D02*
G37*
G36*
X141988D02*
X141300D01*
Y100512D01*
X141988D01*
Y101700D01*
D02*
G37*
G36*
X71200D02*
X70512D01*
Y100512D01*
X71200D01*
Y101700D01*
D02*
G37*
G36*
X58700D02*
X58012D01*
Y100512D01*
X58700D01*
Y101700D01*
D02*
G37*
G36*
X69488D02*
X68800D01*
Y100512D01*
X69488D01*
Y101700D01*
D02*
G37*
G36*
X56988D02*
X56300D01*
Y100512D01*
X56988D01*
Y101700D01*
D02*
G37*
G36*
X131200D02*
X130512D01*
Y100512D01*
X131200D01*
Y101700D01*
D02*
G37*
G36*
X129488D02*
X128800D01*
Y100512D01*
X129488D01*
Y101700D01*
D02*
G37*
G36*
X143700Y99488D02*
X143012D01*
Y98300D01*
X143700D01*
Y99488D01*
D02*
G37*
G36*
X141988D02*
X141300D01*
Y98300D01*
X141988D01*
Y99488D01*
D02*
G37*
G36*
X131200Y99488D02*
X130512D01*
Y98300D01*
X131200D01*
Y99488D01*
D02*
G37*
G36*
X129488D02*
X128800D01*
Y98300D01*
X129488D01*
Y99488D01*
D02*
G37*
G36*
X71200Y99488D02*
X70512D01*
Y98300D01*
X71200D01*
Y99488D01*
D02*
G37*
G36*
X69488D02*
X68800D01*
Y98300D01*
X69488D01*
Y99488D01*
D02*
G37*
G36*
X58700D02*
X58012D01*
Y98300D01*
X58700D01*
Y99488D01*
D02*
G37*
G36*
X56988D02*
X56300D01*
Y98300D01*
X56988D01*
Y99488D01*
D02*
G37*
G36*
X165200Y97200D02*
X164012D01*
Y96512D01*
X165200D01*
Y97200D01*
D02*
G37*
G36*
X162988D02*
X161800D01*
Y96512D01*
X162988D01*
Y97200D01*
D02*
G37*
G36*
X88012Y96212D02*
Y95412D01*
X88812D01*
X88805Y95440D01*
X88620Y95760D01*
X88360Y96020D01*
X88040Y96205D01*
X88012Y96212D01*
D02*
G37*
G36*
X86988D02*
X86960Y96205D01*
X86640Y96020D01*
X86380Y95760D01*
X86195Y95440D01*
X86188Y95412D01*
X86988D01*
Y96212D01*
D02*
G37*
G36*
X78012D02*
Y95412D01*
X78812D01*
X78805Y95440D01*
X78620Y95760D01*
X78360Y96020D01*
X78040Y96205D01*
X78012Y96212D01*
D02*
G37*
G36*
X76988D02*
X76960Y96205D01*
X76640Y96020D01*
X76380Y95760D01*
X76195Y95440D01*
X76188Y95412D01*
X76988D01*
Y96212D01*
D02*
G37*
G36*
X68012D02*
Y95412D01*
X68812D01*
X68805Y95440D01*
X68620Y95760D01*
X68360Y96020D01*
X68040Y96205D01*
X68012Y96212D01*
D02*
G37*
G36*
X66988D02*
X66960Y96205D01*
X66640Y96020D01*
X66380Y95760D01*
X66195Y95440D01*
X66188Y95412D01*
X66988D01*
Y96212D01*
D02*
G37*
G36*
X58012D02*
Y95412D01*
X58812D01*
X58805Y95440D01*
X58620Y95760D01*
X58360Y96020D01*
X58040Y96205D01*
X58012Y96212D01*
D02*
G37*
G36*
X56988D02*
X56960Y96205D01*
X56640Y96020D01*
X56380Y95760D01*
X56195Y95440D01*
X56188Y95412D01*
X56988D01*
Y96212D01*
D02*
G37*
G36*
X165200Y95488D02*
X164012D01*
Y94800D01*
X165200D01*
Y95488D01*
D02*
G37*
G36*
X162988D02*
X161800D01*
Y94800D01*
X162988D01*
Y95488D01*
D02*
G37*
G36*
X88812Y94388D02*
X88012D01*
Y93588D01*
X88040Y93595D01*
X88360Y93780D01*
X88620Y94040D01*
X88805Y94360D01*
X88812Y94388D01*
D02*
G37*
G36*
X86988D02*
X86188D01*
X86195Y94360D01*
X86380Y94040D01*
X86640Y93780D01*
X86960Y93595D01*
X86988Y93588D01*
Y94388D01*
D02*
G37*
G36*
X78812D02*
X78012D01*
Y93588D01*
X78040Y93595D01*
X78360Y93780D01*
X78620Y94040D01*
X78805Y94360D01*
X78812Y94388D01*
D02*
G37*
G36*
X76988D02*
X76188D01*
X76195Y94360D01*
X76380Y94040D01*
X76640Y93780D01*
X76960Y93595D01*
X76988Y93588D01*
Y94388D01*
D02*
G37*
G36*
X68812D02*
X68012D01*
Y93588D01*
X68040Y93595D01*
X68360Y93780D01*
X68620Y94040D01*
X68805Y94360D01*
X68812Y94388D01*
D02*
G37*
G36*
X66988D02*
X66188D01*
X66195Y94360D01*
X66380Y94040D01*
X66640Y93780D01*
X66960Y93595D01*
X66988Y93588D01*
Y94388D01*
D02*
G37*
G36*
X58812D02*
X58012D01*
Y93588D01*
X58040Y93595D01*
X58360Y93780D01*
X58620Y94040D01*
X58805Y94360D01*
X58812Y94388D01*
D02*
G37*
G36*
X56988D02*
X56188D01*
X56195Y94360D01*
X56380Y94040D01*
X56640Y93780D01*
X56960Y93595D01*
X56988Y93588D01*
Y94388D01*
D02*
G37*
G36*
X49115Y95775D02*
X48885D01*
X48662Y95715D01*
X48463Y95600D01*
X48300Y95437D01*
X48185Y95238D01*
X48125Y95015D01*
Y94785D01*
X48185Y94562D01*
X48246Y94456D01*
Y92146D01*
X49754D01*
Y94456D01*
X49815Y94562D01*
X49875Y94785D01*
Y95015D01*
X49815Y95238D01*
X49700Y95437D01*
X49537Y95600D01*
X49338Y95715D01*
X49115Y95775D01*
D02*
G37*
G36*
X46115D02*
X45885D01*
X45662Y95715D01*
X45463Y95600D01*
X45300Y95437D01*
X45185Y95238D01*
X45125Y95015D01*
Y94785D01*
X45185Y94562D01*
X45246Y94456D01*
Y92146D01*
X46754D01*
Y94456D01*
X46815Y94562D01*
X46875Y94785D01*
Y95015D01*
X46815Y95238D01*
X46700Y95437D01*
X46537Y95600D01*
X46338Y95715D01*
X46115Y95775D01*
D02*
G37*
G36*
X41256Y92415D02*
Y91756D01*
X41915D01*
X41885Y91867D01*
X41760Y92083D01*
X41583Y92260D01*
X41367Y92385D01*
X41256Y92415D01*
D02*
G37*
G36*
X40744D02*
X40633Y92385D01*
X40417Y92260D01*
X40240Y92083D01*
X40115Y91867D01*
X40085Y91756D01*
X40744D01*
Y92415D01*
D02*
G37*
G36*
X41915Y91244D02*
X41256D01*
Y90585D01*
X41367Y90615D01*
X41583Y90740D01*
X41760Y90917D01*
X41885Y91133D01*
X41915Y91244D01*
D02*
G37*
G36*
X40744D02*
X40085D01*
X40115Y91133D01*
X40240Y90917D01*
X40417Y90740D01*
X40633Y90615D01*
X40744Y90585D01*
Y91244D01*
D02*
G37*
G36*
X123099Y91500D02*
X122901D01*
X122717Y91424D01*
X122576Y91283D01*
X122500Y91099D01*
Y90901D01*
X122576Y90717D01*
X122717Y90576D01*
X122901Y90500D01*
X123099D01*
X123283Y90576D01*
X123424Y90717D01*
X123500Y90901D01*
Y91099D01*
X123424Y91283D01*
X123283Y91424D01*
X123099Y91500D01*
D02*
G37*
G36*
X121099D02*
X120901D01*
X120717Y91424D01*
X120576Y91283D01*
X120500Y91099D01*
Y90901D01*
X120576Y90717D01*
X120717Y90576D01*
X120901Y90500D01*
X121099D01*
X121283Y90576D01*
X121424Y90717D01*
X121500Y90901D01*
Y91099D01*
X121424Y91283D01*
X121283Y91424D01*
X121099Y91500D01*
D02*
G37*
G36*
X144950Y95159D02*
X137950D01*
X137851Y95139D01*
X137767Y95083D01*
X137711Y94999D01*
X137691Y94900D01*
Y90700D01*
X137711Y90601D01*
X137767Y90517D01*
X137851Y90461D01*
X137950Y90441D01*
X139696D01*
Y90346D01*
X140836D01*
X140846Y90344D01*
X140846Y90344D01*
X140847Y90344D01*
X140857Y90346D01*
X141343D01*
X141353Y90344D01*
X141354Y90344D01*
X141354Y90344D01*
X141364Y90346D01*
X142504D01*
X142504Y90346D01*
X142596Y90321D01*
X142596Y90321D01*
X142621Y90321D01*
X142843D01*
X142853Y90319D01*
X142863Y90321D01*
X144804D01*
Y90441D01*
X144950D01*
X145049Y90461D01*
X145133Y90517D01*
X145189Y90601D01*
X145209Y90700D01*
Y94900D01*
X145189Y94999D01*
X145133Y95083D01*
X145049Y95139D01*
X144950Y95159D01*
D02*
G37*
G36*
X115400D02*
X108400D01*
X108301Y95139D01*
X108217Y95083D01*
X108161Y94999D01*
X108141Y94900D01*
Y90700D01*
X108161Y90601D01*
X108217Y90517D01*
X108301Y90461D01*
X108400Y90441D01*
X110146D01*
Y90346D01*
X111286D01*
X111296Y90344D01*
X111296Y90344D01*
X111297Y90344D01*
X111307Y90346D01*
X111793D01*
X111803Y90344D01*
X111804Y90344D01*
X111804Y90344D01*
X111814Y90346D01*
X112954D01*
X112954Y90346D01*
X113046Y90321D01*
X113046Y90321D01*
X113071Y90321D01*
X113293D01*
X113303Y90319D01*
X113313Y90321D01*
X115254D01*
Y90441D01*
X115400D01*
X115499Y90461D01*
X115583Y90517D01*
X115639Y90601D01*
X115659Y90700D01*
Y94900D01*
X115639Y94999D01*
X115583Y95083D01*
X115499Y95139D01*
X115400Y95159D01*
D02*
G37*
G36*
X112432Y90200D02*
Y89783D01*
X112900D01*
Y90200D01*
X112432D01*
D02*
G37*
G36*
X141982D02*
Y89783D01*
X142450D01*
Y90200D01*
X141982D01*
D02*
G37*
G36*
X140217D02*
X139750D01*
Y89783D01*
X140217D01*
Y90200D01*
D02*
G37*
G36*
X110668D02*
X110200D01*
Y89783D01*
X110668D01*
Y90200D01*
D02*
G37*
G36*
X142450Y89418D02*
X141982D01*
Y89000D01*
X142450D01*
Y89418D01*
D02*
G37*
G36*
X112900D02*
X112432D01*
Y89000D01*
X112900D01*
Y89418D01*
D02*
G37*
G36*
X140217D02*
X139750D01*
Y89000D01*
X140217D01*
Y89418D01*
D02*
G37*
G36*
X110668D02*
X110200D01*
Y89000D01*
X110668D01*
Y89418D01*
D02*
G37*
G36*
X141150Y90200D02*
X141050D01*
X141023Y90200D01*
X140582D01*
Y89600D01*
Y89000D01*
X141023D01*
X141050Y89000D01*
X141150D01*
X141177Y89000D01*
X141617D01*
Y89600D01*
Y90200D01*
X141177D01*
X141150Y90200D01*
D02*
G37*
G36*
X122099Y90000D02*
X121901D01*
X121717Y89924D01*
X121576Y89783D01*
X121500Y89599D01*
Y89401D01*
X121576Y89217D01*
X121717Y89076D01*
X121901Y89000D01*
X122099D01*
X122283Y89076D01*
X122424Y89217D01*
X122500Y89401D01*
Y89599D01*
X122424Y89783D01*
X122283Y89924D01*
X122099Y90000D01*
D02*
G37*
G36*
X120099D02*
X119901D01*
X119717Y89924D01*
X119576Y89783D01*
X119500Y89599D01*
Y89401D01*
X119576Y89217D01*
X119717Y89076D01*
X119901Y89000D01*
X120099D01*
X120283Y89076D01*
X120424Y89217D01*
X120500Y89401D01*
Y89599D01*
X120424Y89783D01*
X120283Y89924D01*
X120099Y90000D01*
D02*
G37*
G36*
X111600Y90200D02*
X111500D01*
X111473Y90200D01*
X111033D01*
Y89600D01*
Y89000D01*
X111473D01*
X111500Y89000D01*
X111600D01*
X111627Y89000D01*
X112067D01*
Y89600D01*
Y90200D01*
X111627D01*
X111600Y90200D01*
D02*
G37*
G36*
X98012Y89312D02*
Y88512D01*
X98812D01*
X98805Y88540D01*
X98620Y88860D01*
X98360Y89120D01*
X98040Y89305D01*
X98012Y89312D01*
D02*
G37*
G36*
X96988D02*
X96960Y89305D01*
X96640Y89120D01*
X96380Y88860D01*
X96195Y88540D01*
X96188Y88512D01*
X96988D01*
Y89312D01*
D02*
G37*
G36*
X154367Y88400D02*
X153950D01*
Y87933D01*
X154367D01*
Y88400D01*
D02*
G37*
G36*
X123099Y88500D02*
X122901D01*
X122717Y88424D01*
X122576Y88283D01*
X122500Y88099D01*
Y87901D01*
X122576Y87717D01*
X122717Y87576D01*
X122901Y87500D01*
X123099D01*
X123283Y87576D01*
X123424Y87717D01*
X123500Y87901D01*
Y88099D01*
X123424Y88283D01*
X123283Y88424D01*
X123099Y88500D01*
D02*
G37*
G36*
X121099D02*
X120901D01*
X120717Y88424D01*
X120576Y88283D01*
X120500Y88099D01*
Y87901D01*
X120576Y87717D01*
X120717Y87576D01*
X120901Y87500D01*
X121099D01*
X121283Y87576D01*
X121424Y87717D01*
X121500Y87901D01*
Y88099D01*
X121424Y88283D01*
X121283Y88424D01*
X121099Y88500D01*
D02*
G37*
G36*
X154367Y87568D02*
X153950D01*
Y87100D01*
X154367D01*
Y87568D01*
D02*
G37*
G36*
X35756Y87415D02*
Y86756D01*
X36415D01*
X36385Y86867D01*
X36260Y87083D01*
X36083Y87260D01*
X35867Y87385D01*
X35756Y87415D01*
D02*
G37*
G36*
X35244D02*
X35133Y87385D01*
X34917Y87260D01*
X34740Y87083D01*
X34615Y86867D01*
X34585Y86756D01*
X35244D01*
Y87415D01*
D02*
G37*
G36*
X98812Y87488D02*
X98012D01*
Y86688D01*
X98040Y86695D01*
X98360Y86880D01*
X98620Y87140D01*
X98805Y87460D01*
X98812Y87488D01*
D02*
G37*
G36*
X96988D02*
X96188D01*
X96195Y87460D01*
X96380Y87140D01*
X96640Y86880D01*
X96960Y86695D01*
X96988Y86688D01*
Y87488D01*
D02*
G37*
G36*
X142600Y86850D02*
X142182D01*
Y86382D01*
X142600D01*
Y86850D01*
D02*
G37*
G36*
X141818D02*
X141400D01*
Y86382D01*
X141818D01*
Y86850D01*
D02*
G37*
G36*
X113050D02*
X112632D01*
Y86382D01*
X113050D01*
Y86850D01*
D02*
G37*
G36*
X112268D02*
X111850D01*
Y86382D01*
X112268D01*
Y86850D01*
D02*
G37*
G36*
X36415Y86244D02*
X35756D01*
Y85585D01*
X35867Y85615D01*
X36083Y85740D01*
X36260Y85917D01*
X36385Y86133D01*
X36415Y86244D01*
D02*
G37*
G36*
X35244D02*
X34585D01*
X34615Y86133D01*
X34740Y85917D01*
X34917Y85740D01*
X35133Y85615D01*
X35244Y85585D01*
Y86244D01*
D02*
G37*
G36*
X142600Y86018D02*
X142182D01*
Y85550D01*
X142600D01*
Y86018D01*
D02*
G37*
G36*
X141818D02*
X141400D01*
Y85550D01*
X141818D01*
Y86018D01*
D02*
G37*
G36*
X113050Y86018D02*
X112632D01*
Y85550D01*
X113050D01*
Y86018D01*
D02*
G37*
G36*
X112268D02*
X111850D01*
Y85550D01*
X112268D01*
Y86018D01*
D02*
G37*
G36*
X140638Y85278D02*
X139246D01*
Y85036D01*
X140638D01*
Y85278D01*
D02*
G37*
G36*
X111088D02*
X109696D01*
Y85036D01*
X111088D01*
Y85278D01*
D02*
G37*
G36*
X161000Y90359D02*
X155000D01*
X154901Y90339D01*
X154817Y90283D01*
X154761Y90199D01*
X154741Y90100D01*
Y88454D01*
X154732Y88444D01*
Y87750D01*
Y87056D01*
X154741Y87046D01*
Y86809D01*
X153306D01*
Y85031D01*
X157114D01*
Y85641D01*
X161000D01*
X161099Y85661D01*
X161183Y85717D01*
X161239Y85801D01*
X161259Y85900D01*
Y90100D01*
X161239Y90199D01*
X161183Y90283D01*
X161099Y90339D01*
X161000Y90359D01*
D02*
G37*
G36*
X137954Y85278D02*
X136562D01*
Y84524D01*
X135538D01*
Y85278D01*
X134146D01*
Y83886D01*
X134900D01*
Y82862D01*
X134146D01*
Y81470D01*
X135654D01*
Y83770D01*
X137954D01*
Y85278D01*
D02*
G37*
G36*
X108404D02*
X107012D01*
Y84524D01*
X105988D01*
Y85278D01*
X104596D01*
Y83886D01*
X105350D01*
Y82862D01*
X104596D01*
Y81470D01*
X106104D01*
Y83770D01*
X108404D01*
Y85278D01*
D02*
G37*
G36*
X140638Y84012D02*
X139246D01*
Y83770D01*
X140638D01*
Y84012D01*
D02*
G37*
G36*
X111088D02*
X109696D01*
Y83770D01*
X111088D01*
Y84012D01*
D02*
G37*
G36*
X172200Y84200D02*
X171012D01*
Y83512D01*
X172200D01*
Y84200D01*
D02*
G37*
G36*
X169988D02*
X168800D01*
Y83512D01*
X169988D01*
Y84200D01*
D02*
G37*
G36*
X140642Y82454D02*
X139334D01*
Y81983D01*
X139121D01*
X139029Y81987D01*
X138961Y81995D01*
X138954Y81996D01*
Y82104D01*
X138707D01*
X138697Y82106D01*
X138687Y82104D01*
X137646D01*
Y80964D01*
X137644Y80954D01*
X137644Y80954D01*
X137644Y80953D01*
X137646Y80943D01*
Y80696D01*
X137646Y80696D01*
X137630Y80610D01*
X137602Y80578D01*
X137596D01*
Y80331D01*
X137594Y80321D01*
X137596Y80311D01*
Y79270D01*
X139004D01*
Y80311D01*
X139006Y80321D01*
X139004Y80331D01*
Y80578D01*
X139004D01*
X138963Y80700D01*
X138996Y80807D01*
X139148Y80817D01*
X139375D01*
X139387Y80820D01*
X139690Y80860D01*
X139983Y80981D01*
X140068Y81046D01*
X140642D01*
Y82454D01*
D02*
G37*
G36*
X111092D02*
X109784D01*
Y81983D01*
X109571D01*
X109479Y81987D01*
X109411Y81995D01*
X109404Y81996D01*
Y82104D01*
X109157D01*
X109147Y82106D01*
X109137Y82104D01*
X108096D01*
Y80964D01*
X108094Y80954D01*
X108094Y80954D01*
X108094Y80953D01*
X108096Y80943D01*
Y80696D01*
X108096Y80696D01*
X108080Y80610D01*
X108052Y80578D01*
X108046D01*
Y80331D01*
X108044Y80321D01*
X108046Y80311D01*
Y79270D01*
X109454D01*
Y80311D01*
X109456Y80321D01*
X109454Y80331D01*
Y80578D01*
X109454D01*
X109413Y80700D01*
X109446Y80807D01*
X109598Y80817D01*
X109825D01*
X109837Y80820D01*
X110140Y80860D01*
X110433Y80981D01*
X110518Y81046D01*
X111092D01*
Y82454D01*
D02*
G37*
G36*
X172200Y82488D02*
X171012D01*
Y81800D01*
X172200D01*
Y82488D01*
D02*
G37*
G36*
X169988D02*
X168800D01*
Y81800D01*
X169988D01*
Y82488D01*
D02*
G37*
G36*
X107950Y82050D02*
X107533D01*
Y81582D01*
X107950D01*
Y82050D01*
D02*
G37*
G36*
X107168D02*
X106750D01*
Y81582D01*
X107168D01*
Y82050D01*
D02*
G37*
G36*
X137500D02*
X137083D01*
Y81582D01*
X137500D01*
Y82050D01*
D02*
G37*
G36*
X136718D02*
X136300D01*
Y81582D01*
X136718D01*
Y82050D01*
D02*
G37*
G36*
X144804Y88879D02*
X142596D01*
Y87388D01*
X142594Y87378D01*
X142596Y87368D01*
Y87121D01*
X142795D01*
X142848Y87025D01*
X142854Y87004D01*
X142786Y86904D01*
X142746D01*
Y85496D01*
X142939D01*
Y85278D01*
X141662D01*
Y84524D01*
Y83770D01*
X142939D01*
Y83476D01*
X142935Y83346D01*
X142919Y83199D01*
X142893Y83076D01*
X142860Y82980D01*
X142822Y82908D01*
X142783Y82858D01*
X142743Y82824D01*
X142698Y82800D01*
X142658Y82789D01*
X142486Y82783D01*
X142175D01*
X142163Y82780D01*
X141860Y82740D01*
X141567Y82619D01*
X141352Y82454D01*
X140858D01*
Y81046D01*
X142166D01*
Y81496D01*
X142175Y81617D01*
X142589D01*
X142667Y81528D01*
X142668Y81490D01*
X142667Y81487D01*
Y81252D01*
X142664Y81204D01*
X142596D01*
Y80966D01*
X142594Y80960D01*
X142595Y80953D01*
X142594Y80947D01*
X142596Y80937D01*
Y80064D01*
X142594Y80054D01*
X142594Y80054D01*
X142594Y80053D01*
X142596Y80043D01*
Y79831D01*
X142596Y79796D01*
X142596D01*
Y79704D01*
X142596D01*
Y79457D01*
X142594Y79447D01*
X142594Y79446D01*
X142594Y79446D01*
X142596Y79436D01*
Y78296D01*
X143904D01*
Y79436D01*
X143906Y79446D01*
X143906Y79446D01*
X143906Y79447D01*
X143904Y79457D01*
Y79669D01*
X143904Y79704D01*
X143904D01*
Y79796D01*
X143904D01*
Y80043D01*
X143906Y80053D01*
X143906Y80054D01*
X143906Y80054D01*
X143904Y80064D01*
Y80937D01*
X143906Y80947D01*
X143905Y80953D01*
X143906Y80960D01*
X143904Y80966D01*
Y81204D01*
X143839D01*
X143833Y81306D01*
Y81457D01*
X143897Y81465D01*
X144080Y81541D01*
X144238Y81662D01*
X144359Y81820D01*
X144435Y82003D01*
X144461Y82200D01*
Y83770D01*
X146646D01*
Y81470D01*
X148154D01*
Y82862D01*
X147400D01*
Y83886D01*
X148154D01*
Y85278D01*
X146762D01*
Y84524D01*
X145738D01*
Y85278D01*
X144461D01*
Y86459D01*
X144462Y86558D01*
X144472Y86715D01*
X144487Y86849D01*
X144508Y86959D01*
X144531Y87042D01*
X144555Y87096D01*
X144570Y87120D01*
X144579Y87121D01*
X144804D01*
Y87368D01*
X144806Y87378D01*
X144804Y87388D01*
Y88879D01*
D02*
G37*
G36*
X115254D02*
X113046D01*
Y87388D01*
X113044Y87378D01*
X113046Y87368D01*
Y87121D01*
X113245D01*
X113298Y87025D01*
X113304Y87004D01*
X113236Y86904D01*
X113196D01*
Y85496D01*
X113390D01*
Y85278D01*
X112112D01*
Y84524D01*
Y83770D01*
X113390D01*
Y83476D01*
X113385Y83346D01*
X113369Y83199D01*
X113343Y83076D01*
X113310Y82980D01*
X113272Y82908D01*
X113233Y82858D01*
X113193Y82824D01*
X113148Y82800D01*
X113108Y82789D01*
X112936Y82783D01*
X112693D01*
X112568Y82783D01*
X112566Y82782D01*
Y82782D01*
X112552Y82780D01*
X112255Y82740D01*
X111961Y82619D01*
X111746Y82454D01*
X111308D01*
Y81046D01*
X112616D01*
Y81617D01*
X113062D01*
X113083Y81594D01*
X113142Y81512D01*
Y81293D01*
X113135Y81204D01*
X113046D01*
Y80977D01*
X113046Y80977D01*
X113046Y80974D01*
Y80957D01*
X113044Y80947D01*
X113046Y80937D01*
Y80064D01*
X113044Y80054D01*
X113044Y80054D01*
X113044Y80053D01*
X113046Y80043D01*
Y79831D01*
X113046Y79796D01*
X113046D01*
Y79704D01*
X113046D01*
Y79457D01*
X113044Y79447D01*
X113044Y79446D01*
X113044Y79446D01*
X113046Y79436D01*
Y78296D01*
X114354D01*
Y79436D01*
X114356Y79446D01*
X114356Y79446D01*
X114356Y79447D01*
X114354Y79457D01*
Y79669D01*
X114354Y79704D01*
X114354D01*
Y79796D01*
X114354D01*
Y80043D01*
X114356Y80053D01*
X114356Y80054D01*
X114356Y80054D01*
X114354Y80064D01*
Y80918D01*
X114354Y80919D01*
X114354Y80924D01*
Y80937D01*
X114356Y80947D01*
X114354Y80957D01*
Y81204D01*
X114315D01*
X114308Y81325D01*
Y81460D01*
X114347Y81465D01*
X114530Y81541D01*
X114688Y81662D01*
X114809Y81820D01*
X114885Y82003D01*
X114911Y82200D01*
Y83770D01*
X117096D01*
Y81470D01*
X118604D01*
Y82862D01*
X117850D01*
Y83886D01*
X118604D01*
Y85278D01*
X117212D01*
Y84524D01*
X116188D01*
Y85278D01*
X114911D01*
Y86460D01*
X114912Y86558D01*
X114922Y86715D01*
X114937Y86849D01*
X114958Y86959D01*
X114981Y87042D01*
X115005Y87096D01*
X115020Y87120D01*
X115029Y87121D01*
X115254D01*
Y87368D01*
X115256Y87378D01*
X115254Y87388D01*
Y88879D01*
D02*
G37*
G36*
X97700Y81450D02*
X96506D01*
Y81006D01*
X97700D01*
Y81450D01*
D02*
G37*
G36*
X95994D02*
X94800D01*
Y81006D01*
X95994D01*
Y81450D01*
D02*
G37*
G36*
X137500Y81217D02*
X137083D01*
Y80750D01*
X137500D01*
Y81217D01*
D02*
G37*
G36*
X136718D02*
X136300D01*
Y80750D01*
X136718D01*
Y81217D01*
D02*
G37*
G36*
X107950Y81217D02*
X107533D01*
Y80750D01*
X107950D01*
Y81217D01*
D02*
G37*
G36*
X107168D02*
X106750D01*
Y80750D01*
X107168D01*
Y81217D01*
D02*
G37*
G36*
X115700Y81150D02*
X115282D01*
Y80683D01*
X115700D01*
Y81150D01*
D02*
G37*
G36*
X114918D02*
X114500D01*
Y80683D01*
X114918D01*
Y81150D01*
D02*
G37*
G36*
X145250D02*
X144833D01*
Y80682D01*
X145250D01*
Y81150D01*
D02*
G37*
G36*
X144467D02*
X144050D01*
Y80682D01*
X144467D01*
Y81150D01*
D02*
G37*
G36*
X126099Y81500D02*
X125901D01*
X125717Y81424D01*
X125576Y81283D01*
X125500Y81099D01*
Y80901D01*
X125576Y80717D01*
X125717Y80576D01*
X125901Y80500D01*
X126099D01*
X126283Y80576D01*
X126424Y80717D01*
X126500Y80901D01*
Y81099D01*
X126424Y81283D01*
X126283Y81424D01*
X126099Y81500D01*
D02*
G37*
G36*
X97700Y80494D02*
X96506D01*
Y80050D01*
X97700D01*
Y80494D01*
D02*
G37*
G36*
X95994D02*
X94800D01*
Y80050D01*
X95994D01*
Y80494D01*
D02*
G37*
G36*
X137450Y80400D02*
X136982D01*
Y79982D01*
X137450D01*
Y80400D01*
D02*
G37*
G36*
X136617D02*
X136150D01*
Y79982D01*
X136617D01*
Y80400D01*
D02*
G37*
G36*
X107900D02*
X107433D01*
Y79982D01*
X107900D01*
Y80400D01*
D02*
G37*
G36*
X107067D02*
X106600D01*
Y79982D01*
X107067D01*
Y80400D01*
D02*
G37*
G36*
X145250Y80317D02*
X144833D01*
Y79850D01*
X145250D01*
Y80317D01*
D02*
G37*
G36*
X144467D02*
X144050D01*
Y79850D01*
X144467D01*
Y80317D01*
D02*
G37*
G36*
X115700Y80317D02*
X115282D01*
Y79850D01*
X115700D01*
Y80317D01*
D02*
G37*
G36*
X114918D02*
X114500D01*
Y79850D01*
X114918D01*
Y80317D01*
D02*
G37*
G36*
X127599Y80500D02*
X127401D01*
X127217Y80424D01*
X127076Y80283D01*
X127000Y80099D01*
Y79901D01*
X127076Y79717D01*
X127217Y79576D01*
X127401Y79500D01*
X127599D01*
X127783Y79576D01*
X127924Y79717D01*
X128000Y79901D01*
Y80099D01*
X127924Y80283D01*
X127783Y80424D01*
X127599Y80500D01*
D02*
G37*
G36*
X79099D02*
X78901D01*
X78717Y80424D01*
X78576Y80283D01*
X78500Y80099D01*
Y79901D01*
X78576Y79717D01*
X78717Y79576D01*
X78901Y79500D01*
X79099D01*
X79283Y79576D01*
X79424Y79717D01*
X79500Y79901D01*
Y80099D01*
X79424Y80283D01*
X79283Y80424D01*
X79099Y80500D01*
D02*
G37*
G36*
X77099D02*
X76901D01*
X76717Y80424D01*
X76576Y80283D01*
X76500Y80099D01*
Y79901D01*
X76576Y79717D01*
X76717Y79576D01*
X76901Y79500D01*
X77099D01*
X77283Y79576D01*
X77424Y79717D01*
X77500Y79901D01*
Y80099D01*
X77424Y80283D01*
X77283Y80424D01*
X77099Y80500D01*
D02*
G37*
G36*
X137450Y79618D02*
X136982D01*
Y79200D01*
X137450D01*
Y79618D01*
D02*
G37*
G36*
X136617D02*
X136150D01*
Y79200D01*
X136617D01*
Y79618D01*
D02*
G37*
G36*
X107900D02*
X107433D01*
Y79200D01*
X107900D01*
Y79618D01*
D02*
G37*
G36*
X107067D02*
X106600D01*
Y79200D01*
X107067D01*
Y79618D01*
D02*
G37*
G36*
X137853Y79056D02*
X137843Y79054D01*
X137631D01*
X137596Y79054D01*
Y79054D01*
X137504D01*
Y79054D01*
X137257D01*
X137247Y79056D01*
X137246Y79056D01*
X137246Y79056D01*
X137236Y79054D01*
X136096D01*
Y78013D01*
X136094Y78003D01*
X136096Y77993D01*
Y77774D01*
X136036D01*
Y77527D01*
X136034Y77517D01*
X136036Y77507D01*
Y76626D01*
X136756D01*
X136800Y76617D01*
X136844Y76626D01*
X136880D01*
X136898Y76601D01*
X136831Y76474D01*
X136036D01*
Y75552D01*
X132654D01*
Y75704D01*
X131381D01*
X131346Y75704D01*
X131254D01*
X131219Y75704D01*
X130213D01*
X130203Y75706D01*
X130193Y75704D01*
X129946D01*
Y75567D01*
X129893Y75560D01*
X129787Y75552D01*
X126055D01*
X126043Y75552D01*
X125972Y75559D01*
X125916Y75567D01*
Y75704D01*
X125669D01*
X125659Y75706D01*
X125649Y75704D01*
X124608D01*
Y74296D01*
X125649D01*
X125659Y74294D01*
X125696Y74173D01*
Y74146D01*
X127104D01*
Y74407D01*
X127106Y74409D01*
X127135Y74421D01*
X127182Y74433D01*
X127247Y74444D01*
X127292Y74448D01*
X129807D01*
X129819Y74448D01*
X129890Y74441D01*
X129946Y74433D01*
Y74296D01*
X130193D01*
X130203Y74294D01*
X130213Y74296D01*
X131219D01*
X131254Y74296D01*
X131346D01*
X131381Y74296D01*
X132654D01*
Y74448D01*
X136496D01*
Y74146D01*
X137904D01*
Y74490D01*
X137908Y74492D01*
X137910Y74496D01*
X137914Y74498D01*
X137957Y74545D01*
X138053Y74618D01*
X138155Y74665D01*
X138273Y74690D01*
X138331Y74693D01*
X138553Y74693D01*
X138580Y74693D01*
X138581Y74693D01*
X138581Y74693D01*
X138630Y74702D01*
X138679Y74712D01*
X138680Y74712D01*
X138680Y74712D01*
X138731Y74733D01*
X138731Y74733D01*
X138732Y74733D01*
X138767Y74757D01*
X139032D01*
Y75951D01*
X138672D01*
X138649Y75967D01*
X138500Y75996D01*
X138378D01*
X138349Y76025D01*
X138321Y76054D01*
X138320Y76227D01*
X138317Y76244D01*
X138319Y76262D01*
X138319Y76262D01*
X138309Y76295D01*
X138291Y76433D01*
X138210Y76628D01*
X138096Y76777D01*
X138083Y76797D01*
X137687Y77192D01*
X137631Y77252D01*
X137592Y77301D01*
X137564Y77342D01*
Y77507D01*
X137566Y77517D01*
X137564Y77527D01*
Y77632D01*
X137596Y77746D01*
X137679Y77746D01*
X137843D01*
X137853Y77744D01*
X137854Y77744D01*
X137854Y77744D01*
X137864Y77746D01*
X139004D01*
Y79054D01*
X137864D01*
X137854Y79056D01*
X137854Y79056D01*
X137853Y79056D01*
D02*
G37*
G36*
X108303D02*
X108293Y79054D01*
X108081D01*
X108046Y79054D01*
Y79054D01*
X107954D01*
Y79054D01*
X107707D01*
X107697Y79056D01*
X107696Y79056D01*
X107696Y79056D01*
X107686Y79054D01*
X106546D01*
Y78013D01*
X106544Y78003D01*
X106546Y77993D01*
Y77774D01*
X106486D01*
Y77527D01*
X106484Y77517D01*
X106486Y77507D01*
Y76626D01*
X107206D01*
X107250Y76617D01*
X107294Y76626D01*
X107330D01*
X107348Y76601D01*
X107281Y76474D01*
X106486D01*
Y75552D01*
X103793D01*
X103781Y75552D01*
X103710Y75559D01*
X103654Y75567D01*
Y75704D01*
X103407D01*
X103397Y75706D01*
X103387Y75704D01*
X102381D01*
X102346Y75704D01*
X102254D01*
X102219Y75704D01*
X101213D01*
X101203Y75706D01*
X101193Y75704D01*
X100946D01*
Y75567D01*
X100893Y75560D01*
X100787Y75552D01*
X98473D01*
X98361Y75562D01*
X98298Y75572D01*
X98237Y75586D01*
X98182Y75602D01*
X98134Y75619D01*
X98091Y75639D01*
X98054Y75660D01*
X98033Y75675D01*
X98024Y75683D01*
X97830Y75796D01*
X97612Y75854D01*
X97388D01*
X97170Y75796D01*
X97098Y75754D01*
X95746D01*
Y74246D01*
X97098D01*
X97170Y74204D01*
X97388Y74146D01*
X97612D01*
X97830Y74204D01*
X98024Y74317D01*
X98033Y74325D01*
X98054Y74340D01*
X98091Y74361D01*
X98134Y74381D01*
X98182Y74398D01*
X98237Y74414D01*
X98298Y74428D01*
X98361Y74438D01*
X98473Y74448D01*
X100807D01*
X100819Y74448D01*
X100890Y74441D01*
X100946Y74433D01*
Y74296D01*
X101193D01*
X101203Y74294D01*
X101213Y74296D01*
X102219D01*
X102254Y74296D01*
X102346D01*
X102381Y74296D01*
X103387D01*
X103397Y74294D01*
X103407Y74296D01*
X103654D01*
Y74433D01*
X103707Y74440D01*
X103813Y74448D01*
X106758D01*
X106803Y74444D01*
X106868Y74433D01*
X106915Y74421D01*
X106944Y74409D01*
X106946Y74407D01*
Y74146D01*
X108354D01*
Y74490D01*
X108358Y74492D01*
X108360Y74496D01*
X108364Y74498D01*
X108407Y74545D01*
X108503Y74618D01*
X108605Y74665D01*
X108723Y74690D01*
X108781Y74693D01*
X109003Y74693D01*
X109030Y74693D01*
X109031Y74693D01*
X109031Y74693D01*
X109080Y74702D01*
X109129Y74712D01*
X109130Y74712D01*
X109130Y74712D01*
X109181Y74733D01*
X109181Y74733D01*
X109182Y74733D01*
X109217Y74757D01*
X109482D01*
Y75951D01*
X109122D01*
X109099Y75967D01*
X108950Y75996D01*
X108828D01*
X108799Y76025D01*
X108771Y76054D01*
X108770Y76227D01*
X108767Y76244D01*
X108769Y76262D01*
X108769Y76262D01*
X108759Y76295D01*
X108741Y76433D01*
X108660Y76628D01*
X108546Y76777D01*
X108533Y76797D01*
X108137Y77192D01*
X108081Y77252D01*
X108042Y77301D01*
X108014Y77342D01*
Y77507D01*
X108016Y77517D01*
X108014Y77527D01*
Y77632D01*
X108046Y77746D01*
X108129Y77746D01*
X108293D01*
X108303Y77744D01*
X108304Y77744D01*
X108304Y77744D01*
X108314Y77746D01*
X109454D01*
Y79054D01*
X108314D01*
X108304Y79056D01*
X108304Y79056D01*
X108303Y79056D01*
D02*
G37*
G36*
X126099Y80000D02*
X125901D01*
X125717Y79924D01*
X125576Y79783D01*
X125500Y79599D01*
Y79401D01*
X125576Y79217D01*
X125717Y79076D01*
X125901Y79000D01*
X126099D01*
X126283Y79076D01*
X126424Y79217D01*
X126500Y79401D01*
Y79599D01*
X126424Y79783D01*
X126283Y79924D01*
X126099Y80000D01*
D02*
G37*
G36*
X172775Y80200D02*
X170712D01*
Y78512D01*
X172775D01*
Y80200D01*
D02*
G37*
G36*
X169688D02*
X167625D01*
Y78512D01*
X169688D01*
Y80200D01*
D02*
G37*
G36*
X148154Y79698D02*
X147912D01*
Y78306D01*
X148154D01*
Y79698D01*
D02*
G37*
G36*
X146888D02*
X146646D01*
Y78306D01*
X146888D01*
Y79698D01*
D02*
G37*
G36*
X135654D02*
X135412D01*
Y78306D01*
X135654D01*
Y79698D01*
D02*
G37*
G36*
X134388D02*
X134146D01*
Y78306D01*
X134388D01*
Y79698D01*
D02*
G37*
G36*
X118604D02*
X118362D01*
Y78306D01*
X118604D01*
Y79698D01*
D02*
G37*
G36*
X117338D02*
X117096D01*
Y78306D01*
X117338D01*
Y79698D01*
D02*
G37*
G36*
X106104D02*
X105862D01*
Y78306D01*
X106104D01*
Y79698D01*
D02*
G37*
G36*
X104838D02*
X104596D01*
Y78306D01*
X104838D01*
Y79698D01*
D02*
G37*
G36*
X97700Y78450D02*
X96506D01*
Y78006D01*
X97700D01*
Y78450D01*
D02*
G37*
G36*
X95994D02*
X94800D01*
Y78006D01*
X95994D01*
Y78450D01*
D02*
G37*
G36*
X127599Y79000D02*
X127401D01*
X127217Y78924D01*
X127076Y78783D01*
X127000Y78599D01*
Y78401D01*
X127076Y78217D01*
X127217Y78076D01*
X127401Y78000D01*
X127599D01*
X127783Y78076D01*
X127924Y78217D01*
X128000Y78401D01*
Y78599D01*
X127924Y78783D01*
X127783Y78924D01*
X127599Y79000D01*
D02*
G37*
G36*
X79599D02*
X79401D01*
X79217Y78924D01*
X79076Y78783D01*
X79000Y78599D01*
Y78401D01*
X79076Y78217D01*
X79217Y78076D01*
X79401Y78000D01*
X79599D01*
X79783Y78076D01*
X79924Y78217D01*
X80000Y78401D01*
Y78599D01*
X79924Y78783D01*
X79783Y78924D01*
X79599Y79000D01*
D02*
G37*
G36*
X77599D02*
X77401D01*
X77217Y78924D01*
X77076Y78783D01*
X77000Y78599D01*
Y78401D01*
X77076Y78217D01*
X77217Y78076D01*
X77401Y78000D01*
X77599D01*
X77783Y78076D01*
X77924Y78217D01*
X78000Y78401D01*
Y78599D01*
X77924Y78783D01*
X77783Y78924D01*
X77599Y79000D01*
D02*
G37*
G36*
X114200Y78150D02*
X113783D01*
Y77683D01*
X114200D01*
Y78150D01*
D02*
G37*
G36*
X113418D02*
X113000D01*
Y77683D01*
X113418D01*
Y78150D01*
D02*
G37*
G36*
X143750D02*
X143333D01*
Y77683D01*
X143750D01*
Y78150D01*
D02*
G37*
G36*
X142967D02*
X142550D01*
Y77683D01*
X142967D01*
Y78150D01*
D02*
G37*
G36*
X131099Y78500D02*
X130901D01*
X130717Y78424D01*
X130576Y78283D01*
X130500Y78099D01*
Y77901D01*
X130576Y77717D01*
X130717Y77576D01*
X130901Y77500D01*
X131099D01*
X131283Y77576D01*
X131424Y77717D01*
X131500Y77901D01*
Y78099D01*
X131424Y78283D01*
X131283Y78424D01*
X131099Y78500D01*
D02*
G37*
G36*
X129599D02*
X129401D01*
X129217Y78424D01*
X129076Y78283D01*
X129000Y78099D01*
Y77901D01*
X129076Y77717D01*
X129217Y77576D01*
X129401Y77500D01*
X129599D01*
X129783Y77576D01*
X129924Y77717D01*
X130000Y77901D01*
Y78099D01*
X129924Y78283D01*
X129783Y78424D01*
X129599Y78500D01*
D02*
G37*
G36*
X97700Y77494D02*
X96506D01*
Y77050D01*
X97700D01*
Y77494D01*
D02*
G37*
G36*
X95994D02*
X94800D01*
Y77050D01*
X95994D01*
Y77494D01*
D02*
G37*
G36*
X143750Y77317D02*
X143333D01*
Y76850D01*
X143750D01*
Y77317D01*
D02*
G37*
G36*
X114200Y77318D02*
X113783D01*
Y76850D01*
X114200D01*
Y77318D01*
D02*
G37*
G36*
X78599Y77500D02*
X78401D01*
X78217Y77424D01*
X78076Y77283D01*
X78000Y77099D01*
Y76901D01*
X78076Y76717D01*
X78217Y76576D01*
X78401Y76500D01*
X78599D01*
X78783Y76576D01*
X78924Y76717D01*
X79000Y76901D01*
Y77099D01*
X78924Y77283D01*
X78783Y77424D01*
X78599Y77500D01*
D02*
G37*
G36*
X76599D02*
X76401D01*
X76217Y77424D01*
X76076Y77283D01*
X76000Y77099D01*
Y76901D01*
X76076Y76717D01*
X76217Y76576D01*
X76401Y76500D01*
X76599D01*
X76783Y76576D01*
X76924Y76717D01*
X77000Y76901D01*
Y77099D01*
X76924Y77283D01*
X76783Y77424D01*
X76599Y77500D01*
D02*
G37*
G36*
X148154Y77282D02*
X147912D01*
Y75890D01*
X148154D01*
Y77282D01*
D02*
G37*
G36*
X146888D02*
X146646D01*
Y75890D01*
X146888D01*
Y77282D01*
D02*
G37*
G36*
X135654D02*
X135412D01*
Y75890D01*
X135654D01*
Y77282D01*
D02*
G37*
G36*
X134388D02*
X134146D01*
Y75890D01*
X134388D01*
Y77282D01*
D02*
G37*
G36*
X118604D02*
X118362D01*
Y75890D01*
X118604D01*
Y77282D01*
D02*
G37*
G36*
X117338D02*
X117096D01*
Y75890D01*
X117338D01*
Y77282D01*
D02*
G37*
G36*
X106104D02*
X105862D01*
Y75890D01*
X106104D01*
Y77282D01*
D02*
G37*
G36*
X104838D02*
X104596D01*
Y75890D01*
X104838D01*
Y77282D01*
D02*
G37*
G36*
X142380Y79704D02*
X141072D01*
Y78563D01*
X141070Y78553D01*
X141071Y78548D01*
X141070Y78542D01*
X141072Y78535D01*
Y78296D01*
X141072Y78296D01*
X141096Y78204D01*
X141096Y78204D01*
Y77957D01*
X141094Y77947D01*
X141096Y77938D01*
X141095Y77930D01*
X141096Y77925D01*
Y77064D01*
X141094Y77054D01*
X141094Y77054D01*
X141094Y77053D01*
X141096Y77043D01*
Y76874D01*
X140986D01*
Y76627D01*
X140984Y76617D01*
X140986Y76607D01*
Y75726D01*
X141706D01*
X141750Y75717D01*
X141794Y75726D01*
X142514D01*
Y76607D01*
X142516Y76617D01*
X142514Y76627D01*
Y76738D01*
X142550Y76850D01*
X142622Y76850D01*
X142967Y76850D01*
Y77317D01*
X142550D01*
Y77053D01*
X142460Y76960D01*
X142457Y76959D01*
X142407Y77051D01*
X142406Y77054D01*
X142404Y77064D01*
Y77937D01*
X142406Y77947D01*
X142405Y77952D01*
X142406Y77958D01*
X142404Y77965D01*
Y78204D01*
X142404Y78204D01*
X142380Y78296D01*
X142380Y78296D01*
Y78543D01*
X142382Y78553D01*
X142380Y78562D01*
X142381Y78570D01*
X142380Y78575D01*
Y79704D01*
D02*
G37*
G36*
X112830D02*
X111522D01*
Y78563D01*
X111520Y78553D01*
X111521Y78548D01*
X111520Y78542D01*
X111522Y78535D01*
Y78296D01*
X111522Y78296D01*
X111546Y78204D01*
X111546Y78204D01*
Y77957D01*
X111544Y77947D01*
X111546Y77938D01*
X111545Y77930D01*
X111546Y77925D01*
Y77064D01*
X111544Y77054D01*
X111544Y77054D01*
X111544Y77053D01*
X111546Y77043D01*
Y76874D01*
X111436D01*
Y76627D01*
X111434Y76617D01*
X111436Y76607D01*
Y75726D01*
X112156D01*
X112200Y75717D01*
X112244Y75726D01*
X112964D01*
Y76607D01*
X112966Y76617D01*
X112964Y76627D01*
Y76738D01*
X113000Y76850D01*
X113072Y76850D01*
X113418Y76850D01*
Y77318D01*
X113000D01*
Y77053D01*
X112910Y76960D01*
X112907Y76959D01*
X112857Y77051D01*
X112856Y77054D01*
X112854Y77064D01*
Y77937D01*
X112856Y77947D01*
X112855Y77952D01*
X112856Y77958D01*
X112854Y77965D01*
Y78204D01*
X112854Y78204D01*
X112830Y78296D01*
X112830Y78296D01*
Y78543D01*
X112832Y78553D01*
X112830Y78562D01*
X112831Y78570D01*
X112830Y78575D01*
Y79704D01*
D02*
G37*
G36*
X123341Y75706D02*
X123331Y75704D01*
X123084D01*
Y75567D01*
X123031Y75560D01*
X122925Y75552D01*
X116443D01*
X116431Y75552D01*
X116360Y75559D01*
X116304Y75567D01*
Y75704D01*
X116057D01*
X116047Y75706D01*
X116037Y75704D01*
X115031D01*
X114996Y75704D01*
X114904D01*
X114869Y75704D01*
X113863D01*
X113853Y75706D01*
X113843Y75704D01*
X113596D01*
Y75567D01*
X113543Y75560D01*
X113437Y75552D01*
X112964D01*
Y75574D01*
X112717D01*
X112707Y75576D01*
X112705Y75576D01*
X112703Y75576D01*
X112694Y75574D01*
X112151D01*
X112101Y75584D01*
X111700Y75584D01*
X111662Y75576D01*
X111639Y75574D01*
X111436D01*
Y75522D01*
X111418Y75517D01*
X111282Y75495D01*
X111141Y75483D01*
X111073Y75482D01*
X110744Y75482D01*
X110743Y75482D01*
X110743Y75482D01*
X110716Y75482D01*
X110667Y75472D01*
X110618Y75462D01*
X110573Y75443D01*
X110269D01*
Y74757D01*
X110534D01*
X110569Y74733D01*
X110570Y74733D01*
X110570Y74733D01*
X110621Y74712D01*
X110621Y74712D01*
X110622Y74712D01*
X110671Y74702D01*
X110720Y74693D01*
X110720Y74693D01*
X110721Y74693D01*
X110748Y74693D01*
X110976Y74693D01*
X110979Y74693D01*
X110982Y74693D01*
X111060Y74695D01*
X111208Y74673D01*
X111341Y74622D01*
X111436Y74559D01*
Y74426D01*
X111643D01*
X111663Y74419D01*
X111682Y74420D01*
X111700Y74416D01*
X112101D01*
X112149Y74426D01*
X112697D01*
X112707Y74424D01*
X112714Y74425D01*
X112720Y74424D01*
X112751Y74426D01*
X112964D01*
Y74437D01*
X113179Y74448D01*
X113457D01*
X113469Y74448D01*
X113540Y74441D01*
X113596Y74433D01*
Y74296D01*
X113843D01*
X113853Y74294D01*
X113863Y74296D01*
X114869D01*
X114904Y74296D01*
X114996D01*
X115031Y74296D01*
X116037D01*
X116047Y74294D01*
X116057Y74296D01*
X116304D01*
Y74433D01*
X116357Y74440D01*
X116463Y74448D01*
X121708D01*
X121753Y74444D01*
X121818Y74433D01*
X121865Y74421D01*
X121894Y74409D01*
X121896Y74407D01*
Y74146D01*
X123304D01*
Y74173D01*
X123341Y74294D01*
X123351Y74296D01*
X124392D01*
Y75704D01*
X123351D01*
X123341Y75706D01*
D02*
G37*
G36*
X108300Y74000D02*
X107833D01*
Y73582D01*
X108300D01*
Y74000D01*
D02*
G37*
G36*
X137850D02*
X137383D01*
Y73582D01*
X137850D01*
Y74000D01*
D02*
G37*
G36*
X137018D02*
X136550D01*
Y73582D01*
X137018D01*
Y74000D01*
D02*
G37*
G36*
X107468D02*
X107000D01*
Y73582D01*
X107468D01*
Y74000D01*
D02*
G37*
G36*
X127050Y73876D02*
X126582D01*
Y73459D01*
X127050D01*
Y73876D01*
D02*
G37*
G36*
X126217D02*
X125750D01*
Y73459D01*
X126217D01*
Y73876D01*
D02*
G37*
G36*
X123250Y73876D02*
X122783D01*
Y73459D01*
X123250D01*
Y73876D01*
D02*
G37*
G36*
X122418D02*
X121950D01*
Y73459D01*
X122418D01*
Y73876D01*
D02*
G37*
G36*
X137850Y73217D02*
X137383D01*
Y72800D01*
X137850D01*
Y73217D01*
D02*
G37*
G36*
X137018D02*
X136550D01*
Y72800D01*
X137018D01*
Y73217D01*
D02*
G37*
G36*
X108300D02*
X107833D01*
Y72800D01*
X108300D01*
Y73217D01*
D02*
G37*
G36*
X107468D02*
X107000D01*
Y72800D01*
X107468D01*
Y73217D01*
D02*
G37*
G36*
X127050Y73093D02*
X126582D01*
Y72676D01*
X127050D01*
Y73093D01*
D02*
G37*
G36*
X126217D02*
X125750D01*
Y72676D01*
X126217D01*
Y73093D01*
D02*
G37*
G36*
X123250Y73093D02*
X122783D01*
Y72676D01*
X123250D01*
Y73093D01*
D02*
G37*
G36*
X122418D02*
X121950D01*
Y72676D01*
X122418D01*
Y73093D01*
D02*
G37*
G36*
X97700Y72950D02*
X96506D01*
Y72506D01*
X97700D01*
Y72950D01*
D02*
G37*
G36*
X95994D02*
X94800D01*
Y72506D01*
X95994D01*
Y72950D01*
D02*
G37*
G36*
X143054Y71818D02*
X141662D01*
Y71576D01*
X143054D01*
Y71818D01*
D02*
G37*
G36*
X140638D02*
X139246D01*
Y71576D01*
X140638D01*
Y71818D01*
D02*
G37*
G36*
X113504D02*
X112112D01*
Y71576D01*
X113504D01*
Y71818D01*
D02*
G37*
G36*
X111088D02*
X109696D01*
Y71576D01*
X111088D01*
Y71818D01*
D02*
G37*
G36*
X97700Y71994D02*
X96506D01*
Y71550D01*
X97700D01*
Y71994D01*
D02*
G37*
G36*
X95994D02*
X94800D01*
Y71550D01*
X95994D01*
Y71994D01*
D02*
G37*
G36*
X156599Y71500D02*
X156401D01*
X156217Y71424D01*
X156076Y71283D01*
X156000Y71099D01*
Y70901D01*
X156076Y70717D01*
X156217Y70576D01*
X156401Y70500D01*
X156599D01*
X156783Y70576D01*
X156924Y70717D01*
X157000Y70901D01*
Y71099D01*
X156924Y71283D01*
X156783Y71424D01*
X156599Y71500D01*
D02*
G37*
G36*
X154599D02*
X154401D01*
X154217Y71424D01*
X154076Y71283D01*
X154000Y71099D01*
Y70901D01*
X154076Y70717D01*
X154217Y70576D01*
X154401Y70500D01*
X154599D01*
X154783Y70576D01*
X154924Y70717D01*
X155000Y70901D01*
Y71099D01*
X154924Y71283D01*
X154783Y71424D01*
X154599Y71500D01*
D02*
G37*
G36*
X148154Y74118D02*
X146646D01*
Y71818D01*
X144346D01*
Y70310D01*
X145738D01*
Y71064D01*
X146762D01*
Y70310D01*
X148154D01*
Y71702D01*
X147400D01*
Y72726D01*
X148154D01*
Y74118D01*
D02*
G37*
G36*
X143054Y70552D02*
X141662D01*
Y70310D01*
X143054D01*
Y70552D01*
D02*
G37*
G36*
X140638D02*
X139246D01*
Y70310D01*
X140638D01*
Y70552D01*
D02*
G37*
G36*
X135654Y74118D02*
X134146D01*
Y72726D01*
X134900D01*
Y71702D01*
X134146D01*
Y70310D01*
X135538D01*
Y71064D01*
X136562D01*
Y70310D01*
X137954D01*
Y71818D01*
X135654D01*
Y74118D01*
D02*
G37*
G36*
X118604D02*
X117096D01*
Y71818D01*
X114796D01*
Y70310D01*
X116188D01*
Y71064D01*
X117212D01*
Y70310D01*
X118604D01*
Y71702D01*
X117850D01*
Y72726D01*
X118604D01*
Y74118D01*
D02*
G37*
G36*
X113504Y70552D02*
X112112D01*
Y70310D01*
X113504D01*
Y70552D01*
D02*
G37*
G36*
X111088D02*
X109696D01*
Y70310D01*
X111088D01*
Y70552D01*
D02*
G37*
G36*
X106104Y74118D02*
X104596D01*
Y72726D01*
X105350D01*
Y71702D01*
X104596D01*
Y70310D01*
X105988D01*
Y71064D01*
X107012D01*
Y70310D01*
X108404D01*
Y71818D01*
X106104D01*
Y74118D01*
D02*
G37*
G36*
X172775Y71488D02*
X170712D01*
Y69800D01*
X172775D01*
Y71488D01*
D02*
G37*
G36*
X169688D02*
X167625D01*
Y69800D01*
X169688D01*
Y71488D01*
D02*
G37*
G36*
X97700Y69950D02*
X96506D01*
Y69506D01*
X97700D01*
Y69950D01*
D02*
G37*
G36*
X95994D02*
X94800D01*
Y69506D01*
X95994D01*
Y69950D01*
D02*
G37*
G36*
X80599Y70500D02*
X80401D01*
X80217Y70424D01*
X80076Y70283D01*
X80000Y70099D01*
Y69901D01*
X80076Y69717D01*
X80217Y69576D01*
X80401Y69500D01*
X80599D01*
X80783Y69576D01*
X80924Y69717D01*
X81000Y69901D01*
Y70099D01*
X80924Y70283D01*
X80783Y70424D01*
X80599Y70500D01*
D02*
G37*
G36*
X79099D02*
X78901D01*
X78717Y70424D01*
X78576Y70283D01*
X78500Y70099D01*
Y69901D01*
X78576Y69717D01*
X78717Y69576D01*
X78901Y69500D01*
X79099D01*
X79283Y69576D01*
X79424Y69717D01*
X79500Y69901D01*
Y70099D01*
X79424Y70283D01*
X79283Y70424D01*
X79099Y70500D01*
D02*
G37*
G36*
X156099Y70000D02*
X155901D01*
X155717Y69924D01*
X155576Y69783D01*
X155500Y69599D01*
Y69401D01*
X155576Y69217D01*
X155717Y69076D01*
X155901Y69000D01*
X156099D01*
X156283Y69076D01*
X156424Y69217D01*
X156500Y69401D01*
Y69599D01*
X156424Y69783D01*
X156283Y69924D01*
X156099Y70000D01*
D02*
G37*
G36*
X154099D02*
X153901D01*
X153717Y69924D01*
X153576Y69783D01*
X153500Y69599D01*
Y69401D01*
X153576Y69217D01*
X153717Y69076D01*
X153901Y69000D01*
X154099D01*
X154283Y69076D01*
X154424Y69217D01*
X154500Y69401D01*
Y69599D01*
X154424Y69783D01*
X154283Y69924D01*
X154099Y70000D01*
D02*
G37*
G36*
X97700Y68994D02*
X96506D01*
Y68550D01*
X97700D01*
Y68994D01*
D02*
G37*
G36*
X95994D02*
X94800D01*
Y68550D01*
X95994D01*
Y68994D01*
D02*
G37*
G36*
X172200Y68200D02*
X171012D01*
Y67512D01*
X172200D01*
Y68200D01*
D02*
G37*
G36*
X169988D02*
X168800D01*
Y67512D01*
X169988D01*
Y68200D01*
D02*
G37*
G36*
X156599Y68500D02*
X156401D01*
X156217Y68424D01*
X156076Y68283D01*
X156000Y68099D01*
Y67901D01*
X156076Y67717D01*
X156217Y67576D01*
X156401Y67500D01*
X156599D01*
X156783Y67576D01*
X156924Y67717D01*
X157000Y67901D01*
Y68099D01*
X156924Y68283D01*
X156783Y68424D01*
X156599Y68500D01*
D02*
G37*
G36*
X154599D02*
X154401D01*
X154217Y68424D01*
X154076Y68283D01*
X154000Y68099D01*
Y67901D01*
X154076Y67717D01*
X154217Y67576D01*
X154401Y67500D01*
X154599D01*
X154783Y67576D01*
X154924Y67717D01*
X155000Y67901D01*
Y68099D01*
X154924Y68283D01*
X154783Y68424D01*
X154599Y68500D01*
D02*
G37*
G36*
X81099D02*
X80901D01*
X80717Y68424D01*
X80576Y68283D01*
X80500Y68099D01*
Y67901D01*
X80576Y67717D01*
X80717Y67576D01*
X80901Y67500D01*
X81099D01*
X81283Y67576D01*
X81424Y67717D01*
X81500Y67901D01*
Y68099D01*
X81424Y68283D01*
X81283Y68424D01*
X81099Y68500D01*
D02*
G37*
G36*
X79599D02*
X79401D01*
X79217Y68424D01*
X79076Y68283D01*
X79000Y68099D01*
Y67901D01*
X79076Y67717D01*
X79217Y67576D01*
X79401Y67500D01*
X79599D01*
X79783Y67576D01*
X79924Y67717D01*
X80000Y67901D01*
Y68099D01*
X79924Y68283D01*
X79783Y68424D01*
X79599Y68500D01*
D02*
G37*
G36*
X156099Y67000D02*
X155901D01*
X155717Y66924D01*
X155576Y66783D01*
X155500Y66599D01*
Y66401D01*
X155576Y66217D01*
X155717Y66076D01*
X155901Y66000D01*
X156099D01*
X156283Y66076D01*
X156424Y66217D01*
X156500Y66401D01*
Y66599D01*
X156424Y66783D01*
X156283Y66924D01*
X156099Y67000D01*
D02*
G37*
G36*
X154099D02*
X153901D01*
X153717Y66924D01*
X153576Y66783D01*
X153500Y66599D01*
Y66401D01*
X153576Y66217D01*
X153717Y66076D01*
X153901Y66000D01*
X154099D01*
X154283Y66076D01*
X154424Y66217D01*
X154500Y66401D01*
Y66599D01*
X154424Y66783D01*
X154283Y66924D01*
X154099Y67000D01*
D02*
G37*
G36*
X116349D02*
X116151D01*
X115967Y66924D01*
X115826Y66783D01*
X115750Y66599D01*
Y66401D01*
X115826Y66217D01*
X115967Y66076D01*
X116151Y66000D01*
X116349D01*
X116533Y66076D01*
X116674Y66217D01*
X116750Y66401D01*
Y66599D01*
X116674Y66783D01*
X116533Y66924D01*
X116349Y67000D01*
D02*
G37*
G36*
X115099D02*
X114901D01*
X114717Y66924D01*
X114576Y66783D01*
X114500Y66599D01*
Y66401D01*
X114576Y66217D01*
X114717Y66076D01*
X114901Y66000D01*
X115099D01*
X115283Y66076D01*
X115424Y66217D01*
X115500Y66401D01*
Y66599D01*
X115424Y66783D01*
X115283Y66924D01*
X115099Y67000D01*
D02*
G37*
G36*
X172200Y66488D02*
X171012D01*
Y65800D01*
X172200D01*
Y66488D01*
D02*
G37*
G36*
X169988D02*
X168800D01*
Y65800D01*
X169988D01*
Y66488D01*
D02*
G37*
G36*
X116849Y65500D02*
X116651D01*
X116467Y65424D01*
X116326Y65283D01*
X116250Y65099D01*
Y64901D01*
X116326Y64717D01*
X116467Y64576D01*
X116651Y64500D01*
X116849D01*
X117033Y64576D01*
X117174Y64717D01*
X117250Y64901D01*
Y65099D01*
X117174Y65283D01*
X117033Y65424D01*
X116849Y65500D01*
D02*
G37*
G36*
X115599D02*
X115401D01*
X115217Y65424D01*
X115076Y65283D01*
X115000Y65099D01*
Y64901D01*
X115076Y64717D01*
X115217Y64576D01*
X115401Y64500D01*
X115599D01*
X115783Y64576D01*
X115924Y64717D01*
X116000Y64901D01*
Y65099D01*
X115924Y65283D01*
X115783Y65424D01*
X115599Y65500D01*
D02*
G37*
G36*
X116349Y64000D02*
X116151D01*
X115967Y63924D01*
X115826Y63783D01*
X115750Y63599D01*
Y63401D01*
X115826Y63217D01*
X115967Y63076D01*
X116151Y63000D01*
X116349D01*
X116533Y63076D01*
X116674Y63217D01*
X116750Y63401D01*
Y63599D01*
X116674Y63783D01*
X116533Y63924D01*
X116349Y64000D01*
D02*
G37*
G36*
X115099D02*
X114901D01*
X114717Y63924D01*
X114576Y63783D01*
X114500Y63599D01*
Y63401D01*
X114576Y63217D01*
X114717Y63076D01*
X114901Y63000D01*
X115099D01*
X115283Y63076D01*
X115424Y63217D01*
X115500Y63401D01*
Y63599D01*
X115424Y63783D01*
X115283Y63924D01*
X115099Y64000D01*
D02*
G37*
G36*
X88012Y63412D02*
Y62612D01*
X88812D01*
X88805Y62640D01*
X88620Y62960D01*
X88360Y63220D01*
X88040Y63405D01*
X88012Y63412D01*
D02*
G37*
G36*
X86988D02*
X86960Y63405D01*
X86640Y63220D01*
X86380Y62960D01*
X86195Y62640D01*
X86188Y62612D01*
X86988D01*
Y63412D01*
D02*
G37*
G36*
X78012D02*
Y62612D01*
X78812D01*
X78805Y62640D01*
X78620Y62960D01*
X78360Y63220D01*
X78040Y63405D01*
X78012Y63412D01*
D02*
G37*
G36*
X76988D02*
X76960Y63405D01*
X76640Y63220D01*
X76380Y62960D01*
X76195Y62640D01*
X76188Y62612D01*
X76988D01*
Y63412D01*
D02*
G37*
G36*
X68012D02*
Y62612D01*
X68812D01*
X68805Y62640D01*
X68620Y62960D01*
X68360Y63220D01*
X68040Y63405D01*
X68012Y63412D01*
D02*
G37*
G36*
X66988D02*
X66960Y63405D01*
X66640Y63220D01*
X66380Y62960D01*
X66195Y62640D01*
X66188Y62612D01*
X66988D01*
Y63412D01*
D02*
G37*
G36*
X58012D02*
Y62612D01*
X58812D01*
X58805Y62640D01*
X58620Y62960D01*
X58360Y63220D01*
X58040Y63405D01*
X58012Y63412D01*
D02*
G37*
G36*
X56988D02*
X56960Y63405D01*
X56640Y63220D01*
X56380Y62960D01*
X56195Y62640D01*
X56188Y62612D01*
X56988D01*
Y63412D01*
D02*
G37*
G36*
X48012D02*
Y62612D01*
X48812D01*
X48805Y62640D01*
X48620Y62960D01*
X48360Y63220D01*
X48040Y63405D01*
X48012Y63412D01*
D02*
G37*
G36*
X46988D02*
X46960Y63405D01*
X46640Y63220D01*
X46380Y62960D01*
X46195Y62640D01*
X46188Y62612D01*
X46988D01*
Y63412D01*
D02*
G37*
G36*
X118849Y62250D02*
X118651D01*
X118467Y62174D01*
X118326Y62033D01*
X118250Y61849D01*
Y61651D01*
X118326Y61467D01*
X118467Y61326D01*
X118651Y61250D01*
X118849D01*
X119033Y61326D01*
X119174Y61467D01*
X119250Y61651D01*
Y61849D01*
X119174Y62033D01*
X119033Y62174D01*
X118849Y62250D01*
D02*
G37*
G36*
X116849D02*
X116651D01*
X116467Y62174D01*
X116326Y62033D01*
X116250Y61849D01*
Y61651D01*
X116326Y61467D01*
X116467Y61326D01*
X116651Y61250D01*
X116849D01*
X117033Y61326D01*
X117174Y61467D01*
X117250Y61651D01*
Y61849D01*
X117174Y62033D01*
X117033Y62174D01*
X116849Y62250D01*
D02*
G37*
G36*
X143099Y62000D02*
X142901D01*
X142717Y61924D01*
X142576Y61783D01*
X142500Y61599D01*
Y61401D01*
X142576Y61217D01*
X142717Y61076D01*
X142901Y61000D01*
X143099D01*
X143283Y61076D01*
X143424Y61217D01*
X143500Y61401D01*
Y61599D01*
X143424Y61783D01*
X143283Y61924D01*
X143099Y62000D01*
D02*
G37*
G36*
X88812Y61588D02*
X88012D01*
Y60788D01*
X88040Y60795D01*
X88360Y60980D01*
X88620Y61240D01*
X88805Y61560D01*
X88812Y61588D01*
D02*
G37*
G36*
X86988D02*
X86188D01*
X86195Y61560D01*
X86380Y61240D01*
X86640Y60980D01*
X86960Y60795D01*
X86988Y60788D01*
Y61588D01*
D02*
G37*
G36*
X78812D02*
X78012D01*
Y60788D01*
X78040Y60795D01*
X78360Y60980D01*
X78620Y61240D01*
X78805Y61560D01*
X78812Y61588D01*
D02*
G37*
G36*
X76988D02*
X76188D01*
X76195Y61560D01*
X76380Y61240D01*
X76640Y60980D01*
X76960Y60795D01*
X76988Y60788D01*
Y61588D01*
D02*
G37*
G36*
X68812D02*
X68012D01*
Y60788D01*
X68040Y60795D01*
X68360Y60980D01*
X68620Y61240D01*
X68805Y61560D01*
X68812Y61588D01*
D02*
G37*
G36*
X66988D02*
X66188D01*
X66195Y61560D01*
X66380Y61240D01*
X66640Y60980D01*
X66960Y60795D01*
X66988Y60788D01*
Y61588D01*
D02*
G37*
G36*
X58812D02*
X58012D01*
Y60788D01*
X58040Y60795D01*
X58360Y60980D01*
X58620Y61240D01*
X58805Y61560D01*
X58812Y61588D01*
D02*
G37*
G36*
X56988D02*
X56188D01*
X56195Y61560D01*
X56380Y61240D01*
X56640Y60980D01*
X56960Y60795D01*
X56988Y60788D01*
Y61588D01*
D02*
G37*
G36*
X48812D02*
X48012D01*
Y60788D01*
X48040Y60795D01*
X48360Y60980D01*
X48620Y61240D01*
X48805Y61560D01*
X48812Y61588D01*
D02*
G37*
G36*
X46988D02*
X46188D01*
X46195Y61560D01*
X46380Y61240D01*
X46640Y60980D01*
X46960Y60795D01*
X46988Y60788D01*
Y61588D01*
D02*
G37*
G36*
X117849Y61000D02*
X117651D01*
X117467Y60924D01*
X117326Y60783D01*
X117250Y60599D01*
Y60401D01*
X117326Y60217D01*
X117467Y60076D01*
X117651Y60000D01*
X117849D01*
X118033Y60076D01*
X118174Y60217D01*
X118250Y60401D01*
Y60599D01*
X118174Y60783D01*
X118033Y60924D01*
X117849Y61000D01*
D02*
G37*
G36*
X115849D02*
X115651D01*
X115467Y60924D01*
X115326Y60783D01*
X115250Y60599D01*
Y60401D01*
X115326Y60217D01*
X115467Y60076D01*
X115651Y60000D01*
X115849D01*
X116033Y60076D01*
X116174Y60217D01*
X116250Y60401D01*
Y60599D01*
X116174Y60783D01*
X116033Y60924D01*
X115849Y61000D01*
D02*
G37*
G36*
X152604Y63004D02*
X149396D01*
Y59996D01*
X152604D01*
Y63004D01*
D02*
G37*
G36*
X143099Y60500D02*
X142901D01*
X142717Y60424D01*
X142576Y60283D01*
X142500Y60099D01*
Y59901D01*
X142576Y59717D01*
X142717Y59576D01*
X142901Y59500D01*
X143099D01*
X143283Y59576D01*
X143424Y59717D01*
X143500Y59901D01*
Y60099D01*
X143424Y60283D01*
X143283Y60424D01*
X143099Y60500D01*
D02*
G37*
G36*
X121888Y59485D02*
X121689D01*
X121505Y59409D01*
X121364Y59268D01*
X121288Y59084D01*
Y58886D01*
X121364Y58702D01*
X121505Y58561D01*
X121689Y58485D01*
X121888D01*
X122072Y58561D01*
X122212Y58702D01*
X122288Y58886D01*
Y59084D01*
X122212Y59268D01*
X122072Y59409D01*
X121888Y59485D01*
D02*
G37*
G36*
X144349Y59250D02*
X144151D01*
X143967Y59174D01*
X143826Y59033D01*
X143750Y58849D01*
Y58651D01*
X143826Y58467D01*
X143967Y58326D01*
X144151Y58250D01*
X144349D01*
X144533Y58326D01*
X144674Y58467D01*
X144750Y58651D01*
Y58849D01*
X144674Y59033D01*
X144533Y59174D01*
X144349Y59250D01*
D02*
G37*
G36*
X154099Y58250D02*
X153901D01*
X153717Y58174D01*
X153576Y58033D01*
X153500Y57849D01*
Y57651D01*
X153576Y57467D01*
X153717Y57326D01*
X153901Y57250D01*
X154099D01*
X154283Y57326D01*
X154424Y57467D01*
X154500Y57651D01*
Y57849D01*
X154424Y58033D01*
X154283Y58174D01*
X154099Y58250D01*
D02*
G37*
G36*
X125849Y57475D02*
X125651D01*
X125467Y57399D01*
X125326Y57258D01*
X125250Y57074D01*
Y56876D01*
X125326Y56692D01*
X125467Y56551D01*
X125651Y56475D01*
X125849D01*
X126033Y56551D01*
X126174Y56692D01*
X126250Y56876D01*
Y57074D01*
X126174Y57258D01*
X126033Y57399D01*
X125849Y57475D01*
D02*
G37*
G36*
X156349Y57000D02*
X156151D01*
X155967Y56924D01*
X155826Y56783D01*
X155750Y56599D01*
Y56401D01*
X155826Y56217D01*
X155967Y56076D01*
X156151Y56000D01*
X156349D01*
X156533Y56076D01*
X156674Y56217D01*
X156750Y56401D01*
Y56599D01*
X156674Y56783D01*
X156533Y56924D01*
X156349Y57000D01*
D02*
G37*
G36*
X154849D02*
X154651D01*
X154467Y56924D01*
X154326Y56783D01*
X154250Y56599D01*
Y56401D01*
X154326Y56217D01*
X154467Y56076D01*
X154651Y56000D01*
X154849D01*
X155033Y56076D01*
X155174Y56217D01*
X155250Y56401D01*
Y56599D01*
X155174Y56783D01*
X155033Y56924D01*
X154849Y57000D01*
D02*
G37*
G36*
X43200Y55200D02*
X42012D01*
Y54512D01*
X43200D01*
Y55200D01*
D02*
G37*
G36*
X40988D02*
X39800D01*
Y54512D01*
X40988D01*
Y55200D01*
D02*
G37*
G36*
X43200Y53488D02*
X42012D01*
Y52800D01*
X43200D01*
Y53488D01*
D02*
G37*
G36*
X40988D02*
X39800D01*
Y52800D01*
X40988D01*
Y53488D01*
D02*
G37*
G36*
X131200Y51700D02*
X130512D01*
Y50512D01*
X131200D01*
Y51700D01*
D02*
G37*
G36*
X129488D02*
X128800D01*
Y50512D01*
X129488D01*
Y51700D01*
D02*
G37*
G36*
X71200D02*
X70512D01*
Y50512D01*
X71200D01*
Y51700D01*
D02*
G37*
G36*
X58700D02*
X58012D01*
Y50512D01*
X58700D01*
Y51700D01*
D02*
G37*
G36*
X69488D02*
X68800D01*
Y50512D01*
X69488D01*
Y51700D01*
D02*
G37*
G36*
X56988D02*
X56300D01*
Y50512D01*
X56988D01*
Y51700D01*
D02*
G37*
G36*
X143700D02*
X143012D01*
Y50512D01*
X143700D01*
Y51700D01*
D02*
G37*
G36*
X141988D02*
X141300D01*
Y50512D01*
X141988D01*
Y51700D01*
D02*
G37*
G36*
X143700Y49488D02*
X143012D01*
Y48300D01*
X143700D01*
Y49488D01*
D02*
G37*
G36*
X141988D02*
X141300D01*
Y48300D01*
X141988D01*
Y49488D01*
D02*
G37*
G36*
X131200Y49488D02*
X130512D01*
Y48300D01*
X131200D01*
Y49488D01*
D02*
G37*
G36*
X129488D02*
X128800D01*
Y48300D01*
X129488D01*
Y49488D01*
D02*
G37*
G36*
X71200Y49488D02*
X70512D01*
Y48300D01*
X71200D01*
Y49488D01*
D02*
G37*
G36*
X69488D02*
X68800D01*
Y48300D01*
X69488D01*
Y49488D01*
D02*
G37*
G36*
X58700D02*
X58012D01*
Y48300D01*
X58700D01*
Y49488D01*
D02*
G37*
G36*
X56988D02*
X56300D01*
Y48300D01*
X56988D01*
Y49488D01*
D02*
G37*
%LPD*%
G36*
X141353Y91320D02*
X141482Y91317D01*
Y90683D01*
X141361Y90682D01*
X141353Y90681D01*
Y90603D01*
X141347Y90618D01*
X141328Y90632D01*
X141296Y90644D01*
X141251Y90654D01*
X141194Y90663D01*
X141142Y90667D01*
X140949Y90654D01*
X140904Y90644D01*
X140872Y90632D01*
X140853Y90618D01*
X140847Y90603D01*
Y90680D01*
X140718Y90683D01*
Y91317D01*
X140839Y91318D01*
X140847Y91319D01*
Y91397D01*
X140853Y91382D01*
X140872Y91368D01*
X140904Y91356D01*
X140949Y91346D01*
X141006Y91337D01*
X141058Y91333D01*
X141251Y91346D01*
X141296Y91356D01*
X141328Y91368D01*
X141347Y91382D01*
X141353Y91397D01*
Y91320D01*
D02*
G37*
G36*
X144950Y90700D02*
X144804D01*
Y92079D01*
X142596D01*
Y91686D01*
X142640Y91693D01*
X142717Y91712D01*
X142776Y91734D01*
X142819Y91760D01*
X142845Y91789D01*
X142853Y91822D01*
Y90578D01*
X142845Y90611D01*
X142819Y90640D01*
X142776Y90666D01*
X142717Y90688D01*
X142640Y90707D01*
X142596Y90714D01*
Y90700D01*
X142450D01*
Y90733D01*
X142435Y90735D01*
X142162Y90748D01*
X142000Y90750D01*
Y90817D01*
X141800D01*
Y91000D01*
X141617D01*
Y91600D01*
X141150D01*
Y91600D01*
X141050D01*
Y91600D01*
X140582D01*
Y91000D01*
X140400D01*
Y90817D01*
X139750D01*
Y90700D01*
X137950D01*
Y94900D01*
X144950D01*
Y90700D01*
D02*
G37*
%LPC*%
G36*
X142000Y91600D02*
X141982D01*
Y91183D01*
X142000D01*
Y91600D01*
D02*
G37*
G36*
X140217D02*
X139750D01*
Y91183D01*
X140217D01*
Y91600D01*
D02*
G37*
%LPD*%
G36*
X111803Y91320D02*
X111932Y91317D01*
Y90683D01*
X111811Y90682D01*
X111803Y90681D01*
Y90603D01*
X111797Y90618D01*
X111778Y90632D01*
X111746Y90644D01*
X111701Y90654D01*
X111644Y90663D01*
X111592Y90667D01*
X111399Y90654D01*
X111354Y90644D01*
X111322Y90632D01*
X111303Y90618D01*
X111297Y90603D01*
Y90680D01*
X111168Y90683D01*
Y91317D01*
X111289Y91318D01*
X111297Y91319D01*
Y91397D01*
X111303Y91382D01*
X111322Y91368D01*
X111354Y91356D01*
X111399Y91346D01*
X111456Y91337D01*
X111508Y91333D01*
X111701Y91346D01*
X111746Y91356D01*
X111778Y91368D01*
X111797Y91382D01*
X111803Y91397D01*
Y91320D01*
D02*
G37*
G36*
X115400Y90700D02*
X115254D01*
Y92079D01*
X113046D01*
Y91686D01*
X113090Y91693D01*
X113167Y91712D01*
X113226Y91734D01*
X113269Y91760D01*
X113295Y91789D01*
X113303Y91822D01*
Y90578D01*
X113295Y90611D01*
X113269Y90640D01*
X113226Y90666D01*
X113167Y90688D01*
X113090Y90707D01*
X113046Y90714D01*
Y90700D01*
X112900D01*
Y90733D01*
X112885Y90735D01*
X112612Y90748D01*
X112450Y90750D01*
Y90817D01*
X112250D01*
Y91000D01*
X112067D01*
Y91600D01*
X111600D01*
Y91600D01*
X111500D01*
Y91600D01*
X111033D01*
Y91000D01*
X110850D01*
Y90817D01*
X110200D01*
Y90700D01*
X108400D01*
Y94900D01*
X115400D01*
Y90700D01*
D02*
G37*
%LPC*%
G36*
X112450Y91600D02*
X112432D01*
Y91183D01*
X112450D01*
Y91600D01*
D02*
G37*
G36*
X110668D02*
X110200D01*
Y91183D01*
X110668D01*
Y91600D01*
D02*
G37*
%LPD*%
G36*
X161000Y85900D02*
X157060D01*
Y86755D01*
X156575D01*
X156596Y86712D01*
X156649Y86642D01*
X156710Y86592D01*
X156780Y86562D01*
X156857Y86552D01*
X154950Y86549D01*
X155045Y86559D01*
X155130Y86589D01*
X155205Y86640D01*
X155270Y86710D01*
X155298Y86755D01*
X155000D01*
Y87046D01*
X155204D01*
Y88454D01*
X155000D01*
Y90100D01*
X161000D01*
Y85900D01*
D02*
G37*
%LPC*%
G36*
X156550Y88400D02*
X156133D01*
Y87933D01*
X156550D01*
Y88400D01*
D02*
G37*
G36*
X155768D02*
X155350D01*
Y87933D01*
X155768D01*
Y88400D01*
D02*
G37*
G36*
X156550Y87567D02*
X156133D01*
Y87552D01*
X156450D01*
X156454Y87362D01*
X156481Y87100D01*
X156550D01*
Y87567D01*
D02*
G37*
G36*
X155768D02*
X155350D01*
Y87100D01*
X155415D01*
X155430Y87191D01*
X155445Y87362D01*
X155450Y87552D01*
X155768D01*
Y87567D01*
D02*
G37*
%LPD*%
G36*
X138703Y81822D02*
X138722Y81800D01*
X138754Y81781D01*
X138799Y81764D01*
X138856Y81750D01*
X138926Y81738D01*
X139008Y81729D01*
X139211Y81719D01*
X139332Y81717D01*
Y81082D01*
X139211Y81081D01*
X138926Y81062D01*
X138856Y81050D01*
X138799Y81036D01*
X138754Y81019D01*
X138722Y81000D01*
X138703Y80978D01*
X138697Y80953D01*
X138682Y80947D01*
X138668Y80928D01*
X138656Y80896D01*
X138646Y80851D01*
X138637Y80794D01*
X138629Y80690D01*
X138638Y80550D01*
X138650Y80480D01*
X138664Y80423D01*
X138681Y80378D01*
X138700Y80346D01*
X138722Y80327D01*
X138747Y80321D01*
X138618D01*
X138617Y80318D01*
X137982D01*
X137982Y80321D01*
X137853D01*
X137878Y80327D01*
X137900Y80346D01*
X137919Y80378D01*
X137936Y80423D01*
X137950Y80480D01*
X137962Y80550D01*
X137969Y80620D01*
X137954Y80851D01*
X137944Y80896D01*
X137932Y80928D01*
X137918Y80947D01*
X137903Y80953D01*
X137982D01*
X137982Y80956D01*
X138617D01*
X138618Y80953D01*
X138697D01*
Y81847D01*
X138703Y81822D01*
D02*
G37*
G36*
X109153D02*
X109172Y81800D01*
X109204Y81781D01*
X109249Y81764D01*
X109306Y81750D01*
X109376Y81738D01*
X109458Y81729D01*
X109661Y81719D01*
X109782Y81717D01*
Y81082D01*
X109661Y81081D01*
X109376Y81062D01*
X109306Y81050D01*
X109249Y81036D01*
X109204Y81019D01*
X109172Y81000D01*
X109153Y80978D01*
X109147Y80953D01*
X109132Y80947D01*
X109118Y80928D01*
X109106Y80896D01*
X109096Y80851D01*
X109087Y80794D01*
X109079Y80690D01*
X109088Y80550D01*
X109100Y80480D01*
X109114Y80423D01*
X109131Y80378D01*
X109150Y80346D01*
X109172Y80327D01*
X109197Y80321D01*
X109068D01*
X109067Y80318D01*
X108433D01*
X108432Y80321D01*
X108303D01*
X108328Y80327D01*
X108350Y80346D01*
X108369Y80378D01*
X108386Y80423D01*
X108400Y80480D01*
X108412Y80550D01*
X108420Y80620D01*
X108404Y80851D01*
X108394Y80896D01*
X108382Y80928D01*
X108368Y80947D01*
X108353Y80953D01*
X108432D01*
X108433Y80956D01*
X109067D01*
X109068Y80953D01*
X109147D01*
Y81847D01*
X109153Y81822D01*
D02*
G37*
G36*
X144481Y87368D02*
X144422Y87338D01*
X144370Y87288D01*
X144325Y87218D01*
X144287Y87128D01*
X144256Y87018D01*
X144231Y86888D01*
X144214Y86738D01*
X144203Y86568D01*
X144200Y86378D01*
X143200D01*
X143197Y86568D01*
X143169Y86888D01*
X143144Y87018D01*
X143113Y87128D01*
X143075Y87218D01*
X143030Y87288D01*
X142978Y87338D01*
X142919Y87368D01*
X142853Y87378D01*
X144547D01*
X144481Y87368D01*
D02*
G37*
G36*
X143700Y82200D02*
X143347Y82299D01*
Y81846D01*
X143330Y81853D01*
X143294Y81859D01*
X143238Y81865D01*
X142957Y81877D01*
X142314Y81882D01*
Y82518D01*
X142698Y82531D01*
X142794Y82558D01*
X142889Y82607D01*
X142971Y82677D01*
X143041Y82768D01*
X143098Y82878D01*
X143143Y83007D01*
X143175Y83158D01*
X143194Y83327D01*
X143200Y83518D01*
X143700Y82200D01*
D02*
G37*
G36*
X143568Y81384D02*
X143587Y81082D01*
X143596Y81033D01*
X143606Y80996D01*
X143618Y80969D01*
X143632Y80952D01*
X143647Y80947D01*
X142853D01*
X142868Y80952D01*
X142882Y80969D01*
X142894Y80996D01*
X142904Y81033D01*
X142913Y81082D01*
X142920Y81141D01*
X142929Y81293D01*
X142932Y81487D01*
X143568D01*
X143568Y81384D01*
D02*
G37*
G36*
X143568Y80053D02*
X143647D01*
X143632Y80047D01*
X143618Y80028D01*
X143606Y79996D01*
X143596Y79951D01*
X143587Y79894D01*
X143579Y79798D01*
X143596Y79549D01*
X143606Y79504D01*
X143618Y79472D01*
X143632Y79453D01*
X143647Y79447D01*
X143568D01*
X143568Y79418D01*
X142932D01*
X142932Y79447D01*
X142853D01*
X142868Y79453D01*
X142882Y79472D01*
X142894Y79504D01*
X142904Y79549D01*
X142913Y79606D01*
X142921Y79702D01*
X142904Y79951D01*
X142894Y79996D01*
X142882Y80028D01*
X142868Y80047D01*
X142853Y80053D01*
X142932D01*
X142932Y80082D01*
X143568D01*
X143568Y80053D01*
D02*
G37*
G36*
X114931Y87368D02*
X114872Y87338D01*
X114820Y87288D01*
X114775Y87218D01*
X114737Y87128D01*
X114706Y87018D01*
X114681Y86888D01*
X114664Y86738D01*
X114653Y86568D01*
X114650Y86378D01*
X113650D01*
X113647Y86568D01*
X113619Y86888D01*
X113594Y87018D01*
X113563Y87128D01*
X113525Y87218D01*
X113480Y87288D01*
X113428Y87338D01*
X113369Y87368D01*
X113303Y87378D01*
X114997D01*
X114931Y87368D01*
D02*
G37*
G36*
X114150Y82200D02*
X113797Y82299D01*
Y81846D01*
X113780Y81853D01*
X113744Y81859D01*
X113688Y81865D01*
X113407Y81877D01*
X112764Y81882D01*
Y82518D01*
X113148Y82531D01*
X113244Y82558D01*
X113339Y82607D01*
X113421Y82677D01*
X113491Y82768D01*
X113548Y82878D01*
X113593Y83007D01*
X113625Y83158D01*
X113644Y83327D01*
X113650Y83518D01*
X114150Y82200D01*
D02*
G37*
G36*
X114043Y81405D02*
X114069Y80998D01*
X114077Y80970D01*
X114087Y80953D01*
X114097Y80947D01*
X113303D01*
X113323Y80953D01*
X113341Y80970D01*
X113356Y80998D01*
X113370Y81037D01*
X113381Y81088D01*
X113391Y81150D01*
X113403Y81309D01*
X113408Y81512D01*
X114043D01*
X114043Y81405D01*
D02*
G37*
G36*
X114018Y80053D02*
X114097D01*
X114082Y80047D01*
X114068Y80028D01*
X114056Y79996D01*
X114046Y79951D01*
X114037Y79894D01*
X114029Y79798D01*
X114046Y79549D01*
X114056Y79504D01*
X114068Y79472D01*
X114082Y79453D01*
X114097Y79447D01*
X114018D01*
X114018Y79418D01*
X113382D01*
X113382Y79447D01*
X113303D01*
X113318Y79453D01*
X113332Y79472D01*
X113344Y79504D01*
X113354Y79549D01*
X113363Y79606D01*
X113371Y79702D01*
X113354Y79951D01*
X113344Y79996D01*
X113332Y80028D01*
X113318Y80047D01*
X113303Y80053D01*
X113382D01*
X113382Y80082D01*
X114018D01*
X114018Y80053D01*
D02*
G37*
G36*
X137853Y78718D02*
X137882Y78717D01*
Y78082D01*
X137853Y78082D01*
Y78003D01*
X137847Y78018D01*
X137828Y78032D01*
X137796Y78044D01*
X137751Y78054D01*
X137694Y78063D01*
X137598Y78071D01*
X137349Y78054D01*
X137304Y78044D01*
X137272Y78032D01*
X137253Y78018D01*
X137247Y78003D01*
X137222Y77997D01*
X137200Y77978D01*
X137181Y77946D01*
X137164Y77901D01*
X137150Y77844D01*
X137141Y77790D01*
X137148Y77746D01*
X137165Y77676D01*
X137186Y77619D01*
X137210Y77574D01*
X137239Y77542D01*
X137271Y77523D01*
X137307Y77517D01*
X137120D01*
X137119Y77489D01*
X137117Y77368D01*
X136482D01*
X136481Y77489D01*
X136479Y77517D01*
X136293D01*
X136329Y77523D01*
X136361Y77542D01*
X136390Y77574D01*
X136414Y77619D01*
X136435Y77676D01*
X136452Y77746D01*
X136459Y77790D01*
X136450Y77844D01*
X136436Y77901D01*
X136419Y77946D01*
X136400Y77978D01*
X136378Y77997D01*
X136353Y78003D01*
X136478D01*
X136482Y78152D01*
X137117D01*
X137119Y78031D01*
X137122Y78003D01*
X137247D01*
Y78082D01*
X137218Y78082D01*
Y78717D01*
X137247Y78718D01*
Y78797D01*
X137253Y78782D01*
X137272Y78768D01*
X137304Y78756D01*
X137349Y78746D01*
X137406Y78737D01*
X137502Y78729D01*
X137751Y78746D01*
X137796Y78756D01*
X137828Y78768D01*
X137847Y78782D01*
X137853Y78797D01*
Y78718D01*
D02*
G37*
G36*
X137286Y77428D02*
X137278Y77393D01*
X137280Y77353D01*
X137292Y77308D01*
X137313Y77259D01*
X137344Y77205D01*
X137385Y77146D01*
X137435Y77083D01*
X137565Y76943D01*
X137367Y76625D01*
X137289Y76700D01*
X137151Y76818D01*
X137091Y76860D01*
X137036Y76892D01*
X136987Y76913D01*
X136945Y76922D01*
X136907Y76921D01*
X136876Y76909D01*
X136851Y76886D01*
X137304Y77459D01*
X137286Y77428D01*
D02*
G37*
G36*
X138061Y75954D02*
X138069Y75944D01*
X138081Y75930D01*
X138260Y75745D01*
X138307Y75698D01*
X138127Y75518D01*
X137866Y75767D01*
X138059Y75959D01*
X138061Y75954D01*
D02*
G37*
G36*
X125665Y75417D02*
X125682Y75390D01*
X125711Y75366D01*
X125751Y75345D01*
X125803Y75327D01*
X125866Y75313D01*
X125941Y75302D01*
X126027Y75294D01*
X126234Y75287D01*
Y74713D01*
X126125Y74711D01*
X125955Y74699D01*
X125956Y74425D01*
X125950Y74480D01*
X125933Y74529D01*
X125904Y74572D01*
X125863Y74609D01*
X125811Y74641D01*
X125764Y74660D01*
X125751Y74655D01*
X125711Y74634D01*
X125682Y74610D01*
X125665Y74583D01*
X125659Y74553D01*
Y74689D01*
X125586Y74701D01*
X125488Y74710D01*
X125378Y74713D01*
Y75287D01*
X125659Y75243D01*
Y75447D01*
X125665Y75417D01*
D02*
G37*
G36*
X137648Y75281D02*
X137720Y75266D01*
X137863Y75243D01*
X138007Y75228D01*
X138152Y75222D01*
X138225Y75223D01*
X138225D01*
X138557Y75223D01*
X138584Y75223D01*
X138633Y75202D01*
X138671Y75165D01*
X138691Y75115D01*
X138692Y75089D01*
X138692Y75089D01*
X138692Y75062D01*
X138671Y75011D01*
X138632Y74972D01*
X138582Y74952D01*
X138555Y74952D01*
X138555D01*
X138555D01*
D01*
X138325Y74952D01*
X138240Y74948D01*
X138073Y74912D01*
X137918Y74841D01*
X137783Y74738D01*
X137725Y74675D01*
Y74675D01*
X137200D01*
Y75281D01*
X137648Y75281D01*
D02*
G37*
G36*
X130203Y74553D02*
X130197Y74583D01*
X130180Y74610D01*
X130151Y74634D01*
X130111Y74655D01*
X130059Y74673D01*
X129996Y74687D01*
X129921Y74698D01*
X129835Y74706D01*
X129628Y74713D01*
Y75287D01*
X129737Y75289D01*
X129921Y75302D01*
X129996Y75313D01*
X130059Y75327D01*
X130111Y75345D01*
X130151Y75366D01*
X130180Y75390D01*
X130197Y75417D01*
X130203Y75447D01*
Y74553D01*
D02*
G37*
G36*
X127422Y74713D02*
X127312Y74710D01*
X127214Y74701D01*
X127128Y74687D01*
X127053Y74666D01*
X126989Y74641D01*
X126937Y74609D01*
X126896Y74572D01*
X126867Y74529D01*
X126850Y74480D01*
X126844Y74425D01*
X126847Y75197D01*
X126853Y75214D01*
X126870Y75230D01*
X126899Y75243D01*
X126939Y75255D01*
X126991Y75265D01*
X127054Y75273D01*
X127215Y75284D01*
X127422Y75287D01*
Y74713D01*
D02*
G37*
G36*
X108303Y78718D02*
X108332Y78717D01*
Y78082D01*
X108303Y78082D01*
Y78003D01*
X108297Y78018D01*
X108278Y78032D01*
X108246Y78044D01*
X108201Y78054D01*
X108144Y78063D01*
X108048Y78071D01*
X107799Y78054D01*
X107754Y78044D01*
X107722Y78032D01*
X107703Y78018D01*
X107697Y78003D01*
X107672Y77997D01*
X107650Y77978D01*
X107631Y77946D01*
X107614Y77901D01*
X107600Y77844D01*
X107591Y77790D01*
X107598Y77746D01*
X107615Y77676D01*
X107636Y77619D01*
X107660Y77574D01*
X107689Y77542D01*
X107721Y77523D01*
X107757Y77517D01*
X107570D01*
X107569Y77489D01*
X107567Y77368D01*
X106933D01*
X106931Y77489D01*
X106929Y77517D01*
X106743D01*
X106779Y77523D01*
X106811Y77542D01*
X106840Y77574D01*
X106864Y77619D01*
X106885Y77676D01*
X106902Y77746D01*
X106909Y77790D01*
X106900Y77844D01*
X106886Y77901D01*
X106869Y77946D01*
X106850Y77978D01*
X106828Y77997D01*
X106803Y78003D01*
X106928D01*
X106933Y78152D01*
X107567D01*
X107569Y78031D01*
X107572Y78003D01*
X107697D01*
Y78082D01*
X107668Y78082D01*
Y78717D01*
X107697Y78718D01*
Y78797D01*
X107703Y78782D01*
X107722Y78768D01*
X107754Y78756D01*
X107799Y78746D01*
X107856Y78737D01*
X107952Y78729D01*
X108201Y78746D01*
X108246Y78756D01*
X108278Y78768D01*
X108297Y78782D01*
X108303Y78797D01*
Y78718D01*
D02*
G37*
G36*
X107736Y77428D02*
X107728Y77393D01*
X107730Y77353D01*
X107742Y77308D01*
X107763Y77259D01*
X107794Y77205D01*
X107835Y77146D01*
X107885Y77083D01*
X108015Y76943D01*
X107817Y76625D01*
X107739Y76700D01*
X107601Y76818D01*
X107541Y76860D01*
X107486Y76892D01*
X107437Y76913D01*
X107395Y76922D01*
X107357Y76921D01*
X107326Y76909D01*
X107301Y76886D01*
X107754Y77459D01*
X107736Y77428D01*
D02*
G37*
G36*
X108511Y75954D02*
X108519Y75944D01*
X108531Y75930D01*
X108710Y75745D01*
X108757Y75698D01*
X108577Y75518D01*
X108316Y75767D01*
X108508Y75959D01*
X108511Y75954D01*
D02*
G37*
G36*
X108098Y75281D02*
X108170Y75266D01*
X108313Y75243D01*
X108457Y75228D01*
X108602Y75222D01*
X108675Y75223D01*
X108675D01*
X109007Y75223D01*
X109034Y75223D01*
X109083Y75202D01*
X109121Y75165D01*
X109141Y75115D01*
X109142Y75089D01*
X109142Y75089D01*
X109142Y75062D01*
X109121Y75011D01*
X109082Y74972D01*
X109032Y74952D01*
X109005Y74952D01*
X109005D01*
X109005D01*
D01*
X108775Y74952D01*
X108690Y74948D01*
X108523Y74912D01*
X108368Y74841D01*
X108233Y74738D01*
X108175Y74675D01*
Y74675D01*
X107650D01*
Y75281D01*
X108098Y75281D01*
D02*
G37*
G36*
X103403Y75417D02*
X103420Y75390D01*
X103449Y75366D01*
X103489Y75345D01*
X103541Y75327D01*
X103604Y75313D01*
X103679Y75302D01*
X103765Y75294D01*
X103972Y75287D01*
Y74713D01*
X103863Y74711D01*
X103679Y74698D01*
X103604Y74687D01*
X103541Y74673D01*
X103489Y74655D01*
X103449Y74634D01*
X103420Y74610D01*
X103403Y74583D01*
X103397Y74553D01*
Y75447D01*
X103403Y75417D01*
D02*
G37*
G36*
X101203Y74553D02*
X101197Y74583D01*
X101180Y74610D01*
X101151Y74634D01*
X101111Y74655D01*
X101059Y74673D01*
X100996Y74687D01*
X100921Y74698D01*
X100835Y74706D01*
X100628Y74713D01*
Y75287D01*
X100737Y75289D01*
X100921Y75302D01*
X100996Y75313D01*
X101059Y75327D01*
X101111Y75345D01*
X101151Y75366D01*
X101180Y75390D01*
X101197Y75417D01*
X101203Y75447D01*
Y74553D01*
D02*
G37*
G36*
X97916Y75441D02*
X97973Y75408D01*
X98035Y75380D01*
X98101Y75356D01*
X98172Y75335D01*
X98248Y75318D01*
X98329Y75305D01*
X98506Y75289D01*
X98602Y75287D01*
Y74713D01*
X98506Y74711D01*
X98329Y74695D01*
X98248Y74682D01*
X98172Y74665D01*
X98101Y74644D01*
X98035Y74620D01*
X97973Y74592D01*
X97916Y74559D01*
X97865Y74524D01*
Y75476D01*
X97916Y75441D01*
D02*
G37*
G36*
X107203Y75197D02*
X107206Y74425D01*
X107200Y74480D01*
X107183Y74529D01*
X107154Y74572D01*
X107113Y74609D01*
X107061Y74641D01*
X106997Y74666D01*
X106922Y74687D01*
X106836Y74701D01*
X106738Y74710D01*
X106628Y74713D01*
Y75287D01*
X107203Y75197D01*
D02*
G37*
G36*
X142056Y78553D02*
X142123D01*
X142110Y78547D01*
X142099Y78528D01*
X142089Y78496D01*
X142080Y78451D01*
X142072Y78394D01*
X142066Y78305D01*
X142078Y78106D01*
X142088Y78049D01*
X142100Y78004D01*
X142114Y77972D01*
X142130Y77953D01*
X142147Y77947D01*
X142056D01*
X142055Y77918D01*
X141421D01*
X141420Y77947D01*
X141353D01*
X141366Y77953D01*
X141377Y77972D01*
X141387Y78004D01*
X141396Y78049D01*
X141404Y78106D01*
X141410Y78195D01*
X141398Y78394D01*
X141388Y78451D01*
X141376Y78496D01*
X141362Y78528D01*
X141346Y78547D01*
X141329Y78553D01*
X141420D01*
X141421Y78582D01*
X142055D01*
X142056Y78553D01*
D02*
G37*
G36*
X142069Y77131D02*
X142075Y77053D01*
X142147D01*
X142132Y77047D01*
X142118Y77028D01*
X142106Y76996D01*
X142096Y76951D01*
X142089Y76903D01*
X142098Y76846D01*
X142115Y76776D01*
X142136Y76719D01*
X142160Y76674D01*
X142189Y76642D01*
X142221Y76623D01*
X142257Y76617D01*
X142072D01*
X142068Y76418D01*
X141432D01*
X141432Y76539D01*
X141426Y76617D01*
X141243D01*
X141279Y76623D01*
X141311Y76642D01*
X141340Y76674D01*
X141364Y76719D01*
X141385Y76776D01*
X141402Y76846D01*
X141408Y76884D01*
X141404Y76951D01*
X141394Y76996D01*
X141382Y77028D01*
X141368Y77047D01*
X141353Y77053D01*
X141426D01*
X141432Y77252D01*
X142068D01*
X142069Y77131D01*
D02*
G37*
G36*
X112506Y78553D02*
X112573D01*
X112560Y78547D01*
X112549Y78528D01*
X112539Y78496D01*
X112530Y78451D01*
X112522Y78394D01*
X112516Y78305D01*
X112528Y78106D01*
X112538Y78049D01*
X112550Y78004D01*
X112564Y77972D01*
X112580Y77953D01*
X112597Y77947D01*
X112506D01*
X112506Y77918D01*
X111870D01*
X111870Y77947D01*
X111803D01*
X111816Y77953D01*
X111827Y77972D01*
X111837Y78004D01*
X111846Y78049D01*
X111854Y78106D01*
X111860Y78195D01*
X111848Y78394D01*
X111838Y78451D01*
X111826Y78496D01*
X111812Y78528D01*
X111796Y78547D01*
X111779Y78553D01*
X111870D01*
X111870Y78582D01*
X112506D01*
X112506Y78553D01*
D02*
G37*
G36*
X112519Y77131D02*
X112525Y77053D01*
X112597D01*
X112582Y77047D01*
X112568Y77028D01*
X112556Y76996D01*
X112546Y76951D01*
X112539Y76903D01*
X112548Y76846D01*
X112565Y76776D01*
X112586Y76719D01*
X112610Y76674D01*
X112639Y76642D01*
X112671Y76623D01*
X112707Y76617D01*
X112522D01*
X112518Y76418D01*
X111882D01*
X111882Y76539D01*
X111876Y76617D01*
X111693D01*
X111729Y76623D01*
X111761Y76642D01*
X111790Y76674D01*
X111814Y76719D01*
X111835Y76776D01*
X111852Y76846D01*
X111858Y76884D01*
X111854Y76951D01*
X111844Y76996D01*
X111832Y77028D01*
X111818Y77047D01*
X111803Y77053D01*
X111876D01*
X111882Y77252D01*
X112518D01*
X112519Y77131D01*
D02*
G37*
G36*
X113853Y74553D02*
X113847Y74583D01*
X113830Y74610D01*
X113801Y74634D01*
X113761Y74655D01*
X113709Y74673D01*
X113646Y74687D01*
X113571Y74698D01*
X113485Y74706D01*
X113280Y74712D01*
X112707Y74683D01*
Y75317D01*
X112713Y75311D01*
X112730Y75306D01*
X112759Y75302D01*
X112799Y75298D01*
X112989Y75290D01*
X113280Y75288D01*
X113387Y75289D01*
X113571Y75302D01*
X113646Y75313D01*
X113709Y75327D01*
X113761Y75345D01*
X113801Y75366D01*
X113830Y75390D01*
X113847Y75417D01*
X113853Y75447D01*
Y74553D01*
D02*
G37*
G36*
X112101Y74675D02*
X111700D01*
X111700Y74675D01*
X111627Y74744D01*
X111460Y74854D01*
X111274Y74925D01*
X111076Y74954D01*
X110976Y74952D01*
X110746Y74952D01*
X110746Y74952D01*
X110719Y74952D01*
X110669Y74972D01*
X110630Y75011D01*
X110609Y75062D01*
X110609Y75089D01*
X110609Y75089D01*
X110610Y75115D01*
X110630Y75165D01*
X110668Y75202D01*
X110717Y75223D01*
X110744Y75223D01*
X111076Y75223D01*
X111076Y75223D01*
X111155Y75225D01*
X111313Y75238D01*
X111470Y75264D01*
X111624Y75302D01*
X111700Y75325D01*
X112101Y75325D01*
Y74675D01*
D02*
G37*
G36*
X123341Y75279D02*
X123415Y75284D01*
X123622Y75287D01*
Y74713D01*
X123512Y74710D01*
X123414Y74701D01*
X123341Y74689D01*
Y74553D01*
X123335Y74583D01*
X123318Y74610D01*
X123289Y74634D01*
X123249Y74655D01*
X123236Y74660D01*
X123189Y74641D01*
X123137Y74609D01*
X123096Y74572D01*
X123067Y74529D01*
X123050Y74480D01*
X123044Y74425D01*
X123045Y74699D01*
X122973Y74706D01*
X122766Y74713D01*
Y75287D01*
X122875Y75289D01*
X123059Y75302D01*
X123134Y75313D01*
X123197Y75327D01*
X123249Y75345D01*
X123289Y75366D01*
X123318Y75390D01*
X123335Y75417D01*
X123341Y75447D01*
Y75279D01*
D02*
G37*
G36*
X116053Y75417D02*
X116070Y75390D01*
X116099Y75366D01*
X116139Y75345D01*
X116191Y75327D01*
X116254Y75313D01*
X116329Y75302D01*
X116415Y75294D01*
X116622Y75287D01*
Y74713D01*
X116513Y74711D01*
X116329Y74698D01*
X116254Y74687D01*
X116191Y74673D01*
X116139Y74655D01*
X116099Y74634D01*
X116070Y74610D01*
X116053Y74583D01*
X116047Y74553D01*
Y75447D01*
X116053Y75417D01*
D02*
G37*
G36*
X122153Y75197D02*
X122156Y74425D01*
X122150Y74480D01*
X122133Y74529D01*
X122104Y74572D01*
X122063Y74609D01*
X122011Y74641D01*
X121947Y74666D01*
X121872Y74687D01*
X121786Y74701D01*
X121688Y74710D01*
X121578Y74713D01*
Y75287D01*
X122153Y75197D01*
D02*
G37*
D27*
X140351Y75608D02*
D03*
Y75100D02*
D03*
Y74592D02*
D03*
Y74084D02*
D03*
X138500Y75100D02*
D03*
Y74592D02*
D03*
Y75608D02*
D03*
Y74084D02*
D03*
X110801Y75608D02*
D03*
Y75100D02*
D03*
Y74592D02*
D03*
Y74084D02*
D03*
X108950Y75100D02*
D03*
Y74592D02*
D03*
Y75608D02*
D03*
Y74084D02*
D03*
D41*
X166500Y87000D02*
D03*
X165000Y84000D02*
D03*
Y78000D02*
D03*
Y72000D02*
D03*
Y66000D02*
D03*
X163500Y99000D02*
D03*
Y93000D02*
D03*
Y87000D02*
D03*
Y81000D02*
D03*
Y63000D02*
D03*
X162000Y60000D02*
D03*
X163500Y57000D02*
D03*
X162000Y54000D02*
D03*
X163500Y51000D02*
D03*
X160500Y99000D02*
D03*
X159000Y96000D02*
D03*
X160500Y93000D02*
D03*
Y57000D02*
D03*
Y51000D02*
D03*
X157500Y99000D02*
D03*
X156000Y96000D02*
D03*
X157500Y93000D02*
D03*
Y51000D02*
D03*
X154500Y99000D02*
D03*
Y93000D02*
D03*
Y51000D02*
D03*
X150000Y78000D02*
D03*
Y72000D02*
D03*
X151500Y51000D02*
D03*
X148500D02*
D03*
X132000Y72000D02*
D03*
X124500Y51000D02*
D03*
X120000Y54000D02*
D03*
X121500Y51000D02*
D03*
X117000Y54000D02*
D03*
X118500Y51000D02*
D03*
X114000Y54000D02*
D03*
X115500Y51000D02*
D03*
X111000Y54000D02*
D03*
X112500Y51000D02*
D03*
X109500Y63000D02*
D03*
X108000Y60000D02*
D03*
X109500Y57000D02*
D03*
X108000Y54000D02*
D03*
X109500Y51000D02*
D03*
X106500Y63000D02*
D03*
X105000Y60000D02*
D03*
X106500Y57000D02*
D03*
X105000Y54000D02*
D03*
X106500Y51000D02*
D03*
X103500D02*
D03*
X100500Y99000D02*
D03*
X99000Y96000D02*
D03*
Y84000D02*
D03*
Y60000D02*
D03*
Y54000D02*
D03*
X100500Y51000D02*
D03*
X97500Y99000D02*
D03*
X96000Y96000D02*
D03*
X97500Y93000D02*
D03*
X96000Y84000D02*
D03*
X97500Y63000D02*
D03*
X96000Y60000D02*
D03*
X97500Y57000D02*
D03*
X96000Y54000D02*
D03*
X97500Y51000D02*
D03*
X94500Y99000D02*
D03*
X93000Y96000D02*
D03*
X94500Y93000D02*
D03*
X93000Y90000D02*
D03*
Y84000D02*
D03*
X94500Y63000D02*
D03*
X93000Y60000D02*
D03*
X94500Y57000D02*
D03*
X93000Y54000D02*
D03*
X94500Y51000D02*
D03*
X91500Y99000D02*
D03*
Y93000D02*
D03*
X90000Y90000D02*
D03*
X91500Y87000D02*
D03*
X90000Y84000D02*
D03*
X91500Y81000D02*
D03*
X90000Y78000D02*
D03*
X91500Y63000D02*
D03*
X90000Y60000D02*
D03*
X91500Y57000D02*
D03*
X90000Y54000D02*
D03*
X91500Y51000D02*
D03*
X88500Y99000D02*
D03*
X87000Y90000D02*
D03*
X88500Y87000D02*
D03*
X87000Y84000D02*
D03*
X88500Y57000D02*
D03*
X87000Y54000D02*
D03*
X88500Y51000D02*
D03*
X84000Y60000D02*
D03*
X85500Y57000D02*
D03*
X84000Y54000D02*
D03*
X85500Y51000D02*
D03*
X82500Y63000D02*
D03*
X81000Y60000D02*
D03*
X82500Y57000D02*
D03*
X81000Y54000D02*
D03*
X82500Y51000D02*
D03*
X79500Y57000D02*
D03*
X78000Y54000D02*
D03*
X79500Y51000D02*
D03*
X75000Y60000D02*
D03*
X76500Y57000D02*
D03*
X75000Y54000D02*
D03*
X76500Y51000D02*
D03*
X72000Y72000D02*
D03*
X73500Y69000D02*
D03*
X72000Y66000D02*
D03*
X73500Y63000D02*
D03*
X72000Y60000D02*
D03*
X73500Y57000D02*
D03*
X72000Y54000D02*
D03*
X73500Y51000D02*
D03*
X69000Y72000D02*
D03*
X70500Y69000D02*
D03*
X69000Y66000D02*
D03*
X70500Y57000D02*
D03*
X69000Y54000D02*
D03*
X66000Y72000D02*
D03*
X67500Y69000D02*
D03*
X66000Y66000D02*
D03*
X67500Y57000D02*
D03*
X66000Y54000D02*
D03*
X63000Y72000D02*
D03*
X64500Y69000D02*
D03*
X63000Y66000D02*
D03*
Y60000D02*
D03*
X64500Y57000D02*
D03*
X63000Y54000D02*
D03*
X60000Y72000D02*
D03*
X61500Y69000D02*
D03*
X60000Y66000D02*
D03*
X61500Y63000D02*
D03*
X60000Y60000D02*
D03*
X61500Y57000D02*
D03*
X60000Y54000D02*
D03*
X61500Y51000D02*
D03*
X57000Y72000D02*
D03*
X58500Y69000D02*
D03*
X57000Y66000D02*
D03*
X58500Y57000D02*
D03*
X57000Y54000D02*
D03*
X54000Y72000D02*
D03*
X55500Y69000D02*
D03*
X54000Y66000D02*
D03*
Y60000D02*
D03*
X55500Y57000D02*
D03*
X54000Y54000D02*
D03*
X51000Y72000D02*
D03*
X52500Y69000D02*
D03*
X51000Y66000D02*
D03*
X52500Y63000D02*
D03*
X51000Y60000D02*
D03*
X52500Y57000D02*
D03*
X51000Y54000D02*
D03*
X52500Y51000D02*
D03*
X48000Y72000D02*
D03*
X49500Y69000D02*
D03*
X48000Y66000D02*
D03*
X49500Y57000D02*
D03*
X48000Y54000D02*
D03*
X49500Y51000D02*
D03*
X45000Y72000D02*
D03*
X46500Y69000D02*
D03*
X45000Y66000D02*
D03*
Y60000D02*
D03*
X46500Y57000D02*
D03*
X45000Y54000D02*
D03*
X46500Y51000D02*
D03*
X42000Y72000D02*
D03*
X43500Y69000D02*
D03*
X42000Y66000D02*
D03*
X43500Y63000D02*
D03*
X42000Y60000D02*
D03*
X43500Y57000D02*
D03*
Y51000D02*
D03*
X40500Y87000D02*
D03*
X39000Y84000D02*
D03*
X40500Y81000D02*
D03*
X39000Y78000D02*
D03*
X40500Y75000D02*
D03*
X39000Y72000D02*
D03*
X40500Y69000D02*
D03*
X39000Y66000D02*
D03*
X40500Y63000D02*
D03*
X37500Y81000D02*
D03*
X36000Y78000D02*
D03*
X37500Y75000D02*
D03*
X36000Y72000D02*
D03*
X37500Y69000D02*
D03*
X36000Y66000D02*
D03*
X34500Y81000D02*
D03*
Y75000D02*
D03*
Y69000D02*
D03*
X148500Y87000D02*
D03*
X139500D02*
D03*
X136500D02*
D03*
X121500Y77500D02*
D03*
Y84000D02*
D03*
X117000Y90000D02*
D03*
X118500Y87000D02*
D03*
X110000D02*
D03*
X107500Y88500D02*
D03*
X105000Y87000D02*
D03*
Y93000D02*
D03*
X124500Y72500D02*
D03*
Y77500D02*
D03*
X102000Y72500D02*
D03*
Y77500D02*
D03*
X136450Y72275D02*
D03*
X137700D02*
D03*
X139426Y74846D02*
D03*
X109876Y74846D02*
D03*
X108150Y72275D02*
D03*
X106900D02*
D03*
X123250Y61000D02*
D03*
X121788Y58985D02*
D03*
X124250Y61500D02*
D03*
X121000Y56250D02*
D03*
X117500Y58000D02*
D03*
X118500Y57000D02*
D03*
X119750D02*
D03*
X121000Y57500D02*
D03*
X159500Y87500D02*
D03*
X159000Y89000D02*
D03*
X157000D02*
D03*
X140550Y94000D02*
D03*
X142550D02*
D03*
X141550Y92500D02*
D03*
X139550D02*
D03*
X112000D02*
D03*
X110000D02*
D03*
X111000Y94000D02*
D03*
X113000D02*
D03*
X125250Y60000D02*
D03*
X115000Y63500D02*
D03*
X116250D02*
D03*
X115500Y65000D02*
D03*
X116750D02*
D03*
X115750Y60500D02*
D03*
X116750Y61750D02*
D03*
X117750Y60500D02*
D03*
X118750Y61750D02*
D03*
X115000Y66500D02*
D03*
X116250D02*
D03*
X125750Y56975D02*
D03*
X136250Y55000D02*
D03*
X135000Y54250D02*
D03*
X134000Y62750D02*
D03*
X134750Y63750D02*
D03*
X136000D02*
D03*
X131000Y64500D02*
D03*
X132500D02*
D03*
X133500Y65500D02*
D03*
Y67000D02*
D03*
X132500Y68000D02*
D03*
X154000Y66500D02*
D03*
X156000D02*
D03*
X154500Y68000D02*
D03*
X156500D02*
D03*
X154000Y69500D02*
D03*
X156000D02*
D03*
X154500Y71000D02*
D03*
X156500D02*
D03*
X154000Y57750D02*
D03*
X154750Y56500D02*
D03*
X156250D02*
D03*
X144250Y58750D02*
D03*
X143000Y60000D02*
D03*
Y61500D02*
D03*
X148750Y58250D02*
D03*
X146250Y58750D02*
D03*
X147500Y58250D02*
D03*
X77000Y80000D02*
D03*
X79000D02*
D03*
X77500Y78500D02*
D03*
X78500Y77000D02*
D03*
X76500D02*
D03*
X79500Y78500D02*
D03*
X81000Y68000D02*
D03*
X79500D02*
D03*
X79000Y70000D02*
D03*
X80500D02*
D03*
X127500Y80000D02*
D03*
X126000Y79500D02*
D03*
X131000Y78000D02*
D03*
X127500Y78500D02*
D03*
X129500Y78000D02*
D03*
X126000Y81000D02*
D03*
X121000Y88000D02*
D03*
X123000D02*
D03*
X120000Y89500D02*
D03*
X122000D02*
D03*
X121000Y91000D02*
D03*
X123000D02*
D03*
X129315Y85825D02*
D03*
X129315Y84725D02*
D03*
X130415D02*
D03*
X130415Y85825D02*
D03*
X83315Y74825D02*
D03*
X83315Y73725D02*
D03*
X84415D02*
D03*
Y74825D02*
D03*
X157500Y87500D02*
D03*
X140000Y83000D02*
D03*
X138000D02*
D03*
X109000Y77000D02*
D03*
X146000Y76500D02*
D03*
X144500D02*
D03*
X146000Y78500D02*
D03*
Y80500D02*
D03*
Y82000D02*
D03*
X145000Y83000D02*
D03*
X141500Y80500D02*
D03*
X138500Y77000D02*
D03*
X140000Y80000D02*
D03*
Y78500D02*
D03*
Y77000D02*
D03*
X142000Y83250D02*
D03*
X140000Y73125D02*
D03*
X141500Y73000D02*
D03*
X143500D02*
D03*
X145500D02*
D03*
X138750Y73125D02*
D03*
X109200D02*
D03*
X110450D02*
D03*
X112450Y83250D02*
D03*
X110450Y83000D02*
D03*
X108450D02*
D03*
X114950Y76500D02*
D03*
X116450D02*
D03*
Y78500D02*
D03*
Y80500D02*
D03*
Y82000D02*
D03*
X115450Y83000D02*
D03*
X111950Y80500D02*
D03*
X110450Y80000D02*
D03*
Y78500D02*
D03*
Y77000D02*
D03*
X111950Y73000D02*
D03*
X113950D02*
D03*
X115950D02*
D03*
D45*
X107608Y77092D02*
G03*
X107349Y77200I-259J-257D01*
G01*
X108325Y76225D02*
G03*
X108218Y76482I-365J-1D01*
G01*
X137875Y76225D02*
G03*
X137768Y76482I-365J-1D01*
G01*
X137158Y77092D02*
G03*
X136899Y77200I-259J-257D01*
G01*
X108326Y75951D02*
X108326Y75949D01*
X108325Y76225D02*
X108325Y76225D01*
X107608Y77092D02*
X108218Y76482D01*
X108325Y76225D02*
X108326Y75951D01*
X107250Y77200D02*
X107349D01*
X136800Y77200D02*
X136899D01*
X137875Y76225D02*
X137876Y75951D01*
X137158Y77092D02*
X137768Y76482D01*
X137875Y76225D02*
X137875Y76225D01*
X137876Y75951D02*
X137876Y75949D01*
D46*
X113910Y81960D02*
G03*
X113725Y81512I450J-448D01*
G01*
X112568Y82200D02*
G03*
X112020Y81882I2J-635D01*
G01*
X143435Y81935D02*
G03*
X143250Y81487I450J-448D01*
G01*
X142175Y82200D02*
G03*
X141727Y82015I0J-635D01*
G01*
X139375Y81400D02*
G03*
X139823Y81585I0J635D01*
G01*
X109825Y81400D02*
G03*
X110273Y81585I0J635D01*
G01*
X107250Y77200D02*
Y77200D01*
Y78400D01*
X113910Y81960D02*
X114150Y82200D01*
X113725Y80525D02*
Y81512D01*
X113700Y79000D02*
Y80500D01*
X112568Y82200D02*
X114150D01*
X111962Y81750D02*
X112045Y81882D01*
X112020D02*
X112045D01*
X143435Y81935D02*
X143700Y82200D01*
X143250Y79000D02*
Y81487D01*
X142175Y82200D02*
X143700D01*
X141512Y81800D02*
X141727Y82015D01*
X139823Y81585D02*
X139988Y81750D01*
X138300Y81400D02*
X139375D01*
X138300Y79924D02*
Y81400D01*
X108750D02*
X109825D01*
X110273Y81585D02*
X110438Y81750D01*
X108750Y79924D02*
Y81400D01*
X140400Y91000D02*
X141800D01*
X136800Y78400D02*
X138300D01*
X141750Y76300D02*
Y77500D01*
X141738Y77512D02*
Y78988D01*
X141726Y79000D02*
X141738Y78988D01*
Y77512D02*
X141750Y77500D01*
X136800Y77200D02*
Y78400D01*
X107250D02*
X108750D01*
X112188Y77512D02*
Y78988D01*
X112176Y79000D02*
X112188Y78988D01*
Y77512D02*
X112200Y77500D01*
Y76300D02*
Y77500D01*
X110850Y91000D02*
X112250D01*
X114250Y75000D02*
X114250Y75000D01*
D47*
X130000Y100000D02*
D03*
X70000Y50000D02*
D03*
X142500Y100000D02*
D03*
X70000D02*
D03*
X57500D02*
D03*
X142500Y50000D02*
D03*
X130000D02*
D03*
X57500D02*
D03*
D48*
X163500Y96000D02*
D03*
X41500Y54000D02*
D03*
X170500Y83000D02*
D03*
Y67000D02*
D03*
X170500Y78250D02*
D03*
Y71750D02*
D03*
D49*
X170200Y72000D02*
D03*
Y78000D02*
D03*
D50*
X171875Y75000D02*
D03*
D51*
X124500Y93050D02*
D03*
Y56950D02*
D03*
X102000D02*
D03*
Y93050D02*
D03*
X124500Y82550D02*
D03*
X102000D02*
D03*
Y67450D02*
D03*
X124500D02*
D03*
D52*
Y91400D02*
D03*
Y94700D02*
D03*
Y55300D02*
D03*
Y58600D02*
D03*
X102000Y55300D02*
D03*
Y58600D02*
D03*
Y91400D02*
D03*
Y94700D02*
D03*
X124500Y80900D02*
D03*
Y84200D02*
D03*
X102000Y80900D02*
D03*
Y84200D02*
D03*
Y65800D02*
D03*
Y69100D02*
D03*
X124500Y65800D02*
D03*
Y69100D02*
D03*
D53*
Y90000D02*
D03*
Y96100D02*
D03*
Y53900D02*
D03*
Y60000D02*
D03*
X102000Y53900D02*
D03*
Y60000D02*
D03*
Y90000D02*
D03*
Y96100D02*
D03*
X124500Y79500D02*
D03*
Y85600D02*
D03*
X102000Y79500D02*
D03*
Y85600D02*
D03*
Y64400D02*
D03*
Y70500D02*
D03*
X124500Y64400D02*
D03*
Y70500D02*
D03*
D54*
X155950Y87750D02*
D03*
X154550D02*
D03*
X141512Y81750D02*
D03*
X139988D02*
D03*
X143250Y79000D02*
D03*
X141726D02*
D03*
X144650Y80500D02*
D03*
X143250D02*
D03*
X143150Y77500D02*
D03*
X141750D02*
D03*
X143400Y86200D02*
D03*
X142000D02*
D03*
X138300Y81400D02*
D03*
X136900D02*
D03*
X125262Y75000D02*
D03*
X123738D02*
D03*
X150300D02*
D03*
X151700D02*
D03*
X132000Y75000D02*
D03*
X130600D02*
D03*
X115650Y75000D02*
D03*
X114250D02*
D03*
X103000Y75000D02*
D03*
X101600D02*
D03*
X107350Y81400D02*
D03*
X108750D02*
D03*
X113850Y86200D02*
D03*
X112450D02*
D03*
X113700Y79000D02*
D03*
X112176D02*
D03*
X111962Y81750D02*
D03*
X110438D02*
D03*
X113600Y77500D02*
D03*
X112200D02*
D03*
X115100Y80500D02*
D03*
X113700D02*
D03*
D55*
X158000Y75250D02*
D03*
X155210Y85920D02*
D03*
D56*
X136800Y75900D02*
D03*
Y77200D02*
D03*
X141750Y75000D02*
D03*
Y76300D02*
D03*
X112200Y75000D02*
D03*
Y76300D02*
D03*
X107250Y75900D02*
D03*
Y77200D02*
D03*
D57*
X138300Y79924D02*
D03*
Y78400D02*
D03*
X137200Y74800D02*
D03*
Y73400D02*
D03*
X136800Y79800D02*
D03*
Y78400D02*
D03*
X140400Y91000D02*
D03*
Y89600D02*
D03*
X141800Y91000D02*
D03*
Y89600D02*
D03*
X107650Y74800D02*
D03*
Y73400D02*
D03*
X126400Y74800D02*
D03*
Y73276D02*
D03*
X122600Y74800D02*
D03*
Y73276D02*
D03*
X108750Y78400D02*
D03*
Y79924D02*
D03*
X107250Y78400D02*
D03*
Y79800D02*
D03*
X112250Y91000D02*
D03*
Y89600D02*
D03*
X110850Y91000D02*
D03*
Y89600D02*
D03*
D58*
X139426Y74846D02*
D03*
X109876Y74846D02*
D03*
D59*
X146250Y84524D02*
D03*
X141150D02*
D03*
X146250Y71064D02*
D03*
X141150D02*
D03*
X136050Y84524D02*
D03*
Y71064D02*
D03*
X116700Y84524D02*
D03*
X111600D02*
D03*
X116700Y71064D02*
D03*
X111600D02*
D03*
X106500Y84524D02*
D03*
Y71064D02*
D03*
D60*
X147400Y83374D02*
D03*
Y77794D02*
D03*
Y72214D02*
D03*
X134900Y83374D02*
D03*
Y77794D02*
D03*
Y72214D02*
D03*
X117850Y83374D02*
D03*
Y77794D02*
D03*
Y72214D02*
D03*
X105350Y83374D02*
D03*
Y77794D02*
D03*
Y72214D02*
D03*
D61*
X143700Y91200D02*
D03*
Y88000D02*
D03*
X114150Y91200D02*
D03*
Y88000D02*
D03*
D62*
X46000Y93650D02*
D03*
X49000D02*
D03*
D63*
X35500Y86500D02*
D03*
X41000Y91500D02*
D03*
D64*
X57500Y94900D02*
D03*
X67500D02*
D03*
X77500D02*
D03*
X87500D02*
D03*
X47500Y62100D02*
D03*
X57500D02*
D03*
X67500D02*
D03*
X77500D02*
D03*
X87500D02*
D03*
X97500Y88000D02*
D03*
D65*
Y75000D02*
D03*
D66*
X96250Y72250D02*
D03*
Y69250D02*
D03*
Y80750D02*
D03*
Y77750D02*
D03*
D67*
X96750Y75000D02*
D03*
D68*
X107650Y75025D02*
X108000D01*
X111751D02*
X112101D01*
X141301Y75025D02*
X141651D01*
X137200D02*
X137550D01*
D69*
X108326Y75949D02*
X108667Y75608D01*
X108950D01*
X138217Y75608D02*
X138500D01*
X137876Y75949D02*
X138217Y75608D01*
D70*
X151700Y75000D02*
X158000D01*
X158250D02*
X172000D01*
X158000Y75250D02*
X158250Y75000D01*
X136800D02*
Y75000D01*
Y75900D01*
X132000Y75000D02*
X136750D01*
X136800D02*
X137200D01*
X107250D02*
Y75900D01*
X103000Y75000D02*
X107250D01*
X107650D01*
X126500Y75000D02*
X130600D01*
X125262D02*
X126500D01*
X122500Y75000D02*
X123738D01*
X115650D02*
X122500D01*
X97500Y75000D02*
X101600D01*
X141700D02*
X150300D01*
X112200D02*
X114250D01*
D71*
X155950Y86055D02*
Y87750D01*
X155210Y85920D02*
X155815D01*
X155950Y86055D01*
X114150Y86200D02*
Y88000D01*
Y82200D02*
Y86200D01*
X143700D02*
Y88000D01*
Y82200D02*
Y86200D01*
D72*
X142000Y91200D02*
X143700D01*
X112450D02*
X114150D01*
D73*
X170475Y72000D02*
D03*
Y78000D02*
D03*
D74*
X129875Y59365D02*
D03*
D75*
X151000Y61500D02*
D03*
D76*
X129865Y85275D02*
D03*
X83865Y74275D02*
D03*
D77*
X35500Y91000D02*
D03*
X169500Y59000D02*
D03*
D78*
X129275Y60415D02*
D03*
Y59365D02*
D03*
X130475D02*
D03*
Y60415D02*
D03*
Y58315D02*
D03*
X129275D02*
D03*
X151889Y62135D02*
D03*
X151000Y62135D02*
D03*
X151000Y60865D02*
D03*
X151889D02*
D03*
X150111Y62135D02*
D03*
Y60865D02*
D03*
D79*
X171350Y77000D02*
D03*
X169600D02*
D03*
X170600Y79000D02*
D03*
X168700D02*
D03*
X171350Y73000D02*
D03*
X169600D02*
D03*
X170600Y71000D02*
D03*
X168700D02*
D03*
D80*
X97500Y72250D02*
D03*
Y80750D02*
D03*
Y69250D02*
D03*
Y77750D02*
D03*
X46000Y94900D02*
D03*
X49000D02*
D03*
M02*
