G04*
G04 #@! TF.GenerationSoftware,Altium Limited,Altium Designer,21.7.2 (23)*
G04*
G04 Layer_Color=8388736*
%FSLAX43Y43*%
%MOMM*%
G71*
G04*
G04 #@! TF.SameCoordinates,BD2E6C67-D46E-495A-B7F0-CE9B6F3DEFF6*
G04*
G04*
G04 #@! TF.FilePolarity,Negative*
G04*
G01*
G75*
%ADD14C,0.100*%
%ADD15R,5.425X3.500*%
%ADD16R,2.203X3.203*%
%ADD17R,3.203X2.203*%
%ADD18R,4.242X3.492*%
%ADD19R,3.049X1.409*%
%ADD20R,1.103X1.403*%
%ADD21R,1.103X1.703*%
%ADD22R,1.103X0.803*%
%ADD23R,1.003X1.103*%
%ADD24R,3.503X1.473*%
%ADD25R,1.223X0.843*%
%ADD26R,1.103X1.003*%
%ADD27R,0.556X0.179*%
%ADD28R,0.813X1.397*%
%ADD29R,3.503X1.203*%
%ADD30R,1.203X3.503*%
%ADD31R,1.903X1.453*%
%ADD32R,1.203X2.703*%
%ADD33C,1.703*%
%ADD34C,2.603*%
%ADD35C,1.403*%
%ADD36R,2.703X1.203*%
%ADD37R,2.008X1.508*%
%ADD38C,1.020*%
%ADD39C,1.083*%
%ADD40C,7.203*%
%ADD41C,0.600*%
%ADD42C,0.903*%
%ADD43C,0.803*%
%ADD44C,1.553*%
G36*
X165054Y102827D02*
X165400Y102684D01*
X165711Y102476D01*
X165976Y102211D01*
X166184Y101900D01*
X166327Y101554D01*
X166400Y101187D01*
Y101000D01*
Y98500D01*
X38600D01*
Y101000D01*
X38600Y101187D01*
X38673Y101554D01*
X38816Y101900D01*
X39024Y102211D01*
X39289Y102476D01*
X39600Y102684D01*
X39946Y102827D01*
X40313Y102900D01*
X40500D01*
X164500Y102900D01*
X164687D01*
X165054Y102827D01*
D02*
G37*
G36*
X159656Y75829D02*
X159665Y75829D01*
X159667Y75828D01*
X159669Y75828D01*
X159678Y75827D01*
X159687Y75826D01*
X159689Y75826D01*
X159691Y75825D01*
X159700Y75823D01*
X159708Y75822D01*
X159711Y75821D01*
X159713Y75821D01*
X159721Y75818D01*
X159730Y75815D01*
X159732Y75815D01*
X159734Y75814D01*
X159742Y75810D01*
X159750Y75807D01*
X159752Y75806D01*
X159754Y75805D01*
X159762Y75801D01*
X159770Y75797D01*
X159772Y75796D01*
X159774Y75795D01*
X159782Y75790D01*
X159789Y75786D01*
X159791Y75784D01*
X159793Y75783D01*
X159800Y75778D01*
X159807Y75773D01*
X159809Y75771D01*
X159810Y75770D01*
X159817Y75764D01*
X159824Y75758D01*
X159825Y75756D01*
X159827Y75755D01*
X159833Y75748D01*
X159839Y75742D01*
X159840Y75740D01*
X159842Y75738D01*
X159847Y75731D01*
X159853Y75724D01*
X159854Y75723D01*
X159855Y75721D01*
X159860Y75713D01*
X159865Y75706D01*
X159866Y75704D01*
X159867Y75702D01*
X159871Y75694D01*
X159875Y75686D01*
X159876Y75684D01*
X159877Y75682D01*
X159881Y75674D01*
X159884Y75666D01*
X159885Y75664D01*
X159886Y75662D01*
X159889Y75653D01*
X159891Y75645D01*
X159892Y75643D01*
X159893Y75641D01*
X159894Y75632D01*
X159897Y75624D01*
X159897Y75621D01*
X159897Y75619D01*
X159898Y75610D01*
X159900Y75602D01*
X159901Y75590D01*
X159906Y75587D01*
X159935Y75575D01*
X159983Y75562D01*
X160047Y75551D01*
X160127Y75544D01*
X160229Y75542D01*
X160236Y75541D01*
X160244Y75541D01*
X160247Y75540D01*
X160251Y75540D01*
X160258Y75539D01*
X160266Y75538D01*
X160269Y75537D01*
X160273Y75537D01*
X160280Y75535D01*
X160288Y75533D01*
X160291Y75532D01*
X160294Y75531D01*
X160302Y75529D01*
X160309Y75526D01*
X160312Y75525D01*
X160315Y75524D01*
X160322Y75521D01*
X160329Y75518D01*
X160332Y75516D01*
X160335Y75515D01*
X160342Y75511D01*
X160349Y75508D01*
X160352Y75506D01*
X160355Y75504D01*
X160361Y75500D01*
X160368Y75496D01*
X160370Y75494D01*
X160373Y75492D01*
X160379Y75487D01*
X160385Y75482D01*
X160388Y75480D01*
X160390Y75478D01*
X160396Y75473D01*
X160402Y75467D01*
X160404Y75465D01*
X160406Y75462D01*
X160411Y75457D01*
X160417Y75451D01*
X160419Y75448D01*
X160421Y75446D01*
X160425Y75439D01*
X160430Y75433D01*
X160432Y75430D01*
X160434Y75428D01*
X160438Y75421D01*
X160442Y75415D01*
X160444Y75412D01*
X160445Y75409D01*
X160449Y75402D01*
X160452Y75395D01*
X160454Y75392D01*
X160455Y75389D01*
X160458Y75382D01*
X160461Y75374D01*
X160462Y75371D01*
X160463Y75368D01*
X160465Y75361D01*
X160468Y75353D01*
X160468Y75350D01*
X160469Y75347D01*
X160471Y75339D01*
X160472Y75332D01*
X160473Y75328D01*
X160473Y75325D01*
X160474Y75317D01*
X160475Y75310D01*
X160475Y75306D01*
X160476Y75303D01*
X160476Y75295D01*
X160476Y75287D01*
Y74713D01*
X160476Y74703D01*
X160475Y74693D01*
X160475Y74691D01*
X160475Y74690D01*
X160474Y74681D01*
X160473Y74671D01*
X160472Y74669D01*
X160472Y74668D01*
X160470Y74659D01*
X160468Y74649D01*
X160468Y74648D01*
X160468Y74647D01*
X160465Y74637D01*
X160462Y74628D01*
X160461Y74627D01*
X160461Y74626D01*
X160457Y74616D01*
X160453Y74607D01*
X160453Y74606D01*
X160452Y74605D01*
X160448Y74596D01*
X160443Y74587D01*
X160443Y74586D01*
X160442Y74585D01*
X160437Y74577D01*
X160431Y74568D01*
X160431Y74568D01*
X160430Y74567D01*
X160424Y74559D01*
X160418Y74551D01*
X160417Y74550D01*
X160417Y74549D01*
X160410Y74542D01*
X160403Y74534D01*
X160402Y74534D01*
X160402Y74533D01*
X160394Y74526D01*
X160387Y74519D01*
X160386Y74518D01*
X160385Y74518D01*
X160377Y74512D01*
X160370Y74506D01*
X160369Y74505D01*
X160368Y74504D01*
X160359Y74499D01*
X160351Y74493D01*
X160350Y74493D01*
X160349Y74492D01*
X160340Y74488D01*
X160331Y74483D01*
X160330Y74483D01*
X160329Y74482D01*
X160320Y74478D01*
X160311Y74474D01*
X160310Y74474D01*
X160309Y74474D01*
X160299Y74471D01*
X160290Y74467D01*
X160289Y74467D01*
X160288Y74467D01*
X160278Y74465D01*
X160268Y74463D01*
X160267Y74462D01*
X160266Y74462D01*
X160256Y74461D01*
X160246Y74459D01*
X160245Y74459D01*
X160244Y74459D01*
X160234Y74459D01*
X160224Y74458D01*
X160123Y74457D01*
X159825Y74436D01*
X159825Y74436D01*
X159822Y74434D01*
X159818Y74430D01*
X159814Y74427D01*
X159810Y74423D01*
X159806Y74420D01*
X159801Y74416D01*
X159797Y74413D01*
X159793Y74410D01*
X159788Y74406D01*
X159783Y74403D01*
X159778Y74401D01*
X159774Y74398D01*
X159769Y74395D01*
X159763Y74392D01*
X159759Y74390D01*
X159754Y74388D01*
X159749Y74385D01*
X159743Y74383D01*
X159738Y74381D01*
X159734Y74379D01*
X159728Y74377D01*
X159722Y74375D01*
X159717Y74374D01*
X159713Y74372D01*
X159707Y74371D01*
X159701Y74370D01*
X159696Y74369D01*
X159691Y74368D01*
X159685Y74367D01*
X159679Y74366D01*
X159674Y74365D01*
X159669Y74365D01*
X159663Y74365D01*
X159657Y74364D01*
X159652Y74364D01*
X159647Y74364D01*
X159641Y74364D01*
X159635Y74364D01*
X159630Y74365D01*
X159625Y74365D01*
X159619Y74366D01*
X159613Y74366D01*
X159608Y74367D01*
X159603Y74368D01*
X159597Y74369D01*
X159591Y74370D01*
X159586Y74371D01*
X159581Y74372D01*
X159575Y74374D01*
X159569Y74376D01*
X159565Y74378D01*
X159560Y74379D01*
X159554Y74382D01*
X159549Y74384D01*
X159544Y74386D01*
X159540Y74388D01*
X159534Y74390D01*
X159529Y74393D01*
X159524Y74396D01*
X159520Y74398D01*
X159515Y74401D01*
X159509Y74404D01*
X159505Y74407D01*
X159501Y74410D01*
X159496Y74413D01*
X159491Y74417D01*
X159487Y74420D01*
X159484Y74423D01*
X159479Y74427D01*
X159474Y74431D01*
X159471Y74435D01*
X159467Y74438D01*
X159463Y74443D01*
X159459Y74447D01*
X159456Y74451D01*
X159452Y74455D01*
X159448Y74459D01*
X159445Y74464D01*
X159442Y74468D01*
X159439Y74472D01*
X159435Y74477D01*
X159432Y74482D01*
X159429Y74487D01*
X159427Y74491D01*
X159424Y74496D01*
X159421Y74502D01*
X159419Y74506D01*
X159417Y74511D01*
X159414Y74516D01*
X159412Y74522D01*
X159410Y74526D01*
X159408Y74531D01*
X159406Y74537D01*
X159404Y74543D01*
X159403Y74548D01*
X159401Y74552D01*
X159400Y74558D01*
X159398Y74564D01*
X159398Y74569D01*
X159397Y74574D01*
X159396Y74580D01*
X159395Y74586D01*
X159394Y74591D01*
X159394Y74596D01*
X159393Y74602D01*
X159393Y74608D01*
X159393Y74613D01*
X159393Y74618D01*
Y75575D01*
X159393Y75584D01*
X159393Y75593D01*
X159394Y75595D01*
X159394Y75597D01*
X159395Y75606D01*
X159396Y75615D01*
X159396Y75617D01*
X159397Y75619D01*
X159398Y75628D01*
X159400Y75636D01*
X159401Y75639D01*
X159401Y75641D01*
X159404Y75649D01*
X159407Y75658D01*
X159407Y75660D01*
X159408Y75662D01*
X159411Y75670D01*
X159415Y75678D01*
X159416Y75680D01*
X159417Y75682D01*
X159421Y75690D01*
X159425Y75698D01*
X159426Y75700D01*
X159427Y75702D01*
X159432Y75710D01*
X159436Y75717D01*
X159437Y75719D01*
X159439Y75721D01*
X159444Y75728D01*
X159449Y75735D01*
X159451Y75737D01*
X159452Y75738D01*
X159458Y75745D01*
X159464Y75752D01*
X159466Y75753D01*
X159467Y75755D01*
X159474Y75761D01*
X159480Y75767D01*
X159482Y75768D01*
X159484Y75770D01*
X159491Y75775D01*
X159497Y75781D01*
X159499Y75782D01*
X159501Y75783D01*
X159509Y75788D01*
X159516Y75793D01*
X159518Y75794D01*
X159520Y75795D01*
X159528Y75799D01*
X159535Y75803D01*
X159538Y75804D01*
X159540Y75805D01*
X159548Y75809D01*
X159556Y75812D01*
X159558Y75813D01*
X159560Y75814D01*
X159568Y75817D01*
X159577Y75819D01*
X159579Y75820D01*
X159581Y75821D01*
X159590Y75822D01*
X159598Y75825D01*
X159601Y75825D01*
X159603Y75825D01*
X159612Y75827D01*
X159620Y75828D01*
X159623Y75828D01*
X159625Y75828D01*
X159634Y75829D01*
X159642Y75829D01*
X159645Y75829D01*
X159647Y75829D01*
X159656Y75829D01*
D02*
G37*
G36*
X97875Y75730D02*
X97886Y75730D01*
X97886Y75730D01*
X97887Y75730D01*
X97897Y75728D01*
X97908Y75727D01*
X97908Y75727D01*
X97909Y75727D01*
X97919Y75725D01*
X97929Y75722D01*
X97930Y75722D01*
X97930Y75722D01*
X97940Y75719D01*
X97950Y75716D01*
X97951Y75716D01*
X97952Y75715D01*
X97962Y75711D01*
X97971Y75707D01*
X97972Y75707D01*
X97972Y75707D01*
X97982Y75702D01*
X97991Y75697D01*
X97991Y75697D01*
X97992Y75697D01*
X98001Y75691D01*
X98009Y75685D01*
X98052Y75656D01*
X98089Y75635D01*
X98132Y75615D01*
X98181Y75597D01*
X98236Y75581D01*
X98297Y75567D01*
X98361Y75557D01*
X98519Y75543D01*
X98607Y75542D01*
X98615Y75541D01*
X98624Y75541D01*
X98626Y75540D01*
X98629Y75540D01*
X98637Y75539D01*
X98646Y75538D01*
X98648Y75537D01*
X98651Y75537D01*
X98659Y75535D01*
X98667Y75533D01*
X98670Y75532D01*
X98672Y75532D01*
X98680Y75529D01*
X98689Y75526D01*
X98691Y75525D01*
X98693Y75525D01*
X98701Y75521D01*
X98709Y75518D01*
X98711Y75517D01*
X98714Y75516D01*
X98721Y75512D01*
X98729Y75508D01*
X98731Y75506D01*
X98733Y75505D01*
X98740Y75500D01*
X98747Y75496D01*
X98749Y75494D01*
X98752Y75493D01*
X98758Y75488D01*
X98765Y75482D01*
X98767Y75481D01*
X98769Y75479D01*
X98775Y75473D01*
X98781Y75467D01*
X98783Y75465D01*
X98785Y75464D01*
X98791Y75457D01*
X98796Y75451D01*
X98798Y75449D01*
X98800Y75447D01*
X98805Y75440D01*
X98810Y75433D01*
X98811Y75431D01*
X98813Y75429D01*
X98817Y75422D01*
X98822Y75415D01*
X98823Y75412D01*
X98824Y75410D01*
X98828Y75403D01*
X98832Y75395D01*
X98833Y75393D01*
X98834Y75390D01*
X98837Y75382D01*
X98841Y75374D01*
X98841Y75372D01*
X98842Y75370D01*
X98845Y75361D01*
X98847Y75353D01*
X98848Y75351D01*
X98848Y75348D01*
X98850Y75340D01*
X98852Y75332D01*
X98852Y75329D01*
X98853Y75327D01*
X98854Y75318D01*
X98855Y75310D01*
X98855Y75307D01*
X98855Y75305D01*
X98855Y75296D01*
X98856Y75287D01*
Y74713D01*
X98855Y74704D01*
X98855Y74695D01*
X98855Y74693D01*
X98855Y74690D01*
X98854Y74682D01*
X98853Y74673D01*
X98852Y74671D01*
X98852Y74668D01*
X98850Y74660D01*
X98848Y74652D01*
X98848Y74649D01*
X98847Y74647D01*
X98845Y74639D01*
X98842Y74630D01*
X98841Y74628D01*
X98841Y74626D01*
X98837Y74618D01*
X98834Y74610D01*
X98833Y74607D01*
X98832Y74605D01*
X98828Y74597D01*
X98824Y74590D01*
X98823Y74588D01*
X98822Y74585D01*
X98817Y74578D01*
X98813Y74571D01*
X98811Y74569D01*
X98810Y74567D01*
X98805Y74560D01*
X98800Y74553D01*
X98798Y74551D01*
X98796Y74549D01*
X98791Y74543D01*
X98785Y74536D01*
X98783Y74535D01*
X98781Y74533D01*
X98775Y74527D01*
X98769Y74521D01*
X98767Y74519D01*
X98765Y74518D01*
X98758Y74513D01*
X98752Y74507D01*
X98749Y74506D01*
X98747Y74504D01*
X98740Y74500D01*
X98733Y74495D01*
X98731Y74494D01*
X98729Y74492D01*
X98721Y74488D01*
X98714Y74484D01*
X98711Y74483D01*
X98709Y74482D01*
X98701Y74479D01*
X98693Y74475D01*
X98691Y74475D01*
X98689Y74474D01*
X98680Y74471D01*
X98672Y74468D01*
X98670Y74468D01*
X98667Y74467D01*
X98659Y74465D01*
X98651Y74463D01*
X98648Y74463D01*
X98646Y74462D01*
X98637Y74461D01*
X98629Y74460D01*
X98626Y74460D01*
X98624Y74459D01*
X98615Y74459D01*
X98607Y74458D01*
X98519Y74457D01*
X98361Y74443D01*
X98297Y74433D01*
X98236Y74419D01*
X98181Y74403D01*
X98132Y74385D01*
X98089Y74365D01*
X98052Y74344D01*
X98009Y74315D01*
X98001Y74309D01*
X97992Y74303D01*
X97991Y74303D01*
X97991Y74303D01*
X97982Y74298D01*
X97972Y74293D01*
X97972Y74293D01*
X97971Y74293D01*
X97962Y74289D01*
X97952Y74285D01*
X97951Y74284D01*
X97950Y74284D01*
X97940Y74281D01*
X97930Y74278D01*
X97930Y74278D01*
X97929Y74278D01*
X97919Y74275D01*
X97909Y74273D01*
X97908Y74273D01*
X97908Y74273D01*
X97897Y74272D01*
X97887Y74270D01*
X97886Y74270D01*
X97886Y74270D01*
X97875Y74270D01*
X97865Y74269D01*
X97864Y74269D01*
X97863Y74269D01*
X97853Y74270D01*
X97843Y74270D01*
X97842Y74270D01*
X97841Y74270D01*
X97831Y74272D01*
X97821Y74273D01*
X97820Y74273D01*
X97819Y74273D01*
X97809Y74276D01*
X97799Y74278D01*
X97798Y74278D01*
X97798Y74278D01*
X97788Y74281D01*
X97778Y74285D01*
X97777Y74285D01*
X97777Y74285D01*
X97767Y74289D01*
X97757Y74293D01*
X97757Y74293D01*
X97756Y74294D01*
X97747Y74298D01*
X97738Y74303D01*
X97737Y74304D01*
X97737Y74304D01*
X97728Y74310D01*
X97719Y74315D01*
X97718Y74316D01*
X97718Y74316D01*
X97710Y74322D01*
X97701Y74329D01*
X97701Y74329D01*
X97700Y74330D01*
X97693Y74336D01*
X97685Y74344D01*
X97684Y74344D01*
X97684Y74345D01*
X97677Y74352D01*
X97670Y74360D01*
X97670Y74361D01*
X97669Y74361D01*
X97663Y74369D01*
X97656Y74378D01*
X97656Y74378D01*
X97656Y74379D01*
X97650Y74387D01*
X97645Y74396D01*
X97644Y74397D01*
X97644Y74398D01*
X97639Y74407D01*
X97634Y74416D01*
X97634Y74417D01*
X97634Y74417D01*
X97630Y74426D01*
X97626Y74437D01*
X97626Y74437D01*
X97625Y74438D01*
X97622Y74448D01*
X97619Y74458D01*
X97619Y74458D01*
X97619Y74459D01*
X97617Y74469D01*
X97614Y74479D01*
X97614Y74480D01*
X97614Y74481D01*
X97613Y74491D01*
X97611Y74501D01*
X97611Y74502D01*
X97611Y74503D01*
X97611Y74513D01*
X97610Y74524D01*
Y75476D01*
X97611Y75487D01*
X97611Y75497D01*
X97611Y75498D01*
X97611Y75499D01*
X97613Y75509D01*
X97614Y75519D01*
X97614Y75520D01*
X97614Y75521D01*
X97617Y75530D01*
X97619Y75541D01*
X97619Y75542D01*
X97619Y75542D01*
X97622Y75552D01*
X97625Y75562D01*
X97626Y75563D01*
X97626Y75563D01*
X97630Y75573D01*
X97634Y75583D01*
X97634Y75583D01*
X97634Y75584D01*
X97639Y75593D01*
X97644Y75602D01*
X97644Y75603D01*
X97645Y75604D01*
X97650Y75612D01*
X97656Y75621D01*
X97656Y75622D01*
X97656Y75622D01*
X97663Y75631D01*
X97669Y75639D01*
X97670Y75639D01*
X97670Y75640D01*
X97677Y75648D01*
X97684Y75655D01*
X97684Y75656D01*
X97685Y75656D01*
X97693Y75664D01*
X97700Y75670D01*
X97701Y75671D01*
X97701Y75671D01*
X97710Y75678D01*
X97718Y75684D01*
X97718Y75684D01*
X97719Y75685D01*
X97728Y75690D01*
X97737Y75696D01*
X97737Y75696D01*
X97738Y75697D01*
X97747Y75701D01*
X97756Y75706D01*
X97757Y75707D01*
X97757Y75707D01*
X97767Y75711D01*
X97777Y75715D01*
X97777Y75715D01*
X97778Y75715D01*
X97788Y75719D01*
X97798Y75722D01*
X97798Y75722D01*
X97799Y75722D01*
X97809Y75724D01*
X97819Y75727D01*
X97820Y75727D01*
X97821Y75727D01*
X97831Y75728D01*
X97841Y75730D01*
X97842Y75730D01*
X97843Y75730D01*
X97853Y75730D01*
X97863Y75731D01*
X97864Y75731D01*
X97865Y75731D01*
X97875Y75730D01*
D02*
G37*
G36*
X103406Y75701D02*
X103416Y75700D01*
X103417Y75700D01*
X103419Y75700D01*
X103428Y75699D01*
X103438Y75698D01*
X103439Y75698D01*
X103441Y75697D01*
X103450Y75695D01*
X103460Y75693D01*
X103461Y75693D01*
X103463Y75693D01*
X103472Y75690D01*
X103481Y75687D01*
X103482Y75686D01*
X103484Y75686D01*
X103493Y75682D01*
X103501Y75679D01*
X103503Y75678D01*
X103504Y75677D01*
X103513Y75673D01*
X103521Y75669D01*
X103523Y75668D01*
X103524Y75667D01*
X103532Y75662D01*
X103540Y75657D01*
X103541Y75656D01*
X103543Y75655D01*
X103550Y75650D01*
X103558Y75644D01*
X103559Y75643D01*
X103560Y75642D01*
X103567Y75635D01*
X103574Y75629D01*
X103576Y75628D01*
X103577Y75627D01*
X103583Y75620D01*
X103590Y75613D01*
X103591Y75612D01*
X103592Y75610D01*
X103597Y75603D01*
X103603Y75595D01*
X103604Y75594D01*
X103605Y75593D01*
X103610Y75585D01*
X103615Y75577D01*
X103616Y75575D01*
X103617Y75574D01*
X103619Y75570D01*
X103651Y75563D01*
X103709Y75554D01*
X103781Y75548D01*
X103980Y75542D01*
X103987Y75541D01*
X103994Y75541D01*
X103998Y75540D01*
X104002Y75540D01*
X104009Y75539D01*
X104016Y75538D01*
X104020Y75537D01*
X104024Y75536D01*
X104031Y75535D01*
X104038Y75533D01*
X104041Y75532D01*
X104045Y75531D01*
X104052Y75529D01*
X104059Y75526D01*
X104063Y75525D01*
X104066Y75524D01*
X104073Y75521D01*
X104079Y75518D01*
X104083Y75516D01*
X104086Y75515D01*
X104093Y75511D01*
X104099Y75508D01*
X104102Y75506D01*
X104106Y75504D01*
X104112Y75500D01*
X104118Y75496D01*
X104121Y75493D01*
X104124Y75491D01*
X104130Y75487D01*
X104135Y75482D01*
X104138Y75480D01*
X104141Y75477D01*
X104146Y75472D01*
X104152Y75467D01*
X104154Y75464D01*
X104157Y75462D01*
X104162Y75456D01*
X104167Y75451D01*
X104169Y75448D01*
X104172Y75445D01*
X104176Y75439D01*
X104180Y75433D01*
X104182Y75430D01*
X104185Y75427D01*
X104188Y75421D01*
X104192Y75415D01*
X104194Y75411D01*
X104196Y75408D01*
X104199Y75401D01*
X104202Y75395D01*
X104204Y75391D01*
X104206Y75388D01*
X104208Y75381D01*
X104211Y75374D01*
X104212Y75371D01*
X104213Y75367D01*
X104215Y75360D01*
X104218Y75353D01*
X104218Y75349D01*
X104219Y75346D01*
X104221Y75339D01*
X104222Y75332D01*
X104223Y75328D01*
X104224Y75324D01*
X104224Y75317D01*
X104225Y75310D01*
X104225Y75306D01*
X104226Y75302D01*
X104226Y75295D01*
X104226Y75287D01*
Y74713D01*
X104226Y74703D01*
X104226Y74694D01*
X104225Y74692D01*
X104225Y74690D01*
X104224Y74681D01*
X104223Y74672D01*
X104223Y74670D01*
X104222Y74668D01*
X104220Y74659D01*
X104218Y74650D01*
X104218Y74648D01*
X104218Y74647D01*
X104215Y74638D01*
X104212Y74629D01*
X104211Y74627D01*
X104211Y74626D01*
X104207Y74617D01*
X104204Y74608D01*
X104203Y74607D01*
X104202Y74605D01*
X104198Y74597D01*
X104194Y74589D01*
X104193Y74587D01*
X104192Y74585D01*
X104187Y74578D01*
X104182Y74570D01*
X104181Y74568D01*
X104180Y74567D01*
X104175Y74559D01*
X104169Y74552D01*
X104168Y74551D01*
X104167Y74549D01*
X104160Y74542D01*
X104154Y74535D01*
X104153Y74534D01*
X104152Y74533D01*
X104145Y74527D01*
X104138Y74520D01*
X104137Y74519D01*
X104135Y74518D01*
X104128Y74512D01*
X104121Y74506D01*
X104119Y74505D01*
X104118Y74504D01*
X104110Y74499D01*
X104102Y74494D01*
X104101Y74493D01*
X104099Y74492D01*
X104091Y74488D01*
X104083Y74484D01*
X104081Y74483D01*
X104079Y74482D01*
X104071Y74479D01*
X104062Y74475D01*
X104061Y74474D01*
X104059Y74474D01*
X104050Y74471D01*
X104041Y74468D01*
X104040Y74467D01*
X104038Y74467D01*
X104029Y74465D01*
X104020Y74463D01*
X104018Y74463D01*
X104016Y74462D01*
X104007Y74461D01*
X103998Y74460D01*
X103996Y74459D01*
X103994Y74459D01*
X103985Y74459D01*
X103976Y74458D01*
X103873Y74457D01*
X103706Y74445D01*
X103651Y74437D01*
X103619Y74430D01*
X103617Y74426D01*
X103616Y74425D01*
X103615Y74423D01*
X103610Y74415D01*
X103605Y74407D01*
X103604Y74406D01*
X103603Y74405D01*
X103597Y74397D01*
X103592Y74390D01*
X103591Y74388D01*
X103590Y74387D01*
X103583Y74380D01*
X103577Y74373D01*
X103576Y74372D01*
X103574Y74371D01*
X103567Y74365D01*
X103560Y74358D01*
X103559Y74357D01*
X103558Y74356D01*
X103550Y74351D01*
X103543Y74345D01*
X103541Y74344D01*
X103540Y74343D01*
X103532Y74338D01*
X103524Y74333D01*
X103523Y74332D01*
X103521Y74331D01*
X103513Y74327D01*
X103504Y74323D01*
X103503Y74322D01*
X103501Y74321D01*
X103493Y74318D01*
X103484Y74314D01*
X103482Y74314D01*
X103481Y74313D01*
X103472Y74310D01*
X103463Y74307D01*
X103461Y74307D01*
X103460Y74307D01*
X103450Y74305D01*
X103441Y74303D01*
X103439Y74302D01*
X103438Y74302D01*
X103428Y74301D01*
X103419Y74300D01*
X103417Y74300D01*
X103416Y74300D01*
X103406Y74299D01*
X103397Y74299D01*
X103395Y74299D01*
X103394Y74299D01*
X103384Y74299D01*
X103375Y74300D01*
X103373Y74300D01*
X103371Y74300D01*
X103362Y74301D01*
X103353Y74303D01*
X103351Y74303D01*
X103350Y74303D01*
X103340Y74305D01*
X103331Y74307D01*
X103330Y74308D01*
X103328Y74308D01*
X103319Y74311D01*
X103310Y74314D01*
X103308Y74315D01*
X103307Y74315D01*
X103298Y74319D01*
X103289Y74323D01*
X103288Y74323D01*
X103287Y74324D01*
X103278Y74328D01*
X103270Y74333D01*
X103268Y74334D01*
X103267Y74335D01*
X103259Y74340D01*
X103251Y74345D01*
X103250Y74346D01*
X103248Y74347D01*
X103241Y74353D01*
X103234Y74358D01*
X103232Y74359D01*
X103231Y74360D01*
X103224Y74367D01*
X103217Y74373D01*
X103216Y74374D01*
X103215Y74376D01*
X103209Y74383D01*
X103202Y74390D01*
X103201Y74391D01*
X103200Y74392D01*
X103194Y74400D01*
X103189Y74407D01*
X103188Y74409D01*
X103187Y74410D01*
X103182Y74418D01*
X103177Y74426D01*
X103176Y74427D01*
X103175Y74429D01*
X103171Y74437D01*
X103167Y74446D01*
X103166Y74447D01*
X103165Y74449D01*
X103162Y74457D01*
X103158Y74466D01*
X103158Y74468D01*
X103157Y74469D01*
X103154Y74478D01*
X103151Y74487D01*
X103151Y74489D01*
X103151Y74490D01*
X103149Y74500D01*
X103147Y74509D01*
X103146Y74511D01*
X103146Y74512D01*
X103145Y74522D01*
X103144Y74531D01*
X103144Y74533D01*
X103143Y74534D01*
X103143Y74544D01*
X103143Y74553D01*
Y75447D01*
X103143Y75456D01*
X103143Y75466D01*
X103144Y75467D01*
X103144Y75469D01*
X103145Y75478D01*
X103146Y75488D01*
X103146Y75489D01*
X103147Y75491D01*
X103149Y75500D01*
X103151Y75510D01*
X103151Y75511D01*
X103151Y75513D01*
X103154Y75522D01*
X103157Y75531D01*
X103158Y75532D01*
X103158Y75534D01*
X103162Y75543D01*
X103165Y75551D01*
X103166Y75553D01*
X103167Y75554D01*
X103171Y75563D01*
X103175Y75571D01*
X103176Y75573D01*
X103177Y75574D01*
X103182Y75582D01*
X103187Y75590D01*
X103188Y75591D01*
X103189Y75593D01*
X103194Y75600D01*
X103200Y75608D01*
X103201Y75609D01*
X103202Y75610D01*
X103209Y75617D01*
X103215Y75624D01*
X103216Y75626D01*
X103217Y75627D01*
X103224Y75633D01*
X103231Y75640D01*
X103232Y75641D01*
X103234Y75642D01*
X103241Y75647D01*
X103248Y75653D01*
X103250Y75654D01*
X103251Y75655D01*
X103259Y75660D01*
X103267Y75665D01*
X103268Y75666D01*
X103270Y75667D01*
X103278Y75672D01*
X103287Y75676D01*
X103288Y75677D01*
X103289Y75677D01*
X103298Y75681D01*
X103307Y75685D01*
X103308Y75685D01*
X103310Y75686D01*
X103319Y75689D01*
X103328Y75692D01*
X103330Y75692D01*
X103331Y75693D01*
X103340Y75695D01*
X103350Y75697D01*
X103351Y75697D01*
X103353Y75697D01*
X103362Y75699D01*
X103371Y75700D01*
X103373Y75700D01*
X103375Y75700D01*
X103384Y75701D01*
X103394Y75701D01*
X103395Y75701D01*
X103397Y75701D01*
X103406Y75701D01*
D02*
G37*
G36*
X152106Y75701D02*
X152116Y75700D01*
X152117Y75700D01*
X152119Y75700D01*
X152128Y75699D01*
X152138Y75698D01*
X152139Y75698D01*
X152141Y75697D01*
X152150Y75695D01*
X152160Y75693D01*
X152161Y75693D01*
X152163Y75693D01*
X152172Y75690D01*
X152181Y75687D01*
X152182Y75686D01*
X152184Y75686D01*
X152193Y75682D01*
X152201Y75679D01*
X152203Y75678D01*
X152204Y75677D01*
X152213Y75673D01*
X152221Y75669D01*
X152223Y75668D01*
X152224Y75667D01*
X152232Y75662D01*
X152240Y75657D01*
X152241Y75656D01*
X152243Y75655D01*
X152250Y75650D01*
X152258Y75644D01*
X152259Y75643D01*
X152260Y75642D01*
X152267Y75635D01*
X152274Y75629D01*
X152275Y75628D01*
X152277Y75627D01*
X152283Y75620D01*
X152290Y75613D01*
X152291Y75612D01*
X152292Y75610D01*
X152297Y75603D01*
X152303Y75595D01*
X152304Y75594D01*
X152305Y75593D01*
X152310Y75585D01*
X152315Y75577D01*
X152316Y75575D01*
X152317Y75574D01*
X152319Y75570D01*
X152351Y75563D01*
X152409Y75554D01*
X152481Y75548D01*
X152680Y75542D01*
X152687Y75541D01*
X152694Y75541D01*
X152698Y75540D01*
X152702Y75540D01*
X152709Y75539D01*
X152716Y75538D01*
X152720Y75537D01*
X152724Y75536D01*
X152731Y75535D01*
X152738Y75533D01*
X152742Y75532D01*
X152745Y75531D01*
X152752Y75529D01*
X152759Y75526D01*
X152763Y75525D01*
X152766Y75524D01*
X152773Y75521D01*
X152779Y75518D01*
X152783Y75516D01*
X152786Y75515D01*
X152793Y75511D01*
X152799Y75508D01*
X152802Y75506D01*
X152806Y75504D01*
X152812Y75500D01*
X152818Y75496D01*
X152821Y75493D01*
X152824Y75491D01*
X152830Y75487D01*
X152835Y75482D01*
X152838Y75480D01*
X152841Y75477D01*
X152846Y75472D01*
X152852Y75467D01*
X152854Y75464D01*
X152857Y75462D01*
X152862Y75456D01*
X152867Y75451D01*
X152869Y75448D01*
X152872Y75445D01*
X152876Y75439D01*
X152880Y75433D01*
X152882Y75430D01*
X152885Y75427D01*
X152888Y75421D01*
X152892Y75415D01*
X152894Y75411D01*
X152896Y75408D01*
X152899Y75401D01*
X152902Y75395D01*
X152904Y75391D01*
X152906Y75388D01*
X152908Y75381D01*
X152911Y75374D01*
X152912Y75371D01*
X152913Y75367D01*
X152915Y75360D01*
X152918Y75353D01*
X152918Y75349D01*
X152919Y75346D01*
X152921Y75339D01*
X152922Y75332D01*
X152923Y75328D01*
X152924Y75324D01*
X152924Y75317D01*
X152925Y75310D01*
X152925Y75306D01*
X152926Y75302D01*
X152926Y75295D01*
X152926Y75287D01*
Y74713D01*
X152926Y74703D01*
X152926Y74694D01*
X152925Y74692D01*
X152925Y74690D01*
X152924Y74681D01*
X152923Y74672D01*
X152923Y74670D01*
X152922Y74668D01*
X152920Y74659D01*
X152918Y74650D01*
X152918Y74648D01*
X152918Y74647D01*
X152915Y74638D01*
X152912Y74629D01*
X152911Y74627D01*
X152911Y74626D01*
X152907Y74617D01*
X152904Y74608D01*
X152903Y74607D01*
X152902Y74605D01*
X152898Y74597D01*
X152894Y74589D01*
X152893Y74587D01*
X152892Y74585D01*
X152887Y74578D01*
X152882Y74570D01*
X152881Y74568D01*
X152880Y74567D01*
X152875Y74559D01*
X152869Y74552D01*
X152868Y74551D01*
X152867Y74549D01*
X152860Y74542D01*
X152854Y74535D01*
X152853Y74534D01*
X152852Y74533D01*
X152845Y74527D01*
X152838Y74520D01*
X152837Y74519D01*
X152835Y74518D01*
X152828Y74512D01*
X152821Y74506D01*
X152819Y74505D01*
X152818Y74504D01*
X152810Y74499D01*
X152802Y74494D01*
X152801Y74493D01*
X152799Y74492D01*
X152791Y74488D01*
X152783Y74484D01*
X152781Y74483D01*
X152779Y74482D01*
X152771Y74479D01*
X152762Y74475D01*
X152761Y74474D01*
X152759Y74474D01*
X152750Y74471D01*
X152741Y74468D01*
X152740Y74467D01*
X152738Y74467D01*
X152729Y74465D01*
X152720Y74463D01*
X152718Y74463D01*
X152716Y74462D01*
X152707Y74461D01*
X152698Y74460D01*
X152696Y74459D01*
X152694Y74459D01*
X152685Y74459D01*
X152676Y74458D01*
X152573Y74457D01*
X152406Y74445D01*
X152351Y74437D01*
X152319Y74430D01*
X152317Y74426D01*
X152316Y74425D01*
X152315Y74423D01*
X152310Y74415D01*
X152305Y74407D01*
X152304Y74406D01*
X152303Y74405D01*
X152297Y74397D01*
X152292Y74390D01*
X152291Y74388D01*
X152290Y74387D01*
X152283Y74380D01*
X152277Y74373D01*
X152275Y74372D01*
X152274Y74371D01*
X152267Y74365D01*
X152260Y74358D01*
X152259Y74357D01*
X152258Y74356D01*
X152250Y74351D01*
X152243Y74345D01*
X152241Y74344D01*
X152240Y74343D01*
X152232Y74338D01*
X152224Y74333D01*
X152223Y74332D01*
X152221Y74331D01*
X152213Y74327D01*
X152204Y74323D01*
X152203Y74322D01*
X152201Y74321D01*
X152193Y74318D01*
X152184Y74314D01*
X152182Y74314D01*
X152181Y74313D01*
X152172Y74310D01*
X152163Y74307D01*
X152161Y74307D01*
X152160Y74307D01*
X152150Y74305D01*
X152141Y74303D01*
X152139Y74302D01*
X152138Y74302D01*
X152128Y74301D01*
X152119Y74300D01*
X152117Y74300D01*
X152116Y74300D01*
X152106Y74299D01*
X152097Y74299D01*
X152095Y74299D01*
X152094Y74299D01*
X152084Y74299D01*
X152075Y74300D01*
X152073Y74300D01*
X152071Y74300D01*
X152062Y74301D01*
X152053Y74303D01*
X152051Y74303D01*
X152050Y74303D01*
X152040Y74305D01*
X152031Y74307D01*
X152030Y74308D01*
X152028Y74308D01*
X152019Y74311D01*
X152010Y74314D01*
X152008Y74315D01*
X152007Y74315D01*
X151998Y74319D01*
X151990Y74323D01*
X151988Y74323D01*
X151987Y74324D01*
X151978Y74328D01*
X151970Y74333D01*
X151968Y74334D01*
X151967Y74335D01*
X151959Y74340D01*
X151951Y74345D01*
X151950Y74346D01*
X151948Y74347D01*
X151941Y74353D01*
X151934Y74358D01*
X151932Y74359D01*
X151931Y74360D01*
X151924Y74367D01*
X151917Y74373D01*
X151916Y74374D01*
X151915Y74376D01*
X151909Y74383D01*
X151902Y74390D01*
X151901Y74391D01*
X151900Y74392D01*
X151894Y74400D01*
X151889Y74407D01*
X151888Y74409D01*
X151887Y74410D01*
X151882Y74418D01*
X151877Y74426D01*
X151876Y74427D01*
X151875Y74429D01*
X151871Y74437D01*
X151867Y74446D01*
X151866Y74447D01*
X151865Y74449D01*
X151862Y74457D01*
X151858Y74466D01*
X151858Y74468D01*
X151857Y74469D01*
X151854Y74478D01*
X151851Y74487D01*
X151851Y74489D01*
X151851Y74490D01*
X151849Y74500D01*
X151847Y74509D01*
X151846Y74511D01*
X151846Y74512D01*
X151845Y74522D01*
X151844Y74531D01*
X151844Y74533D01*
X151843Y74534D01*
X151843Y74544D01*
X151843Y74553D01*
Y75447D01*
X151843Y75456D01*
X151843Y75466D01*
X151844Y75467D01*
X151844Y75469D01*
X151845Y75478D01*
X151846Y75488D01*
X151846Y75489D01*
X151847Y75491D01*
X151849Y75500D01*
X151851Y75510D01*
X151851Y75511D01*
X151851Y75513D01*
X151854Y75522D01*
X151857Y75531D01*
X151858Y75532D01*
X151858Y75534D01*
X151862Y75543D01*
X151865Y75551D01*
X151866Y75553D01*
X151867Y75554D01*
X151871Y75563D01*
X151875Y75571D01*
X151876Y75573D01*
X151877Y75574D01*
X151882Y75582D01*
X151887Y75590D01*
X151888Y75591D01*
X151889Y75593D01*
X151894Y75600D01*
X151900Y75608D01*
X151901Y75609D01*
X151902Y75610D01*
X151909Y75617D01*
X151915Y75624D01*
X151916Y75626D01*
X151917Y75627D01*
X151924Y75633D01*
X151931Y75640D01*
X151932Y75641D01*
X151934Y75642D01*
X151941Y75647D01*
X151948Y75653D01*
X151950Y75654D01*
X151951Y75655D01*
X151959Y75660D01*
X151967Y75665D01*
X151968Y75666D01*
X151970Y75667D01*
X151978Y75671D01*
X151987Y75676D01*
X151988Y75677D01*
X151990Y75677D01*
X151998Y75681D01*
X152007Y75685D01*
X152008Y75685D01*
X152010Y75686D01*
X152019Y75689D01*
X152028Y75692D01*
X152030Y75692D01*
X152031Y75693D01*
X152040Y75695D01*
X152050Y75697D01*
X152051Y75697D01*
X152053Y75697D01*
X152062Y75699D01*
X152071Y75700D01*
X152073Y75700D01*
X152075Y75700D01*
X152084Y75701D01*
X152094Y75701D01*
X152095Y75701D01*
X152097Y75701D01*
X152106Y75701D01*
D02*
G37*
G36*
X125668D02*
X125678Y75700D01*
X125679Y75700D01*
X125681Y75700D01*
X125690Y75699D01*
X125700Y75698D01*
X125701Y75698D01*
X125703Y75697D01*
X125712Y75695D01*
X125722Y75693D01*
X125723Y75693D01*
X125725Y75693D01*
X125734Y75690D01*
X125743Y75687D01*
X125744Y75686D01*
X125746Y75686D01*
X125755Y75682D01*
X125763Y75679D01*
X125765Y75678D01*
X125766Y75677D01*
X125775Y75673D01*
X125783Y75669D01*
X125785Y75668D01*
X125786Y75667D01*
X125794Y75662D01*
X125802Y75657D01*
X125803Y75656D01*
X125805Y75655D01*
X125812Y75650D01*
X125820Y75644D01*
X125821Y75643D01*
X125822Y75642D01*
X125829Y75635D01*
X125836Y75629D01*
X125838Y75628D01*
X125839Y75627D01*
X125845Y75620D01*
X125852Y75613D01*
X125853Y75612D01*
X125854Y75610D01*
X125859Y75603D01*
X125865Y75595D01*
X125866Y75594D01*
X125867Y75593D01*
X125872Y75585D01*
X125877Y75577D01*
X125878Y75575D01*
X125879Y75574D01*
X125881Y75570D01*
X125913Y75563D01*
X125971Y75554D01*
X126043Y75548D01*
X126242Y75542D01*
X126249Y75541D01*
X126256Y75541D01*
X126260Y75540D01*
X126264Y75540D01*
X126271Y75539D01*
X126278Y75538D01*
X126282Y75537D01*
X126286Y75536D01*
X126293Y75535D01*
X126300Y75533D01*
X126303Y75532D01*
X126307Y75531D01*
X126314Y75529D01*
X126321Y75526D01*
X126325Y75525D01*
X126328Y75524D01*
X126335Y75521D01*
X126341Y75518D01*
X126345Y75516D01*
X126348Y75515D01*
X126355Y75511D01*
X126361Y75508D01*
X126364Y75506D01*
X126368Y75504D01*
X126374Y75500D01*
X126380Y75496D01*
X126383Y75493D01*
X126386Y75491D01*
X126392Y75487D01*
X126397Y75482D01*
X126400Y75480D01*
X126403Y75477D01*
X126408Y75472D01*
X126414Y75467D01*
X126416Y75464D01*
X126419Y75462D01*
X126424Y75456D01*
X126429Y75451D01*
X126431Y75448D01*
X126434Y75445D01*
X126438Y75439D01*
X126442Y75433D01*
X126444Y75430D01*
X126447Y75427D01*
X126450Y75421D01*
X126454Y75415D01*
X126456Y75411D01*
X126458Y75408D01*
X126461Y75401D01*
X126464Y75395D01*
X126466Y75391D01*
X126468Y75388D01*
X126470Y75381D01*
X126473Y75374D01*
X126474Y75371D01*
X126475Y75367D01*
X126477Y75360D01*
X126480Y75353D01*
X126480Y75349D01*
X126481Y75346D01*
X126483Y75339D01*
X126484Y75332D01*
X126485Y75328D01*
X126486Y75324D01*
X126486Y75317D01*
X126487Y75310D01*
X126487Y75306D01*
X126488Y75302D01*
X126488Y75295D01*
X126488Y75287D01*
Y74713D01*
X126488Y74703D01*
X126488Y74694D01*
X126487Y74692D01*
X126487Y74690D01*
X126486Y74681D01*
X126485Y74672D01*
X126485Y74670D01*
X126484Y74668D01*
X126482Y74659D01*
X126480Y74650D01*
X126480Y74648D01*
X126480Y74647D01*
X126477Y74638D01*
X126474Y74629D01*
X126473Y74627D01*
X126473Y74626D01*
X126469Y74617D01*
X126466Y74608D01*
X126465Y74607D01*
X126464Y74605D01*
X126460Y74597D01*
X126456Y74589D01*
X126455Y74587D01*
X126454Y74585D01*
X126449Y74578D01*
X126444Y74570D01*
X126443Y74568D01*
X126442Y74567D01*
X126437Y74559D01*
X126431Y74552D01*
X126430Y74551D01*
X126429Y74549D01*
X126422Y74542D01*
X126416Y74535D01*
X126415Y74534D01*
X126414Y74533D01*
X126407Y74527D01*
X126400Y74520D01*
X126399Y74519D01*
X126397Y74518D01*
X126390Y74512D01*
X126383Y74506D01*
X126381Y74505D01*
X126380Y74504D01*
X126372Y74499D01*
X126364Y74494D01*
X126363Y74493D01*
X126361Y74492D01*
X126353Y74488D01*
X126345Y74484D01*
X126343Y74483D01*
X126341Y74482D01*
X126333Y74479D01*
X126324Y74475D01*
X126323Y74474D01*
X126321Y74474D01*
X126312Y74471D01*
X126303Y74468D01*
X126302Y74467D01*
X126300Y74467D01*
X126291Y74465D01*
X126282Y74463D01*
X126280Y74463D01*
X126278Y74462D01*
X126269Y74461D01*
X126260Y74460D01*
X126258Y74459D01*
X126256Y74459D01*
X126247Y74459D01*
X126238Y74458D01*
X126210Y74458D01*
X126210Y74426D01*
X126210Y74417D01*
X126210Y74408D01*
X126210Y74406D01*
X126209Y74404D01*
X126208Y74395D01*
X126207Y74386D01*
X126207Y74384D01*
X126207Y74382D01*
X126205Y74373D01*
X126203Y74365D01*
X126202Y74362D01*
X126202Y74360D01*
X126199Y74352D01*
X126197Y74343D01*
X126196Y74341D01*
X126195Y74339D01*
X126192Y74331D01*
X126189Y74323D01*
X126188Y74321D01*
X126187Y74318D01*
X126183Y74311D01*
X126179Y74303D01*
X126178Y74301D01*
X126177Y74299D01*
X126172Y74291D01*
X126168Y74284D01*
X126166Y74282D01*
X126165Y74280D01*
X126160Y74273D01*
X126154Y74266D01*
X126153Y74264D01*
X126151Y74262D01*
X126146Y74256D01*
X126140Y74249D01*
X126138Y74248D01*
X126137Y74246D01*
X126130Y74240D01*
X126124Y74234D01*
X126122Y74232D01*
X126120Y74231D01*
X126113Y74226D01*
X126106Y74220D01*
X126105Y74219D01*
X126103Y74217D01*
X126095Y74213D01*
X126088Y74208D01*
X126086Y74207D01*
X126084Y74205D01*
X126076Y74201D01*
X126069Y74197D01*
X126066Y74196D01*
X126064Y74195D01*
X126056Y74192D01*
X126048Y74188D01*
X126046Y74187D01*
X126044Y74186D01*
X126036Y74184D01*
X126027Y74181D01*
X126025Y74180D01*
X126023Y74180D01*
X126014Y74178D01*
X126006Y74176D01*
X126003Y74175D01*
X126001Y74175D01*
X125993Y74174D01*
X125984Y74172D01*
X125981Y74172D01*
X125979Y74172D01*
X125971Y74171D01*
X125962Y74171D01*
X125959Y74171D01*
X125957Y74171D01*
X125948Y74171D01*
X125939Y74171D01*
X125937Y74172D01*
X125935Y74172D01*
X125926Y74173D01*
X125917Y74174D01*
X125915Y74174D01*
X125913Y74174D01*
X125905Y74176D01*
X125896Y74178D01*
X125893Y74179D01*
X125891Y74179D01*
X125883Y74182D01*
X125874Y74184D01*
X125872Y74185D01*
X125870Y74186D01*
X125862Y74189D01*
X125854Y74192D01*
X125852Y74193D01*
X125850Y74194D01*
X125842Y74198D01*
X125834Y74202D01*
X125832Y74203D01*
X125830Y74204D01*
X125822Y74209D01*
X125815Y74214D01*
X125813Y74215D01*
X125811Y74216D01*
X125804Y74221D01*
X125797Y74227D01*
X125795Y74228D01*
X125793Y74230D01*
X125787Y74236D01*
X125780Y74241D01*
X125779Y74243D01*
X125777Y74245D01*
X125771Y74251D01*
X125765Y74257D01*
X125764Y74259D01*
X125762Y74261D01*
X125757Y74268D01*
X125751Y74275D01*
X125750Y74277D01*
X125748Y74278D01*
X125744Y74286D01*
X125739Y74293D01*
X125738Y74295D01*
X125736Y74297D01*
X125732Y74305D01*
X125730Y74309D01*
X125725Y74307D01*
X125723Y74307D01*
X125722Y74307D01*
X125712Y74305D01*
X125703Y74303D01*
X125701Y74302D01*
X125700Y74302D01*
X125690Y74301D01*
X125681Y74300D01*
X125679Y74300D01*
X125678Y74300D01*
X125668Y74299D01*
X125659Y74299D01*
X125657Y74299D01*
X125656Y74299D01*
X125646Y74299D01*
X125637Y74300D01*
X125635Y74300D01*
X125633Y74300D01*
X125624Y74301D01*
X125615Y74303D01*
X125613Y74303D01*
X125612Y74303D01*
X125602Y74305D01*
X125593Y74307D01*
X125592Y74308D01*
X125590Y74308D01*
X125581Y74311D01*
X125572Y74314D01*
X125570Y74315D01*
X125569Y74315D01*
X125560Y74319D01*
X125551Y74323D01*
X125550Y74323D01*
X125549Y74324D01*
X125540Y74328D01*
X125532Y74333D01*
X125530Y74334D01*
X125529Y74335D01*
X125521Y74340D01*
X125513Y74345D01*
X125512Y74346D01*
X125510Y74347D01*
X125503Y74353D01*
X125496Y74358D01*
X125494Y74359D01*
X125493Y74360D01*
X125486Y74367D01*
X125479Y74373D01*
X125478Y74374D01*
X125477Y74376D01*
X125471Y74383D01*
X125464Y74390D01*
X125463Y74391D01*
X125462Y74392D01*
X125456Y74400D01*
X125451Y74407D01*
X125450Y74409D01*
X125449Y74410D01*
X125444Y74418D01*
X125439Y74426D01*
X125438Y74427D01*
X125437Y74429D01*
X125433Y74437D01*
X125429Y74446D01*
X125428Y74447D01*
X125427Y74449D01*
X125424Y74457D01*
X125371Y74458D01*
X125364Y74459D01*
X125356Y74459D01*
X125353Y74460D01*
X125349Y74460D01*
X125342Y74461D01*
X125334Y74462D01*
X125331Y74463D01*
X125327Y74463D01*
X125320Y74465D01*
X125312Y74467D01*
X125309Y74468D01*
X125306Y74469D01*
X125298Y74471D01*
X125291Y74474D01*
X125288Y74475D01*
X125285Y74476D01*
X125278Y74479D01*
X125271Y74482D01*
X125268Y74484D01*
X125265Y74485D01*
X125258Y74489D01*
X125251Y74492D01*
X125248Y74494D01*
X125245Y74496D01*
X125239Y74500D01*
X125232Y74504D01*
X125230Y74506D01*
X125227Y74508D01*
X125221Y74513D01*
X125215Y74518D01*
X125212Y74520D01*
X125210Y74522D01*
X125204Y74527D01*
X125198Y74533D01*
X125196Y74535D01*
X125194Y74537D01*
X125189Y74543D01*
X125183Y74549D01*
X125181Y74552D01*
X125179Y74554D01*
X125175Y74561D01*
X125170Y74567D01*
X125168Y74570D01*
X125166Y74572D01*
X125162Y74579D01*
X125158Y74585D01*
X125156Y74588D01*
X125155Y74591D01*
X125151Y74598D01*
X125148Y74605D01*
X125146Y74608D01*
X125145Y74611D01*
X125142Y74618D01*
X125139Y74626D01*
X125138Y74629D01*
X125137Y74632D01*
X125135Y74639D01*
X125132Y74647D01*
X125132Y74650D01*
X125131Y74653D01*
X125129Y74661D01*
X125128Y74668D01*
X125127Y74672D01*
X125127Y74675D01*
X125126Y74683D01*
X125125Y74690D01*
X125125Y74694D01*
X125124Y74697D01*
X125124Y74705D01*
X125124Y74713D01*
Y75287D01*
X125124Y75296D01*
X125124Y75305D01*
X125125Y75307D01*
X125125Y75310D01*
X125126Y75318D01*
X125127Y75327D01*
X125127Y75329D01*
X125128Y75332D01*
X125130Y75340D01*
X125131Y75349D01*
X125132Y75351D01*
X125132Y75353D01*
X125135Y75362D01*
X125138Y75370D01*
X125138Y75372D01*
X125139Y75374D01*
X125143Y75383D01*
X125146Y75391D01*
X125147Y75393D01*
X125148Y75395D01*
X125152Y75403D01*
X125156Y75411D01*
X125157Y75413D01*
X125158Y75415D01*
X125163Y75422D01*
X125167Y75429D01*
X125169Y75431D01*
X125170Y75433D01*
X125175Y75440D01*
X125180Y75447D01*
X125182Y75449D01*
X125183Y75451D01*
X125189Y75457D01*
X125195Y75464D01*
X125197Y75466D01*
X125198Y75467D01*
X125205Y75473D01*
X125211Y75479D01*
X125213Y75481D01*
X125215Y75482D01*
X125222Y75488D01*
X125228Y75493D01*
X125230Y75494D01*
X125232Y75496D01*
X125240Y75500D01*
X125247Y75505D01*
X125249Y75506D01*
X125251Y75508D01*
X125259Y75512D01*
X125266Y75516D01*
X125269Y75517D01*
X125271Y75518D01*
X125279Y75521D01*
X125287Y75525D01*
X125289Y75526D01*
X125291Y75526D01*
X125299Y75529D01*
X125308Y75532D01*
X125310Y75532D01*
X125312Y75533D01*
X125321Y75535D01*
X125329Y75537D01*
X125332Y75537D01*
X125334Y75538D01*
X125343Y75539D01*
X125351Y75540D01*
X125354Y75540D01*
X125356Y75541D01*
X125365Y75541D01*
X125373Y75542D01*
X125376Y75542D01*
X125378Y75542D01*
X125387Y75541D01*
X125396Y75541D01*
X125398Y75541D01*
X125400Y75541D01*
X125409Y75540D01*
X125418Y75539D01*
X125422Y75538D01*
X125424Y75543D01*
X125427Y75551D01*
X125428Y75553D01*
X125429Y75554D01*
X125433Y75563D01*
X125437Y75571D01*
X125438Y75573D01*
X125439Y75574D01*
X125444Y75582D01*
X125449Y75590D01*
X125450Y75591D01*
X125451Y75593D01*
X125456Y75600D01*
X125462Y75608D01*
X125463Y75609D01*
X125464Y75610D01*
X125471Y75617D01*
X125477Y75624D01*
X125478Y75626D01*
X125479Y75627D01*
X125486Y75633D01*
X125493Y75640D01*
X125494Y75641D01*
X125496Y75642D01*
X125503Y75647D01*
X125510Y75653D01*
X125512Y75654D01*
X125513Y75655D01*
X125521Y75660D01*
X125529Y75665D01*
X125530Y75666D01*
X125532Y75667D01*
X125540Y75671D01*
X125549Y75676D01*
X125550Y75677D01*
X125551Y75677D01*
X125560Y75681D01*
X125569Y75685D01*
X125570Y75685D01*
X125572Y75686D01*
X125581Y75689D01*
X125590Y75692D01*
X125592Y75692D01*
X125593Y75693D01*
X125602Y75695D01*
X125612Y75697D01*
X125613Y75697D01*
X125615Y75697D01*
X125624Y75699D01*
X125633Y75700D01*
X125635Y75700D01*
X125637Y75700D01*
X125646Y75701D01*
X125656Y75701D01*
X125657Y75701D01*
X125659Y75701D01*
X125668Y75701D01*
D02*
G37*
G36*
X116056D02*
X116066Y75700D01*
X116067Y75700D01*
X116069Y75700D01*
X116078Y75699D01*
X116088Y75698D01*
X116089Y75698D01*
X116091Y75697D01*
X116100Y75695D01*
X116110Y75693D01*
X116111Y75693D01*
X116113Y75693D01*
X116122Y75690D01*
X116131Y75687D01*
X116132Y75686D01*
X116134Y75686D01*
X116143Y75682D01*
X116151Y75679D01*
X116153Y75678D01*
X116154Y75677D01*
X116163Y75673D01*
X116171Y75669D01*
X116173Y75668D01*
X116174Y75667D01*
X116182Y75662D01*
X116190Y75657D01*
X116191Y75656D01*
X116193Y75655D01*
X116200Y75650D01*
X116208Y75644D01*
X116209Y75643D01*
X116210Y75642D01*
X116217Y75635D01*
X116224Y75629D01*
X116226Y75628D01*
X116227Y75627D01*
X116233Y75620D01*
X116240Y75613D01*
X116241Y75612D01*
X116242Y75610D01*
X116247Y75603D01*
X116253Y75595D01*
X116254Y75594D01*
X116255Y75593D01*
X116260Y75585D01*
X116265Y75577D01*
X116266Y75575D01*
X116267Y75574D01*
X116269Y75570D01*
X116301Y75563D01*
X116359Y75554D01*
X116431Y75548D01*
X116630Y75542D01*
X116637Y75541D01*
X116644Y75541D01*
X116648Y75540D01*
X116652Y75540D01*
X116659Y75539D01*
X116666Y75538D01*
X116670Y75537D01*
X116674Y75536D01*
X116681Y75535D01*
X116688Y75533D01*
X116691Y75532D01*
X116695Y75531D01*
X116702Y75529D01*
X116709Y75526D01*
X116713Y75525D01*
X116716Y75524D01*
X116723Y75521D01*
X116729Y75518D01*
X116733Y75516D01*
X116736Y75515D01*
X116743Y75511D01*
X116749Y75508D01*
X116752Y75506D01*
X116756Y75504D01*
X116762Y75500D01*
X116768Y75496D01*
X116771Y75493D01*
X116774Y75491D01*
X116780Y75487D01*
X116785Y75482D01*
X116788Y75480D01*
X116791Y75477D01*
X116796Y75472D01*
X116802Y75467D01*
X116804Y75464D01*
X116807Y75462D01*
X116812Y75456D01*
X116817Y75451D01*
X116819Y75448D01*
X116822Y75445D01*
X116826Y75439D01*
X116830Y75433D01*
X116832Y75430D01*
X116835Y75427D01*
X116838Y75421D01*
X116842Y75415D01*
X116844Y75411D01*
X116846Y75408D01*
X116849Y75401D01*
X116852Y75395D01*
X116854Y75391D01*
X116856Y75388D01*
X116858Y75381D01*
X116861Y75374D01*
X116862Y75371D01*
X116863Y75367D01*
X116865Y75360D01*
X116868Y75353D01*
X116868Y75349D01*
X116869Y75346D01*
X116871Y75339D01*
X116872Y75332D01*
X116873Y75328D01*
X116874Y75324D01*
X116874Y75317D01*
X116875Y75310D01*
X116875Y75306D01*
X116876Y75302D01*
X116876Y75295D01*
X116876Y75287D01*
Y74713D01*
X116876Y74703D01*
X116876Y74694D01*
X116875Y74692D01*
X116875Y74690D01*
X116874Y74681D01*
X116873Y74672D01*
X116873Y74670D01*
X116872Y74668D01*
X116870Y74659D01*
X116868Y74650D01*
X116868Y74648D01*
X116868Y74647D01*
X116865Y74638D01*
X116862Y74629D01*
X116861Y74627D01*
X116861Y74626D01*
X116857Y74617D01*
X116854Y74608D01*
X116853Y74607D01*
X116852Y74605D01*
X116848Y74597D01*
X116844Y74589D01*
X116843Y74587D01*
X116842Y74585D01*
X116837Y74577D01*
X116832Y74570D01*
X116831Y74568D01*
X116830Y74567D01*
X116825Y74559D01*
X116819Y74552D01*
X116818Y74551D01*
X116817Y74549D01*
X116810Y74542D01*
X116804Y74535D01*
X116803Y74534D01*
X116802Y74533D01*
X116795Y74527D01*
X116788Y74520D01*
X116787Y74519D01*
X116785Y74518D01*
X116778Y74512D01*
X116771Y74506D01*
X116769Y74505D01*
X116768Y74504D01*
X116760Y74499D01*
X116752Y74494D01*
X116751Y74493D01*
X116749Y74492D01*
X116741Y74488D01*
X116733Y74484D01*
X116731Y74483D01*
X116729Y74482D01*
X116721Y74479D01*
X116712Y74475D01*
X116711Y74474D01*
X116709Y74474D01*
X116700Y74471D01*
X116691Y74468D01*
X116690Y74467D01*
X116688Y74467D01*
X116679Y74465D01*
X116670Y74463D01*
X116668Y74463D01*
X116666Y74462D01*
X116657Y74461D01*
X116648Y74460D01*
X116646Y74459D01*
X116644Y74459D01*
X116635Y74459D01*
X116626Y74458D01*
X116523Y74457D01*
X116356Y74445D01*
X116301Y74437D01*
X116269Y74430D01*
X116267Y74426D01*
X116266Y74425D01*
X116265Y74423D01*
X116260Y74415D01*
X116255Y74407D01*
X116254Y74406D01*
X116253Y74405D01*
X116247Y74397D01*
X116242Y74390D01*
X116241Y74388D01*
X116240Y74387D01*
X116233Y74380D01*
X116227Y74373D01*
X116226Y74372D01*
X116224Y74371D01*
X116217Y74365D01*
X116210Y74358D01*
X116209Y74357D01*
X116208Y74356D01*
X116200Y74350D01*
X116193Y74345D01*
X116191Y74344D01*
X116190Y74343D01*
X116182Y74338D01*
X116174Y74333D01*
X116173Y74332D01*
X116171Y74331D01*
X116163Y74327D01*
X116154Y74323D01*
X116153Y74322D01*
X116151Y74321D01*
X116143Y74318D01*
X116134Y74314D01*
X116132Y74314D01*
X116131Y74313D01*
X116122Y74310D01*
X116113Y74307D01*
X116111Y74307D01*
X116110Y74307D01*
X116100Y74305D01*
X116091Y74303D01*
X116089Y74302D01*
X116088Y74302D01*
X116078Y74301D01*
X116069Y74300D01*
X116067Y74300D01*
X116066Y74300D01*
X116056Y74299D01*
X116047Y74299D01*
X116045Y74299D01*
X116044Y74299D01*
X116034Y74299D01*
X116025Y74300D01*
X116023Y74300D01*
X116021Y74300D01*
X116012Y74301D01*
X116003Y74303D01*
X116001Y74303D01*
X116000Y74303D01*
X115990Y74305D01*
X115981Y74307D01*
X115980Y74308D01*
X115978Y74308D01*
X115969Y74311D01*
X115960Y74314D01*
X115958Y74315D01*
X115957Y74315D01*
X115948Y74319D01*
X115939Y74323D01*
X115938Y74323D01*
X115937Y74324D01*
X115928Y74329D01*
X115920Y74333D01*
X115918Y74334D01*
X115917Y74335D01*
X115909Y74340D01*
X115901Y74345D01*
X115900Y74346D01*
X115898Y74347D01*
X115891Y74353D01*
X115884Y74358D01*
X115882Y74359D01*
X115881Y74360D01*
X115874Y74367D01*
X115867Y74373D01*
X115866Y74374D01*
X115865Y74376D01*
X115859Y74383D01*
X115852Y74390D01*
X115851Y74391D01*
X115850Y74392D01*
X115844Y74400D01*
X115839Y74407D01*
X115838Y74409D01*
X115837Y74410D01*
X115832Y74418D01*
X115827Y74426D01*
X115826Y74427D01*
X115825Y74429D01*
X115821Y74437D01*
X115817Y74446D01*
X115816Y74447D01*
X115815Y74449D01*
X115812Y74457D01*
X115808Y74466D01*
X115808Y74468D01*
X115807Y74469D01*
X115804Y74478D01*
X115801Y74487D01*
X115801Y74489D01*
X115801Y74490D01*
X115799Y74500D01*
X115797Y74509D01*
X115796Y74511D01*
X115796Y74512D01*
X115795Y74522D01*
X115794Y74531D01*
X115794Y74533D01*
X115793Y74534D01*
X115793Y74544D01*
X115793Y74553D01*
Y75447D01*
X115793Y75456D01*
X115793Y75466D01*
X115794Y75467D01*
X115794Y75469D01*
X115795Y75478D01*
X115796Y75488D01*
X115796Y75489D01*
X115797Y75491D01*
X115799Y75500D01*
X115801Y75510D01*
X115801Y75511D01*
X115801Y75513D01*
X115804Y75522D01*
X115807Y75531D01*
X115808Y75532D01*
X115808Y75534D01*
X115812Y75543D01*
X115815Y75551D01*
X115816Y75553D01*
X115817Y75554D01*
X115821Y75563D01*
X115825Y75571D01*
X115826Y75573D01*
X115827Y75574D01*
X115832Y75582D01*
X115837Y75590D01*
X115838Y75591D01*
X115839Y75593D01*
X115844Y75600D01*
X115850Y75608D01*
X115851Y75609D01*
X115852Y75610D01*
X115859Y75617D01*
X115865Y75624D01*
X115866Y75626D01*
X115867Y75627D01*
X115874Y75633D01*
X115881Y75640D01*
X115882Y75641D01*
X115884Y75642D01*
X115891Y75647D01*
X115898Y75653D01*
X115900Y75654D01*
X115901Y75655D01*
X115909Y75660D01*
X115917Y75665D01*
X115918Y75666D01*
X115920Y75667D01*
X115928Y75671D01*
X115937Y75676D01*
X115938Y75677D01*
X115939Y75677D01*
X115948Y75681D01*
X115957Y75685D01*
X115958Y75685D01*
X115960Y75686D01*
X115969Y75689D01*
X115978Y75692D01*
X115980Y75692D01*
X115981Y75693D01*
X115990Y75695D01*
X116000Y75697D01*
X116001Y75697D01*
X116003Y75697D01*
X116012Y75699D01*
X116021Y75700D01*
X116023Y75700D01*
X116025Y75700D01*
X116034Y75701D01*
X116044Y75701D01*
X116045Y75701D01*
X116047Y75701D01*
X116056Y75701D01*
D02*
G37*
G36*
X142266Y75571D02*
X142276Y75571D01*
X142277Y75570D01*
X142279Y75570D01*
X142288Y75569D01*
X142298Y75568D01*
X142299Y75568D01*
X142301Y75567D01*
X142310Y75565D01*
X142319Y75563D01*
X142321Y75563D01*
X142323Y75563D01*
X142332Y75560D01*
X142341Y75557D01*
X142342Y75556D01*
X142344Y75556D01*
X142350Y75553D01*
X142366Y75552D01*
X142545Y75544D01*
X142834Y75542D01*
X142844Y75541D01*
X142854Y75541D01*
X142855Y75541D01*
X142856Y75541D01*
X142866Y75539D01*
X142876Y75538D01*
X142877Y75538D01*
X142878Y75537D01*
X142888Y75535D01*
X142898Y75533D01*
X142899Y75533D01*
X142900Y75532D01*
X142909Y75529D01*
X142919Y75526D01*
X142920Y75526D01*
X142921Y75526D01*
X142930Y75522D01*
X142939Y75518D01*
X142940Y75517D01*
X142941Y75517D01*
X142950Y75512D01*
X142959Y75508D01*
X142960Y75507D01*
X142961Y75507D01*
X142969Y75501D01*
X142978Y75496D01*
X142979Y75495D01*
X142980Y75494D01*
X142988Y75488D01*
X142995Y75482D01*
X142996Y75481D01*
X142997Y75481D01*
X143004Y75474D01*
X143012Y75467D01*
X143013Y75466D01*
X143013Y75466D01*
X143020Y75458D01*
X143027Y75451D01*
X143027Y75450D01*
X143028Y75449D01*
X143034Y75441D01*
X143040Y75433D01*
X143041Y75432D01*
X143042Y75431D01*
X143047Y75423D01*
X143052Y75415D01*
X143053Y75414D01*
X143053Y75413D01*
X143058Y75404D01*
X143062Y75395D01*
X143063Y75394D01*
X143063Y75393D01*
X143067Y75384D01*
X143071Y75374D01*
X143071Y75373D01*
X143072Y75372D01*
X143075Y75363D01*
X143078Y75353D01*
X143078Y75352D01*
X143078Y75351D01*
X143080Y75341D01*
X143082Y75332D01*
X143082Y75330D01*
X143083Y75329D01*
X143084Y75320D01*
X143085Y75310D01*
X143085Y75309D01*
X143085Y75307D01*
X143086Y75297D01*
X143086Y75287D01*
Y74713D01*
X143086Y74708D01*
X143086Y74703D01*
X143086Y74697D01*
X143085Y74690D01*
X143085Y74686D01*
X143084Y74681D01*
X143083Y74675D01*
X143082Y74668D01*
X143081Y74664D01*
X143081Y74659D01*
X143079Y74653D01*
X143078Y74647D01*
X143076Y74642D01*
X143075Y74638D01*
X143073Y74632D01*
X143071Y74626D01*
X143069Y74621D01*
X143068Y74617D01*
X143065Y74611D01*
X143062Y74605D01*
X143060Y74601D01*
X143058Y74597D01*
X143055Y74591D01*
X143052Y74585D01*
X143050Y74582D01*
X143047Y74578D01*
X143044Y74572D01*
X143040Y74567D01*
X143037Y74563D01*
X143035Y74559D01*
X143031Y74554D01*
X143027Y74549D01*
X143024Y74546D01*
X143021Y74542D01*
X143016Y74538D01*
X143012Y74533D01*
X143008Y74530D01*
X143005Y74526D01*
X143000Y74522D01*
X142995Y74518D01*
X142992Y74515D01*
X142988Y74512D01*
X142983Y74508D01*
X142978Y74504D01*
X142974Y74502D01*
X142970Y74499D01*
X142965Y74496D01*
X142959Y74492D01*
X142955Y74490D01*
X142951Y74488D01*
X142945Y74485D01*
X142939Y74482D01*
X142935Y74480D01*
X142931Y74478D01*
X142925Y74476D01*
X142919Y74474D01*
X142915Y74472D01*
X142910Y74471D01*
X142904Y74469D01*
X142898Y74467D01*
X142893Y74466D01*
X142889Y74465D01*
X142882Y74464D01*
X142876Y74462D01*
X142872Y74462D01*
X142867Y74461D01*
X142861Y74460D01*
X142854Y74459D01*
X142850Y74459D01*
X142845Y74459D01*
X142270Y74429D01*
X142263Y74429D01*
X142257Y74429D01*
X142252Y74429D01*
X142248Y74429D01*
X142241Y74429D01*
X142235Y74430D01*
X142230Y74430D01*
X142226Y74431D01*
X142219Y74432D01*
X142213Y74433D01*
X142208Y74434D01*
X142204Y74434D01*
X142197Y74436D01*
X142191Y74437D01*
X142187Y74439D01*
X142182Y74440D01*
X142176Y74442D01*
X142170Y74444D01*
X142166Y74446D01*
X142161Y74447D01*
X142156Y74450D01*
X142150Y74453D01*
X142145Y74455D01*
X142141Y74457D01*
X142136Y74460D01*
X142130Y74463D01*
X142126Y74465D01*
X142122Y74468D01*
X142117Y74471D01*
X142111Y74475D01*
X142107Y74478D01*
X142104Y74480D01*
X142099Y74484D01*
X142094Y74488D01*
X142090Y74491D01*
X142087Y74494D01*
X142082Y74499D01*
X142077Y74503D01*
X142074Y74507D01*
X142071Y74510D01*
X142067Y74515D01*
X142062Y74520D01*
X142059Y74523D01*
X142056Y74527D01*
X142053Y74532D01*
X142049Y74537D01*
X142046Y74541D01*
X142044Y74545D01*
X142040Y74550D01*
X142037Y74556D01*
X142035Y74560D01*
X142032Y74564D01*
X142030Y74570D01*
X142027Y74576D01*
X142025Y74580D01*
X142023Y74584D01*
X142021Y74590D01*
X142018Y74596D01*
X142017Y74600D01*
X142015Y74605D01*
X142013Y74611D01*
X142011Y74617D01*
X142010Y74622D01*
X142009Y74626D01*
X142008Y74633D01*
X142007Y74639D01*
X142006Y74643D01*
X142005Y74648D01*
X142005Y74654D01*
X142004Y74661D01*
X142003Y74665D01*
X142003Y74670D01*
X142003Y74677D01*
X142003Y74683D01*
Y75317D01*
X142003Y75326D01*
X142003Y75336D01*
X142004Y75337D01*
X142004Y75339D01*
X142005Y75348D01*
X142006Y75358D01*
X142006Y75359D01*
X142007Y75361D01*
X142009Y75370D01*
X142010Y75379D01*
X142011Y75381D01*
X142011Y75383D01*
X142014Y75392D01*
X142017Y75401D01*
X142018Y75402D01*
X142018Y75404D01*
X142022Y75413D01*
X142025Y75421D01*
X142026Y75423D01*
X142027Y75424D01*
X142031Y75433D01*
X142035Y75441D01*
X142036Y75443D01*
X142037Y75444D01*
X142042Y75452D01*
X142047Y75460D01*
X142048Y75461D01*
X142049Y75463D01*
X142054Y75470D01*
X142060Y75478D01*
X142061Y75479D01*
X142062Y75480D01*
X142068Y75487D01*
X142075Y75494D01*
X142076Y75495D01*
X142077Y75497D01*
X142084Y75503D01*
X142091Y75509D01*
X142092Y75511D01*
X142094Y75512D01*
X142101Y75517D01*
X142108Y75523D01*
X142110Y75524D01*
X142111Y75525D01*
X142119Y75530D01*
X142127Y75535D01*
X142128Y75536D01*
X142130Y75537D01*
X142138Y75541D01*
X142146Y75546D01*
X142148Y75547D01*
X142150Y75547D01*
X142158Y75551D01*
X142167Y75555D01*
X142168Y75555D01*
X142170Y75556D01*
X142179Y75559D01*
X142188Y75562D01*
X142189Y75562D01*
X142191Y75563D01*
X142200Y75565D01*
X142209Y75567D01*
X142211Y75567D01*
X142213Y75567D01*
X142222Y75569D01*
X142231Y75570D01*
X142233Y75570D01*
X142235Y75570D01*
X142244Y75571D01*
X142253Y75571D01*
X142255Y75571D01*
X142257Y75571D01*
X142266Y75571D01*
D02*
G37*
G36*
X113855Y75701D02*
X113856Y75701D01*
X113866Y75701D01*
X113875Y75700D01*
X113877Y75700D01*
X113879Y75700D01*
X113888Y75699D01*
X113897Y75697D01*
X113899Y75697D01*
X113900Y75697D01*
X113910Y75695D01*
X113919Y75693D01*
X113920Y75692D01*
X113922Y75692D01*
X113931Y75689D01*
X113940Y75686D01*
X113942Y75685D01*
X113943Y75685D01*
X113952Y75681D01*
X113961Y75677D01*
X113962Y75677D01*
X113963Y75676D01*
X113972Y75671D01*
X113980Y75667D01*
X113982Y75666D01*
X113983Y75665D01*
X113991Y75660D01*
X113999Y75655D01*
X114000Y75654D01*
X114002Y75653D01*
X114009Y75647D01*
X114016Y75642D01*
X114018Y75641D01*
X114019Y75640D01*
X114026Y75633D01*
X114033Y75627D01*
X114034Y75626D01*
X114035Y75624D01*
X114041Y75617D01*
X114048Y75610D01*
X114049Y75609D01*
X114050Y75608D01*
X114056Y75600D01*
X114061Y75593D01*
X114062Y75591D01*
X114063Y75590D01*
X114068Y75582D01*
X114073Y75574D01*
X114074Y75573D01*
X114075Y75571D01*
X114079Y75563D01*
X114083Y75554D01*
X114084Y75553D01*
X114085Y75551D01*
X114088Y75543D01*
X114092Y75534D01*
X114092Y75532D01*
X114093Y75531D01*
X114096Y75522D01*
X114099Y75513D01*
X114099Y75511D01*
X114099Y75510D01*
X114101Y75500D01*
X114103Y75491D01*
X114104Y75489D01*
X114104Y75488D01*
X114105Y75478D01*
X114106Y75469D01*
X114106Y75467D01*
X114107Y75466D01*
X114107Y75456D01*
X114107Y75447D01*
Y74553D01*
X114107Y74544D01*
X114107Y74534D01*
X114106Y74533D01*
X114106Y74531D01*
X114105Y74522D01*
X114104Y74512D01*
X114104Y74511D01*
X114103Y74509D01*
X114101Y74500D01*
X114099Y74490D01*
X114099Y74489D01*
X114099Y74487D01*
X114096Y74478D01*
X114093Y74469D01*
X114092Y74468D01*
X114092Y74466D01*
X114088Y74457D01*
X114085Y74449D01*
X114084Y74447D01*
X114083Y74446D01*
X114079Y74437D01*
X114075Y74429D01*
X114074Y74427D01*
X114073Y74426D01*
X114068Y74418D01*
X114063Y74410D01*
X114062Y74409D01*
X114061Y74407D01*
X114056Y74400D01*
X114050Y74392D01*
X114049Y74391D01*
X114048Y74390D01*
X114041Y74383D01*
X114035Y74376D01*
X114034Y74374D01*
X114033Y74373D01*
X114026Y74367D01*
X114019Y74360D01*
X114018Y74359D01*
X114016Y74358D01*
X114009Y74353D01*
X114002Y74347D01*
X114000Y74346D01*
X113999Y74345D01*
X113991Y74340D01*
X113983Y74335D01*
X113982Y74334D01*
X113980Y74333D01*
X113972Y74328D01*
X113963Y74324D01*
X113962Y74323D01*
X113961Y74323D01*
X113952Y74319D01*
X113943Y74315D01*
X113942Y74315D01*
X113940Y74314D01*
X113931Y74311D01*
X113922Y74308D01*
X113920Y74308D01*
X113919Y74307D01*
X113910Y74305D01*
X113900Y74303D01*
X113899Y74303D01*
X113897Y74303D01*
X113888Y74301D01*
X113879Y74300D01*
X113877Y74300D01*
X113875Y74300D01*
X113866Y74299D01*
X113856Y74299D01*
X113855Y74299D01*
X113853Y74299D01*
X113844Y74299D01*
X113834Y74300D01*
X113833Y74300D01*
X113831Y74300D01*
X113822Y74301D01*
X113812Y74302D01*
X113811Y74302D01*
X113809Y74303D01*
X113800Y74305D01*
X113790Y74307D01*
X113789Y74307D01*
X113787Y74307D01*
X113778Y74310D01*
X113769Y74313D01*
X113768Y74314D01*
X113766Y74314D01*
X113757Y74318D01*
X113749Y74321D01*
X113747Y74322D01*
X113746Y74323D01*
X113737Y74327D01*
X113729Y74331D01*
X113727Y74332D01*
X113726Y74333D01*
X113718Y74338D01*
X113710Y74343D01*
X113709Y74344D01*
X113707Y74345D01*
X113700Y74351D01*
X113692Y74356D01*
X113691Y74357D01*
X113690Y74358D01*
X113683Y74365D01*
X113676Y74371D01*
X113674Y74372D01*
X113673Y74373D01*
X113667Y74380D01*
X113660Y74387D01*
X113659Y74388D01*
X113658Y74390D01*
X113653Y74397D01*
X113647Y74405D01*
X113646Y74406D01*
X113645Y74407D01*
X113640Y74415D01*
X113635Y74423D01*
X113634Y74425D01*
X113633Y74426D01*
X113631Y74430D01*
X113599Y74437D01*
X113541Y74446D01*
X113469Y74452D01*
X113283Y74458D01*
X112720Y74429D01*
X112713Y74429D01*
X112707Y74429D01*
X112702Y74429D01*
X112698Y74429D01*
X112691Y74429D01*
X112685Y74430D01*
X112680Y74430D01*
X112676Y74431D01*
X112669Y74432D01*
X112663Y74433D01*
X112658Y74434D01*
X112654Y74434D01*
X112647Y74436D01*
X112641Y74437D01*
X112637Y74439D01*
X112632Y74440D01*
X112626Y74442D01*
X112620Y74444D01*
X112616Y74446D01*
X112611Y74447D01*
X112606Y74450D01*
X112600Y74453D01*
X112595Y74455D01*
X112591Y74457D01*
X112586Y74460D01*
X112580Y74463D01*
X112576Y74465D01*
X112572Y74468D01*
X112567Y74471D01*
X112561Y74475D01*
X112558Y74478D01*
X112554Y74480D01*
X112549Y74484D01*
X112544Y74488D01*
X112540Y74491D01*
X112537Y74494D01*
X112532Y74499D01*
X112527Y74503D01*
X112524Y74507D01*
X112521Y74510D01*
X112517Y74515D01*
X112512Y74520D01*
X112509Y74523D01*
X112506Y74527D01*
X112503Y74532D01*
X112499Y74537D01*
X112496Y74541D01*
X112494Y74545D01*
X112490Y74550D01*
X112487Y74556D01*
X112485Y74560D01*
X112482Y74564D01*
X112480Y74570D01*
X112477Y74576D01*
X112475Y74580D01*
X112473Y74584D01*
X112471Y74590D01*
X112468Y74596D01*
X112467Y74600D01*
X112465Y74605D01*
X112463Y74611D01*
X112461Y74617D01*
X112460Y74622D01*
X112459Y74626D01*
X112458Y74633D01*
X112457Y74639D01*
X112456Y74643D01*
X112455Y74648D01*
X112455Y74654D01*
X112454Y74661D01*
X112453Y74665D01*
X112453Y74670D01*
X112453Y74677D01*
X112453Y74683D01*
Y75317D01*
X112453Y75326D01*
X112453Y75336D01*
X112454Y75337D01*
X112454Y75339D01*
X112455Y75348D01*
X112456Y75358D01*
X112456Y75359D01*
X112457Y75361D01*
X112459Y75370D01*
X112461Y75379D01*
X112461Y75381D01*
X112461Y75383D01*
X112464Y75392D01*
X112467Y75401D01*
X112468Y75402D01*
X112468Y75404D01*
X112472Y75413D01*
X112475Y75421D01*
X112476Y75423D01*
X112477Y75424D01*
X112481Y75433D01*
X112485Y75441D01*
X112486Y75443D01*
X112487Y75444D01*
X112492Y75452D01*
X112497Y75460D01*
X112498Y75461D01*
X112499Y75463D01*
X112504Y75470D01*
X112510Y75478D01*
X112511Y75479D01*
X112512Y75480D01*
X112518Y75487D01*
X112525Y75494D01*
X112526Y75495D01*
X112527Y75497D01*
X112534Y75503D01*
X112541Y75509D01*
X112542Y75511D01*
X112544Y75512D01*
X112551Y75517D01*
X112558Y75523D01*
X112560Y75524D01*
X112561Y75525D01*
X112569Y75530D01*
X112577Y75535D01*
X112578Y75536D01*
X112580Y75537D01*
X112588Y75541D01*
X112596Y75546D01*
X112598Y75547D01*
X112600Y75547D01*
X112608Y75551D01*
X112617Y75555D01*
X112618Y75555D01*
X112620Y75556D01*
X112629Y75559D01*
X112638Y75562D01*
X112640Y75562D01*
X112641Y75563D01*
X112650Y75565D01*
X112659Y75567D01*
X112661Y75567D01*
X112663Y75567D01*
X112672Y75569D01*
X112681Y75570D01*
X112683Y75570D01*
X112685Y75570D01*
X112694Y75571D01*
X112703Y75571D01*
X112705Y75571D01*
X112707Y75571D01*
X112716Y75571D01*
X112726Y75571D01*
X112727Y75570D01*
X112729Y75570D01*
X112738Y75569D01*
X112748Y75568D01*
X112749Y75568D01*
X112751Y75567D01*
X112760Y75565D01*
X112769Y75563D01*
X112771Y75563D01*
X112773Y75563D01*
X112782Y75560D01*
X112791Y75557D01*
X112792Y75556D01*
X112794Y75556D01*
X112800Y75553D01*
X112816Y75552D01*
X112995Y75544D01*
X113279Y75542D01*
X113377Y75543D01*
X113544Y75555D01*
X113599Y75563D01*
X113631Y75570D01*
X113633Y75574D01*
X113634Y75575D01*
X113635Y75577D01*
X113640Y75585D01*
X113645Y75593D01*
X113646Y75594D01*
X113647Y75595D01*
X113653Y75603D01*
X113658Y75610D01*
X113659Y75612D01*
X113660Y75613D01*
X113667Y75620D01*
X113673Y75627D01*
X113674Y75628D01*
X113676Y75629D01*
X113683Y75635D01*
X113690Y75642D01*
X113691Y75643D01*
X113692Y75644D01*
X113700Y75650D01*
X113707Y75655D01*
X113709Y75656D01*
X113710Y75657D01*
X113718Y75662D01*
X113726Y75667D01*
X113727Y75668D01*
X113729Y75669D01*
X113737Y75673D01*
X113746Y75677D01*
X113747Y75678D01*
X113749Y75679D01*
X113757Y75682D01*
X113766Y75686D01*
X113768Y75686D01*
X113769Y75687D01*
X113778Y75690D01*
X113787Y75693D01*
X113789Y75693D01*
X113790Y75693D01*
X113800Y75695D01*
X113809Y75697D01*
X113811Y75698D01*
X113812Y75698D01*
X113822Y75699D01*
X113831Y75700D01*
X113833Y75700D01*
X113834Y75700D01*
X113844Y75701D01*
X113853Y75701D01*
X113855Y75701D01*
D02*
G37*
G36*
X127431Y75541D02*
X127440Y75541D01*
X127442Y75541D01*
X127444Y75541D01*
X127453Y75540D01*
X127462Y75539D01*
X127464Y75538D01*
X127466Y75538D01*
X127475Y75536D01*
X127483Y75534D01*
X127486Y75534D01*
X127488Y75533D01*
X127496Y75530D01*
X127505Y75528D01*
X127507Y75527D01*
X127509Y75526D01*
X127517Y75523D01*
X127525Y75520D01*
X127527Y75519D01*
X127529Y75518D01*
X127537Y75514D01*
X127545Y75510D01*
X127547Y75509D01*
X127549Y75508D01*
X127557Y75503D01*
X127564Y75498D01*
X127566Y75497D01*
X127568Y75496D01*
X127575Y75490D01*
X127582Y75485D01*
X127584Y75484D01*
X127585Y75482D01*
X127592Y75476D01*
X127599Y75470D01*
X127600Y75469D01*
X127602Y75467D01*
X127608Y75461D01*
X127614Y75454D01*
X127615Y75453D01*
X127617Y75451D01*
X127622Y75444D01*
X127628Y75437D01*
X127629Y75435D01*
X127630Y75433D01*
X127635Y75426D01*
X127640Y75418D01*
X127641Y75416D01*
X127642Y75415D01*
X127646Y75407D01*
X127650Y75399D01*
X127651Y75397D01*
X127652Y75395D01*
X127656Y75387D01*
X127659Y75379D01*
X127660Y75377D01*
X127661Y75374D01*
X127664Y75366D01*
X127666Y75358D01*
X127667Y75355D01*
X127668Y75353D01*
X127669Y75345D01*
X127672Y75336D01*
X127672Y75334D01*
X127672Y75332D01*
X127673Y75323D01*
X127675Y75314D01*
X127675Y75312D01*
X127675Y75310D01*
X127676Y75301D01*
X127676Y75292D01*
X127676Y75290D01*
X127676Y75287D01*
Y74713D01*
X127676Y74705D01*
X127676Y74697D01*
X127675Y74694D01*
X127675Y74690D01*
X127674Y74683D01*
X127673Y74675D01*
X127673Y74672D01*
X127672Y74668D01*
X127671Y74661D01*
X127669Y74653D01*
X127668Y74650D01*
X127668Y74647D01*
X127665Y74639D01*
X127663Y74632D01*
X127662Y74629D01*
X127661Y74626D01*
X127658Y74618D01*
X127655Y74611D01*
X127654Y74608D01*
X127652Y74605D01*
X127649Y74598D01*
X127645Y74591D01*
X127644Y74588D01*
X127642Y74585D01*
X127638Y74579D01*
X127634Y74572D01*
X127632Y74570D01*
X127630Y74567D01*
X127625Y74561D01*
X127621Y74554D01*
X127619Y74552D01*
X127617Y74549D01*
X127611Y74543D01*
X127606Y74537D01*
X127604Y74535D01*
X127602Y74533D01*
X127596Y74527D01*
X127590Y74522D01*
X127588Y74520D01*
X127585Y74518D01*
X127579Y74513D01*
X127573Y74508D01*
X127570Y74506D01*
X127568Y74504D01*
X127561Y74500D01*
X127555Y74496D01*
X127552Y74494D01*
X127549Y74492D01*
X127542Y74489D01*
X127535Y74485D01*
X127532Y74484D01*
X127529Y74482D01*
X127522Y74479D01*
X127515Y74476D01*
X127512Y74475D01*
X127509Y74474D01*
X127502Y74471D01*
X127494Y74469D01*
X127491Y74468D01*
X127488Y74467D01*
X127480Y74465D01*
X127473Y74463D01*
X127469Y74463D01*
X127466Y74462D01*
X127458Y74461D01*
X127451Y74460D01*
X127447Y74460D01*
X127444Y74459D01*
X127436Y74459D01*
X127429Y74458D01*
X127327Y74456D01*
X127246Y74449D01*
X127181Y74438D01*
X127134Y74425D01*
X127104Y74413D01*
X127098Y74409D01*
X127097Y74397D01*
X127095Y74389D01*
X127094Y74380D01*
X127094Y74378D01*
X127093Y74375D01*
X127091Y74367D01*
X127089Y74358D01*
X127089Y74356D01*
X127088Y74354D01*
X127085Y74346D01*
X127082Y74337D01*
X127082Y74335D01*
X127081Y74333D01*
X127077Y74325D01*
X127074Y74317D01*
X127073Y74315D01*
X127072Y74313D01*
X127068Y74305D01*
X127064Y74297D01*
X127062Y74295D01*
X127061Y74293D01*
X127056Y74286D01*
X127052Y74278D01*
X127050Y74277D01*
X127049Y74275D01*
X127043Y74268D01*
X127038Y74261D01*
X127036Y74259D01*
X127035Y74257D01*
X127029Y74251D01*
X127023Y74245D01*
X127021Y74243D01*
X127020Y74241D01*
X127013Y74236D01*
X127007Y74230D01*
X127005Y74228D01*
X127003Y74227D01*
X126996Y74221D01*
X126989Y74216D01*
X126987Y74215D01*
X126985Y74214D01*
X126978Y74209D01*
X126970Y74204D01*
X126968Y74203D01*
X126966Y74202D01*
X126958Y74198D01*
X126950Y74194D01*
X126948Y74193D01*
X126946Y74192D01*
X126938Y74189D01*
X126930Y74186D01*
X126928Y74185D01*
X126926Y74184D01*
X126917Y74182D01*
X126909Y74179D01*
X126907Y74179D01*
X126904Y74178D01*
X126896Y74176D01*
X126887Y74174D01*
X126885Y74174D01*
X126883Y74174D01*
X126874Y74173D01*
X126865Y74172D01*
X126863Y74172D01*
X126861Y74171D01*
X126852Y74171D01*
X126843Y74171D01*
X126841Y74171D01*
X126838Y74171D01*
X126830Y74171D01*
X126821Y74172D01*
X126818Y74172D01*
X126816Y74172D01*
X126808Y74174D01*
X126799Y74175D01*
X126797Y74175D01*
X126794Y74176D01*
X126786Y74178D01*
X126777Y74180D01*
X126775Y74180D01*
X126773Y74181D01*
X126764Y74184D01*
X126756Y74186D01*
X126754Y74187D01*
X126752Y74188D01*
X126744Y74192D01*
X126736Y74195D01*
X126734Y74196D01*
X126731Y74197D01*
X126724Y74201D01*
X126716Y74205D01*
X126714Y74207D01*
X126712Y74208D01*
X126705Y74213D01*
X126697Y74217D01*
X126695Y74219D01*
X126694Y74220D01*
X126687Y74226D01*
X126680Y74231D01*
X126678Y74232D01*
X126676Y74234D01*
X126670Y74240D01*
X126663Y74246D01*
X126662Y74248D01*
X126660Y74249D01*
X126654Y74256D01*
X126648Y74262D01*
X126647Y74264D01*
X126646Y74266D01*
X126640Y74273D01*
X126635Y74280D01*
X126634Y74282D01*
X126633Y74284D01*
X126628Y74291D01*
X126623Y74299D01*
X126622Y74301D01*
X126621Y74303D01*
X126617Y74311D01*
X126613Y74318D01*
X126612Y74321D01*
X126611Y74323D01*
X126608Y74331D01*
X126605Y74339D01*
X126604Y74341D01*
X126603Y74343D01*
X126601Y74352D01*
X126598Y74360D01*
X126598Y74362D01*
X126597Y74365D01*
X126595Y74373D01*
X126593Y74382D01*
X126593Y74384D01*
X126593Y74386D01*
X126592Y74395D01*
X126591Y74404D01*
X126590Y74406D01*
X126590Y74408D01*
X126590Y74417D01*
X126590Y74426D01*
X126593Y75198D01*
X126593Y75205D01*
X126593Y75212D01*
X126594Y75216D01*
X126594Y75220D01*
X126595Y75227D01*
X126595Y75234D01*
X126596Y75238D01*
X126597Y75242D01*
X126598Y75249D01*
X126600Y75256D01*
X126601Y75260D01*
X126602Y75264D01*
X126604Y75271D01*
X126606Y75278D01*
X126612Y75295D01*
X126615Y75305D01*
X126619Y75315D01*
X126619Y75315D01*
X126620Y75315D01*
X126624Y75325D01*
X126629Y75334D01*
X126629Y75335D01*
X126629Y75335D01*
X126634Y75344D01*
X126640Y75354D01*
X126640Y75354D01*
X126641Y75354D01*
X126647Y75363D01*
X126653Y75372D01*
X126653Y75372D01*
X126654Y75372D01*
X126661Y75381D01*
X126668Y75388D01*
X126668Y75389D01*
X126668Y75389D01*
X126676Y75396D01*
X126683Y75404D01*
X126701Y75419D01*
X126703Y75421D01*
X126706Y75423D01*
X126712Y75428D01*
X126718Y75433D01*
X126721Y75435D01*
X126723Y75437D01*
X126730Y75441D01*
X126736Y75446D01*
X126739Y75447D01*
X126742Y75449D01*
X126749Y75453D01*
X126756Y75457D01*
X126758Y75458D01*
X126761Y75459D01*
X126790Y75473D01*
X126798Y75476D01*
X126806Y75480D01*
X126808Y75481D01*
X126811Y75482D01*
X126819Y75484D01*
X126827Y75487D01*
X126868Y75499D01*
X126868Y75499D01*
X126869Y75499D01*
X126879Y75502D01*
X126889Y75504D01*
X126890Y75504D01*
X126891Y75505D01*
X126943Y75515D01*
X126950Y75516D01*
X126958Y75517D01*
X127021Y75525D01*
X127029Y75526D01*
X127037Y75527D01*
X127198Y75538D01*
X127204Y75538D01*
X127211Y75538D01*
X127418Y75542D01*
X127420Y75542D01*
X127422Y75542D01*
X127431Y75541D01*
D02*
G37*
G36*
X106637Y75541D02*
X106646Y75541D01*
X106648Y75541D01*
X106650Y75541D01*
X106659Y75540D01*
X106668Y75539D01*
X107243Y75448D01*
X107244Y75448D01*
X107246Y75448D01*
X107255Y75446D01*
X107264Y75444D01*
X107266Y75443D01*
X107268Y75443D01*
X107277Y75440D01*
X107286Y75437D01*
X107287Y75437D01*
X107289Y75436D01*
X107298Y75433D01*
X107306Y75429D01*
X107308Y75428D01*
X107310Y75428D01*
X107318Y75424D01*
X107326Y75419D01*
X107328Y75418D01*
X107329Y75418D01*
X107337Y75413D01*
X107345Y75408D01*
X107347Y75407D01*
X107348Y75406D01*
X107355Y75400D01*
X107363Y75395D01*
X107364Y75393D01*
X107366Y75392D01*
X107373Y75386D01*
X107380Y75380D01*
X107381Y75379D01*
X107382Y75377D01*
X107388Y75371D01*
X107395Y75364D01*
X107396Y75362D01*
X107397Y75361D01*
X107403Y75354D01*
X107409Y75347D01*
X107410Y75345D01*
X107411Y75344D01*
X107416Y75336D01*
X107421Y75328D01*
X107422Y75326D01*
X107423Y75325D01*
X107427Y75317D01*
X107431Y75309D01*
X107432Y75307D01*
X107433Y75305D01*
X107437Y75297D01*
X107440Y75288D01*
X107441Y75287D01*
X107442Y75285D01*
X107444Y75276D01*
X107447Y75267D01*
X107448Y75265D01*
X107448Y75264D01*
X107450Y75255D01*
X107453Y75246D01*
X107453Y75244D01*
X107453Y75242D01*
X107454Y75233D01*
X107456Y75224D01*
X107456Y75222D01*
X107456Y75220D01*
X107457Y75211D01*
X107457Y75202D01*
X107457Y75200D01*
X107457Y75198D01*
X107460Y74426D01*
X107460Y74417D01*
X107460Y74408D01*
X107460Y74406D01*
X107459Y74404D01*
X107458Y74395D01*
X107457Y74386D01*
X107457Y74384D01*
X107457Y74382D01*
X107455Y74373D01*
X107453Y74365D01*
X107452Y74362D01*
X107452Y74360D01*
X107449Y74352D01*
X107447Y74343D01*
X107446Y74341D01*
X107445Y74339D01*
X107442Y74331D01*
X107439Y74323D01*
X107438Y74321D01*
X107437Y74318D01*
X107433Y74311D01*
X107429Y74303D01*
X107428Y74301D01*
X107427Y74299D01*
X107422Y74291D01*
X107418Y74284D01*
X107416Y74282D01*
X107415Y74280D01*
X107410Y74273D01*
X107404Y74266D01*
X107403Y74264D01*
X107401Y74262D01*
X107396Y74256D01*
X107390Y74249D01*
X107388Y74248D01*
X107387Y74246D01*
X107380Y74240D01*
X107374Y74234D01*
X107372Y74232D01*
X107370Y74231D01*
X107363Y74226D01*
X107356Y74220D01*
X107355Y74219D01*
X107353Y74217D01*
X107345Y74213D01*
X107338Y74208D01*
X107336Y74207D01*
X107334Y74205D01*
X107326Y74201D01*
X107319Y74197D01*
X107316Y74196D01*
X107314Y74195D01*
X107306Y74192D01*
X107298Y74188D01*
X107296Y74187D01*
X107294Y74186D01*
X107286Y74184D01*
X107277Y74181D01*
X107275Y74180D01*
X107273Y74180D01*
X107264Y74178D01*
X107256Y74176D01*
X107253Y74175D01*
X107251Y74175D01*
X107243Y74174D01*
X107234Y74172D01*
X107231Y74172D01*
X107229Y74172D01*
X107221Y74171D01*
X107212Y74171D01*
X107209Y74171D01*
X107207Y74171D01*
X107198Y74171D01*
X107189Y74171D01*
X107187Y74172D01*
X107185Y74172D01*
X107176Y74173D01*
X107167Y74174D01*
X107165Y74174D01*
X107163Y74174D01*
X107155Y74176D01*
X107146Y74178D01*
X107143Y74179D01*
X107141Y74179D01*
X107133Y74182D01*
X107124Y74184D01*
X107122Y74185D01*
X107120Y74186D01*
X107112Y74189D01*
X107104Y74192D01*
X107102Y74193D01*
X107100Y74194D01*
X107092Y74198D01*
X107084Y74202D01*
X107082Y74203D01*
X107080Y74204D01*
X107072Y74209D01*
X107065Y74214D01*
X107063Y74215D01*
X107061Y74216D01*
X107054Y74221D01*
X107047Y74227D01*
X107045Y74228D01*
X107043Y74230D01*
X107037Y74236D01*
X107030Y74241D01*
X107029Y74243D01*
X107027Y74245D01*
X107021Y74251D01*
X107015Y74257D01*
X107014Y74259D01*
X107012Y74261D01*
X107007Y74268D01*
X107001Y74275D01*
X107000Y74277D01*
X106998Y74278D01*
X106994Y74286D01*
X106989Y74293D01*
X106988Y74295D01*
X106986Y74297D01*
X106982Y74305D01*
X106978Y74313D01*
X106977Y74315D01*
X106976Y74317D01*
X106973Y74325D01*
X106969Y74333D01*
X106968Y74335D01*
X106968Y74337D01*
X106965Y74346D01*
X106962Y74354D01*
X106961Y74356D01*
X106961Y74358D01*
X106959Y74367D01*
X106957Y74375D01*
X106956Y74378D01*
X106956Y74380D01*
X106955Y74389D01*
X106953Y74397D01*
X106952Y74409D01*
X106946Y74413D01*
X106916Y74425D01*
X106869Y74438D01*
X106804Y74449D01*
X106723Y74456D01*
X106621Y74458D01*
X106614Y74459D01*
X106606Y74459D01*
X106603Y74460D01*
X106599Y74460D01*
X106592Y74461D01*
X106584Y74462D01*
X106581Y74463D01*
X106577Y74463D01*
X106570Y74465D01*
X106562Y74467D01*
X106559Y74468D01*
X106556Y74469D01*
X106549Y74471D01*
X106541Y74474D01*
X106538Y74475D01*
X106535Y74476D01*
X106528Y74479D01*
X106521Y74482D01*
X106518Y74484D01*
X106515Y74485D01*
X106508Y74489D01*
X106501Y74492D01*
X106498Y74494D01*
X106495Y74496D01*
X106489Y74500D01*
X106482Y74504D01*
X106480Y74506D01*
X106477Y74508D01*
X106471Y74513D01*
X106465Y74518D01*
X106462Y74520D01*
X106460Y74522D01*
X106454Y74527D01*
X106448Y74533D01*
X106446Y74535D01*
X106444Y74537D01*
X106439Y74543D01*
X106433Y74549D01*
X106431Y74552D01*
X106429Y74554D01*
X106425Y74561D01*
X106420Y74567D01*
X106418Y74570D01*
X106416Y74572D01*
X106412Y74579D01*
X106408Y74585D01*
X106406Y74588D01*
X106405Y74591D01*
X106401Y74598D01*
X106398Y74605D01*
X106396Y74608D01*
X106395Y74611D01*
X106392Y74618D01*
X106389Y74626D01*
X106388Y74629D01*
X106387Y74632D01*
X106385Y74639D01*
X106382Y74647D01*
X106382Y74650D01*
X106381Y74653D01*
X106379Y74661D01*
X106378Y74668D01*
X106377Y74672D01*
X106377Y74675D01*
X106376Y74683D01*
X106375Y74690D01*
X106375Y74694D01*
X106374Y74697D01*
X106374Y74705D01*
X106374Y74713D01*
Y75287D01*
X106374Y75296D01*
X106374Y75305D01*
X106375Y75307D01*
X106375Y75310D01*
X106376Y75318D01*
X106377Y75327D01*
X106377Y75329D01*
X106378Y75332D01*
X106380Y75340D01*
X106381Y75349D01*
X106382Y75351D01*
X106382Y75353D01*
X106385Y75362D01*
X106388Y75370D01*
X106388Y75372D01*
X106389Y75374D01*
X106393Y75383D01*
X106396Y75391D01*
X106397Y75393D01*
X106398Y75395D01*
X106402Y75403D01*
X106406Y75411D01*
X106407Y75413D01*
X106408Y75415D01*
X106413Y75422D01*
X106417Y75429D01*
X106419Y75431D01*
X106420Y75433D01*
X106425Y75440D01*
X106430Y75447D01*
X106432Y75449D01*
X106433Y75451D01*
X106439Y75457D01*
X106445Y75464D01*
X106447Y75466D01*
X106448Y75467D01*
X106455Y75473D01*
X106461Y75479D01*
X106463Y75481D01*
X106465Y75482D01*
X106472Y75488D01*
X106478Y75493D01*
X106480Y75494D01*
X106482Y75496D01*
X106490Y75500D01*
X106497Y75505D01*
X106499Y75506D01*
X106501Y75508D01*
X106509Y75512D01*
X106516Y75516D01*
X106519Y75517D01*
X106521Y75518D01*
X106529Y75521D01*
X106537Y75525D01*
X106539Y75526D01*
X106541Y75526D01*
X106549Y75529D01*
X106558Y75532D01*
X106560Y75532D01*
X106562Y75533D01*
X106571Y75535D01*
X106579Y75537D01*
X106582Y75537D01*
X106584Y75538D01*
X106593Y75539D01*
X106601Y75540D01*
X106604Y75540D01*
X106606Y75541D01*
X106615Y75541D01*
X106623Y75542D01*
X106626Y75542D01*
X106628Y75542D01*
X106637Y75541D01*
D02*
G37*
G36*
X121587Y75541D02*
X121596Y75541D01*
X121598Y75541D01*
X121600Y75541D01*
X121609Y75540D01*
X121618Y75539D01*
X122193Y75448D01*
X122194Y75448D01*
X122196Y75448D01*
X122205Y75446D01*
X122214Y75444D01*
X122216Y75443D01*
X122218Y75443D01*
X122227Y75440D01*
X122236Y75437D01*
X122237Y75437D01*
X122239Y75436D01*
X122248Y75433D01*
X122256Y75429D01*
X122258Y75428D01*
X122260Y75428D01*
X122268Y75424D01*
X122276Y75419D01*
X122278Y75418D01*
X122279Y75418D01*
X122287Y75413D01*
X122295Y75408D01*
X122297Y75407D01*
X122298Y75406D01*
X122305Y75400D01*
X122313Y75395D01*
X122314Y75393D01*
X122316Y75392D01*
X122323Y75386D01*
X122329Y75380D01*
X122331Y75379D01*
X122332Y75377D01*
X122338Y75371D01*
X122345Y75364D01*
X122346Y75362D01*
X122347Y75361D01*
X122353Y75354D01*
X122359Y75347D01*
X122360Y75345D01*
X122361Y75344D01*
X122366Y75336D01*
X122371Y75328D01*
X122372Y75326D01*
X122373Y75325D01*
X122377Y75317D01*
X122381Y75309D01*
X122382Y75307D01*
X122383Y75305D01*
X122387Y75297D01*
X122390Y75288D01*
X122391Y75287D01*
X122392Y75285D01*
X122394Y75276D01*
X122397Y75267D01*
X122398Y75265D01*
X122398Y75264D01*
X122400Y75255D01*
X122403Y75246D01*
X122403Y75244D01*
X122403Y75242D01*
X122404Y75233D01*
X122406Y75224D01*
X122406Y75222D01*
X122406Y75220D01*
X122407Y75211D01*
X122407Y75202D01*
X122407Y75200D01*
X122407Y75198D01*
X122410Y74426D01*
X122410Y74417D01*
X122410Y74408D01*
X122410Y74406D01*
X122409Y74404D01*
X122408Y74395D01*
X122407Y74386D01*
X122407Y74384D01*
X122407Y74382D01*
X122405Y74373D01*
X122403Y74365D01*
X122402Y74362D01*
X122402Y74360D01*
X122399Y74352D01*
X122397Y74343D01*
X122396Y74341D01*
X122395Y74339D01*
X122392Y74331D01*
X122389Y74323D01*
X122388Y74321D01*
X122387Y74318D01*
X122383Y74311D01*
X122379Y74303D01*
X122378Y74301D01*
X122377Y74299D01*
X122372Y74291D01*
X122367Y74284D01*
X122366Y74282D01*
X122365Y74280D01*
X122360Y74273D01*
X122354Y74266D01*
X122353Y74264D01*
X122352Y74262D01*
X122346Y74256D01*
X122340Y74249D01*
X122338Y74248D01*
X122337Y74246D01*
X122330Y74240D01*
X122324Y74234D01*
X122322Y74232D01*
X122320Y74231D01*
X122313Y74226D01*
X122306Y74220D01*
X122305Y74219D01*
X122303Y74217D01*
X122295Y74213D01*
X122288Y74208D01*
X122286Y74207D01*
X122284Y74205D01*
X122276Y74201D01*
X122269Y74197D01*
X122266Y74196D01*
X122264Y74195D01*
X122256Y74192D01*
X122248Y74188D01*
X122246Y74187D01*
X122244Y74186D01*
X122236Y74184D01*
X122227Y74181D01*
X122225Y74180D01*
X122223Y74180D01*
X122214Y74178D01*
X122206Y74176D01*
X122203Y74175D01*
X122201Y74175D01*
X122193Y74174D01*
X122184Y74172D01*
X122181Y74172D01*
X122179Y74172D01*
X122171Y74171D01*
X122162Y74171D01*
X122159Y74171D01*
X122157Y74171D01*
X122148Y74171D01*
X122139Y74171D01*
X122137Y74172D01*
X122135Y74172D01*
X122126Y74173D01*
X122117Y74174D01*
X122115Y74174D01*
X122113Y74174D01*
X122104Y74176D01*
X122096Y74178D01*
X122093Y74179D01*
X122091Y74179D01*
X122083Y74182D01*
X122074Y74184D01*
X122072Y74185D01*
X122070Y74186D01*
X122062Y74189D01*
X122054Y74192D01*
X122052Y74193D01*
X122050Y74194D01*
X122042Y74198D01*
X122034Y74202D01*
X122032Y74203D01*
X122030Y74204D01*
X122022Y74209D01*
X122015Y74214D01*
X122013Y74215D01*
X122011Y74216D01*
X122004Y74221D01*
X121997Y74227D01*
X121995Y74228D01*
X121993Y74230D01*
X121987Y74236D01*
X121980Y74241D01*
X121979Y74243D01*
X121977Y74245D01*
X121971Y74251D01*
X121965Y74257D01*
X121964Y74259D01*
X121962Y74261D01*
X121957Y74268D01*
X121951Y74275D01*
X121950Y74277D01*
X121948Y74278D01*
X121944Y74286D01*
X121939Y74293D01*
X121938Y74295D01*
X121936Y74297D01*
X121932Y74305D01*
X121928Y74313D01*
X121927Y74315D01*
X121926Y74317D01*
X121923Y74325D01*
X121919Y74333D01*
X121918Y74335D01*
X121918Y74337D01*
X121915Y74346D01*
X121912Y74354D01*
X121911Y74356D01*
X121911Y74358D01*
X121909Y74367D01*
X121907Y74375D01*
X121906Y74378D01*
X121906Y74380D01*
X121905Y74389D01*
X121903Y74397D01*
X121902Y74409D01*
X121896Y74413D01*
X121866Y74425D01*
X121819Y74438D01*
X121754Y74449D01*
X121673Y74456D01*
X121571Y74458D01*
X121564Y74459D01*
X121556Y74459D01*
X121553Y74460D01*
X121549Y74460D01*
X121542Y74461D01*
X121534Y74462D01*
X121531Y74463D01*
X121527Y74463D01*
X121520Y74465D01*
X121512Y74467D01*
X121509Y74468D01*
X121506Y74469D01*
X121498Y74471D01*
X121491Y74474D01*
X121488Y74475D01*
X121485Y74476D01*
X121478Y74479D01*
X121471Y74482D01*
X121468Y74484D01*
X121465Y74485D01*
X121458Y74489D01*
X121451Y74492D01*
X121448Y74494D01*
X121445Y74496D01*
X121439Y74500D01*
X121432Y74504D01*
X121430Y74506D01*
X121427Y74508D01*
X121421Y74513D01*
X121415Y74518D01*
X121412Y74520D01*
X121410Y74522D01*
X121404Y74527D01*
X121398Y74533D01*
X121396Y74535D01*
X121394Y74537D01*
X121388Y74543D01*
X121383Y74549D01*
X121381Y74552D01*
X121379Y74554D01*
X121375Y74561D01*
X121370Y74567D01*
X121368Y74569D01*
X121366Y74572D01*
X121362Y74579D01*
X121358Y74585D01*
X121356Y74588D01*
X121355Y74591D01*
X121351Y74598D01*
X121348Y74605D01*
X121346Y74608D01*
X121345Y74611D01*
X121342Y74618D01*
X121339Y74626D01*
X121338Y74629D01*
X121337Y74632D01*
X121335Y74639D01*
X121332Y74647D01*
X121332Y74650D01*
X121331Y74653D01*
X121329Y74661D01*
X121328Y74668D01*
X121327Y74672D01*
X121327Y74675D01*
X121326Y74683D01*
X121325Y74690D01*
X121325Y74694D01*
X121324Y74697D01*
X121324Y74705D01*
X121324Y74713D01*
Y75287D01*
X121324Y75296D01*
X121324Y75305D01*
X121325Y75307D01*
X121325Y75310D01*
X121326Y75318D01*
X121327Y75327D01*
X121327Y75329D01*
X121328Y75332D01*
X121330Y75340D01*
X121331Y75349D01*
X121332Y75351D01*
X121332Y75353D01*
X121335Y75362D01*
X121338Y75370D01*
X121338Y75372D01*
X121339Y75374D01*
X121343Y75383D01*
X121346Y75391D01*
X121347Y75393D01*
X121348Y75395D01*
X121352Y75403D01*
X121356Y75411D01*
X121357Y75413D01*
X121358Y75415D01*
X121363Y75422D01*
X121367Y75429D01*
X121369Y75431D01*
X121370Y75433D01*
X121375Y75440D01*
X121380Y75447D01*
X121382Y75449D01*
X121383Y75451D01*
X121389Y75457D01*
X121395Y75464D01*
X121397Y75466D01*
X121398Y75467D01*
X121405Y75473D01*
X121411Y75479D01*
X121413Y75481D01*
X121415Y75482D01*
X121422Y75488D01*
X121428Y75493D01*
X121430Y75494D01*
X121432Y75496D01*
X121440Y75500D01*
X121447Y75505D01*
X121449Y75506D01*
X121451Y75508D01*
X121459Y75512D01*
X121466Y75516D01*
X121469Y75517D01*
X121471Y75518D01*
X121479Y75521D01*
X121487Y75525D01*
X121489Y75526D01*
X121491Y75526D01*
X121499Y75529D01*
X121508Y75532D01*
X121510Y75532D01*
X121512Y75533D01*
X121521Y75535D01*
X121529Y75537D01*
X121532Y75537D01*
X121534Y75538D01*
X121543Y75539D01*
X121551Y75540D01*
X121554Y75540D01*
X121556Y75541D01*
X121565Y75541D01*
X121573Y75542D01*
X121576Y75542D01*
X121578Y75542D01*
X121587Y75541D01*
D02*
G37*
G36*
X156359Y75829D02*
X156361Y75829D01*
X156370Y75829D01*
X156379Y75828D01*
X156381Y75828D01*
X156384Y75828D01*
X156392Y75826D01*
X156401Y75825D01*
X156403Y75825D01*
X156406Y75824D01*
X156414Y75822D01*
X156423Y75820D01*
X156425Y75820D01*
X156427Y75819D01*
X156435Y75816D01*
X156444Y75814D01*
X156446Y75813D01*
X156448Y75812D01*
X156456Y75808D01*
X156464Y75805D01*
X156466Y75804D01*
X156468Y75803D01*
X156476Y75799D01*
X156484Y75795D01*
X156486Y75794D01*
X156488Y75792D01*
X156495Y75788D01*
X156503Y75783D01*
X156504Y75781D01*
X156506Y75780D01*
X156513Y75775D01*
X156520Y75769D01*
X156522Y75768D01*
X156524Y75766D01*
X156530Y75760D01*
X156536Y75754D01*
X156538Y75753D01*
X156540Y75751D01*
X156545Y75744D01*
X156551Y75738D01*
X156553Y75736D01*
X156554Y75734D01*
X156560Y75727D01*
X156565Y75720D01*
X156566Y75718D01*
X156567Y75716D01*
X156572Y75709D01*
X156577Y75701D01*
X156578Y75699D01*
X156579Y75697D01*
X156583Y75690D01*
X156587Y75682D01*
X156588Y75680D01*
X156589Y75678D01*
X156592Y75669D01*
X156595Y75661D01*
X156596Y75659D01*
X156597Y75657D01*
X156599Y75648D01*
X156602Y75640D01*
X156602Y75638D01*
X156603Y75636D01*
X156605Y75627D01*
X156607Y75618D01*
X156607Y75616D01*
X156607Y75614D01*
X156608Y75605D01*
X156609Y75596D01*
X156610Y75594D01*
X156610Y75592D01*
X156610Y75583D01*
X156610Y75574D01*
X156607Y74617D01*
X156607Y74613D01*
X156607Y74608D01*
X156607Y74602D01*
X156606Y74595D01*
X156606Y74591D01*
X156605Y74586D01*
X156604Y74580D01*
X156603Y74573D01*
X156602Y74569D01*
X156602Y74564D01*
X156600Y74558D01*
X156598Y74551D01*
X156597Y74547D01*
X156596Y74543D01*
X156594Y74537D01*
X156592Y74530D01*
X156590Y74526D01*
X156588Y74522D01*
X156586Y74516D01*
X156583Y74510D01*
X156581Y74506D01*
X156579Y74502D01*
X156576Y74496D01*
X156573Y74490D01*
X156570Y74486D01*
X156568Y74482D01*
X156564Y74477D01*
X156561Y74472D01*
X156558Y74468D01*
X156555Y74464D01*
X156551Y74459D01*
X156547Y74454D01*
X156544Y74451D01*
X156541Y74447D01*
X156537Y74442D01*
X156532Y74438D01*
X156529Y74435D01*
X156526Y74431D01*
X156521Y74427D01*
X156516Y74423D01*
X156512Y74420D01*
X156509Y74417D01*
X156503Y74413D01*
X156498Y74409D01*
X156494Y74407D01*
X156491Y74404D01*
X156485Y74401D01*
X156479Y74397D01*
X156475Y74395D01*
X156471Y74393D01*
X156466Y74390D01*
X156460Y74387D01*
X156456Y74386D01*
X156451Y74384D01*
X156445Y74381D01*
X156439Y74379D01*
X156435Y74377D01*
X156431Y74376D01*
X156424Y74374D01*
X156418Y74372D01*
X156414Y74371D01*
X156409Y74370D01*
X156403Y74369D01*
X156396Y74368D01*
X156392Y74367D01*
X156387Y74366D01*
X156381Y74366D01*
X156374Y74365D01*
X156370Y74365D01*
X156365Y74364D01*
X156359Y74364D01*
X156352Y74364D01*
X156348Y74364D01*
X156343Y74364D01*
X156337Y74365D01*
X156330Y74365D01*
X156326Y74365D01*
X156321Y74366D01*
X156315Y74367D01*
X156308Y74368D01*
X156304Y74369D01*
X156299Y74370D01*
X156293Y74371D01*
X156286Y74373D01*
X156282Y74374D01*
X156278Y74375D01*
X156272Y74377D01*
X156265Y74379D01*
X156261Y74381D01*
X156257Y74383D01*
X156251Y74385D01*
X156245Y74388D01*
X156241Y74390D01*
X156237Y74392D01*
X156231Y74395D01*
X156225Y74398D01*
X156221Y74401D01*
X156217Y74403D01*
X156212Y74407D01*
X156207Y74410D01*
X156203Y74413D01*
X156199Y74416D01*
X156194Y74420D01*
X156189Y74424D01*
X156186Y74427D01*
X156182Y74430D01*
X156178Y74434D01*
X156175Y74436D01*
X156167Y74438D01*
X156120Y74444D01*
X155974Y74455D01*
X155773Y74458D01*
X155765Y74459D01*
X155756Y74459D01*
X155754Y74460D01*
X155751Y74460D01*
X155743Y74461D01*
X155734Y74462D01*
X155732Y74463D01*
X155729Y74463D01*
X155721Y74465D01*
X155712Y74467D01*
X155710Y74468D01*
X155708Y74468D01*
X155699Y74471D01*
X155691Y74474D01*
X155689Y74474D01*
X155687Y74475D01*
X155679Y74479D01*
X155671Y74482D01*
X155669Y74483D01*
X155666Y74484D01*
X155659Y74488D01*
X155651Y74492D01*
X155649Y74494D01*
X155647Y74495D01*
X155640Y74500D01*
X155632Y74504D01*
X155630Y74506D01*
X155628Y74507D01*
X155622Y74512D01*
X155615Y74518D01*
X155613Y74519D01*
X155611Y74521D01*
X155605Y74527D01*
X155598Y74533D01*
X155597Y74534D01*
X155595Y74536D01*
X155589Y74543D01*
X155583Y74549D01*
X155582Y74551D01*
X155580Y74553D01*
X155575Y74560D01*
X155570Y74567D01*
X155569Y74569D01*
X155567Y74571D01*
X155563Y74578D01*
X155558Y74585D01*
X155557Y74587D01*
X155556Y74589D01*
X155552Y74597D01*
X155548Y74605D01*
X155547Y74607D01*
X155546Y74609D01*
X155542Y74617D01*
X155539Y74626D01*
X155538Y74628D01*
X155538Y74630D01*
X155535Y74638D01*
X155532Y74647D01*
X155532Y74649D01*
X155531Y74651D01*
X155530Y74660D01*
X155528Y74668D01*
X155527Y74671D01*
X155527Y74673D01*
X155526Y74682D01*
X155525Y74690D01*
X155525Y74693D01*
X155524Y74695D01*
X155524Y74704D01*
X155524Y74713D01*
Y75287D01*
X155524Y75295D01*
X155524Y75303D01*
X155525Y75306D01*
X155525Y75310D01*
X155526Y75317D01*
X155527Y75325D01*
X155527Y75328D01*
X155528Y75332D01*
X155529Y75339D01*
X155531Y75347D01*
X155532Y75350D01*
X155532Y75353D01*
X155535Y75361D01*
X155537Y75368D01*
X155538Y75371D01*
X155539Y75374D01*
X155542Y75382D01*
X155545Y75389D01*
X155546Y75392D01*
X155548Y75395D01*
X155551Y75402D01*
X155555Y75409D01*
X155556Y75412D01*
X155558Y75415D01*
X155562Y75421D01*
X155566Y75428D01*
X155568Y75431D01*
X155570Y75433D01*
X155575Y75439D01*
X155579Y75446D01*
X155581Y75448D01*
X155583Y75451D01*
X155589Y75457D01*
X155594Y75463D01*
X155596Y75465D01*
X155598Y75467D01*
X155604Y75473D01*
X155610Y75478D01*
X155612Y75480D01*
X155615Y75482D01*
X155621Y75487D01*
X155627Y75492D01*
X155630Y75494D01*
X155632Y75496D01*
X155639Y75500D01*
X155645Y75504D01*
X155648Y75506D01*
X155651Y75508D01*
X155658Y75511D01*
X155665Y75515D01*
X155668Y75516D01*
X155671Y75518D01*
X155678Y75521D01*
X155685Y75524D01*
X155688Y75525D01*
X155691Y75526D01*
X155699Y75529D01*
X155706Y75531D01*
X155709Y75532D01*
X155712Y75533D01*
X155720Y75535D01*
X155727Y75537D01*
X155731Y75537D01*
X155734Y75538D01*
X155742Y75539D01*
X155749Y75540D01*
X155753Y75540D01*
X155756Y75541D01*
X155764Y75541D01*
X155771Y75542D01*
X155873Y75544D01*
X155954Y75551D01*
X156019Y75562D01*
X156066Y75575D01*
X156096Y75587D01*
X156102Y75591D01*
X156103Y75603D01*
X156105Y75611D01*
X156106Y75620D01*
X156106Y75622D01*
X156107Y75624D01*
X156109Y75633D01*
X156111Y75642D01*
X156111Y75644D01*
X156112Y75646D01*
X156115Y75654D01*
X156117Y75663D01*
X156118Y75665D01*
X156119Y75667D01*
X156123Y75675D01*
X156126Y75683D01*
X156127Y75685D01*
X156128Y75687D01*
X156132Y75695D01*
X156136Y75703D01*
X156138Y75705D01*
X156139Y75707D01*
X156144Y75714D01*
X156148Y75721D01*
X156150Y75723D01*
X156151Y75725D01*
X156156Y75732D01*
X156162Y75739D01*
X156163Y75741D01*
X156165Y75743D01*
X156171Y75749D01*
X156177Y75755D01*
X156179Y75757D01*
X156180Y75759D01*
X156187Y75764D01*
X156193Y75770D01*
X156195Y75772D01*
X156197Y75773D01*
X156204Y75778D01*
X156211Y75784D01*
X156213Y75785D01*
X156215Y75786D01*
X156222Y75791D01*
X156230Y75796D01*
X156232Y75797D01*
X156234Y75798D01*
X156242Y75802D01*
X156249Y75806D01*
X156251Y75807D01*
X156254Y75808D01*
X156262Y75811D01*
X156270Y75814D01*
X156272Y75815D01*
X156274Y75816D01*
X156283Y75818D01*
X156291Y75821D01*
X156293Y75821D01*
X156296Y75822D01*
X156304Y75824D01*
X156313Y75826D01*
X156315Y75826D01*
X156317Y75826D01*
X156326Y75827D01*
X156335Y75828D01*
X156337Y75828D01*
X156339Y75829D01*
X156348Y75829D01*
X156357Y75829D01*
X156359Y75829D01*
D02*
G37*
G36*
X130205Y75701D02*
X130206Y75701D01*
X130216Y75701D01*
X130225Y75700D01*
X130227Y75700D01*
X130229Y75700D01*
X130238Y75699D01*
X130247Y75697D01*
X130249Y75697D01*
X130250Y75697D01*
X130260Y75695D01*
X130269Y75693D01*
X130270Y75692D01*
X130272Y75692D01*
X130281Y75689D01*
X130290Y75686D01*
X130292Y75685D01*
X130293Y75685D01*
X130302Y75681D01*
X130311Y75677D01*
X130312Y75677D01*
X130314Y75676D01*
X130322Y75672D01*
X130330Y75667D01*
X130332Y75666D01*
X130333Y75665D01*
X130341Y75660D01*
X130349Y75655D01*
X130350Y75654D01*
X130352Y75653D01*
X130359Y75647D01*
X130366Y75642D01*
X130368Y75641D01*
X130369Y75640D01*
X130376Y75633D01*
X130383Y75627D01*
X130384Y75626D01*
X130385Y75624D01*
X130391Y75617D01*
X130398Y75610D01*
X130399Y75609D01*
X130400Y75608D01*
X130406Y75600D01*
X130411Y75593D01*
X130412Y75591D01*
X130413Y75590D01*
X130418Y75582D01*
X130423Y75574D01*
X130424Y75573D01*
X130425Y75571D01*
X130429Y75563D01*
X130433Y75554D01*
X130434Y75553D01*
X130435Y75551D01*
X130438Y75543D01*
X130442Y75534D01*
X130442Y75532D01*
X130443Y75531D01*
X130446Y75522D01*
X130449Y75513D01*
X130449Y75511D01*
X130449Y75510D01*
X130451Y75500D01*
X130453Y75491D01*
X130454Y75489D01*
X130454Y75488D01*
X130455Y75478D01*
X130456Y75469D01*
X130456Y75467D01*
X130457Y75466D01*
X130457Y75456D01*
X130457Y75447D01*
Y74553D01*
X130457Y74544D01*
X130457Y74534D01*
X130456Y74533D01*
X130456Y74531D01*
X130455Y74522D01*
X130454Y74512D01*
X130454Y74511D01*
X130453Y74509D01*
X130451Y74500D01*
X130449Y74490D01*
X130449Y74489D01*
X130449Y74487D01*
X130446Y74478D01*
X130443Y74469D01*
X130442Y74468D01*
X130442Y74466D01*
X130438Y74457D01*
X130435Y74449D01*
X130434Y74447D01*
X130433Y74446D01*
X130429Y74437D01*
X130425Y74429D01*
X130424Y74427D01*
X130423Y74426D01*
X130418Y74418D01*
X130413Y74410D01*
X130412Y74409D01*
X130411Y74407D01*
X130406Y74400D01*
X130400Y74392D01*
X130399Y74391D01*
X130398Y74390D01*
X130391Y74383D01*
X130385Y74376D01*
X130384Y74374D01*
X130383Y74373D01*
X130376Y74367D01*
X130369Y74360D01*
X130368Y74359D01*
X130366Y74358D01*
X130359Y74353D01*
X130352Y74347D01*
X130350Y74346D01*
X130349Y74345D01*
X130341Y74340D01*
X130333Y74335D01*
X130332Y74334D01*
X130330Y74333D01*
X130322Y74329D01*
X130314Y74324D01*
X130312Y74323D01*
X130311Y74323D01*
X130302Y74319D01*
X130293Y74315D01*
X130292Y74315D01*
X130290Y74314D01*
X130281Y74311D01*
X130272Y74308D01*
X130270Y74308D01*
X130269Y74307D01*
X130260Y74305D01*
X130250Y74303D01*
X130249Y74303D01*
X130247Y74303D01*
X130238Y74301D01*
X130229Y74300D01*
X130227Y74300D01*
X130225Y74300D01*
X130216Y74299D01*
X130206Y74299D01*
X130205Y74299D01*
X130203Y74299D01*
X130194Y74299D01*
X130184Y74300D01*
X130183Y74300D01*
X130181Y74300D01*
X130172Y74301D01*
X130162Y74302D01*
X130161Y74302D01*
X130159Y74303D01*
X130150Y74305D01*
X130140Y74307D01*
X130139Y74307D01*
X130137Y74307D01*
X130128Y74310D01*
X130119Y74313D01*
X130118Y74314D01*
X130116Y74314D01*
X130107Y74318D01*
X130099Y74321D01*
X130097Y74322D01*
X130096Y74323D01*
X130087Y74327D01*
X130079Y74331D01*
X130077Y74332D01*
X130076Y74333D01*
X130068Y74338D01*
X130060Y74343D01*
X130059Y74344D01*
X130057Y74345D01*
X130050Y74350D01*
X130042Y74356D01*
X130041Y74357D01*
X130040Y74358D01*
X130033Y74365D01*
X130026Y74371D01*
X130025Y74372D01*
X130023Y74373D01*
X130017Y74380D01*
X130010Y74387D01*
X130009Y74388D01*
X130008Y74390D01*
X130003Y74397D01*
X129997Y74405D01*
X129996Y74406D01*
X129995Y74407D01*
X129990Y74415D01*
X129985Y74423D01*
X129984Y74425D01*
X129983Y74426D01*
X129981Y74430D01*
X129949Y74437D01*
X129891Y74446D01*
X129819Y74452D01*
X129620Y74458D01*
X129613Y74459D01*
X129606Y74459D01*
X129602Y74460D01*
X129598Y74460D01*
X129591Y74461D01*
X129584Y74462D01*
X129580Y74463D01*
X129576Y74464D01*
X129569Y74465D01*
X129562Y74467D01*
X129559Y74468D01*
X129555Y74469D01*
X129548Y74471D01*
X129541Y74474D01*
X129537Y74475D01*
X129534Y74476D01*
X129527Y74479D01*
X129521Y74482D01*
X129517Y74484D01*
X129514Y74485D01*
X129507Y74489D01*
X129501Y74492D01*
X129498Y74494D01*
X129494Y74496D01*
X129488Y74500D01*
X129482Y74504D01*
X129479Y74507D01*
X129476Y74509D01*
X129470Y74513D01*
X129465Y74518D01*
X129462Y74520D01*
X129459Y74523D01*
X129454Y74528D01*
X129448Y74533D01*
X129446Y74536D01*
X129443Y74538D01*
X129438Y74544D01*
X129433Y74549D01*
X129431Y74552D01*
X129428Y74555D01*
X129424Y74561D01*
X129420Y74567D01*
X129418Y74570D01*
X129415Y74573D01*
X129412Y74579D01*
X129408Y74585D01*
X129406Y74589D01*
X129404Y74592D01*
X129401Y74599D01*
X129398Y74605D01*
X129396Y74609D01*
X129394Y74612D01*
X129392Y74619D01*
X129389Y74626D01*
X129388Y74629D01*
X129387Y74633D01*
X129385Y74640D01*
X129382Y74647D01*
X129382Y74651D01*
X129381Y74654D01*
X129379Y74661D01*
X129378Y74668D01*
X129377Y74672D01*
X129376Y74676D01*
X129376Y74683D01*
X129375Y74690D01*
X129375Y74694D01*
X129374Y74698D01*
X129374Y74705D01*
X129374Y74713D01*
Y75287D01*
X129374Y75297D01*
X129374Y75306D01*
X129375Y75308D01*
X129375Y75310D01*
X129376Y75319D01*
X129377Y75328D01*
X129377Y75330D01*
X129378Y75332D01*
X129380Y75341D01*
X129382Y75350D01*
X129382Y75352D01*
X129382Y75353D01*
X129385Y75362D01*
X129388Y75371D01*
X129389Y75373D01*
X129389Y75374D01*
X129393Y75383D01*
X129396Y75392D01*
X129397Y75393D01*
X129398Y75395D01*
X129402Y75403D01*
X129406Y75411D01*
X129407Y75413D01*
X129408Y75415D01*
X129413Y75422D01*
X129418Y75430D01*
X129419Y75432D01*
X129420Y75433D01*
X129425Y75441D01*
X129431Y75448D01*
X129432Y75449D01*
X129433Y75451D01*
X129440Y75458D01*
X129446Y75465D01*
X129447Y75466D01*
X129448Y75467D01*
X129455Y75473D01*
X129462Y75480D01*
X129463Y75481D01*
X129465Y75482D01*
X129472Y75488D01*
X129479Y75494D01*
X129481Y75495D01*
X129482Y75496D01*
X129490Y75501D01*
X129498Y75506D01*
X129499Y75507D01*
X129501Y75508D01*
X129509Y75512D01*
X129517Y75516D01*
X129519Y75517D01*
X129521Y75518D01*
X129529Y75521D01*
X129538Y75525D01*
X129539Y75526D01*
X129541Y75526D01*
X129550Y75529D01*
X129559Y75532D01*
X129560Y75533D01*
X129562Y75533D01*
X129571Y75535D01*
X129580Y75537D01*
X129582Y75537D01*
X129584Y75538D01*
X129593Y75539D01*
X129602Y75540D01*
X129604Y75541D01*
X129606Y75541D01*
X129615Y75541D01*
X129624Y75542D01*
X129727Y75543D01*
X129894Y75555D01*
X129949Y75563D01*
X129981Y75570D01*
X129983Y75574D01*
X129984Y75575D01*
X129985Y75577D01*
X129990Y75585D01*
X129995Y75593D01*
X129996Y75594D01*
X129997Y75595D01*
X130003Y75603D01*
X130008Y75610D01*
X130009Y75612D01*
X130010Y75613D01*
X130017Y75620D01*
X130023Y75627D01*
X130025Y75628D01*
X130026Y75629D01*
X130033Y75635D01*
X130040Y75642D01*
X130041Y75643D01*
X130042Y75644D01*
X130050Y75649D01*
X130057Y75655D01*
X130059Y75656D01*
X130060Y75657D01*
X130068Y75662D01*
X130076Y75667D01*
X130077Y75668D01*
X130079Y75669D01*
X130087Y75673D01*
X130096Y75677D01*
X130097Y75678D01*
X130099Y75679D01*
X130107Y75682D01*
X130116Y75686D01*
X130118Y75686D01*
X130119Y75687D01*
X130128Y75690D01*
X130137Y75693D01*
X130139Y75693D01*
X130140Y75693D01*
X130150Y75695D01*
X130159Y75697D01*
X130161Y75698D01*
X130162Y75698D01*
X130172Y75699D01*
X130181Y75700D01*
X130183Y75700D01*
X130184Y75700D01*
X130194Y75701D01*
X130203Y75701D01*
X130205Y75701D01*
D02*
G37*
G36*
X170610Y75701D02*
X170611Y75701D01*
X170621Y75701D01*
X170630Y75700D01*
X170632Y75700D01*
X170633Y75700D01*
X170643Y75699D01*
X170652Y75697D01*
X170654Y75697D01*
X170655Y75697D01*
X170665Y75695D01*
X170674Y75693D01*
X170675Y75692D01*
X170677Y75692D01*
X170686Y75689D01*
X170695Y75686D01*
X170697Y75685D01*
X170698Y75685D01*
X170707Y75681D01*
X170715Y75677D01*
X170717Y75677D01*
X170718Y75676D01*
X170727Y75672D01*
X170735Y75667D01*
X170737Y75666D01*
X170738Y75665D01*
X170746Y75660D01*
X170754Y75655D01*
X170755Y75654D01*
X170757Y75653D01*
X170764Y75647D01*
X170771Y75642D01*
X170773Y75641D01*
X170774Y75640D01*
X170781Y75633D01*
X170788Y75627D01*
X170789Y75626D01*
X170790Y75624D01*
X170796Y75617D01*
X170803Y75610D01*
X170804Y75609D01*
X170805Y75608D01*
X170811Y75600D01*
X170816Y75593D01*
X170817Y75591D01*
X170818Y75590D01*
X170823Y75582D01*
X170828Y75574D01*
X170829Y75573D01*
X170830Y75571D01*
X170834Y75563D01*
X170838Y75554D01*
X170839Y75553D01*
X170840Y75551D01*
X170843Y75543D01*
X170847Y75534D01*
X170847Y75532D01*
X170848Y75531D01*
X170851Y75522D01*
X170854Y75513D01*
X170854Y75511D01*
X170854Y75510D01*
X170856Y75500D01*
X170858Y75491D01*
X170859Y75489D01*
X170859Y75488D01*
X170860Y75478D01*
X170861Y75469D01*
X170861Y75467D01*
X170862Y75466D01*
X170862Y75456D01*
X170862Y75447D01*
Y74553D01*
X170862Y74544D01*
X170862Y74534D01*
X170861Y74533D01*
X170861Y74531D01*
X170860Y74522D01*
X170859Y74512D01*
X170859Y74511D01*
X170858Y74509D01*
X170856Y74500D01*
X170854Y74490D01*
X170854Y74489D01*
X170854Y74487D01*
X170851Y74478D01*
X170848Y74469D01*
X170847Y74468D01*
X170847Y74466D01*
X170843Y74457D01*
X170840Y74449D01*
X170839Y74447D01*
X170838Y74446D01*
X170834Y74437D01*
X170830Y74429D01*
X170829Y74427D01*
X170828Y74426D01*
X170823Y74418D01*
X170818Y74410D01*
X170817Y74409D01*
X170816Y74407D01*
X170811Y74400D01*
X170805Y74392D01*
X170804Y74391D01*
X170803Y74390D01*
X170796Y74383D01*
X170790Y74376D01*
X170789Y74374D01*
X170788Y74373D01*
X170781Y74367D01*
X170774Y74360D01*
X170773Y74359D01*
X170771Y74358D01*
X170764Y74353D01*
X170757Y74347D01*
X170755Y74346D01*
X170754Y74345D01*
X170746Y74340D01*
X170738Y74335D01*
X170737Y74334D01*
X170735Y74333D01*
X170727Y74328D01*
X170718Y74324D01*
X170717Y74323D01*
X170715Y74323D01*
X170707Y74319D01*
X170698Y74315D01*
X170697Y74315D01*
X170695Y74314D01*
X170686Y74311D01*
X170677Y74308D01*
X170675Y74308D01*
X170674Y74307D01*
X170665Y74305D01*
X170655Y74303D01*
X170654Y74303D01*
X170652Y74303D01*
X170643Y74301D01*
X170633Y74300D01*
X170632Y74300D01*
X170630Y74300D01*
X170621Y74299D01*
X170611Y74299D01*
X170610Y74299D01*
X170608Y74299D01*
X170599Y74299D01*
X170589Y74300D01*
X170588Y74300D01*
X170586Y74300D01*
X170577Y74301D01*
X170567Y74302D01*
X170566Y74302D01*
X170564Y74303D01*
X170555Y74305D01*
X170545Y74307D01*
X170544Y74307D01*
X170542Y74307D01*
X170533Y74310D01*
X170524Y74313D01*
X170523Y74314D01*
X170521Y74314D01*
X170512Y74318D01*
X170504Y74321D01*
X170502Y74322D01*
X170501Y74323D01*
X170492Y74327D01*
X170484Y74331D01*
X170482Y74332D01*
X170481Y74333D01*
X170473Y74338D01*
X170465Y74343D01*
X170464Y74344D01*
X170462Y74345D01*
X170455Y74350D01*
X170447Y74356D01*
X170446Y74357D01*
X170445Y74358D01*
X170438Y74365D01*
X170431Y74371D01*
X170429Y74372D01*
X170428Y74373D01*
X170422Y74380D01*
X170415Y74387D01*
X170414Y74388D01*
X170413Y74390D01*
X170408Y74397D01*
X170402Y74405D01*
X170401Y74406D01*
X170400Y74407D01*
X170395Y74415D01*
X170390Y74423D01*
X170389Y74425D01*
X170388Y74426D01*
X170386Y74430D01*
X170354Y74437D01*
X170296Y74446D01*
X170224Y74452D01*
X170025Y74458D01*
X170018Y74459D01*
X170011Y74459D01*
X170007Y74460D01*
X170003Y74460D01*
X169996Y74461D01*
X169989Y74462D01*
X169985Y74463D01*
X169981Y74464D01*
X169974Y74465D01*
X169967Y74467D01*
X169963Y74468D01*
X169960Y74469D01*
X169953Y74471D01*
X169946Y74474D01*
X169942Y74475D01*
X169939Y74476D01*
X169932Y74479D01*
X169926Y74482D01*
X169922Y74484D01*
X169919Y74485D01*
X169912Y74489D01*
X169906Y74492D01*
X169903Y74494D01*
X169899Y74496D01*
X169893Y74500D01*
X169887Y74504D01*
X169884Y74507D01*
X169881Y74509D01*
X169875Y74513D01*
X169870Y74518D01*
X169867Y74520D01*
X169864Y74523D01*
X169859Y74528D01*
X169853Y74533D01*
X169851Y74536D01*
X169848Y74538D01*
X169843Y74544D01*
X169838Y74549D01*
X169836Y74552D01*
X169833Y74555D01*
X169829Y74561D01*
X169825Y74567D01*
X169823Y74570D01*
X169820Y74573D01*
X169817Y74579D01*
X169813Y74585D01*
X169811Y74589D01*
X169809Y74592D01*
X169806Y74599D01*
X169803Y74605D01*
X169801Y74609D01*
X169799Y74612D01*
X169797Y74619D01*
X169794Y74626D01*
X169793Y74629D01*
X169792Y74633D01*
X169790Y74640D01*
X169787Y74647D01*
X169787Y74651D01*
X169786Y74654D01*
X169784Y74661D01*
X169783Y74668D01*
X169782Y74672D01*
X169781Y74676D01*
X169781Y74683D01*
X169780Y74690D01*
X169780Y74694D01*
X169779Y74698D01*
X169779Y74705D01*
X169779Y74713D01*
Y75287D01*
X169779Y75297D01*
X169779Y75306D01*
X169780Y75308D01*
X169780Y75310D01*
X169781Y75319D01*
X169782Y75328D01*
X169782Y75330D01*
X169783Y75332D01*
X169785Y75341D01*
X169787Y75350D01*
X169787Y75352D01*
X169787Y75353D01*
X169790Y75362D01*
X169793Y75371D01*
X169794Y75373D01*
X169794Y75374D01*
X169798Y75383D01*
X169801Y75392D01*
X169802Y75393D01*
X169803Y75395D01*
X169807Y75403D01*
X169811Y75411D01*
X169812Y75413D01*
X169813Y75415D01*
X169818Y75422D01*
X169823Y75430D01*
X169824Y75432D01*
X169825Y75433D01*
X169830Y75441D01*
X169836Y75448D01*
X169837Y75449D01*
X169838Y75451D01*
X169845Y75458D01*
X169851Y75465D01*
X169852Y75466D01*
X169853Y75467D01*
X169860Y75473D01*
X169867Y75480D01*
X169868Y75481D01*
X169870Y75482D01*
X169877Y75488D01*
X169884Y75494D01*
X169886Y75495D01*
X169887Y75496D01*
X169895Y75501D01*
X169903Y75506D01*
X169904Y75507D01*
X169906Y75508D01*
X169914Y75512D01*
X169922Y75516D01*
X169924Y75517D01*
X169926Y75518D01*
X169934Y75521D01*
X169943Y75525D01*
X169944Y75526D01*
X169946Y75526D01*
X169955Y75529D01*
X169964Y75532D01*
X169965Y75533D01*
X169967Y75533D01*
X169976Y75535D01*
X169985Y75537D01*
X169987Y75537D01*
X169989Y75538D01*
X169998Y75539D01*
X170007Y75540D01*
X170009Y75541D01*
X170011Y75541D01*
X170020Y75541D01*
X170029Y75542D01*
X170132Y75543D01*
X170299Y75555D01*
X170354Y75563D01*
X170386Y75570D01*
X170388Y75574D01*
X170389Y75575D01*
X170390Y75577D01*
X170395Y75585D01*
X170400Y75593D01*
X170401Y75594D01*
X170402Y75595D01*
X170408Y75603D01*
X170413Y75610D01*
X170414Y75612D01*
X170415Y75613D01*
X170422Y75620D01*
X170428Y75627D01*
X170429Y75628D01*
X170431Y75629D01*
X170438Y75635D01*
X170445Y75642D01*
X170446Y75643D01*
X170447Y75644D01*
X170455Y75650D01*
X170462Y75655D01*
X170464Y75656D01*
X170465Y75657D01*
X170473Y75662D01*
X170481Y75667D01*
X170482Y75668D01*
X170484Y75669D01*
X170492Y75673D01*
X170501Y75677D01*
X170502Y75678D01*
X170504Y75679D01*
X170512Y75682D01*
X170521Y75686D01*
X170523Y75686D01*
X170524Y75687D01*
X170533Y75690D01*
X170542Y75693D01*
X170544Y75693D01*
X170545Y75693D01*
X170555Y75695D01*
X170564Y75697D01*
X170566Y75698D01*
X170567Y75698D01*
X170577Y75699D01*
X170586Y75700D01*
X170588Y75700D01*
X170589Y75700D01*
X170599Y75701D01*
X170608Y75701D01*
X170610Y75701D01*
D02*
G37*
G36*
X101205D02*
X101206Y75701D01*
X101216Y75701D01*
X101225Y75700D01*
X101227Y75700D01*
X101229Y75700D01*
X101238Y75699D01*
X101247Y75697D01*
X101249Y75697D01*
X101250Y75697D01*
X101260Y75695D01*
X101269Y75693D01*
X101270Y75692D01*
X101272Y75692D01*
X101281Y75689D01*
X101290Y75686D01*
X101292Y75685D01*
X101293Y75685D01*
X101302Y75681D01*
X101311Y75677D01*
X101312Y75677D01*
X101313Y75676D01*
X101322Y75672D01*
X101330Y75667D01*
X101332Y75666D01*
X101333Y75665D01*
X101341Y75660D01*
X101349Y75655D01*
X101350Y75654D01*
X101352Y75653D01*
X101359Y75647D01*
X101366Y75642D01*
X101368Y75641D01*
X101369Y75640D01*
X101376Y75633D01*
X101383Y75627D01*
X101384Y75626D01*
X101385Y75624D01*
X101391Y75617D01*
X101398Y75610D01*
X101399Y75609D01*
X101400Y75608D01*
X101406Y75600D01*
X101411Y75593D01*
X101412Y75591D01*
X101413Y75590D01*
X101418Y75582D01*
X101423Y75574D01*
X101424Y75573D01*
X101425Y75571D01*
X101429Y75563D01*
X101433Y75554D01*
X101434Y75553D01*
X101435Y75551D01*
X101438Y75543D01*
X101442Y75534D01*
X101442Y75532D01*
X101443Y75531D01*
X101446Y75522D01*
X101449Y75513D01*
X101449Y75511D01*
X101449Y75510D01*
X101451Y75500D01*
X101453Y75491D01*
X101454Y75489D01*
X101454Y75488D01*
X101455Y75478D01*
X101456Y75469D01*
X101456Y75467D01*
X101457Y75466D01*
X101457Y75456D01*
X101457Y75447D01*
Y74553D01*
X101457Y74544D01*
X101457Y74534D01*
X101456Y74533D01*
X101456Y74531D01*
X101455Y74522D01*
X101454Y74512D01*
X101454Y74511D01*
X101453Y74509D01*
X101451Y74500D01*
X101449Y74490D01*
X101449Y74489D01*
X101449Y74487D01*
X101446Y74478D01*
X101443Y74469D01*
X101442Y74468D01*
X101442Y74466D01*
X101438Y74457D01*
X101435Y74449D01*
X101434Y74447D01*
X101433Y74446D01*
X101429Y74437D01*
X101425Y74429D01*
X101424Y74427D01*
X101423Y74426D01*
X101418Y74418D01*
X101413Y74410D01*
X101412Y74409D01*
X101411Y74407D01*
X101406Y74400D01*
X101400Y74392D01*
X101399Y74391D01*
X101398Y74390D01*
X101391Y74383D01*
X101385Y74376D01*
X101384Y74374D01*
X101383Y74373D01*
X101376Y74367D01*
X101369Y74360D01*
X101368Y74359D01*
X101366Y74358D01*
X101359Y74353D01*
X101352Y74347D01*
X101350Y74346D01*
X101349Y74345D01*
X101341Y74340D01*
X101333Y74335D01*
X101332Y74334D01*
X101330Y74333D01*
X101322Y74328D01*
X101313Y74324D01*
X101312Y74323D01*
X101311Y74323D01*
X101302Y74319D01*
X101293Y74315D01*
X101292Y74315D01*
X101290Y74314D01*
X101281Y74311D01*
X101272Y74308D01*
X101270Y74308D01*
X101269Y74307D01*
X101260Y74305D01*
X101250Y74303D01*
X101249Y74303D01*
X101247Y74303D01*
X101238Y74301D01*
X101229Y74300D01*
X101227Y74300D01*
X101225Y74300D01*
X101216Y74299D01*
X101206Y74299D01*
X101205Y74299D01*
X101203Y74299D01*
X101194Y74299D01*
X101184Y74300D01*
X101183Y74300D01*
X101181Y74300D01*
X101172Y74301D01*
X101162Y74302D01*
X101161Y74302D01*
X101159Y74303D01*
X101150Y74305D01*
X101140Y74307D01*
X101139Y74307D01*
X101137Y74307D01*
X101128Y74310D01*
X101119Y74313D01*
X101118Y74314D01*
X101116Y74314D01*
X101107Y74318D01*
X101099Y74321D01*
X101097Y74322D01*
X101096Y74323D01*
X101087Y74327D01*
X101079Y74331D01*
X101077Y74332D01*
X101076Y74333D01*
X101068Y74338D01*
X101060Y74343D01*
X101059Y74344D01*
X101057Y74345D01*
X101050Y74350D01*
X101042Y74356D01*
X101041Y74357D01*
X101040Y74358D01*
X101033Y74365D01*
X101026Y74371D01*
X101024Y74372D01*
X101023Y74373D01*
X101017Y74380D01*
X101010Y74387D01*
X101009Y74388D01*
X101008Y74390D01*
X101003Y74397D01*
X100997Y74405D01*
X100996Y74406D01*
X100995Y74407D01*
X100990Y74415D01*
X100985Y74423D01*
X100984Y74425D01*
X100983Y74426D01*
X100981Y74430D01*
X100949Y74437D01*
X100891Y74446D01*
X100819Y74452D01*
X100620Y74458D01*
X100613Y74459D01*
X100606Y74459D01*
X100602Y74460D01*
X100598Y74460D01*
X100591Y74461D01*
X100584Y74462D01*
X100580Y74463D01*
X100576Y74464D01*
X100569Y74465D01*
X100562Y74467D01*
X100559Y74468D01*
X100555Y74469D01*
X100548Y74471D01*
X100541Y74474D01*
X100537Y74475D01*
X100534Y74476D01*
X100527Y74479D01*
X100521Y74482D01*
X100517Y74484D01*
X100514Y74485D01*
X100507Y74489D01*
X100501Y74492D01*
X100498Y74494D01*
X100494Y74496D01*
X100488Y74500D01*
X100482Y74504D01*
X100479Y74507D01*
X100476Y74509D01*
X100470Y74513D01*
X100465Y74518D01*
X100462Y74520D01*
X100459Y74523D01*
X100454Y74528D01*
X100448Y74533D01*
X100446Y74536D01*
X100443Y74538D01*
X100438Y74544D01*
X100433Y74549D01*
X100431Y74552D01*
X100428Y74555D01*
X100424Y74561D01*
X100420Y74567D01*
X100418Y74570D01*
X100415Y74573D01*
X100412Y74579D01*
X100408Y74585D01*
X100406Y74589D01*
X100404Y74592D01*
X100401Y74599D01*
X100398Y74605D01*
X100396Y74609D01*
X100394Y74612D01*
X100392Y74619D01*
X100389Y74626D01*
X100388Y74629D01*
X100387Y74633D01*
X100385Y74640D01*
X100382Y74647D01*
X100382Y74651D01*
X100381Y74654D01*
X100379Y74661D01*
X100378Y74668D01*
X100377Y74672D01*
X100376Y74676D01*
X100376Y74683D01*
X100375Y74690D01*
X100375Y74694D01*
X100374Y74698D01*
X100374Y74705D01*
X100374Y74713D01*
Y75287D01*
X100374Y75297D01*
X100374Y75306D01*
X100375Y75308D01*
X100375Y75310D01*
X100376Y75319D01*
X100377Y75328D01*
X100377Y75330D01*
X100378Y75332D01*
X100380Y75341D01*
X100382Y75350D01*
X100382Y75352D01*
X100382Y75353D01*
X100385Y75362D01*
X100388Y75371D01*
X100389Y75373D01*
X100389Y75374D01*
X100393Y75383D01*
X100396Y75392D01*
X100397Y75393D01*
X100398Y75395D01*
X100402Y75403D01*
X100406Y75411D01*
X100407Y75413D01*
X100408Y75415D01*
X100413Y75422D01*
X100418Y75430D01*
X100419Y75432D01*
X100420Y75433D01*
X100425Y75441D01*
X100431Y75448D01*
X100432Y75449D01*
X100433Y75451D01*
X100440Y75458D01*
X100446Y75465D01*
X100447Y75466D01*
X100448Y75467D01*
X100455Y75473D01*
X100462Y75480D01*
X100463Y75481D01*
X100465Y75482D01*
X100472Y75488D01*
X100479Y75494D01*
X100481Y75495D01*
X100482Y75496D01*
X100490Y75501D01*
X100498Y75506D01*
X100499Y75507D01*
X100501Y75508D01*
X100509Y75512D01*
X100517Y75516D01*
X100519Y75517D01*
X100521Y75518D01*
X100529Y75521D01*
X100538Y75525D01*
X100539Y75526D01*
X100541Y75526D01*
X100550Y75529D01*
X100559Y75532D01*
X100560Y75533D01*
X100562Y75533D01*
X100571Y75535D01*
X100580Y75537D01*
X100582Y75537D01*
X100584Y75538D01*
X100593Y75539D01*
X100602Y75540D01*
X100604Y75541D01*
X100606Y75541D01*
X100615Y75541D01*
X100624Y75542D01*
X100727Y75543D01*
X100894Y75555D01*
X100949Y75563D01*
X100981Y75570D01*
X100983Y75574D01*
X100984Y75575D01*
X100985Y75577D01*
X100990Y75585D01*
X100995Y75593D01*
X100996Y75594D01*
X100997Y75595D01*
X101003Y75603D01*
X101008Y75610D01*
X101009Y75612D01*
X101010Y75613D01*
X101017Y75620D01*
X101023Y75627D01*
X101024Y75628D01*
X101026Y75629D01*
X101033Y75635D01*
X101040Y75642D01*
X101041Y75643D01*
X101042Y75644D01*
X101050Y75650D01*
X101057Y75655D01*
X101059Y75656D01*
X101060Y75657D01*
X101068Y75662D01*
X101076Y75667D01*
X101077Y75668D01*
X101079Y75669D01*
X101087Y75673D01*
X101096Y75677D01*
X101097Y75678D01*
X101099Y75679D01*
X101107Y75682D01*
X101116Y75686D01*
X101118Y75686D01*
X101119Y75687D01*
X101128Y75690D01*
X101137Y75693D01*
X101139Y75693D01*
X101140Y75693D01*
X101150Y75695D01*
X101159Y75697D01*
X101161Y75698D01*
X101162Y75698D01*
X101172Y75699D01*
X101181Y75700D01*
X101183Y75700D01*
X101184Y75700D01*
X101194Y75701D01*
X101203Y75701D01*
X101205Y75701D01*
D02*
G37*
G36*
X149905Y75701D02*
X149906Y75701D01*
X149916Y75701D01*
X149925Y75700D01*
X149927Y75700D01*
X149929Y75700D01*
X149938Y75699D01*
X149947Y75697D01*
X149949Y75697D01*
X149950Y75697D01*
X149960Y75695D01*
X149969Y75693D01*
X149970Y75692D01*
X149972Y75692D01*
X149981Y75689D01*
X149990Y75686D01*
X149992Y75685D01*
X149993Y75685D01*
X150002Y75681D01*
X150010Y75677D01*
X150012Y75677D01*
X150013Y75676D01*
X150022Y75671D01*
X150030Y75667D01*
X150032Y75666D01*
X150033Y75665D01*
X150041Y75660D01*
X150049Y75655D01*
X150050Y75654D01*
X150052Y75653D01*
X150059Y75647D01*
X150066Y75642D01*
X150068Y75641D01*
X150069Y75640D01*
X150076Y75633D01*
X150083Y75627D01*
X150084Y75626D01*
X150085Y75624D01*
X150091Y75617D01*
X150098Y75610D01*
X150099Y75609D01*
X150100Y75608D01*
X150106Y75600D01*
X150111Y75593D01*
X150112Y75591D01*
X150113Y75590D01*
X150118Y75582D01*
X150123Y75574D01*
X150124Y75573D01*
X150125Y75571D01*
X150129Y75563D01*
X150133Y75554D01*
X150134Y75553D01*
X150135Y75551D01*
X150138Y75543D01*
X150142Y75534D01*
X150142Y75532D01*
X150143Y75531D01*
X150146Y75522D01*
X150149Y75513D01*
X150149Y75511D01*
X150149Y75510D01*
X150151Y75500D01*
X150153Y75491D01*
X150154Y75489D01*
X150154Y75488D01*
X150155Y75478D01*
X150156Y75469D01*
X150156Y75467D01*
X150157Y75466D01*
X150157Y75456D01*
X150157Y75447D01*
Y74553D01*
X150157Y74544D01*
X150157Y74534D01*
X150156Y74533D01*
X150156Y74531D01*
X150155Y74522D01*
X150154Y74512D01*
X150154Y74511D01*
X150153Y74509D01*
X150151Y74500D01*
X150149Y74490D01*
X150149Y74489D01*
X150149Y74487D01*
X150146Y74478D01*
X150143Y74469D01*
X150142Y74468D01*
X150142Y74466D01*
X150138Y74457D01*
X150135Y74449D01*
X150134Y74447D01*
X150133Y74446D01*
X150129Y74437D01*
X150125Y74429D01*
X150124Y74427D01*
X150123Y74426D01*
X150118Y74418D01*
X150113Y74410D01*
X150112Y74409D01*
X150111Y74407D01*
X150106Y74400D01*
X150100Y74392D01*
X150099Y74391D01*
X150098Y74390D01*
X150091Y74383D01*
X150085Y74376D01*
X150084Y74374D01*
X150083Y74373D01*
X150076Y74367D01*
X150069Y74360D01*
X150068Y74359D01*
X150066Y74358D01*
X150059Y74353D01*
X150052Y74347D01*
X150050Y74346D01*
X150049Y74345D01*
X150041Y74340D01*
X150033Y74335D01*
X150032Y74334D01*
X150030Y74333D01*
X150022Y74328D01*
X150013Y74324D01*
X150012Y74323D01*
X150010Y74323D01*
X150002Y74319D01*
X149993Y74315D01*
X149992Y74315D01*
X149990Y74314D01*
X149981Y74311D01*
X149972Y74308D01*
X149970Y74308D01*
X149969Y74307D01*
X149960Y74305D01*
X149950Y74303D01*
X149949Y74303D01*
X149947Y74303D01*
X149938Y74301D01*
X149929Y74300D01*
X149927Y74300D01*
X149925Y74300D01*
X149916Y74299D01*
X149906Y74299D01*
X149905Y74299D01*
X149903Y74299D01*
X149894Y74299D01*
X149884Y74300D01*
X149883Y74300D01*
X149881Y74300D01*
X149872Y74301D01*
X149862Y74302D01*
X149861Y74302D01*
X149859Y74303D01*
X149850Y74305D01*
X149840Y74307D01*
X149839Y74307D01*
X149837Y74307D01*
X149828Y74310D01*
X149819Y74313D01*
X149818Y74314D01*
X149816Y74314D01*
X149807Y74318D01*
X149799Y74321D01*
X149797Y74322D01*
X149796Y74323D01*
X149787Y74327D01*
X149779Y74331D01*
X149777Y74332D01*
X149776Y74333D01*
X149768Y74338D01*
X149760Y74343D01*
X149759Y74344D01*
X149757Y74345D01*
X149750Y74351D01*
X149742Y74356D01*
X149741Y74357D01*
X149740Y74358D01*
X149733Y74365D01*
X149726Y74371D01*
X149724Y74372D01*
X149723Y74373D01*
X149717Y74380D01*
X149710Y74387D01*
X149709Y74388D01*
X149708Y74390D01*
X149703Y74397D01*
X149697Y74405D01*
X149696Y74406D01*
X149695Y74407D01*
X149690Y74415D01*
X149685Y74423D01*
X149684Y74425D01*
X149683Y74426D01*
X149681Y74430D01*
X149649Y74437D01*
X149591Y74446D01*
X149519Y74452D01*
X149320Y74458D01*
X149313Y74459D01*
X149306Y74459D01*
X149302Y74460D01*
X149298Y74460D01*
X149291Y74461D01*
X149284Y74462D01*
X149280Y74463D01*
X149276Y74464D01*
X149269Y74465D01*
X149262Y74467D01*
X149258Y74468D01*
X149255Y74469D01*
X149248Y74471D01*
X149241Y74474D01*
X149237Y74475D01*
X149234Y74476D01*
X149227Y74479D01*
X149221Y74482D01*
X149217Y74484D01*
X149214Y74485D01*
X149207Y74489D01*
X149201Y74492D01*
X149198Y74494D01*
X149194Y74496D01*
X149188Y74500D01*
X149182Y74504D01*
X149179Y74507D01*
X149176Y74509D01*
X149170Y74513D01*
X149165Y74518D01*
X149162Y74520D01*
X149159Y74523D01*
X149154Y74528D01*
X149148Y74533D01*
X149146Y74536D01*
X149143Y74538D01*
X149138Y74544D01*
X149133Y74549D01*
X149131Y74552D01*
X149128Y74555D01*
X149124Y74561D01*
X149120Y74567D01*
X149118Y74570D01*
X149115Y74573D01*
X149112Y74579D01*
X149108Y74585D01*
X149106Y74589D01*
X149104Y74592D01*
X149101Y74599D01*
X149098Y74605D01*
X149096Y74609D01*
X149094Y74612D01*
X149092Y74619D01*
X149089Y74626D01*
X149088Y74629D01*
X149087Y74633D01*
X149085Y74640D01*
X149082Y74647D01*
X149082Y74651D01*
X149081Y74654D01*
X149079Y74661D01*
X149078Y74668D01*
X149077Y74672D01*
X149076Y74676D01*
X149076Y74683D01*
X149075Y74690D01*
X149075Y74694D01*
X149074Y74698D01*
X149074Y74705D01*
X149074Y74713D01*
Y75287D01*
X149074Y75297D01*
X149074Y75306D01*
X149075Y75308D01*
X149075Y75310D01*
X149076Y75319D01*
X149077Y75328D01*
X149077Y75330D01*
X149078Y75332D01*
X149080Y75341D01*
X149082Y75350D01*
X149082Y75352D01*
X149082Y75353D01*
X149085Y75362D01*
X149088Y75371D01*
X149089Y75373D01*
X149089Y75374D01*
X149093Y75383D01*
X149096Y75392D01*
X149097Y75393D01*
X149098Y75395D01*
X149102Y75403D01*
X149106Y75411D01*
X149107Y75413D01*
X149108Y75415D01*
X149113Y75422D01*
X149118Y75430D01*
X149119Y75432D01*
X149120Y75433D01*
X149125Y75441D01*
X149131Y75448D01*
X149132Y75449D01*
X149133Y75451D01*
X149140Y75458D01*
X149146Y75465D01*
X149147Y75466D01*
X149148Y75467D01*
X149155Y75473D01*
X149162Y75480D01*
X149163Y75481D01*
X149165Y75482D01*
X149172Y75488D01*
X149179Y75494D01*
X149181Y75495D01*
X149182Y75496D01*
X149190Y75501D01*
X149198Y75506D01*
X149199Y75507D01*
X149201Y75508D01*
X149209Y75512D01*
X149217Y75516D01*
X149219Y75517D01*
X149221Y75518D01*
X149229Y75521D01*
X149238Y75525D01*
X149239Y75526D01*
X149241Y75526D01*
X149250Y75529D01*
X149259Y75532D01*
X149260Y75533D01*
X149262Y75533D01*
X149271Y75535D01*
X149280Y75537D01*
X149282Y75537D01*
X149284Y75538D01*
X149293Y75539D01*
X149302Y75540D01*
X149304Y75541D01*
X149306Y75541D01*
X149315Y75541D01*
X149324Y75542D01*
X149427Y75543D01*
X149594Y75555D01*
X149649Y75563D01*
X149681Y75570D01*
X149683Y75574D01*
X149684Y75575D01*
X149685Y75577D01*
X149690Y75585D01*
X149695Y75593D01*
X149696Y75594D01*
X149697Y75595D01*
X149703Y75603D01*
X149708Y75610D01*
X149709Y75612D01*
X149710Y75613D01*
X149717Y75620D01*
X149723Y75627D01*
X149724Y75628D01*
X149726Y75629D01*
X149733Y75635D01*
X149740Y75642D01*
X149741Y75643D01*
X149742Y75644D01*
X149750Y75650D01*
X149757Y75655D01*
X149759Y75656D01*
X149760Y75657D01*
X149768Y75662D01*
X149776Y75667D01*
X149777Y75668D01*
X149779Y75669D01*
X149787Y75673D01*
X149796Y75677D01*
X149797Y75678D01*
X149799Y75679D01*
X149807Y75682D01*
X149816Y75686D01*
X149818Y75686D01*
X149819Y75687D01*
X149828Y75690D01*
X149837Y75693D01*
X149839Y75693D01*
X149840Y75693D01*
X149850Y75695D01*
X149859Y75697D01*
X149861Y75698D01*
X149862Y75698D01*
X149872Y75699D01*
X149881Y75700D01*
X149883Y75700D01*
X149884Y75700D01*
X149894Y75701D01*
X149903Y75701D01*
X149905Y75701D01*
D02*
G37*
G36*
X123343D02*
X123344Y75701D01*
X123354Y75701D01*
X123363Y75700D01*
X123365Y75700D01*
X123367Y75700D01*
X123376Y75699D01*
X123385Y75697D01*
X123387Y75697D01*
X123388Y75697D01*
X123398Y75695D01*
X123407Y75693D01*
X123408Y75692D01*
X123410Y75692D01*
X123419Y75689D01*
X123428Y75686D01*
X123430Y75685D01*
X123431Y75685D01*
X123440Y75681D01*
X123449Y75677D01*
X123450Y75677D01*
X123451Y75676D01*
X123460Y75671D01*
X123468Y75667D01*
X123470Y75666D01*
X123471Y75665D01*
X123479Y75660D01*
X123487Y75655D01*
X123488Y75654D01*
X123490Y75653D01*
X123497Y75647D01*
X123504Y75642D01*
X123506Y75641D01*
X123507Y75640D01*
X123514Y75633D01*
X123521Y75627D01*
X123522Y75626D01*
X123523Y75624D01*
X123529Y75617D01*
X123536Y75610D01*
X123537Y75609D01*
X123538Y75608D01*
X123544Y75600D01*
X123549Y75593D01*
X123550Y75591D01*
X123551Y75590D01*
X123556Y75582D01*
X123561Y75574D01*
X123562Y75573D01*
X123563Y75571D01*
X123567Y75563D01*
X123571Y75554D01*
X123572Y75553D01*
X123573Y75551D01*
X123576Y75543D01*
X123577Y75541D01*
X123618Y75542D01*
X123620Y75542D01*
X123622Y75542D01*
X123631Y75541D01*
X123640Y75541D01*
X123642Y75541D01*
X123644Y75541D01*
X123653Y75540D01*
X123662Y75539D01*
X123664Y75538D01*
X123666Y75538D01*
X123675Y75536D01*
X123683Y75534D01*
X123686Y75534D01*
X123688Y75533D01*
X123696Y75530D01*
X123705Y75528D01*
X123707Y75527D01*
X123709Y75526D01*
X123717Y75523D01*
X123725Y75520D01*
X123727Y75519D01*
X123729Y75518D01*
X123737Y75514D01*
X123745Y75510D01*
X123747Y75509D01*
X123749Y75508D01*
X123757Y75503D01*
X123764Y75498D01*
X123766Y75497D01*
X123768Y75496D01*
X123775Y75490D01*
X123782Y75485D01*
X123784Y75484D01*
X123785Y75482D01*
X123792Y75476D01*
X123799Y75470D01*
X123800Y75469D01*
X123802Y75467D01*
X123808Y75461D01*
X123814Y75454D01*
X123815Y75453D01*
X123817Y75451D01*
X123822Y75444D01*
X123828Y75437D01*
X123829Y75435D01*
X123830Y75433D01*
X123835Y75426D01*
X123840Y75418D01*
X123841Y75416D01*
X123842Y75415D01*
X123846Y75407D01*
X123850Y75399D01*
X123851Y75397D01*
X123852Y75395D01*
X123856Y75387D01*
X123859Y75379D01*
X123860Y75377D01*
X123861Y75374D01*
X123864Y75366D01*
X123866Y75358D01*
X123867Y75355D01*
X123868Y75353D01*
X123869Y75345D01*
X123872Y75336D01*
X123872Y75334D01*
X123872Y75332D01*
X123873Y75323D01*
X123875Y75314D01*
X123875Y75312D01*
X123875Y75310D01*
X123876Y75301D01*
X123876Y75292D01*
X123876Y75290D01*
X123876Y75287D01*
Y74713D01*
X123876Y74705D01*
X123876Y74697D01*
X123875Y74694D01*
X123875Y74690D01*
X123874Y74683D01*
X123873Y74675D01*
X123873Y74672D01*
X123872Y74668D01*
X123871Y74661D01*
X123869Y74653D01*
X123868Y74650D01*
X123868Y74647D01*
X123865Y74639D01*
X123863Y74632D01*
X123862Y74629D01*
X123861Y74626D01*
X123858Y74618D01*
X123855Y74611D01*
X123854Y74608D01*
X123852Y74605D01*
X123849Y74598D01*
X123845Y74591D01*
X123844Y74588D01*
X123842Y74585D01*
X123838Y74579D01*
X123834Y74572D01*
X123832Y74569D01*
X123830Y74567D01*
X123825Y74561D01*
X123821Y74554D01*
X123819Y74552D01*
X123817Y74549D01*
X123811Y74543D01*
X123806Y74537D01*
X123804Y74535D01*
X123802Y74533D01*
X123796Y74527D01*
X123790Y74522D01*
X123788Y74520D01*
X123785Y74518D01*
X123779Y74513D01*
X123773Y74508D01*
X123770Y74506D01*
X123768Y74504D01*
X123761Y74500D01*
X123755Y74496D01*
X123752Y74494D01*
X123749Y74492D01*
X123742Y74489D01*
X123735Y74485D01*
X123732Y74484D01*
X123729Y74482D01*
X123722Y74479D01*
X123715Y74476D01*
X123712Y74475D01*
X123709Y74474D01*
X123701Y74471D01*
X123694Y74469D01*
X123691Y74468D01*
X123688Y74467D01*
X123680Y74465D01*
X123673Y74463D01*
X123669Y74463D01*
X123666Y74462D01*
X123658Y74461D01*
X123651Y74460D01*
X123647Y74460D01*
X123644Y74459D01*
X123636Y74459D01*
X123629Y74458D01*
X123576Y74457D01*
X123573Y74449D01*
X123572Y74447D01*
X123571Y74446D01*
X123567Y74437D01*
X123563Y74429D01*
X123562Y74427D01*
X123561Y74426D01*
X123556Y74418D01*
X123551Y74410D01*
X123550Y74409D01*
X123549Y74407D01*
X123544Y74400D01*
X123538Y74392D01*
X123537Y74391D01*
X123536Y74390D01*
X123529Y74383D01*
X123523Y74376D01*
X123522Y74374D01*
X123521Y74373D01*
X123514Y74367D01*
X123507Y74360D01*
X123506Y74359D01*
X123504Y74358D01*
X123497Y74353D01*
X123490Y74347D01*
X123488Y74346D01*
X123487Y74345D01*
X123479Y74340D01*
X123471Y74335D01*
X123470Y74334D01*
X123468Y74333D01*
X123460Y74329D01*
X123451Y74324D01*
X123450Y74323D01*
X123449Y74323D01*
X123440Y74319D01*
X123431Y74315D01*
X123430Y74315D01*
X123428Y74314D01*
X123419Y74311D01*
X123410Y74308D01*
X123408Y74308D01*
X123407Y74307D01*
X123398Y74305D01*
X123388Y74303D01*
X123387Y74303D01*
X123385Y74303D01*
X123376Y74301D01*
X123367Y74300D01*
X123365Y74300D01*
X123363Y74300D01*
X123354Y74299D01*
X123344Y74299D01*
X123343Y74299D01*
X123341Y74299D01*
X123332Y74299D01*
X123322Y74300D01*
X123321Y74300D01*
X123319Y74300D01*
X123310Y74301D01*
X123300Y74302D01*
X123299Y74302D01*
X123297Y74303D01*
X123288Y74305D01*
X123278Y74307D01*
X123277Y74307D01*
X123275Y74307D01*
X123270Y74309D01*
X123268Y74305D01*
X123264Y74297D01*
X123262Y74295D01*
X123261Y74293D01*
X123256Y74286D01*
X123252Y74278D01*
X123250Y74277D01*
X123249Y74275D01*
X123243Y74268D01*
X123238Y74261D01*
X123236Y74259D01*
X123235Y74257D01*
X123229Y74251D01*
X123223Y74245D01*
X123221Y74243D01*
X123220Y74241D01*
X123213Y74236D01*
X123207Y74230D01*
X123205Y74228D01*
X123203Y74227D01*
X123196Y74221D01*
X123189Y74216D01*
X123187Y74215D01*
X123185Y74214D01*
X123178Y74209D01*
X123170Y74204D01*
X123168Y74203D01*
X123166Y74202D01*
X123158Y74198D01*
X123150Y74194D01*
X123148Y74193D01*
X123146Y74192D01*
X123138Y74189D01*
X123130Y74186D01*
X123128Y74185D01*
X123126Y74184D01*
X123117Y74182D01*
X123109Y74179D01*
X123107Y74179D01*
X123104Y74178D01*
X123096Y74176D01*
X123087Y74174D01*
X123085Y74174D01*
X123083Y74174D01*
X123074Y74173D01*
X123065Y74172D01*
X123063Y74172D01*
X123061Y74171D01*
X123052Y74171D01*
X123043Y74171D01*
X123041Y74171D01*
X123038Y74171D01*
X123030Y74171D01*
X123021Y74172D01*
X123018Y74172D01*
X123016Y74172D01*
X123007Y74174D01*
X122999Y74175D01*
X122997Y74175D01*
X122994Y74176D01*
X122986Y74178D01*
X122977Y74180D01*
X122975Y74180D01*
X122973Y74181D01*
X122964Y74184D01*
X122956Y74186D01*
X122954Y74187D01*
X122952Y74188D01*
X122944Y74192D01*
X122936Y74195D01*
X122934Y74196D01*
X122931Y74197D01*
X122924Y74201D01*
X122916Y74205D01*
X122914Y74207D01*
X122912Y74208D01*
X122905Y74213D01*
X122897Y74217D01*
X122895Y74219D01*
X122894Y74220D01*
X122887Y74226D01*
X122880Y74231D01*
X122878Y74232D01*
X122876Y74234D01*
X122870Y74240D01*
X122863Y74246D01*
X122862Y74248D01*
X122860Y74249D01*
X122854Y74256D01*
X122849Y74262D01*
X122847Y74264D01*
X122846Y74266D01*
X122840Y74273D01*
X122835Y74280D01*
X122834Y74282D01*
X122832Y74284D01*
X122828Y74291D01*
X122823Y74299D01*
X122822Y74301D01*
X122821Y74303D01*
X122817Y74311D01*
X122813Y74318D01*
X122812Y74321D01*
X122811Y74323D01*
X122808Y74331D01*
X122805Y74339D01*
X122804Y74341D01*
X122803Y74343D01*
X122801Y74352D01*
X122798Y74360D01*
X122798Y74362D01*
X122797Y74365D01*
X122795Y74373D01*
X122793Y74382D01*
X122793Y74384D01*
X122793Y74386D01*
X122792Y74395D01*
X122791Y74404D01*
X122790Y74406D01*
X122790Y74408D01*
X122790Y74417D01*
X122790Y74426D01*
X122790Y74457D01*
X122758Y74458D01*
X122751Y74459D01*
X122744Y74459D01*
X122740Y74460D01*
X122736Y74460D01*
X122729Y74461D01*
X122722Y74462D01*
X122718Y74463D01*
X122714Y74464D01*
X122707Y74465D01*
X122700Y74467D01*
X122697Y74468D01*
X122693Y74469D01*
X122686Y74471D01*
X122679Y74474D01*
X122675Y74475D01*
X122672Y74476D01*
X122665Y74479D01*
X122659Y74482D01*
X122655Y74484D01*
X122652Y74485D01*
X122645Y74489D01*
X122639Y74492D01*
X122636Y74494D01*
X122632Y74496D01*
X122626Y74500D01*
X122620Y74504D01*
X122617Y74507D01*
X122614Y74509D01*
X122608Y74513D01*
X122603Y74518D01*
X122600Y74520D01*
X122597Y74523D01*
X122592Y74528D01*
X122586Y74533D01*
X122584Y74536D01*
X122581Y74538D01*
X122576Y74544D01*
X122571Y74549D01*
X122569Y74552D01*
X122566Y74555D01*
X122562Y74561D01*
X122558Y74567D01*
X122556Y74570D01*
X122553Y74573D01*
X122550Y74579D01*
X122546Y74585D01*
X122544Y74589D01*
X122542Y74592D01*
X122539Y74599D01*
X122536Y74605D01*
X122534Y74609D01*
X122532Y74612D01*
X122530Y74619D01*
X122527Y74626D01*
X122526Y74629D01*
X122525Y74633D01*
X122523Y74640D01*
X122520Y74647D01*
X122520Y74651D01*
X122519Y74654D01*
X122517Y74661D01*
X122516Y74668D01*
X122515Y74672D01*
X122514Y74676D01*
X122514Y74683D01*
X122513Y74690D01*
X122513Y74694D01*
X122512Y74698D01*
X122512Y74705D01*
X122512Y74713D01*
Y75287D01*
X122512Y75297D01*
X122512Y75306D01*
X122513Y75308D01*
X122513Y75310D01*
X122514Y75319D01*
X122515Y75328D01*
X122515Y75330D01*
X122516Y75332D01*
X122518Y75341D01*
X122520Y75350D01*
X122520Y75352D01*
X122520Y75353D01*
X122523Y75362D01*
X122526Y75371D01*
X122527Y75373D01*
X122527Y75374D01*
X122531Y75383D01*
X122534Y75392D01*
X122535Y75393D01*
X122536Y75395D01*
X122540Y75403D01*
X122544Y75411D01*
X122545Y75413D01*
X122546Y75415D01*
X122551Y75423D01*
X122556Y75430D01*
X122557Y75432D01*
X122558Y75433D01*
X122563Y75441D01*
X122569Y75448D01*
X122570Y75449D01*
X122571Y75451D01*
X122578Y75458D01*
X122584Y75465D01*
X122585Y75466D01*
X122586Y75467D01*
X122593Y75473D01*
X122600Y75480D01*
X122601Y75481D01*
X122603Y75482D01*
X122610Y75488D01*
X122617Y75494D01*
X122619Y75495D01*
X122620Y75496D01*
X122628Y75501D01*
X122636Y75506D01*
X122637Y75507D01*
X122639Y75508D01*
X122647Y75512D01*
X122655Y75516D01*
X122657Y75517D01*
X122659Y75518D01*
X122667Y75521D01*
X122676Y75525D01*
X122677Y75526D01*
X122679Y75526D01*
X122688Y75529D01*
X122697Y75532D01*
X122698Y75533D01*
X122700Y75533D01*
X122709Y75535D01*
X122718Y75537D01*
X122720Y75537D01*
X122722Y75538D01*
X122731Y75539D01*
X122740Y75540D01*
X122742Y75541D01*
X122744Y75541D01*
X122753Y75541D01*
X122762Y75542D01*
X122865Y75543D01*
X123032Y75555D01*
X123087Y75563D01*
X123119Y75570D01*
X123121Y75574D01*
X123122Y75575D01*
X123123Y75577D01*
X123128Y75585D01*
X123133Y75593D01*
X123134Y75594D01*
X123135Y75595D01*
X123141Y75603D01*
X123146Y75610D01*
X123147Y75612D01*
X123148Y75613D01*
X123155Y75620D01*
X123161Y75627D01*
X123162Y75628D01*
X123164Y75629D01*
X123171Y75635D01*
X123178Y75642D01*
X123179Y75643D01*
X123180Y75644D01*
X123188Y75650D01*
X123195Y75655D01*
X123197Y75656D01*
X123198Y75657D01*
X123206Y75662D01*
X123214Y75667D01*
X123215Y75668D01*
X123217Y75669D01*
X123225Y75673D01*
X123234Y75677D01*
X123235Y75678D01*
X123237Y75679D01*
X123245Y75682D01*
X123254Y75686D01*
X123256Y75686D01*
X123257Y75687D01*
X123266Y75690D01*
X123275Y75693D01*
X123277Y75693D01*
X123278Y75693D01*
X123288Y75695D01*
X123297Y75697D01*
X123299Y75698D01*
X123300Y75698D01*
X123310Y75699D01*
X123319Y75700D01*
X123321Y75700D01*
X123322Y75700D01*
X123332Y75701D01*
X123341Y75701D01*
X123343Y75701D01*
D02*
G37*
G36*
X166400Y49000D02*
Y48813D01*
X166327Y48446D01*
X166184Y48100D01*
X165976Y47789D01*
X165711Y47524D01*
X165400Y47316D01*
X165054Y47173D01*
X164687Y47100D01*
X40313D01*
X39946Y47173D01*
X39600Y47316D01*
X39289Y47524D01*
X39024Y47789D01*
X38816Y48100D01*
X38673Y48446D01*
X38600Y48813D01*
X38600Y49000D01*
Y51500D01*
X166400D01*
Y49000D01*
D02*
G37*
D14*
X40500Y102900D02*
G03*
X38600Y101000I0J-1900D01*
G01*
X166400D02*
G03*
X164500Y102900I-1900J0D01*
G01*
X38600Y98500D02*
X166400D01*
X38600D02*
Y101000D01*
X40500Y102900D02*
X164500D01*
X166400Y98500D02*
Y101000D01*
D15*
X170788Y78000D02*
D03*
Y72000D02*
D03*
D16*
X130000Y100000D02*
D03*
X70000Y50000D02*
D03*
X142500Y100000D02*
D03*
X70000D02*
D03*
X57500D02*
D03*
X142500Y50000D02*
D03*
X130000D02*
D03*
X57500D02*
D03*
D17*
X163500Y96000D02*
D03*
X41500Y54000D02*
D03*
X170500Y83000D02*
D03*
Y67000D02*
D03*
X170500Y78250D02*
D03*
Y71750D02*
D03*
D18*
X170200Y72000D02*
D03*
Y78000D02*
D03*
D19*
X171875Y75000D02*
D03*
D20*
X124500Y93050D02*
D03*
Y56950D02*
D03*
X102000D02*
D03*
Y93050D02*
D03*
X124500Y82550D02*
D03*
X102000D02*
D03*
Y67450D02*
D03*
X124500D02*
D03*
D21*
Y91400D02*
D03*
Y94700D02*
D03*
Y55300D02*
D03*
Y58600D02*
D03*
X102000Y55300D02*
D03*
Y58600D02*
D03*
Y91400D02*
D03*
Y94700D02*
D03*
X124500Y80900D02*
D03*
Y84200D02*
D03*
X102000Y80900D02*
D03*
Y84200D02*
D03*
Y65800D02*
D03*
Y69100D02*
D03*
X124500Y65800D02*
D03*
Y69100D02*
D03*
D22*
Y90000D02*
D03*
Y96100D02*
D03*
Y53900D02*
D03*
Y60000D02*
D03*
X102000Y53900D02*
D03*
Y60000D02*
D03*
Y90000D02*
D03*
Y96100D02*
D03*
X124500Y79500D02*
D03*
Y85600D02*
D03*
X102000Y79500D02*
D03*
Y85600D02*
D03*
Y64400D02*
D03*
Y70500D02*
D03*
X124500Y64400D02*
D03*
Y70500D02*
D03*
D23*
X155950Y87750D02*
D03*
X154550D02*
D03*
X141512Y81750D02*
D03*
X139988D02*
D03*
X143250Y79000D02*
D03*
X141726D02*
D03*
X144650Y80500D02*
D03*
X143250D02*
D03*
X143150Y77500D02*
D03*
X141750D02*
D03*
X143400Y86200D02*
D03*
X142000D02*
D03*
X138300Y81400D02*
D03*
X136900D02*
D03*
X125262Y75000D02*
D03*
X123738D02*
D03*
X150300D02*
D03*
X151700D02*
D03*
X132000Y75000D02*
D03*
X130600D02*
D03*
X115650Y75000D02*
D03*
X114250D02*
D03*
X103000Y75000D02*
D03*
X101600D02*
D03*
X107350Y81400D02*
D03*
X108750D02*
D03*
X113850Y86200D02*
D03*
X112450D02*
D03*
X113700Y79000D02*
D03*
X112176D02*
D03*
X111962Y81750D02*
D03*
X110438D02*
D03*
X113600Y77500D02*
D03*
X112200D02*
D03*
X115100Y80500D02*
D03*
X113700D02*
D03*
D24*
X158000Y75250D02*
D03*
X155210Y85920D02*
D03*
D25*
X136800Y75900D02*
D03*
Y77200D02*
D03*
X141750Y75000D02*
D03*
Y76300D02*
D03*
X112200Y75000D02*
D03*
Y76300D02*
D03*
X107250Y75900D02*
D03*
Y77200D02*
D03*
D26*
X138300Y79924D02*
D03*
Y78400D02*
D03*
X137200Y74800D02*
D03*
Y73400D02*
D03*
X136800Y79800D02*
D03*
Y78400D02*
D03*
X140400Y91000D02*
D03*
Y89600D02*
D03*
X141800Y91000D02*
D03*
Y89600D02*
D03*
X107650Y74800D02*
D03*
Y73400D02*
D03*
X126400Y74800D02*
D03*
Y73276D02*
D03*
X122600Y74800D02*
D03*
Y73276D02*
D03*
X108750Y78400D02*
D03*
Y79924D02*
D03*
X107250Y78400D02*
D03*
Y79800D02*
D03*
X112250Y91000D02*
D03*
Y89600D02*
D03*
X110850Y91000D02*
D03*
Y89600D02*
D03*
D27*
X140351Y75608D02*
D03*
Y75100D02*
D03*
Y74592D02*
D03*
Y74084D02*
D03*
X138500Y75100D02*
D03*
Y74592D02*
D03*
Y75608D02*
D03*
Y74084D02*
D03*
X110801Y75608D02*
D03*
Y75100D02*
D03*
Y74592D02*
D03*
Y74084D02*
D03*
X108950Y75100D02*
D03*
Y74592D02*
D03*
Y75608D02*
D03*
Y74084D02*
D03*
D28*
X139426Y74846D02*
D03*
X109876Y74846D02*
D03*
D29*
X146250Y84524D02*
D03*
X141150D02*
D03*
X146250Y71064D02*
D03*
X141150D02*
D03*
X136050Y84524D02*
D03*
Y71064D02*
D03*
X116700Y84524D02*
D03*
X111600D02*
D03*
X116700Y71064D02*
D03*
X111600D02*
D03*
X106500Y84524D02*
D03*
Y71064D02*
D03*
D30*
X147400Y83374D02*
D03*
Y77794D02*
D03*
Y72214D02*
D03*
X134900Y83374D02*
D03*
Y77794D02*
D03*
Y72214D02*
D03*
X117850Y83374D02*
D03*
Y77794D02*
D03*
Y72214D02*
D03*
X105350Y83374D02*
D03*
Y77794D02*
D03*
Y72214D02*
D03*
D31*
X143700Y91200D02*
D03*
Y88000D02*
D03*
X114150Y91200D02*
D03*
Y88000D02*
D03*
D32*
X46000Y93650D02*
D03*
X49000D02*
D03*
D33*
X35500Y86500D02*
D03*
X41000Y91500D02*
D03*
D34*
X57500Y94900D02*
D03*
X67500D02*
D03*
X77500D02*
D03*
X87500D02*
D03*
X47500Y62100D02*
D03*
X57500D02*
D03*
X67500D02*
D03*
X77500D02*
D03*
X87500D02*
D03*
X97500Y88000D02*
D03*
D35*
Y75000D02*
D03*
D36*
X96250Y72250D02*
D03*
Y69250D02*
D03*
Y80750D02*
D03*
Y77750D02*
D03*
D37*
X96750Y75000D02*
D03*
D38*
X107650Y75025D02*
X108000D01*
X111751D02*
X112101D01*
X141301Y75025D02*
X141651D01*
X137200D02*
X137550D01*
D39*
X151700Y75000D02*
X158000D01*
X158250D02*
X172000D01*
X158000Y75250D02*
X158250Y75000D01*
X132000Y75000D02*
X136750D01*
X136800D02*
X137200D01*
X103000D02*
X107250D01*
X107650D01*
X126500Y75000D02*
X130600D01*
X125262D02*
X126500D01*
X122500Y75000D02*
X123738D01*
X115650D02*
X122500D01*
X97500Y75000D02*
X101600D01*
X141700D02*
X150300D01*
X112200D02*
X114250D01*
D40*
X35500Y91000D02*
D03*
X169500Y59000D02*
D03*
D41*
X139426Y74846D02*
D03*
X109876Y74846D02*
D03*
D42*
X129275Y60415D02*
D03*
Y59365D02*
D03*
X130475D02*
D03*
Y60415D02*
D03*
Y58315D02*
D03*
X129275D02*
D03*
X151889Y62135D02*
D03*
X151000Y62135D02*
D03*
X151000Y60865D02*
D03*
X151889D02*
D03*
X150111Y62135D02*
D03*
Y60865D02*
D03*
D43*
X129315Y85825D02*
D03*
X129315Y84725D02*
D03*
X130415D02*
D03*
X130415Y85825D02*
D03*
X83315Y74825D02*
D03*
X83315Y73725D02*
D03*
X84415D02*
D03*
Y74825D02*
D03*
D44*
X97500Y72250D02*
D03*
Y80750D02*
D03*
Y69250D02*
D03*
Y77750D02*
D03*
X46000Y94900D02*
D03*
X49000D02*
D03*
M02*
