G04*
G04 #@! TF.GenerationSoftware,Altium Limited,Altium Designer,21.7.2 (23)*
G04*
G04 Layer_Color=16711935*
%FSLAX43Y43*%
%MOMM*%
G71*
G04*
G04 #@! TF.SameCoordinates,BD2E6C67-D46E-495A-B7F0-CE9B6F3DEFF6*
G04*
G04*
G04 #@! TF.FilePolarity,Negative*
G04*
G01*
G75*
%ADD16R,2.203X3.203*%
%ADD20R,1.103X1.403*%
%ADD21R,1.103X1.703*%
%ADD22R,1.103X0.803*%
%ADD23R,1.003X1.103*%
%ADD26R,1.103X1.003*%
%ADD40C,7.203*%
%ADD41C,0.600*%
%ADD42C,0.903*%
%ADD43C,0.803*%
%ADD44C,1.553*%
%ADD99R,1.303X1.603*%
%ADD100R,2.703X1.903*%
%ADD101O,2.403X0.803*%
%ADD102R,1.603X1.303*%
%ADD103R,2.203X5.703*%
%ADD104R,1.403X1.403*%
%ADD105O,1.983X0.623*%
%ADD106R,1.703X1.103*%
%ADD107R,0.803X1.103*%
%ADD108R,1.403X1.103*%
%ADD109O,0.803X1.653*%
%ADD110R,2.603X3.303*%
%ADD111R,2.903X2.703*%
%ADD112R,2.493X2.493*%
G36*
X38600Y98500D02*
X166400D01*
Y101000D01*
Y101187D01*
X166327Y101554D01*
X166184Y101900D01*
X165976Y102211D01*
X165711Y102476D01*
X165400Y102684D01*
X165054Y102827D01*
X164687Y102900D01*
X164500D01*
D01*
X40500Y102900D01*
X40313D01*
X39946Y102827D01*
X39600Y102684D01*
X39289Y102476D01*
X39024Y102211D01*
X38816Y101900D01*
X38673Y101554D01*
X38600Y101187D01*
X38600Y101000D01*
Y101000D01*
Y98500D01*
D02*
G37*
G36*
Y51500D02*
X166400D01*
Y49000D01*
Y48813D01*
X166327Y48446D01*
X166184Y48100D01*
X165976Y47789D01*
X165711Y47524D01*
X165400Y47316D01*
X165054Y47173D01*
X164687Y47100D01*
X164500D01*
D01*
X40500D01*
X40313D01*
X39946Y47173D01*
X39600Y47316D01*
X39289Y47524D01*
X39024Y47789D01*
X38816Y48100D01*
X38673Y48446D01*
X38600Y48813D01*
X38600Y49000D01*
D01*
Y51500D01*
D02*
G37*
D16*
X135000Y100000D02*
D03*
X65000D02*
D03*
Y50000D02*
D03*
X135000D02*
D03*
D20*
X102000Y80550D02*
D03*
Y56950D02*
D03*
Y69450D02*
D03*
Y93050D02*
D03*
D21*
Y78900D02*
D03*
Y82200D02*
D03*
Y55300D02*
D03*
Y58600D02*
D03*
Y67800D02*
D03*
Y71100D02*
D03*
Y91400D02*
D03*
Y94700D02*
D03*
D22*
Y77500D02*
D03*
Y83600D02*
D03*
Y53900D02*
D03*
Y60000D02*
D03*
Y66400D02*
D03*
Y72500D02*
D03*
Y90000D02*
D03*
Y96100D02*
D03*
D23*
X119988Y59750D02*
D03*
X121512D02*
D03*
X130800Y55250D02*
D03*
X132200D02*
D03*
X134988Y58250D02*
D03*
X136512D02*
D03*
X128000Y63500D02*
D03*
X129400D02*
D03*
X122738Y59750D02*
D03*
X124262D02*
D03*
X124512Y58000D02*
D03*
X122988D02*
D03*
X144350Y61500D02*
D03*
X145750D02*
D03*
X132000Y80000D02*
D03*
X133524D02*
D03*
X128976D02*
D03*
X130500D02*
D03*
X127476Y90000D02*
D03*
X129000D02*
D03*
X128900Y91500D02*
D03*
X127500Y91500D02*
D03*
X132000Y90000D02*
D03*
X133524D02*
D03*
X86000Y69000D02*
D03*
X87524D02*
D03*
X82976D02*
D03*
X84500D02*
D03*
X86000Y79000D02*
D03*
X87524D02*
D03*
X81500D02*
D03*
X83024D02*
D03*
X82900Y80500D02*
D03*
X81500Y80500D02*
D03*
X145750Y60000D02*
D03*
X144226D02*
D03*
D26*
X135000Y55238D02*
D03*
Y56762D02*
D03*
X124500Y55350D02*
D03*
Y56750D02*
D03*
X123000Y55350D02*
D03*
Y56750D02*
D03*
X156250Y62512D02*
D03*
Y60988D02*
D03*
X157750Y62500D02*
D03*
Y64024D02*
D03*
X156250Y57976D02*
D03*
Y59500D02*
D03*
X126000Y84200D02*
D03*
X126000Y82800D02*
D03*
X126000Y85800D02*
D03*
Y87200D02*
D03*
X130500Y90000D02*
D03*
X130500Y91524D02*
D03*
X80000Y73200D02*
D03*
Y71800D02*
D03*
X80000Y74800D02*
D03*
Y76200D02*
D03*
X84500Y79000D02*
D03*
X84500Y80524D02*
D03*
D40*
X35500Y91000D02*
D03*
X169500Y59000D02*
D03*
D41*
X139426Y74846D02*
D03*
X109876Y74846D02*
D03*
D42*
X129275Y60415D02*
D03*
Y59365D02*
D03*
X130475D02*
D03*
Y60415D02*
D03*
Y58315D02*
D03*
X129275D02*
D03*
X151889Y62135D02*
D03*
X151000Y62135D02*
D03*
X151000Y60865D02*
D03*
X151889D02*
D03*
X150111Y62135D02*
D03*
Y60865D02*
D03*
D43*
X129315Y85825D02*
D03*
X129315Y84725D02*
D03*
X130415D02*
D03*
X130415Y85825D02*
D03*
X83315Y74825D02*
D03*
X83315Y73725D02*
D03*
X84415D02*
D03*
Y74825D02*
D03*
D44*
X97500Y72250D02*
D03*
Y80750D02*
D03*
Y69250D02*
D03*
Y77750D02*
D03*
X46000Y94900D02*
D03*
X49000D02*
D03*
D99*
X121889Y61500D02*
D03*
X120111D02*
D03*
X158500Y71000D02*
D03*
X160278D02*
D03*
D100*
X131000Y66250D02*
D03*
X127000D02*
D03*
D101*
Y61270D02*
D03*
Y60000D02*
D03*
X132750Y58730D02*
D03*
Y61270D02*
D03*
Y60000D02*
D03*
X127000Y58730D02*
D03*
Y57460D02*
D03*
X132750D02*
D03*
D102*
X135500Y60611D02*
D03*
Y62389D02*
D03*
D103*
X118980Y66750D02*
D03*
X123020D02*
D03*
D104*
X158349Y68500D02*
D03*
X161651D02*
D03*
D105*
X154048Y63786D02*
D03*
Y62486D02*
D03*
Y61836D02*
D03*
Y63136D02*
D03*
Y60536D02*
D03*
Y61186D02*
D03*
Y59236D02*
D03*
Y59886D02*
D03*
X147952Y63136D02*
D03*
X147952Y62486D02*
D03*
Y63786D02*
D03*
Y61186D02*
D03*
Y61836D02*
D03*
X147952Y59886D02*
D03*
X147952Y60536D02*
D03*
X147952Y59236D02*
D03*
D106*
X129100Y75000D02*
D03*
X125800D02*
D03*
X159100D02*
D03*
X155800D02*
D03*
X144100D02*
D03*
X140800D02*
D03*
X114100D02*
D03*
X110800D02*
D03*
D107*
X130500D02*
D03*
X124400D02*
D03*
X160500D02*
D03*
X154400D02*
D03*
X145500D02*
D03*
X139400D02*
D03*
X115500D02*
D03*
X109400D02*
D03*
D108*
X127450D02*
D03*
X157450D02*
D03*
X142450D02*
D03*
X112450D02*
D03*
D109*
X127960Y82550D02*
D03*
X129230D02*
D03*
Y88000D02*
D03*
X127960D02*
D03*
X130500Y82550D02*
D03*
X131770D02*
D03*
X130500Y88000D02*
D03*
X131770D02*
D03*
X81960Y71550D02*
D03*
X83230D02*
D03*
Y77000D02*
D03*
X81960D02*
D03*
X84500Y71550D02*
D03*
X85770D02*
D03*
X84500Y77000D02*
D03*
X85770D02*
D03*
D110*
X129875Y59365D02*
D03*
D111*
X151000Y61500D02*
D03*
D112*
X129865Y85275D02*
D03*
X83865Y74275D02*
D03*
M02*
