G04*
G04 #@! TF.GenerationSoftware,Altium Limited,Altium Designer,21.7.2 (23)*
G04*
G04 Layer_Physical_Order=4*
G04 Layer_Color=16711680*
%FSLAX43Y43*%
%MOMM*%
G71*
G04*
G04 #@! TF.SameCoordinates,BD2E6C67-D46E-495A-B7F0-CE9B6F3DEFF6*
G04*
G04*
G04 #@! TF.FilePolarity,Positive*
G04*
G01*
G75*
%ADD41C,0.600*%
%ADD46C,0.635*%
%ADD47R,2.000X3.000*%
%ADD51R,0.900X1.200*%
%ADD52R,0.900X1.500*%
%ADD53R,0.900X0.600*%
%ADD54R,0.800X0.900*%
%ADD57R,0.900X0.800*%
%ADD74R,2.400X3.100*%
%ADD75R,2.700X2.500*%
%ADD76R,2.290X2.290*%
%ADD77C,7.000*%
%ADD78C,0.700*%
%ADD79C,1.000*%
%ADD80C,1.350*%
%ADD87R,1.100X1.400*%
%ADD88R,2.500X1.700*%
%ADD89O,2.200X0.600*%
%ADD90R,1.400X1.100*%
%ADD91R,2.000X5.500*%
%ADD92R,1.200X1.200*%
%ADD93O,1.780X0.420*%
%ADD94R,1.500X0.900*%
%ADD95R,0.600X0.900*%
%ADD96R,1.200X0.900*%
%ADD97O,0.600X1.450*%
%ADD98C,0.500*%
G36*
X164979Y102578D02*
X165277Y102454D01*
X165546Y102275D01*
X165775Y102046D01*
X165954Y101777D01*
X166078Y101479D01*
X166141Y101162D01*
Y101000D01*
Y92500D01*
X166142Y92496D01*
X166141Y92492D01*
X166151Y92191D01*
X166154Y92178D01*
X166153Y92165D01*
X166232Y91569D01*
X166237Y91553D01*
X166238Y91536D01*
X166394Y90954D01*
X166402Y90939D01*
X166405Y90922D01*
X166635Y90366D01*
X166645Y90352D01*
X166650Y90336D01*
X166951Y89815D01*
X166962Y89802D01*
X166970Y89787D01*
X167336Y89309D01*
X167349Y89298D01*
X167358Y89284D01*
X167784Y88858D01*
X167798Y88849D01*
X167809Y88836D01*
X168287Y88470D01*
X168302Y88462D01*
X168315Y88451D01*
X168836Y88150D01*
X168852Y88145D01*
X168866Y88135D01*
X169422Y87905D01*
X169439Y87902D01*
X169454Y87894D01*
X170036Y87738D01*
X170053Y87737D01*
X170069Y87732D01*
X170665Y87653D01*
X170678Y87654D01*
X170691Y87651D01*
X170992Y87641D01*
X170996Y87642D01*
X171000Y87641D01*
X171662Y87641D01*
X171979Y87578D01*
X172277Y87454D01*
X172546Y87275D01*
X172775Y87046D01*
X172954Y86777D01*
X173078Y86479D01*
X173141Y86162D01*
Y86000D01*
X173141Y57000D01*
X173141Y56838D01*
X173078Y56521D01*
X172954Y56223D01*
X172775Y55954D01*
X172546Y55725D01*
X172277Y55546D01*
X171979Y55422D01*
X171662Y55359D01*
X171500D01*
X168500Y55359D01*
X168494Y55358D01*
X168487Y55359D01*
X168281Y55349D01*
X168263Y55344D01*
X168244D01*
X167840Y55264D01*
X167816Y55254D01*
X167791Y55249D01*
X167411Y55091D01*
X167390Y55077D01*
X167366Y55067D01*
X167024Y54839D01*
X167006Y54821D01*
X166985Y54806D01*
X166694Y54515D01*
X166679Y54494D01*
X166661Y54476D01*
X166433Y54134D01*
X166423Y54110D01*
X166409Y54089D01*
X166251Y53709D01*
X166246Y53684D01*
X166236Y53660D01*
X166156Y53256D01*
Y53237D01*
X166151Y53219D01*
X166141Y53013D01*
X166142Y53006D01*
X166141Y53000D01*
X166141Y49000D01*
X166141Y48838D01*
X166078Y48521D01*
X165954Y48223D01*
X165775Y47954D01*
X165546Y47725D01*
X165277Y47546D01*
X164979Y47422D01*
X164662Y47359D01*
X164500D01*
X40500Y47359D01*
X40338D01*
X40021Y47422D01*
X39723Y47546D01*
X39454Y47725D01*
X39225Y47954D01*
X39046Y48223D01*
X38922Y48521D01*
X38859Y48838D01*
Y49000D01*
Y57500D01*
X38858Y57504D01*
X38859Y57508D01*
X38849Y57809D01*
X38846Y57822D01*
X38847Y57835D01*
X38768Y58431D01*
X38763Y58447D01*
X38762Y58464D01*
X38606Y59046D01*
X38598Y59061D01*
X38595Y59078D01*
X38365Y59634D01*
X38355Y59648D01*
X38350Y59664D01*
X38049Y60185D01*
X38038Y60198D01*
X38030Y60213D01*
X37664Y60691D01*
X37651Y60702D01*
X37642Y60716D01*
X37216Y61142D01*
X37202Y61151D01*
X37191Y61164D01*
X36713Y61530D01*
X36698Y61538D01*
X36685Y61549D01*
X36164Y61850D01*
X36148Y61855D01*
X36134Y61865D01*
X35578Y62095D01*
X35561Y62098D01*
X35546Y62106D01*
X34964Y62262D01*
X34947Y62263D01*
X34931Y62268D01*
X34335Y62347D01*
X34322Y62346D01*
X34309Y62349D01*
X34008Y62359D01*
X34004Y62358D01*
X34000Y62359D01*
X33500Y62359D01*
X33338Y62359D01*
X33021Y62422D01*
X32723Y62546D01*
X32454Y62725D01*
X32225Y62954D01*
X32046Y63223D01*
X31922Y63521D01*
X31859Y63838D01*
Y64000D01*
X31859Y93000D01*
X31859Y93162D01*
X31922Y93479D01*
X32046Y93777D01*
X32225Y94046D01*
X32454Y94275D01*
X32723Y94454D01*
X33021Y94578D01*
X33338Y94641D01*
X33500D01*
X36500Y94641D01*
X36506Y94642D01*
X36513Y94641D01*
X36719Y94651D01*
X36737Y94656D01*
X36756D01*
X37160Y94736D01*
X37184Y94746D01*
X37209Y94751D01*
X37589Y94909D01*
X37610Y94923D01*
X37634Y94933D01*
X37976Y95161D01*
X37994Y95179D01*
X38015Y95194D01*
X38306Y95485D01*
X38321Y95506D01*
X38339Y95524D01*
X38567Y95866D01*
X38577Y95890D01*
X38591Y95911D01*
X38749Y96291D01*
X38754Y96316D01*
X38764Y96340D01*
X38844Y96744D01*
Y96763D01*
X38849Y96781D01*
X38859Y96987D01*
X38858Y96994D01*
X38859Y97000D01*
X38859Y101000D01*
X38859Y101162D01*
X38922Y101479D01*
X39046Y101777D01*
X39225Y102046D01*
X39454Y102275D01*
X39723Y102454D01*
X40021Y102578D01*
X40338Y102641D01*
X40500D01*
X164500Y102641D01*
X164662D01*
X164979Y102578D01*
D02*
G37*
%LPC*%
G36*
X66200Y101700D02*
X65512D01*
Y100512D01*
X66200D01*
Y101700D01*
D02*
G37*
G36*
X64488D02*
X63800D01*
Y100512D01*
X64488D01*
Y101700D01*
D02*
G37*
G36*
X136200D02*
X135512D01*
Y100512D01*
X136200D01*
Y101700D01*
D02*
G37*
G36*
X134488D02*
X133800D01*
Y100512D01*
X134488D01*
Y101700D01*
D02*
G37*
G36*
X136200Y99488D02*
X135512D01*
Y98300D01*
X136200D01*
Y99488D01*
D02*
G37*
G36*
X134488D02*
X133800D01*
Y98300D01*
X134488D01*
Y99488D01*
D02*
G37*
G36*
X66200Y99488D02*
X65512D01*
Y98300D01*
X66200D01*
Y99488D01*
D02*
G37*
G36*
X64488D02*
X63800D01*
Y98300D01*
X64488D01*
Y99488D01*
D02*
G37*
G36*
X49115Y95775D02*
X48885D01*
X48662Y95715D01*
X48463Y95600D01*
X48300Y95437D01*
X48185Y95238D01*
X48125Y95015D01*
Y94785D01*
X48185Y94562D01*
X48300Y94363D01*
X48463Y94200D01*
X48662Y94085D01*
X48885Y94025D01*
X49115D01*
X49338Y94085D01*
X49537Y94200D01*
X49700Y94363D01*
X49815Y94562D01*
X49875Y94785D01*
Y95015D01*
X49815Y95238D01*
X49700Y95437D01*
X49537Y95600D01*
X49338Y95715D01*
X49115Y95775D01*
D02*
G37*
G36*
X46115D02*
X45885D01*
X45662Y95715D01*
X45463Y95600D01*
X45300Y95437D01*
X45185Y95238D01*
X45125Y95015D01*
Y94785D01*
X45185Y94562D01*
X45300Y94363D01*
X45463Y94200D01*
X45662Y94085D01*
X45885Y94025D01*
X46115D01*
X46338Y94085D01*
X46537Y94200D01*
X46700Y94363D01*
X46815Y94562D01*
X46875Y94785D01*
Y95015D01*
X46815Y95238D01*
X46700Y95437D01*
X46537Y95600D01*
X46338Y95715D01*
X46115Y95775D01*
D02*
G37*
G36*
X142649Y94500D02*
X142451D01*
X142267Y94424D01*
X142126Y94283D01*
X142050Y94099D01*
Y93901D01*
X142126Y93717D01*
X142267Y93576D01*
X142451Y93500D01*
X142649D01*
X142833Y93576D01*
X142974Y93717D01*
X143050Y93901D01*
Y94099D01*
X142974Y94283D01*
X142833Y94424D01*
X142649Y94500D01*
D02*
G37*
G36*
X140649D02*
X140451D01*
X140267Y94424D01*
X140126Y94283D01*
X140050Y94099D01*
Y93901D01*
X140126Y93717D01*
X140267Y93576D01*
X140451Y93500D01*
X140649D01*
X140833Y93576D01*
X140974Y93717D01*
X141050Y93901D01*
Y94099D01*
X140974Y94283D01*
X140833Y94424D01*
X140649Y94500D01*
D02*
G37*
G36*
X113099D02*
X112901D01*
X112717Y94424D01*
X112576Y94283D01*
X112500Y94099D01*
Y93901D01*
X112576Y93717D01*
X112717Y93576D01*
X112901Y93500D01*
X113099D01*
X113283Y93576D01*
X113424Y93717D01*
X113500Y93901D01*
Y94099D01*
X113424Y94283D01*
X113283Y94424D01*
X113099Y94500D01*
D02*
G37*
G36*
X111099D02*
X110901D01*
X110717Y94424D01*
X110576Y94283D01*
X110500Y94099D01*
Y93901D01*
X110576Y93717D01*
X110717Y93576D01*
X110901Y93500D01*
X111099D01*
X111283Y93576D01*
X111424Y93717D01*
X111500Y93901D01*
Y94099D01*
X111424Y94283D01*
X111283Y94424D01*
X111099Y94500D01*
D02*
G37*
G36*
X141649Y93000D02*
X141451D01*
X141267Y92924D01*
X141126Y92783D01*
X141050Y92599D01*
Y92401D01*
X141126Y92217D01*
X141267Y92076D01*
X141451Y92000D01*
X141649D01*
X141833Y92076D01*
X141974Y92217D01*
X142050Y92401D01*
Y92599D01*
X141974Y92783D01*
X141833Y92924D01*
X141649Y93000D01*
D02*
G37*
G36*
X139649D02*
X139451D01*
X139267Y92924D01*
X139126Y92783D01*
X139050Y92599D01*
Y92401D01*
X139126Y92217D01*
X139267Y92076D01*
X139451Y92000D01*
X139649D01*
X139833Y92076D01*
X139974Y92217D01*
X140050Y92401D01*
Y92599D01*
X139974Y92783D01*
X139833Y92924D01*
X139649Y93000D01*
D02*
G37*
G36*
X112099D02*
X111901D01*
X111717Y92924D01*
X111576Y92783D01*
X111500Y92599D01*
Y92401D01*
X111576Y92217D01*
X111717Y92076D01*
X111901Y92000D01*
X112099D01*
X112283Y92076D01*
X112424Y92217D01*
X112500Y92401D01*
Y92599D01*
X112424Y92783D01*
X112283Y92924D01*
X112099Y93000D01*
D02*
G37*
G36*
X110099D02*
X109901D01*
X109717Y92924D01*
X109576Y92783D01*
X109500Y92599D01*
Y92401D01*
X109576Y92217D01*
X109717Y92076D01*
X109901Y92000D01*
X110099D01*
X110283Y92076D01*
X110424Y92217D01*
X110500Y92401D01*
Y92599D01*
X110424Y92783D01*
X110283Y92924D01*
X110099Y93000D01*
D02*
G37*
G36*
X130500Y93259D02*
X119000D01*
X118901Y93239D01*
X118817Y93183D01*
X118761Y93099D01*
X118741Y93000D01*
Y86500D01*
X118761Y86401D01*
X118817Y86317D01*
X118901Y86261D01*
X119000Y86241D01*
X125285D01*
X125311Y86246D01*
X125338Y86247D01*
X125360Y86256D01*
X125384Y86261D01*
X125406Y86276D01*
X125431Y86286D01*
X125448Y86304D01*
X125468Y86317D01*
X125483Y86339D01*
X125502Y86359D01*
X125567Y86459D01*
X125576Y86481D01*
X125589Y86501D01*
X125595Y86527D01*
X125602Y86546D01*
X126398D01*
X126405Y86527D01*
X126411Y86501D01*
X126424Y86481D01*
X126433Y86459D01*
X126498Y86359D01*
X126517Y86339D01*
X126532Y86317D01*
X126552Y86304D01*
X126569Y86286D01*
X126594Y86276D01*
X126616Y86261D01*
X126640Y86256D01*
X126662Y86247D01*
X126689Y86246D01*
X126715Y86241D01*
X128466D01*
X128565Y86261D01*
X128649Y86317D01*
X128705Y86401D01*
X128708Y86415D01*
X130500D01*
X130599Y86435D01*
X130683Y86491D01*
X130739Y86575D01*
X130759Y86674D01*
Y87010D01*
X130754Y87035D01*
Y87061D01*
X130748Y87075D01*
X130899Y87176D01*
X131022Y87359D01*
X131065Y87575D01*
Y87910D01*
X131083Y88000D01*
Y89179D01*
X131087Y89271D01*
X131092Y89310D01*
X131204Y89346D01*
X131317Y89315D01*
X131346Y89296D01*
Y89296D01*
X131593D01*
X131603Y89294D01*
X131613Y89296D01*
X132654D01*
Y90704D01*
X131613D01*
X131603Y90706D01*
X131593Y90704D01*
X131346D01*
Y90704D01*
X131219Y90647D01*
X131204Y90654D01*
Y90654D01*
X130957D01*
X130947Y90656D01*
X130946Y90656D01*
X130946Y90656D01*
X130936Y90654D01*
X130064D01*
X130054Y90656D01*
X130054Y90656D01*
X130053Y90656D01*
X130043Y90654D01*
X129796D01*
Y90654D01*
X129758Y90636D01*
X129654Y90704D01*
Y90704D01*
X129580Y90771D01*
X129602Y90903D01*
X129679Y90929D01*
X129796Y90870D01*
Y90870D01*
X130043D01*
X130053Y90868D01*
X130054Y90868D01*
X130054Y90868D01*
X130064Y90870D01*
X131204D01*
Y92178D01*
X130759D01*
Y93000D01*
X130739Y93099D01*
X130683Y93183D01*
X130599Y93239D01*
X130500Y93259D01*
D02*
G37*
G36*
X134124Y90650D02*
X133706D01*
Y90183D01*
X134124D01*
Y90650D01*
D02*
G37*
G36*
X133342D02*
X132924D01*
Y90183D01*
X133342D01*
Y90650D01*
D02*
G37*
G36*
X134124Y89817D02*
X133706D01*
Y89350D01*
X134124D01*
Y89817D01*
D02*
G37*
G36*
X133342D02*
X132924D01*
Y89350D01*
X133342D01*
Y89817D01*
D02*
G37*
G36*
X159099Y89500D02*
X158901D01*
X158717Y89424D01*
X158576Y89283D01*
X158500Y89099D01*
Y88901D01*
X158576Y88717D01*
X158717Y88576D01*
X158901Y88500D01*
X159099D01*
X159283Y88576D01*
X159424Y88717D01*
X159500Y88901D01*
Y89099D01*
X159424Y89283D01*
X159283Y89424D01*
X159099Y89500D01*
D02*
G37*
G36*
X157099D02*
X156901D01*
X156717Y89424D01*
X156576Y89283D01*
X156500Y89099D01*
Y88901D01*
X156576Y88717D01*
X156717Y88576D01*
X156901Y88500D01*
X157099D01*
X157283Y88576D01*
X157424Y88717D01*
X157500Y88901D01*
Y89099D01*
X157424Y89283D01*
X157283Y89424D01*
X157099Y89500D01*
D02*
G37*
G36*
X159599Y88000D02*
X159401D01*
X159217Y87924D01*
X159076Y87783D01*
X159000Y87599D01*
Y87401D01*
X159076Y87217D01*
X159217Y87076D01*
X159401Y87000D01*
X159599D01*
X159783Y87076D01*
X159924Y87217D01*
X160000Y87401D01*
Y87599D01*
X159924Y87783D01*
X159783Y87924D01*
X159599Y88000D01*
D02*
G37*
G36*
X157599D02*
X157401D01*
X157217Y87924D01*
X157076Y87783D01*
X157000Y87599D01*
Y87401D01*
X157076Y87217D01*
X157217Y87076D01*
X157401Y87000D01*
X157599D01*
X157783Y87076D01*
X157924Y87217D01*
X158000Y87401D01*
Y87599D01*
X157924Y87783D01*
X157783Y87924D01*
X157599Y88000D01*
D02*
G37*
G36*
X132500Y84009D02*
X126704D01*
X126605Y83989D01*
X126521Y83933D01*
X126465Y83849D01*
X126456Y83805D01*
X125544D01*
X125535Y83849D01*
X125479Y83933D01*
X125395Y83989D01*
X125296Y84009D01*
X124500D01*
X124401Y83989D01*
X124317Y83933D01*
X124261Y83849D01*
X124241Y83750D01*
Y78000D01*
X124261Y77901D01*
X124317Y77817D01*
X124401Y77761D01*
X124500Y77741D01*
X124548D01*
X124637Y77704D01*
X124704Y77637D01*
X124741Y77548D01*
Y77452D01*
X124704Y77363D01*
X124651Y77310D01*
X124595Y77226D01*
X124575Y77127D01*
X124595Y77028D01*
X124647Y76901D01*
X124704Y76817D01*
X124788Y76761D01*
X124887Y76741D01*
X132500D01*
X132599Y76761D01*
X132683Y76817D01*
X132739Y76901D01*
X132759Y77000D01*
Y79296D01*
X132739Y79395D01*
X132683Y79479D01*
X132654Y79499D01*
Y80501D01*
X132683Y80521D01*
X132739Y80605D01*
X132759Y80704D01*
Y83750D01*
X132739Y83849D01*
X132683Y83933D01*
X132599Y83989D01*
X132500Y84009D01*
D02*
G37*
G36*
X134124Y80650D02*
X133706D01*
Y80183D01*
X134124D01*
Y80650D01*
D02*
G37*
G36*
X133342D02*
X132924D01*
Y80183D01*
X133342D01*
Y80650D01*
D02*
G37*
G36*
X84635Y82259D02*
X75500D01*
X75401Y82239D01*
X75317Y82183D01*
X75261Y82099D01*
X75241Y82000D01*
Y75500D01*
X75261Y75401D01*
X75317Y75317D01*
X75401Y75261D01*
X75500Y75241D01*
X79285D01*
X79311Y75246D01*
X79338Y75247D01*
X79360Y75256D01*
X79384Y75261D01*
X79406Y75276D01*
X79431Y75286D01*
X79448Y75304D01*
X79468Y75317D01*
X79483Y75339D01*
X79502Y75359D01*
X79567Y75459D01*
X79576Y75481D01*
X79589Y75501D01*
X79595Y75527D01*
X79602Y75546D01*
X80398D01*
X80405Y75527D01*
X80411Y75501D01*
X80424Y75481D01*
X80433Y75459D01*
X80498Y75359D01*
X80517Y75339D01*
X80532Y75317D01*
X80552Y75304D01*
X80569Y75286D01*
X80594Y75276D01*
X80616Y75261D01*
X80640Y75256D01*
X80662Y75247D01*
X80689Y75246D01*
X80715Y75241D01*
X82466D01*
X82565Y75261D01*
X82649Y75317D01*
X82705Y75401D01*
X82708Y75415D01*
X84635D01*
X84734Y75435D01*
X84818Y75491D01*
X84874Y75575D01*
X84894Y75674D01*
Y75937D01*
X84891Y75950D01*
X84893Y75962D01*
X84882Y75999D01*
X84874Y76036D01*
X84888Y76139D01*
X84899Y76176D01*
X85022Y76359D01*
X85065Y76575D01*
Y76910D01*
X85083Y77000D01*
Y78179D01*
X85087Y78271D01*
X85092Y78310D01*
X85204Y78346D01*
X85317Y78315D01*
X85346Y78296D01*
Y78296D01*
X85593D01*
X85603Y78294D01*
X85613Y78296D01*
X86654D01*
Y79704D01*
X85613D01*
X85603Y79706D01*
X85593Y79704D01*
X85346D01*
Y79704D01*
X85219Y79647D01*
X85204Y79654D01*
Y79654D01*
X84957D01*
X84947Y79656D01*
X84946Y79656D01*
X84946Y79656D01*
X84936Y79654D01*
X84064D01*
X84054Y79656D01*
X84054Y79656D01*
X84053Y79656D01*
X84043Y79654D01*
X83796D01*
X83796Y79654D01*
X83710Y79670D01*
X83678Y79698D01*
Y79704D01*
X83638D01*
X83580Y79768D01*
X83602Y79903D01*
X83679Y79929D01*
X83796Y79870D01*
Y79870D01*
X84043D01*
X84053Y79868D01*
X84054Y79868D01*
X84054Y79868D01*
X84064Y79870D01*
X85204D01*
Y81178D01*
X84894D01*
Y82000D01*
X84874Y82099D01*
X84818Y82183D01*
X84734Y82239D01*
X84635Y82259D01*
D02*
G37*
G36*
X134124Y79817D02*
X133706D01*
Y79350D01*
X134124D01*
Y79817D01*
D02*
G37*
G36*
X133342D02*
X132924D01*
Y79350D01*
X133342D01*
Y79817D01*
D02*
G37*
G36*
X88124Y79650D02*
X87706D01*
Y79183D01*
X88124D01*
Y79650D01*
D02*
G37*
G36*
X87341D02*
X86924D01*
Y79183D01*
X87341D01*
Y79650D01*
D02*
G37*
G36*
X88124Y78817D02*
X87706D01*
Y78350D01*
X88124D01*
Y78817D01*
D02*
G37*
G36*
X87341D02*
X86924D01*
Y78350D01*
X87341D01*
Y78817D01*
D02*
G37*
G36*
X84500Y73009D02*
X80704D01*
X80605Y72989D01*
X80521Y72933D01*
X80465Y72849D01*
X80456Y72805D01*
X79544D01*
X79535Y72849D01*
X79479Y72933D01*
X79395Y72989D01*
X79296Y73009D01*
X77500D01*
X77401Y72989D01*
X77317Y72933D01*
X77261Y72849D01*
X77241Y72750D01*
Y66500D01*
X77261Y66401D01*
X77317Y66317D01*
X77401Y66261D01*
X77500Y66241D01*
X84500D01*
X84599Y66261D01*
X84683Y66317D01*
X84739Y66401D01*
X84759Y66500D01*
Y68296D01*
X84887D01*
X84897Y68294D01*
X84907Y68296D01*
X85154D01*
Y68387D01*
X85230Y68423D01*
X85346Y68348D01*
Y68296D01*
X85593D01*
X85603Y68294D01*
X85613Y68296D01*
X86654D01*
Y69704D01*
X86308D01*
X86306Y69708D01*
X86296Y69746D01*
X86287Y69799D01*
X86284Y69836D01*
Y70723D01*
X86288Y70837D01*
X86296Y70923D01*
X86300Y70947D01*
X86302Y70957D01*
X86306Y70967D01*
X86309Y70993D01*
X86335Y71125D01*
Y71975D01*
X86292Y72191D01*
X86169Y72374D01*
X85986Y72497D01*
X85770Y72540D01*
X85554Y72497D01*
X85371Y72374D01*
X85248Y72191D01*
X85205Y71975D01*
Y71125D01*
X85231Y70993D01*
X85234Y70967D01*
X85237Y70958D01*
X85256Y70629D01*
Y69764D01*
X85154Y69704D01*
X84907D01*
X84897Y69706D01*
X84887Y69704D01*
X84759D01*
Y70560D01*
X84754Y70585D01*
Y70611D01*
X84748Y70625D01*
X84899Y70726D01*
X85022Y70909D01*
X85065Y71125D01*
Y71975D01*
X85022Y72191D01*
X84899Y72374D01*
X84748Y72475D01*
X84754Y72489D01*
Y72515D01*
X84759Y72540D01*
Y72750D01*
X84739Y72849D01*
X84683Y72933D01*
X84599Y72989D01*
X84500Y73009D01*
D02*
G37*
G36*
X161028Y71900D02*
X160460D01*
Y71182D01*
X161028D01*
Y71900D01*
D02*
G37*
G36*
Y70817D02*
X160460D01*
Y70100D01*
X161028D01*
Y70817D01*
D02*
G37*
G36*
X88124Y69650D02*
X87706D01*
Y69183D01*
X88124D01*
Y69650D01*
D02*
G37*
G36*
X87341D02*
X86924D01*
Y69183D01*
X87341D01*
Y69650D01*
D02*
G37*
G36*
X162451Y69300D02*
X161833D01*
Y68683D01*
X162451D01*
Y69300D01*
D02*
G37*
G36*
X161469D02*
X160851D01*
Y68683D01*
X161469D01*
Y69300D01*
D02*
G37*
G36*
X88124Y68817D02*
X87706D01*
Y68350D01*
X88124D01*
Y68817D01*
D02*
G37*
G36*
X87341D02*
X86924D01*
Y68350D01*
X87341D01*
Y68817D01*
D02*
G37*
G36*
X162451Y68317D02*
X161833D01*
Y67700D01*
X162451D01*
Y68317D01*
D02*
G37*
G36*
X161469D02*
X160851D01*
Y67700D01*
X161469D01*
Y68317D01*
D02*
G37*
G36*
X132450Y67300D02*
X131318D01*
Y66567D01*
X132450D01*
Y67300D01*
D02*
G37*
G36*
X130682D02*
X129550D01*
Y66567D01*
X130682D01*
Y67300D01*
D02*
G37*
G36*
X159500Y72759D02*
X152500D01*
X152401Y72739D01*
X152317Y72683D01*
X152261Y72599D01*
X152241Y72500D01*
Y65259D01*
X149500D01*
X149401Y65239D01*
X149371Y65219D01*
X149340Y65239D01*
X149241Y65259D01*
X137500D01*
X137401Y65239D01*
X137317Y65183D01*
X137261Y65099D01*
X137241Y65000D01*
Y61759D01*
X136400D01*
Y62133D01*
X135500D01*
X134600D01*
Y61759D01*
X134259D01*
Y62000D01*
X134239Y62099D01*
X134183Y62183D01*
X134099Y62239D01*
X134000Y62259D01*
X133009D01*
Y63500D01*
X132989Y63599D01*
X132933Y63683D01*
X132849Y63739D01*
X132750Y63759D01*
X131009D01*
X131009Y64062D01*
X130989Y64161D01*
X130933Y64245D01*
X130874Y64285D01*
X130796Y64363D01*
X130759Y64452D01*
Y64500D01*
X130739Y64599D01*
X130683Y64683D01*
X130599Y64739D01*
X130500Y64759D01*
X129009Y64759D01*
Y71000D01*
X128989Y71099D01*
X128933Y71183D01*
X128849Y71239D01*
X128750Y71259D01*
X121000D01*
X120901Y71239D01*
X120871Y71219D01*
X120840Y71239D01*
X120741Y71259D01*
X114000D01*
X113901Y71239D01*
X113817Y71183D01*
X113761Y71099D01*
X113741Y71000D01*
Y58750D01*
X113761Y58651D01*
X113817Y58567D01*
X113901Y58511D01*
X114000Y58491D01*
X121041D01*
X121078Y58498D01*
X121116Y58502D01*
X121127Y58508D01*
X121140Y58511D01*
X121172Y58532D01*
X121205Y58550D01*
X121212Y58558D01*
X121214Y58560D01*
X121224Y58567D01*
X121331Y58582D01*
X121372Y58574D01*
X121382Y58569D01*
X121565Y58447D01*
X121788Y58402D01*
X122011Y58447D01*
X122200Y58573D01*
X122207Y58583D01*
X122334Y58544D01*
Y57563D01*
X122332Y57553D01*
X122333Y57550D01*
X122332Y57548D01*
X122334Y57539D01*
Y57404D01*
X122296D01*
Y57157D01*
X122294Y57147D01*
X122296Y57137D01*
Y56096D01*
X123669D01*
X123704Y56096D01*
X123796D01*
X123831Y56096D01*
X125204D01*
Y56535D01*
X125331Y56573D01*
X125338Y56563D01*
X125527Y56437D01*
X125750Y56392D01*
X125973Y56437D01*
X126162Y56563D01*
X126403Y56804D01*
X126436Y56836D01*
X126484Y56877D01*
X127000D01*
X127090Y56895D01*
X127800D01*
X128016Y56938D01*
X128199Y57061D01*
X128322Y57244D01*
X128365Y57460D01*
X128322Y57676D01*
X128199Y57859D01*
X128016Y57982D01*
X127800Y58025D01*
X127223D01*
X127173Y58152D01*
X127187Y58165D01*
X127800D01*
X128016Y58208D01*
X128199Y58331D01*
X128322Y58514D01*
X128365Y58730D01*
X128322Y58946D01*
X128199Y59129D01*
X128016Y59252D01*
X127800Y59295D01*
X127090D01*
X127000Y59313D01*
X125253D01*
X125030Y59268D01*
X124841Y59142D01*
X124614Y58915D01*
X124496Y58809D01*
X124425Y58752D01*
X124366Y58710D01*
X124356Y58704D01*
X123858D01*
Y57569D01*
X123856Y57562D01*
X123857Y57557D01*
X123856Y57553D01*
X123858Y57543D01*
Y57466D01*
X123796Y57404D01*
X123704D01*
X123642Y57466D01*
Y57543D01*
X123644Y57553D01*
X123643Y57557D01*
X123644Y57562D01*
X123642Y57569D01*
Y58704D01*
X122435D01*
X122426Y58709D01*
X122340Y58831D01*
X122371Y58985D01*
X122421Y59046D01*
X123392D01*
Y60454D01*
X122351D01*
X122341Y60456D01*
X122331Y60454D01*
X121919D01*
X121909Y60456D01*
X121899Y60454D01*
X121456D01*
X121435Y60462D01*
X121344Y60546D01*
Y62195D01*
X121514D01*
X121613Y62215D01*
X121697Y62271D01*
X121815Y62316D01*
X121855Y62291D01*
X121901Y62261D01*
X122000Y62241D01*
X124893D01*
X124991Y62143D01*
Y61250D01*
X125011Y61151D01*
X125067Y61067D01*
X125567Y60567D01*
X125651Y60511D01*
X125750Y60491D01*
X128421D01*
X128520Y60511D01*
X128604Y60567D01*
X128660Y60651D01*
X128680Y60750D01*
Y60910D01*
X128750D01*
X128849Y60930D01*
X128879Y60950D01*
X128910Y60930D01*
X129009Y60910D01*
X131070D01*
Y60750D01*
X131090Y60651D01*
X131110Y60621D01*
X131090Y60590D01*
X131070Y60491D01*
Y59026D01*
X131073Y59014D01*
X131071Y59001D01*
X131082Y58965D01*
X131090Y58927D01*
X131097Y58917D01*
X131101Y58904D01*
X131125Y58875D01*
X131146Y58843D01*
X131157Y58836D01*
X131165Y58826D01*
X131198Y58808D01*
X131230Y58787D01*
X131242Y58785D01*
X131254Y58779D01*
X131381Y58740D01*
X131386Y58733D01*
X131385Y58730D01*
X131428Y58514D01*
X131514Y58386D01*
X131510Y58352D01*
X131459Y58251D01*
X131401Y58239D01*
X131317Y58183D01*
X131261Y58099D01*
X131241Y58000D01*
Y55965D01*
X131139Y55905D01*
X131124Y55900D01*
X130982D01*
Y55250D01*
Y54600D01*
X131124D01*
X131139Y54595D01*
X131241Y54535D01*
Y54000D01*
X131261Y53901D01*
X131317Y53817D01*
X131401Y53761D01*
X131500Y53741D01*
X134250D01*
X134349Y53761D01*
X134433Y53817D01*
X134489Y53901D01*
X134509Y54000D01*
Y54638D01*
X134817D01*
Y55238D01*
Y55838D01*
X134509D01*
Y56108D01*
X135704D01*
Y56741D01*
X141741D01*
Y55100D01*
X141761Y55001D01*
X141817Y54917D01*
X141901Y54861D01*
X142000Y54841D01*
X157500D01*
X157599Y54861D01*
X157683Y54917D01*
X157739Y55001D01*
X157759Y55100D01*
Y59500D01*
X157739Y59599D01*
X157683Y59683D01*
X157599Y59739D01*
X157500Y59759D01*
X156954D01*
Y59887D01*
X156956Y59897D01*
X156954Y59907D01*
Y60154D01*
X156875D01*
X156839Y60217D01*
X156910Y60334D01*
X156954D01*
Y60581D01*
X156956Y60591D01*
X156954Y60601D01*
Y61642D01*
X156227D01*
X156199Y61661D01*
X156002Y61700D01*
X155274D01*
X155194Y61798D01*
X155201Y61836D01*
X155194Y61874D01*
X155274Y61972D01*
X155451D01*
X155533Y61967D01*
X155546Y61966D01*
Y61858D01*
X155793D01*
X155803Y61856D01*
X155813Y61858D01*
X156687D01*
X156697Y61856D01*
X156707Y61858D01*
X156954D01*
Y61858D01*
X157046Y61846D01*
Y61846D01*
X157076Y61846D01*
X157293D01*
X157303Y61844D01*
X157313Y61846D01*
X158454D01*
Y62241D01*
X159500D01*
X159599Y62261D01*
X159683Y62317D01*
X159739Y62401D01*
X159759Y62500D01*
Y70046D01*
X159803Y70100D01*
X160096D01*
Y71000D01*
Y71900D01*
X159803D01*
X159759Y71954D01*
Y72500D01*
X159739Y72599D01*
X159683Y72683D01*
X159599Y72739D01*
X159500Y72759D01*
D02*
G37*
G36*
X132450Y65933D02*
X131318D01*
Y65200D01*
X132450D01*
Y65933D01*
D02*
G37*
G36*
X130682D02*
X129550D01*
Y65200D01*
X130682D01*
Y65933D01*
D02*
G37*
G36*
X136400Y63139D02*
X135756D01*
Y62645D01*
X136400D01*
Y63139D01*
D02*
G37*
G36*
X135244D02*
X134600D01*
Y62645D01*
X135244D01*
Y63139D01*
D02*
G37*
G36*
X125150Y55950D02*
X124683D01*
Y55533D01*
X125150D01*
Y55950D01*
D02*
G37*
G36*
X124317D02*
X123850D01*
Y55533D01*
X124317D01*
Y55950D01*
D02*
G37*
G36*
X123650D02*
X123183D01*
Y55533D01*
X123650D01*
Y55950D01*
D02*
G37*
G36*
X122817D02*
X122350D01*
Y55533D01*
X122817D01*
Y55950D01*
D02*
G37*
G36*
X130617Y55900D02*
X130200D01*
Y55432D01*
X130617D01*
Y55900D01*
D02*
G37*
G36*
X135650Y55838D02*
X135182D01*
Y55421D01*
X135650D01*
Y55838D01*
D02*
G37*
G36*
X125150Y55167D02*
X124683D01*
Y54750D01*
X125150D01*
Y55167D01*
D02*
G37*
G36*
X124317D02*
X123850D01*
Y54750D01*
X124317D01*
Y55167D01*
D02*
G37*
G36*
X123650D02*
X123183D01*
Y54750D01*
X123650D01*
Y55167D01*
D02*
G37*
G36*
X122817D02*
X122350D01*
Y54750D01*
X122817D01*
Y55167D01*
D02*
G37*
G36*
X135650Y55056D02*
X135182D01*
Y54638D01*
X135650D01*
Y55056D01*
D02*
G37*
G36*
X130617Y55068D02*
X130200D01*
Y54600D01*
X130617D01*
Y55068D01*
D02*
G37*
G36*
X136200Y51700D02*
X135512D01*
Y50512D01*
X136200D01*
Y51700D01*
D02*
G37*
G36*
X134488D02*
X133800D01*
Y50512D01*
X134488D01*
Y51700D01*
D02*
G37*
G36*
X66200D02*
X65512D01*
Y50512D01*
X66200D01*
Y51700D01*
D02*
G37*
G36*
X64488D02*
X63800D01*
Y50512D01*
X64488D01*
Y51700D01*
D02*
G37*
G36*
X136200Y49488D02*
X135512D01*
Y48300D01*
X136200D01*
Y49488D01*
D02*
G37*
G36*
X134488D02*
X133800D01*
Y48300D01*
X134488D01*
Y49488D01*
D02*
G37*
G36*
X66200Y49488D02*
X65512D01*
Y48300D01*
X66200D01*
Y49488D01*
D02*
G37*
G36*
X64488D02*
X63800D01*
Y48300D01*
X64488D01*
Y49488D01*
D02*
G37*
%LPD*%
G36*
X130500Y92178D02*
X130064D01*
X130054Y92180D01*
X130054Y92180D01*
X130053Y92180D01*
X130043Y92178D01*
X129796D01*
Y92148D01*
X129670Y92117D01*
X129554Y92193D01*
Y92204D01*
X129322D01*
X129319Y92205D01*
X129310Y92204D01*
X129307D01*
X129297Y92206D01*
X129287Y92204D01*
X128246D01*
Y90796D01*
X128262D01*
X128346Y90704D01*
Y89296D01*
X129387D01*
X129397Y89294D01*
X129407Y89296D01*
X129654D01*
Y89296D01*
X129679Y89307D01*
X129796Y89346D01*
X129907Y89307D01*
X129917Y89152D01*
Y88000D01*
X129935Y87910D01*
Y87575D01*
X129978Y87359D01*
X130101Y87176D01*
X130284Y87053D01*
X130500Y87010D01*
Y86674D01*
X128466D01*
Y86500D01*
X126715D01*
X126650Y86600D01*
X126650Y86627D01*
Y87018D01*
X125350D01*
Y86627D01*
X125350Y86600D01*
X125285Y86500D01*
X119000D01*
Y93000D01*
X130500D01*
Y92178D01*
D02*
G37*
G36*
X129303Y91927D02*
X129322Y91909D01*
X129354Y91893D01*
X129399Y91879D01*
X129456Y91868D01*
X129526Y91858D01*
X129648Y91850D01*
X129951Y91870D01*
X129996Y91880D01*
X130028Y91892D01*
X130047Y91906D01*
X130053Y91921D01*
Y91127D01*
X130047Y91142D01*
X130028Y91156D01*
X129996Y91168D01*
X129951Y91178D01*
X129894Y91187D01*
X129742Y91199D01*
X129742Y91199D01*
X129526Y91182D01*
X129456Y91168D01*
X129399Y91151D01*
X129354Y91131D01*
X129322Y91108D01*
X129303Y91082D01*
X129297Y91053D01*
Y91947D01*
X129303Y91927D01*
D02*
G37*
G36*
X131603Y89553D02*
X131597Y89578D01*
X131578Y89600D01*
X131546Y89619D01*
X131501Y89636D01*
X131444Y89650D01*
X131374Y89662D01*
X131295Y89671D01*
X131049Y89654D01*
X131004Y89644D01*
X130972Y89632D01*
X130953Y89618D01*
X130947Y89603D01*
X130922Y89597D01*
X130900Y89578D01*
X130881Y89546D01*
X130864Y89501D01*
X130850Y89444D01*
X130838Y89374D01*
X130829Y89292D01*
X130819Y89089D01*
X130818Y88968D01*
X130182D01*
X130181Y89089D01*
X130162Y89374D01*
X130150Y89444D01*
X130136Y89501D01*
X130119Y89546D01*
X130100Y89578D01*
X130078Y89597D01*
X130053Y89603D01*
X130047Y89618D01*
X130028Y89632D01*
X129996Y89644D01*
X129951Y89654D01*
X129894Y89663D01*
X129779Y89672D01*
X129626Y89662D01*
X129556Y89650D01*
X129499Y89636D01*
X129454Y89619D01*
X129422Y89600D01*
X129403Y89578D01*
X129397Y89553D01*
Y90447D01*
X129403Y90422D01*
X129422Y90400D01*
X129454Y90381D01*
X129499Y90364D01*
X129556Y90350D01*
X129626Y90338D01*
X129705Y90329D01*
X129951Y90346D01*
X129996Y90356D01*
X130028Y90368D01*
X130047Y90382D01*
X130053Y90397D01*
Y89603D01*
X130947D01*
Y90397D01*
X130953Y90382D01*
X130972Y90368D01*
X131004Y90356D01*
X131049Y90346D01*
X131106Y90337D01*
X131221Y90328D01*
X131374Y90338D01*
X131444Y90350D01*
X131501Y90364D01*
X131546Y90381D01*
X131578Y90400D01*
X131597Y90422D01*
X131603Y90447D01*
Y89553D01*
D02*
G37*
%LPC*%
G36*
X128100Y92150D02*
X127683D01*
Y91683D01*
X128100D01*
Y92150D01*
D02*
G37*
G36*
X127317D02*
X126900D01*
Y91683D01*
X127317D01*
Y92150D01*
D02*
G37*
G36*
X128100Y91318D02*
X127683D01*
Y90850D01*
X128100D01*
Y91318D01*
D02*
G37*
G36*
X127317D02*
X126900D01*
Y90850D01*
X127317D01*
Y91318D01*
D02*
G37*
G36*
X128076Y90650D02*
X127659D01*
Y90183D01*
X128076D01*
Y90650D01*
D02*
G37*
G36*
X127294D02*
X126876D01*
Y90183D01*
X127294D01*
Y90650D01*
D02*
G37*
G36*
X127476Y90000D02*
D01*
D01*
D01*
D02*
G37*
G36*
X128076Y89818D02*
X127659D01*
Y89350D01*
X128076D01*
Y89818D01*
D02*
G37*
G36*
X127294D02*
X126876D01*
Y89350D01*
X127294D01*
Y89818D01*
D02*
G37*
G36*
X126650Y87800D02*
X126183D01*
Y87382D01*
X126650D01*
Y87800D01*
D02*
G37*
G36*
X125817D02*
X125350D01*
Y87382D01*
X125817D01*
Y87800D01*
D02*
G37*
%LPD*%
G36*
X132500Y80704D02*
X132308D01*
X132306Y80708D01*
X132296Y80746D01*
X132287Y80799D01*
X132284Y80836D01*
Y81723D01*
X132288Y81837D01*
X132296Y81923D01*
X132300Y81947D01*
X132302Y81957D01*
X132306Y81967D01*
X132309Y81993D01*
X132335Y82125D01*
Y82975D01*
X132292Y83191D01*
X132169Y83374D01*
X131986Y83497D01*
X131770Y83540D01*
X131554Y83497D01*
X131371Y83374D01*
X131248Y83191D01*
X131205Y82975D01*
Y82125D01*
X131231Y81993D01*
X131234Y81967D01*
X131237Y81958D01*
X131256Y81629D01*
Y80764D01*
X131154Y80704D01*
X130907D01*
X130897Y80706D01*
X130887Y80704D01*
X129846D01*
Y79296D01*
X130887D01*
X130897Y79294D01*
X130907Y79296D01*
X131154D01*
Y79387D01*
X131230Y79423D01*
X131346Y79348D01*
Y79296D01*
X131593D01*
X131603Y79294D01*
X131613Y79296D01*
X132500D01*
Y77000D01*
X124887D01*
X124834Y77127D01*
X124924Y77217D01*
X125000Y77401D01*
Y77599D01*
X124924Y77783D01*
X124783Y77924D01*
X124599Y78000D01*
X124500D01*
Y83750D01*
X125296D01*
Y83546D01*
X126704D01*
Y83750D01*
X132500D01*
Y80704D01*
D02*
G37*
G36*
X132052Y82025D02*
X132045Y81994D01*
X132039Y81955D01*
X132030Y81854D01*
X132022Y81643D01*
X132020Y81463D01*
X131520D01*
X131520Y81557D01*
X131495Y81994D01*
X131488Y82025D01*
X131481Y82047D01*
X132059D01*
X132052Y82025D01*
D02*
G37*
G36*
X132023Y80852D02*
X132030Y80766D01*
X132042Y80691D01*
X132060Y80626D01*
X132083Y80570D01*
X132110Y80525D01*
X132143Y80490D01*
X132180Y80464D01*
X132223Y80449D01*
X132270Y80444D01*
X131603Y80447D01*
X131587Y80452D01*
X131573Y80467D01*
X131561Y80492D01*
X131550Y80527D01*
X131541Y80572D01*
X131533Y80627D01*
X131523Y80767D01*
X131520Y80947D01*
X132020D01*
X132023Y80852D01*
D02*
G37*
G36*
X131603Y79553D02*
X131598Y79590D01*
X131583Y79624D01*
X131558Y79653D01*
X131523Y79679D01*
X131478Y79701D01*
X131423Y79718D01*
X131358Y79732D01*
X131283Y79742D01*
X131259Y79744D01*
X131142Y79732D01*
X131077Y79718D01*
X131022Y79701D01*
X130977Y79679D01*
X130942Y79653D01*
X130917Y79624D01*
X130902Y79590D01*
X130897Y79553D01*
Y80447D01*
X130902Y80410D01*
X130917Y80376D01*
X130942Y80346D01*
X130977Y80321D01*
X131022Y80299D01*
X131077Y80282D01*
X131142Y80268D01*
X131217Y80258D01*
X131241Y80256D01*
X131358Y80268D01*
X131423Y80282D01*
X131478Y80299D01*
X131523Y80321D01*
X131558Y80346D01*
X131583Y80376D01*
X131598Y80410D01*
X131603Y80447D01*
Y79553D01*
D02*
G37*
%LPC*%
G36*
X126650Y83400D02*
X126183D01*
Y82982D01*
X126650D01*
Y83400D01*
D02*
G37*
G36*
X125818D02*
X125350D01*
Y82982D01*
X125818D01*
Y83400D01*
D02*
G37*
G36*
X126650Y82618D02*
X126183D01*
Y82200D01*
X126650D01*
Y82618D01*
D02*
G37*
G36*
X125818D02*
X125350D01*
Y82200D01*
X125818D01*
Y82618D01*
D02*
G37*
G36*
X130500Y83540D02*
X130284Y83497D01*
X130101Y83374D01*
X129978Y83191D01*
X129935Y82975D01*
Y82125D01*
X129978Y81909D01*
X130101Y81726D01*
X130284Y81603D01*
X130500Y81560D01*
X130716Y81603D01*
X130899Y81726D01*
X131022Y81909D01*
X131065Y82125D01*
Y82975D01*
X131022Y83191D01*
X130899Y83374D01*
X130716Y83497D01*
X130500Y83540D01*
D02*
G37*
G36*
X129576Y80650D02*
X129158D01*
Y80183D01*
X129576D01*
Y80650D01*
D02*
G37*
G36*
X128794D02*
X128376D01*
Y80183D01*
X128794D01*
Y80650D01*
D02*
G37*
G36*
X129576Y79817D02*
X129158D01*
Y79350D01*
X129576D01*
Y79817D01*
D02*
G37*
G36*
X128794D02*
X128376D01*
Y79350D01*
X128794D01*
Y79817D01*
D02*
G37*
%LPD*%
G36*
X84635Y81178D02*
X84064D01*
X84054Y81180D01*
X84054Y81180D01*
X84053Y81180D01*
X84043Y81178D01*
X83796D01*
Y81148D01*
X83670Y81117D01*
X83554Y81193D01*
Y81204D01*
X83323D01*
X83319Y81205D01*
X83310Y81204D01*
X83307D01*
X83297Y81206D01*
X83287Y81204D01*
X82246D01*
Y79796D01*
X82286D01*
X82370Y79704D01*
Y78296D01*
X83411D01*
X83421Y78294D01*
X83431Y78296D01*
X83678D01*
Y78296D01*
X83800Y78337D01*
X83907Y78304D01*
X83917Y78152D01*
Y77000D01*
X83935Y76910D01*
Y76575D01*
X83978Y76359D01*
X84101Y76176D01*
X84284Y76053D01*
X84500Y76010D01*
X84537Y76017D01*
X84635Y75937D01*
Y75674D01*
X82466D01*
Y75500D01*
X80715D01*
X80650Y75600D01*
X80650Y75627D01*
Y76018D01*
X79350D01*
Y75627D01*
X79350Y75600D01*
X79285Y75500D01*
X75500D01*
Y82000D01*
X84635D01*
Y81178D01*
D02*
G37*
G36*
X83303Y80927D02*
X83322Y80909D01*
X83354Y80893D01*
X83399Y80879D01*
X83456Y80868D01*
X83526Y80858D01*
X83648Y80850D01*
X83951Y80870D01*
X83996Y80880D01*
X84028Y80892D01*
X84047Y80906D01*
X84053Y80921D01*
Y80127D01*
X84047Y80142D01*
X84028Y80156D01*
X83996Y80168D01*
X83951Y80178D01*
X83894Y80187D01*
X83742Y80199D01*
X83742Y80199D01*
X83526Y80182D01*
X83456Y80168D01*
X83399Y80151D01*
X83354Y80131D01*
X83322Y80108D01*
X83303Y80082D01*
X83297Y80053D01*
Y80947D01*
X83303Y80927D01*
D02*
G37*
G36*
X85603Y78553D02*
X85597Y78578D01*
X85578Y78600D01*
X85546Y78619D01*
X85501Y78636D01*
X85444Y78650D01*
X85374Y78662D01*
X85295Y78671D01*
X85049Y78654D01*
X85004Y78644D01*
X84972Y78632D01*
X84953Y78618D01*
X84947Y78603D01*
X84922Y78597D01*
X84900Y78578D01*
X84881Y78546D01*
X84864Y78501D01*
X84850Y78444D01*
X84838Y78374D01*
X84829Y78292D01*
X84819Y78089D01*
X84817Y77968D01*
X84183D01*
X84181Y78089D01*
X84162Y78374D01*
X84150Y78444D01*
X84136Y78501D01*
X84119Y78546D01*
X84100Y78578D01*
X84078Y78597D01*
X84053Y78603D01*
X84047Y78618D01*
X84028Y78632D01*
X83996Y78644D01*
X83951Y78654D01*
X83894Y78663D01*
X83790Y78671D01*
X83650Y78662D01*
X83580Y78650D01*
X83523Y78636D01*
X83478Y78619D01*
X83446Y78600D01*
X83427Y78578D01*
X83421Y78553D01*
Y78682D01*
X83418Y78683D01*
Y79317D01*
X83421Y79318D01*
Y79447D01*
X83427Y79422D01*
X83446Y79400D01*
X83478Y79381D01*
X83523Y79364D01*
X83580Y79350D01*
X83650Y79338D01*
X83720Y79330D01*
X83951Y79346D01*
X83996Y79356D01*
X84028Y79368D01*
X84047Y79382D01*
X84053Y79397D01*
Y79318D01*
X84056Y79317D01*
Y78683D01*
X84053Y78682D01*
Y78603D01*
X84947D01*
Y79397D01*
X84953Y79382D01*
X84972Y79368D01*
X85004Y79356D01*
X85049Y79346D01*
X85106Y79337D01*
X85221Y79328D01*
X85374Y79338D01*
X85444Y79350D01*
X85501Y79364D01*
X85546Y79381D01*
X85578Y79400D01*
X85597Y79422D01*
X85603Y79447D01*
Y78553D01*
D02*
G37*
%LPC*%
G36*
X82100Y81150D02*
X81683D01*
Y80683D01*
X82100D01*
Y81150D01*
D02*
G37*
G36*
X81317D02*
X80900D01*
Y80683D01*
X81317D01*
Y81150D01*
D02*
G37*
G36*
X82100Y80317D02*
X81683D01*
Y79850D01*
X82100D01*
Y80317D01*
D02*
G37*
G36*
X81317D02*
X80900D01*
Y79850D01*
X81317D01*
Y80317D01*
D02*
G37*
G36*
X82100Y79650D02*
X81683D01*
Y79183D01*
X82100D01*
Y79650D01*
D02*
G37*
G36*
X81317D02*
X80900D01*
Y79183D01*
X81317D01*
Y79650D01*
D02*
G37*
G36*
X82100Y78817D02*
X81683D01*
Y78350D01*
X82100D01*
Y78817D01*
D02*
G37*
G36*
X81317D02*
X80900D01*
Y78350D01*
X81317D01*
Y78817D01*
D02*
G37*
G36*
X80650Y76800D02*
X80183D01*
Y76382D01*
X80650D01*
Y76800D01*
D02*
G37*
G36*
X79817D02*
X79350D01*
Y76382D01*
X79817D01*
Y76800D01*
D02*
G37*
%LPD*%
G36*
X84500Y72540D02*
X84284Y72497D01*
X84101Y72374D01*
X83978Y72191D01*
X83935Y71975D01*
Y71125D01*
X83978Y70909D01*
X84101Y70726D01*
X84284Y70603D01*
X84500Y70560D01*
Y69704D01*
X83846D01*
Y68296D01*
X84500D01*
Y66500D01*
X77500D01*
Y72750D01*
X79296D01*
Y72546D01*
X80704D01*
Y72750D01*
X84500D01*
Y72540D01*
D02*
G37*
G36*
X86052Y71025D02*
X86045Y70994D01*
X86039Y70955D01*
X86030Y70854D01*
X86022Y70643D01*
X86020Y70463D01*
X85520D01*
X85520Y70557D01*
X85495Y70994D01*
X85488Y71025D01*
X85481Y71047D01*
X86059D01*
X86052Y71025D01*
D02*
G37*
G36*
X86022Y69852D02*
X86030Y69766D01*
X86043Y69691D01*
X86060Y69626D01*
X86082Y69570D01*
X86110Y69525D01*
X86143Y69490D01*
X86180Y69464D01*
X86223Y69449D01*
X86270Y69444D01*
X85603Y69447D01*
X85587Y69452D01*
X85573Y69467D01*
X85561Y69492D01*
X85550Y69527D01*
X85541Y69572D01*
X85533Y69627D01*
X85523Y69767D01*
X85520Y69947D01*
X86020D01*
X86022Y69852D01*
D02*
G37*
G36*
X85603Y68553D02*
X85598Y68590D01*
X85583Y68624D01*
X85558Y68653D01*
X85523Y68679D01*
X85478Y68701D01*
X85423Y68718D01*
X85358Y68732D01*
X85283Y68742D01*
X85259Y68744D01*
X85142Y68732D01*
X85077Y68718D01*
X85022Y68701D01*
X84977Y68679D01*
X84942Y68653D01*
X84917Y68624D01*
X84902Y68590D01*
X84897Y68553D01*
Y69447D01*
X84902Y69410D01*
X84917Y69376D01*
X84942Y69347D01*
X84977Y69321D01*
X85022Y69299D01*
X85077Y69282D01*
X85142Y69268D01*
X85217Y69258D01*
X85241Y69256D01*
X85358Y69268D01*
X85423Y69282D01*
X85478Y69299D01*
X85523Y69321D01*
X85558Y69347D01*
X85583Y69376D01*
X85598Y69410D01*
X85603Y69447D01*
Y68553D01*
D02*
G37*
%LPC*%
G36*
X80650Y72400D02*
X80183D01*
Y71982D01*
X80650D01*
Y72400D01*
D02*
G37*
G36*
X79817D02*
X79350D01*
Y71982D01*
X79817D01*
Y72400D01*
D02*
G37*
G36*
X80650Y71618D02*
X80183D01*
Y71200D01*
X80650D01*
Y71618D01*
D02*
G37*
G36*
X79817D02*
X79350D01*
Y71200D01*
X79817D01*
Y71618D01*
D02*
G37*
G36*
X83576Y69650D02*
X83159D01*
Y69183D01*
X83576D01*
Y69650D01*
D02*
G37*
G36*
X82794D02*
X82376D01*
Y69183D01*
X82794D01*
Y69650D01*
D02*
G37*
G36*
X83576Y68817D02*
X83159D01*
Y68350D01*
X83576D01*
Y68817D01*
D02*
G37*
G36*
X82794D02*
X82376D01*
Y68350D01*
X82794D01*
Y68817D01*
D02*
G37*
%LPD*%
G36*
X149241Y62759D02*
X149117D01*
X149104Y62756D01*
X149091Y62758D01*
X149055Y62747D01*
X149020Y62740D01*
X148967Y62821D01*
X148813Y62923D01*
X148632Y62959D01*
X147272D01*
X147091Y62923D01*
X146937Y62821D01*
X146884Y62740D01*
X146849Y62747D01*
X146813Y62758D01*
X146800Y62756D01*
X146787Y62759D01*
X142000D01*
X141901Y62739D01*
X141817Y62683D01*
X141761Y62599D01*
X141741Y62500D01*
Y57000D01*
X135704D01*
Y57149D01*
X135706Y57159D01*
X135704Y57169D01*
Y57416D01*
X135704D01*
X135641Y57543D01*
X135642Y57546D01*
X135642D01*
Y57793D01*
X135644Y57803D01*
X135643Y57807D01*
X135644Y57812D01*
X135642Y57819D01*
Y58954D01*
X135158D01*
X134970Y59142D01*
X134781Y59268D01*
X134558Y59313D01*
X132750D01*
X132660Y59295D01*
X131950D01*
X131734Y59252D01*
X131551Y59129D01*
X131456Y58988D01*
X131329Y59026D01*
Y60491D01*
X134000D01*
X134099Y60511D01*
X134183Y60567D01*
X134239Y60651D01*
X134259Y60750D01*
Y61500D01*
X137500D01*
Y65000D01*
X149241D01*
Y62759D01*
D02*
G37*
G36*
X159500Y71954D02*
X159474D01*
Y70046D01*
X159500D01*
Y62500D01*
X158454D01*
Y63154D01*
X157313D01*
X157303Y63156D01*
X157293Y63154D01*
X157046D01*
Y63154D01*
X156954Y63166D01*
Y63166D01*
X156924Y63166D01*
X156707D01*
X156697Y63168D01*
X156687Y63166D01*
X155813D01*
X155803Y63168D01*
X155793Y63166D01*
X155546D01*
Y63013D01*
X155523Y63008D01*
X155423Y63000D01*
X154048D01*
X153851Y62961D01*
X153849Y62959D01*
X153368D01*
X153187Y62923D01*
X153033Y62821D01*
X152980Y62740D01*
X152945Y62747D01*
X152909Y62758D01*
X152896Y62756D01*
X152883Y62759D01*
X152759D01*
Y65000D01*
X152739Y65099D01*
X152683Y65183D01*
X152599Y65239D01*
X152500Y65259D01*
Y72500D01*
X159500D01*
Y71954D01*
D02*
G37*
G36*
X155803Y62115D02*
X155798Y62138D01*
X155783Y62159D01*
X155758Y62177D01*
X155723Y62192D01*
X155678Y62206D01*
X155623Y62217D01*
X155558Y62225D01*
X155398Y62235D01*
X155303Y62236D01*
Y62736D01*
X155398Y62738D01*
X155558Y62752D01*
X155623Y62764D01*
X155678Y62779D01*
X155723Y62798D01*
X155758Y62821D01*
X155783Y62847D01*
X155798Y62876D01*
X155803Y62909D01*
Y62115D01*
D02*
G37*
G36*
X156702Y62880D02*
X156717Y62854D01*
X156742Y62831D01*
X156777Y62811D01*
X156822Y62794D01*
X156877Y62780D01*
X156942Y62770D01*
X156996Y62764D01*
X157058Y62769D01*
X157123Y62779D01*
X157178Y62791D01*
X157223Y62807D01*
X157258Y62825D01*
X157283Y62846D01*
X157298Y62870D01*
X157303Y62897D01*
Y62103D01*
X157298Y62132D01*
X157283Y62158D01*
X157258Y62181D01*
X157223Y62201D01*
X157178Y62218D01*
X157123Y62232D01*
X157058Y62242D01*
X157004Y62248D01*
X156942Y62243D01*
X156877Y62233D01*
X156822Y62221D01*
X156777Y62205D01*
X156742Y62187D01*
X156717Y62166D01*
X156702Y62142D01*
X156697Y62115D01*
Y62909D01*
X156702Y62880D01*
D02*
G37*
G36*
X152500Y62500D02*
X152883D01*
X152895Y62486D01*
X152931Y62305D01*
X153000Y62202D01*
Y62120D01*
X152931Y62017D01*
X152895Y61836D01*
X152931Y61655D01*
X153000Y61552D01*
Y61470D01*
X152931Y61367D01*
X152895Y61186D01*
X152931Y61005D01*
X153033Y60851D01*
X153187Y60749D01*
X153368Y60713D01*
X153849D01*
X153851Y60711D01*
X154048Y60672D01*
X155414D01*
X155450Y60669D01*
X155463Y60659D01*
X155544Y60591D01*
X155546Y60581D01*
Y60334D01*
X155625D01*
X155661Y60271D01*
X155590Y60154D01*
X155546D01*
Y59907D01*
X155544Y59897D01*
X155546Y59887D01*
Y58846D01*
X156954D01*
Y59500D01*
X157500D01*
Y55100D01*
X142000D01*
Y62500D01*
X146787D01*
X146799Y62486D01*
X146835Y62305D01*
X146931Y62161D01*
X146835Y62017D01*
X146814Y61910D01*
X146777Y61894D01*
X146580Y61934D01*
X146466D01*
X146451Y61935D01*
X146405Y61941D01*
X146404Y61941D01*
Y62204D01*
X145096D01*
Y60796D01*
X145096Y60796D01*
Y60704D01*
X145096D01*
X145096Y60669D01*
Y59296D01*
X145241D01*
Y57500D01*
X145261Y57401D01*
X145317Y57317D01*
X145401Y57261D01*
X145500Y57241D01*
X149500D01*
X149599Y57261D01*
X149683Y57317D01*
X149739Y57401D01*
X149759Y57500D01*
Y59996D01*
X149739Y60095D01*
X149683Y60179D01*
X149599Y60235D01*
X149500Y60255D01*
X149416D01*
X149396Y60259D01*
X149183D01*
X149170Y60256D01*
X149157Y60258D01*
X149157Y60258D01*
X149082Y60341D01*
X149071Y60366D01*
X149105Y60536D01*
X149069Y60717D01*
X148973Y60861D01*
X149069Y61005D01*
X149105Y61186D01*
X149069Y61367D01*
X148973Y61511D01*
X149069Y61655D01*
X149105Y61836D01*
X149069Y62017D01*
X148973Y62161D01*
X149069Y62305D01*
X149105Y62486D01*
X149117Y62500D01*
X149500D01*
Y65000D01*
X152500D01*
Y62500D01*
D02*
G37*
G36*
X146148Y61818D02*
X146162Y61787D01*
X146183Y61760D01*
X146214Y61736D01*
X146253Y61716D01*
X146301Y61699D01*
X146358Y61686D01*
X146423Y61677D01*
X146498Y61672D01*
X146580Y61670D01*
Y61170D01*
X146498Y61168D01*
X146359Y61159D01*
X146303Y61151D01*
X146255Y61141D01*
X146216Y61128D01*
X146186Y61113D01*
X146164Y61095D01*
X146151Y61075D01*
X146147Y61053D01*
X146144Y61853D01*
X146148Y61818D01*
D02*
G37*
G36*
X130500Y64500D02*
Y64401D01*
X130576Y64217D01*
X130717Y64076D01*
X130750Y64062D01*
X130750Y63500D01*
X132750D01*
Y62000D01*
X134000D01*
Y60750D01*
X131329D01*
Y61169D01*
X129009D01*
Y62796D01*
X129123Y62850D01*
X129217D01*
Y63500D01*
Y64150D01*
X129123D01*
X129009Y64204D01*
Y64500D01*
X130500Y64500D01*
D02*
G37*
G36*
X128750Y64204D02*
X128746D01*
Y62796D01*
X128750D01*
Y61169D01*
X128421D01*
Y60750D01*
X125750D01*
X125250Y61250D01*
Y62250D01*
X125000Y62500D01*
X122000D01*
X121000Y63500D01*
X121000Y71000D01*
X128750D01*
Y64204D01*
D02*
G37*
G36*
X155803Y61385D02*
X155806Y60686D01*
X155801Y60734D01*
X155786Y60776D01*
X155760Y60813D01*
X155725Y60846D01*
X155680Y60874D01*
X155624Y60896D01*
X155559Y60914D01*
X155484Y60926D01*
X155398Y60933D01*
X155303Y60936D01*
Y61436D01*
X155803Y61385D01*
D02*
G37*
G36*
X122341Y60073D02*
X122423Y60069D01*
X122544Y60068D01*
Y59432D01*
X122423Y59431D01*
X122341Y59426D01*
Y59303D01*
X122335Y59328D01*
X122316Y59350D01*
X122284Y59369D01*
X122239Y59386D01*
X122182Y59400D01*
X122125Y59410D01*
X122068Y59400D01*
X122011Y59386D01*
X121966Y59369D01*
X121934Y59350D01*
X121915Y59328D01*
X121909Y59303D01*
Y59427D01*
X121827Y59431D01*
X121706Y59432D01*
Y60068D01*
X121827Y60069D01*
X121909Y60074D01*
Y60197D01*
X121915Y60172D01*
X121934Y60150D01*
X121966Y60131D01*
X122011Y60114D01*
X122068Y60100D01*
X122125Y60090D01*
X122182Y60100D01*
X122239Y60114D01*
X122284Y60131D01*
X122316Y60150D01*
X122335Y60172D01*
X122341Y60197D01*
Y60073D01*
D02*
G37*
G36*
X156660Y60586D02*
X156626Y60571D01*
X156597Y60546D01*
X156571Y60511D01*
X156549Y60466D01*
X156532Y60411D01*
X156518Y60346D01*
X156508Y60271D01*
X156507Y60254D01*
X156518Y60142D01*
X156532Y60077D01*
X156549Y60022D01*
X156571Y59977D01*
X156597Y59942D01*
X156626Y59917D01*
X156660Y59902D01*
X156697Y59897D01*
X155803D01*
X155840Y59902D01*
X155874Y59917D01*
X155903Y59942D01*
X155929Y59977D01*
X155951Y60022D01*
X155968Y60077D01*
X155982Y60142D01*
X155992Y60217D01*
X155993Y60234D01*
X155982Y60346D01*
X155968Y60411D01*
X155951Y60466D01*
X155929Y60511D01*
X155904Y60546D01*
X155874Y60571D01*
X155840Y60586D01*
X155803Y60591D01*
X156697D01*
X156660Y60586D01*
D02*
G37*
G36*
X146450Y59950D02*
X146392Y59949D01*
X146221Y59937D01*
X146193Y59931D01*
X146172Y59924D01*
X146156Y59916D01*
X146147Y59907D01*
X146144Y59897D01*
X146147Y60447D01*
X146150Y60448D01*
X146159Y60448D01*
X146450Y60450D01*
Y59950D01*
D02*
G37*
G36*
X149396Y60000D02*
Y59996D01*
X149500D01*
Y57500D01*
X145500D01*
Y57526D01*
Y59296D01*
X146404D01*
Y59686D01*
X146450D01*
X146647Y59725D01*
X146714Y59770D01*
X146814Y59729D01*
X146838Y59700D01*
X146937Y59551D01*
X147091Y59449D01*
X147272Y59413D01*
X148632D01*
X148813Y59449D01*
X148967Y59551D01*
X149069Y59705D01*
X149082Y59770D01*
X149104Y59879D01*
X149105Y59886D01*
X149102Y59902D01*
X149183Y60000D01*
X149396D01*
D01*
D02*
G37*
G36*
X120741Y63500D02*
X120761Y63401D01*
X120817Y63317D01*
X121562Y62571D01*
X121514Y62454D01*
X121085D01*
Y60546D01*
X121001Y60454D01*
X120858D01*
Y59046D01*
X121038D01*
X121056Y58956D01*
X121109Y58877D01*
X121041Y58750D01*
X114000D01*
Y71000D01*
X120741D01*
X120741Y63500D01*
D02*
G37*
G36*
X125358Y58386D02*
X125253Y58278D01*
X125017Y58007D01*
X124965Y57934D01*
X124927Y57869D01*
X124901Y57813D01*
X124890Y57766D01*
X124891Y57727D01*
X124906Y57697D01*
X124282Y58444D01*
X124308Y58425D01*
X124344Y58421D01*
X124389Y58431D01*
X124444Y58454D01*
X124508Y58493D01*
X124581Y58545D01*
X124664Y58611D01*
X124859Y58787D01*
X124970Y58896D01*
X125358Y58386D01*
D02*
G37*
G36*
X125911Y57538D02*
X126452Y57164D01*
X126440Y57164D01*
X126420Y57155D01*
X126393Y57137D01*
X126357Y57110D01*
X126262Y57027D01*
X125975Y56750D01*
X125525Y57200D01*
X125600Y57274D01*
X125908Y57544D01*
X125911Y57538D01*
D02*
G37*
G36*
X135371Y57797D02*
X135359Y57778D01*
X135347Y57746D01*
X135338Y57701D01*
X135330Y57644D01*
X135322Y57543D01*
X135333Y57388D01*
X135345Y57318D01*
X135360Y57261D01*
X135378Y57216D01*
X135398Y57184D01*
X135421Y57165D01*
X135447Y57159D01*
X134553D01*
X134577Y57165D01*
X134597Y57184D01*
X134616Y57216D01*
X134632Y57261D01*
X134646Y57318D01*
X134657Y57388D01*
X134664Y57454D01*
X134646Y57701D01*
X134635Y57746D01*
X134622Y57778D01*
X134607Y57797D01*
X134591Y57803D01*
X135385D01*
X135371Y57797D01*
D02*
G37*
G36*
X124825Y57661D02*
X124832Y57553D01*
X124909D01*
X124893Y57547D01*
X124878Y57528D01*
X124865Y57496D01*
X124854Y57451D01*
X124845Y57394D01*
X124843Y57378D01*
X124843Y57376D01*
X124854Y57306D01*
X124868Y57249D01*
X124884Y57204D01*
X124903Y57172D01*
X124923Y57153D01*
X124947Y57147D01*
X124829D01*
X124824Y57039D01*
X124824Y56918D01*
X124188D01*
X124188Y57039D01*
X124181Y57147D01*
X124053D01*
X124079Y57153D01*
X124102Y57172D01*
X124122Y57204D01*
X124140Y57249D01*
X124155Y57306D01*
X124167Y57375D01*
X124162Y57451D01*
X124153Y57496D01*
X124141Y57528D01*
X124129Y57547D01*
X124115Y57553D01*
X124181D01*
X124187Y57661D01*
X124188Y57782D01*
X124824D01*
X124825Y57661D01*
D02*
G37*
G36*
X123313D02*
X123321Y57553D01*
X123385D01*
X123371Y57547D01*
X123359Y57528D01*
X123347Y57496D01*
X123338Y57451D01*
X123331Y57404D01*
X123333Y57376D01*
X123345Y57306D01*
X123360Y57249D01*
X123378Y57204D01*
X123398Y57172D01*
X123421Y57153D01*
X123447Y57147D01*
X123316D01*
X123312Y56918D01*
X122676D01*
X122676Y57039D01*
X122668Y57147D01*
X122553D01*
X122576Y57153D01*
X122597Y57172D01*
X122616Y57204D01*
X122632Y57249D01*
X122646Y57306D01*
X122653Y57352D01*
X122646Y57451D01*
X122635Y57496D01*
X122622Y57528D01*
X122607Y57547D01*
X122591Y57553D01*
X122670D01*
X122675Y57661D01*
X122676Y57782D01*
X123312D01*
X123313Y57661D01*
D02*
G37*
G36*
X134250Y54000D02*
X131500D01*
Y54535D01*
X131600Y54600D01*
X131627Y54600D01*
X132018D01*
Y55250D01*
Y55900D01*
X131627D01*
X131600Y55900D01*
X131500Y55965D01*
Y58000D01*
X134250D01*
Y54000D01*
D02*
G37*
%LPC*%
G36*
X136400Y61361D02*
X135756D01*
Y60867D01*
X136400D01*
Y61361D01*
D02*
G37*
G36*
X135244D02*
X134600D01*
Y60867D01*
X135244D01*
Y61361D01*
D02*
G37*
G36*
X136400Y60355D02*
X135756D01*
Y59861D01*
X136400D01*
Y60355D01*
D02*
G37*
G36*
X135244D02*
X134600D01*
Y59861D01*
X135244D01*
Y60355D01*
D02*
G37*
G36*
X137112Y58900D02*
X136694D01*
Y58433D01*
X137112D01*
Y58900D01*
D02*
G37*
G36*
X136329D02*
X135912D01*
Y58433D01*
X136329D01*
Y58900D01*
D02*
G37*
G36*
X137112Y58068D02*
X136694D01*
Y57600D01*
X137112D01*
Y58068D01*
D02*
G37*
G36*
X136329D02*
X135912D01*
Y57600D01*
X136329D01*
Y58068D01*
D02*
G37*
G36*
X159250Y71900D02*
X158682D01*
Y71183D01*
X159250D01*
Y71900D01*
D02*
G37*
G36*
X158318D02*
X157750D01*
Y71183D01*
X158318D01*
Y71900D01*
D02*
G37*
G36*
X159250Y70817D02*
X158682D01*
Y70100D01*
X159250D01*
Y70817D01*
D02*
G37*
G36*
X158318D02*
X157750D01*
Y70100D01*
X158318D01*
Y70817D01*
D02*
G37*
G36*
X159149Y69300D02*
X158531D01*
Y68683D01*
X159149D01*
Y69300D01*
D02*
G37*
G36*
X158167D02*
X157549D01*
Y68683D01*
X158167D01*
Y69300D01*
D02*
G37*
G36*
X159149Y68317D02*
X158531D01*
Y67700D01*
X159149D01*
Y68317D01*
D02*
G37*
G36*
X158167D02*
X157549D01*
Y67700D01*
X158167D01*
Y68317D01*
D02*
G37*
G36*
X158400Y64624D02*
X157932D01*
Y64206D01*
X158400D01*
Y64624D01*
D02*
G37*
G36*
X157568D02*
X157100D01*
Y64206D01*
X157568D01*
Y64624D01*
D02*
G37*
G36*
X158400Y63841D02*
X157932D01*
Y63424D01*
X158400D01*
Y63841D01*
D02*
G37*
G36*
X157568D02*
X157100D01*
Y63424D01*
X157568D01*
Y63841D01*
D02*
G37*
G36*
X144826Y60650D02*
X144408D01*
Y60182D01*
X144826D01*
Y60650D01*
D02*
G37*
G36*
X144043D02*
X143626D01*
Y60182D01*
X144043D01*
Y60650D01*
D02*
G37*
G36*
X154728Y60359D02*
X153368D01*
X153187Y60323D01*
X153033Y60221D01*
X152931Y60067D01*
X152895Y59886D01*
X152931Y59705D01*
X153033Y59551D01*
X153187Y59449D01*
X153368Y59413D01*
X154728D01*
X154909Y59449D01*
X155063Y59551D01*
X155165Y59705D01*
X155201Y59886D01*
X155165Y60067D01*
X155063Y60221D01*
X154909Y60323D01*
X154728Y60359D01*
D02*
G37*
G36*
X144826Y59818D02*
X144408D01*
Y59350D01*
X144826D01*
Y59818D01*
D02*
G37*
G36*
X144043D02*
X143626D01*
Y59350D01*
X144043D01*
Y59818D01*
D02*
G37*
G36*
X156900Y58576D02*
X156432D01*
Y58159D01*
X156900D01*
Y58576D01*
D02*
G37*
G36*
X156068D02*
X155600D01*
Y58159D01*
X156068D01*
Y58576D01*
D02*
G37*
G36*
X156900Y57793D02*
X156432D01*
Y57376D01*
X156900D01*
Y57793D01*
D02*
G37*
G36*
X156068D02*
X155600D01*
Y57376D01*
X156068D01*
Y57793D01*
D02*
G37*
G36*
X130000Y64150D02*
X129582D01*
Y63682D01*
X130000D01*
Y64150D01*
D02*
G37*
G36*
Y63318D02*
X129582D01*
Y62850D01*
X130000D01*
Y63318D01*
D02*
G37*
G36*
X124220Y69700D02*
X123532D01*
Y67262D01*
X124220D01*
Y69700D01*
D02*
G37*
G36*
X122508D02*
X121820D01*
Y67262D01*
X122508D01*
Y69700D01*
D02*
G37*
G36*
X128450Y67300D02*
X127317D01*
Y66567D01*
X128450D01*
Y67300D01*
D02*
G37*
G36*
X126683D02*
X125550D01*
Y66567D01*
X126683D01*
Y67300D01*
D02*
G37*
G36*
X128450Y65933D02*
X127317D01*
Y65200D01*
X128450D01*
Y65933D01*
D02*
G37*
G36*
X126683D02*
X125550D01*
Y65200D01*
X126683D01*
Y65933D01*
D02*
G37*
G36*
X124220Y66238D02*
X123532D01*
Y63800D01*
X124220D01*
Y66238D01*
D02*
G37*
G36*
X122508D02*
X121820D01*
Y63800D01*
X122508D01*
Y66238D01*
D02*
G37*
G36*
X128600Y64150D02*
X128182D01*
Y63682D01*
X128600D01*
Y64150D01*
D02*
G37*
G36*
X127817D02*
X127400D01*
Y63682D01*
X127817D01*
Y64150D01*
D02*
G37*
G36*
X128600Y63318D02*
X128182D01*
Y62850D01*
X128600D01*
Y63318D01*
D02*
G37*
G36*
X127817D02*
X127400D01*
Y62850D01*
X127817D01*
Y63318D01*
D02*
G37*
G36*
X120180Y69700D02*
X119492D01*
Y67262D01*
X120180D01*
Y69700D01*
D02*
G37*
G36*
X118468D02*
X117780D01*
Y67262D01*
X118468D01*
Y69700D01*
D02*
G37*
G36*
X120180Y66238D02*
X119492D01*
Y63800D01*
X120180D01*
Y66238D01*
D02*
G37*
G36*
X118468D02*
X117780D01*
Y63800D01*
X118468D01*
Y66238D01*
D02*
G37*
G36*
X120588Y60400D02*
X120171D01*
Y59933D01*
X120588D01*
Y60400D01*
D02*
G37*
G36*
X119805D02*
X119388D01*
Y59933D01*
X119805D01*
Y60400D01*
D02*
G37*
G36*
X120588Y59568D02*
X120171D01*
Y59100D01*
X120588D01*
Y59568D01*
D02*
G37*
G36*
X119805D02*
X119388D01*
Y59100D01*
X119805D01*
Y59568D01*
D02*
G37*
G36*
X132383Y55900D02*
Y55432D01*
X132800D01*
Y55900D01*
X132383D01*
D02*
G37*
G36*
X132800Y55068D02*
X132383D01*
Y54600D01*
X132800D01*
Y55068D01*
D02*
G37*
%LPD*%
D41*
X166500Y87000D02*
D03*
X165000Y84000D02*
D03*
Y78000D02*
D03*
Y72000D02*
D03*
Y66000D02*
D03*
X163500Y99000D02*
D03*
Y93000D02*
D03*
Y87000D02*
D03*
Y81000D02*
D03*
Y63000D02*
D03*
X162000Y60000D02*
D03*
X163500Y57000D02*
D03*
X162000Y54000D02*
D03*
X163500Y51000D02*
D03*
X160500Y99000D02*
D03*
X159000Y96000D02*
D03*
X160500Y93000D02*
D03*
Y57000D02*
D03*
Y51000D02*
D03*
X157500Y99000D02*
D03*
X156000Y96000D02*
D03*
X157500Y93000D02*
D03*
Y51000D02*
D03*
X154500Y99000D02*
D03*
Y93000D02*
D03*
Y51000D02*
D03*
X150000Y78000D02*
D03*
Y72000D02*
D03*
X151500Y51000D02*
D03*
X148500D02*
D03*
X132000Y72000D02*
D03*
X124500Y51000D02*
D03*
X120000Y54000D02*
D03*
X121500Y51000D02*
D03*
X117000Y54000D02*
D03*
X118500Y51000D02*
D03*
X114000Y54000D02*
D03*
X115500Y51000D02*
D03*
X111000Y54000D02*
D03*
X112500Y51000D02*
D03*
X109500Y63000D02*
D03*
X108000Y60000D02*
D03*
X109500Y57000D02*
D03*
X108000Y54000D02*
D03*
X109500Y51000D02*
D03*
X106500Y63000D02*
D03*
X105000Y60000D02*
D03*
X106500Y57000D02*
D03*
X105000Y54000D02*
D03*
X106500Y51000D02*
D03*
X103500D02*
D03*
X100500Y99000D02*
D03*
X99000Y96000D02*
D03*
Y84000D02*
D03*
Y60000D02*
D03*
Y54000D02*
D03*
X100500Y51000D02*
D03*
X97500Y99000D02*
D03*
X96000Y96000D02*
D03*
X97500Y93000D02*
D03*
X96000Y84000D02*
D03*
X97500Y63000D02*
D03*
X96000Y60000D02*
D03*
X97500Y57000D02*
D03*
X96000Y54000D02*
D03*
X97500Y51000D02*
D03*
X94500Y99000D02*
D03*
X93000Y96000D02*
D03*
X94500Y93000D02*
D03*
X93000Y90000D02*
D03*
Y84000D02*
D03*
X94500Y63000D02*
D03*
X93000Y60000D02*
D03*
X94500Y57000D02*
D03*
X93000Y54000D02*
D03*
X94500Y51000D02*
D03*
X91500Y99000D02*
D03*
Y93000D02*
D03*
X90000Y90000D02*
D03*
X91500Y87000D02*
D03*
X90000Y84000D02*
D03*
X91500Y81000D02*
D03*
X90000Y78000D02*
D03*
X91500Y63000D02*
D03*
X90000Y60000D02*
D03*
X91500Y57000D02*
D03*
X90000Y54000D02*
D03*
X91500Y51000D02*
D03*
X88500Y99000D02*
D03*
X87000Y90000D02*
D03*
X88500Y87000D02*
D03*
X87000Y84000D02*
D03*
X88500Y57000D02*
D03*
X87000Y54000D02*
D03*
X88500Y51000D02*
D03*
X84000Y60000D02*
D03*
X85500Y57000D02*
D03*
X84000Y54000D02*
D03*
X85500Y51000D02*
D03*
X82500Y63000D02*
D03*
X81000Y60000D02*
D03*
X82500Y57000D02*
D03*
X81000Y54000D02*
D03*
X82500Y51000D02*
D03*
X79500Y57000D02*
D03*
X78000Y54000D02*
D03*
X79500Y51000D02*
D03*
X75000Y60000D02*
D03*
X76500Y57000D02*
D03*
X75000Y54000D02*
D03*
X76500Y51000D02*
D03*
X72000Y72000D02*
D03*
X73500Y69000D02*
D03*
X72000Y66000D02*
D03*
X73500Y63000D02*
D03*
X72000Y60000D02*
D03*
X73500Y57000D02*
D03*
X72000Y54000D02*
D03*
X73500Y51000D02*
D03*
X69000Y72000D02*
D03*
X70500Y69000D02*
D03*
X69000Y66000D02*
D03*
X70500Y57000D02*
D03*
X69000Y54000D02*
D03*
X66000Y72000D02*
D03*
X67500Y69000D02*
D03*
X66000Y66000D02*
D03*
X67500Y57000D02*
D03*
X66000Y54000D02*
D03*
X63000Y72000D02*
D03*
X64500Y69000D02*
D03*
X63000Y66000D02*
D03*
Y60000D02*
D03*
X64500Y57000D02*
D03*
X63000Y54000D02*
D03*
X60000Y72000D02*
D03*
X61500Y69000D02*
D03*
X60000Y66000D02*
D03*
X61500Y63000D02*
D03*
X60000Y60000D02*
D03*
X61500Y57000D02*
D03*
X60000Y54000D02*
D03*
X61500Y51000D02*
D03*
X57000Y72000D02*
D03*
X58500Y69000D02*
D03*
X57000Y66000D02*
D03*
X58500Y57000D02*
D03*
X57000Y54000D02*
D03*
X54000Y72000D02*
D03*
X55500Y69000D02*
D03*
X54000Y66000D02*
D03*
Y60000D02*
D03*
X55500Y57000D02*
D03*
X54000Y54000D02*
D03*
X51000Y72000D02*
D03*
X52500Y69000D02*
D03*
X51000Y66000D02*
D03*
X52500Y63000D02*
D03*
X51000Y60000D02*
D03*
X52500Y57000D02*
D03*
X51000Y54000D02*
D03*
X52500Y51000D02*
D03*
X48000Y72000D02*
D03*
X49500Y69000D02*
D03*
X48000Y66000D02*
D03*
X49500Y57000D02*
D03*
X48000Y54000D02*
D03*
X49500Y51000D02*
D03*
X45000Y72000D02*
D03*
X46500Y69000D02*
D03*
X45000Y66000D02*
D03*
Y60000D02*
D03*
X46500Y57000D02*
D03*
X45000Y54000D02*
D03*
X46500Y51000D02*
D03*
X42000Y72000D02*
D03*
X43500Y69000D02*
D03*
X42000Y66000D02*
D03*
X43500Y63000D02*
D03*
X42000Y60000D02*
D03*
X43500Y57000D02*
D03*
Y51000D02*
D03*
X40500Y87000D02*
D03*
X39000Y84000D02*
D03*
X40500Y81000D02*
D03*
X39000Y78000D02*
D03*
X40500Y75000D02*
D03*
X39000Y72000D02*
D03*
X40500Y69000D02*
D03*
X39000Y66000D02*
D03*
X40500Y63000D02*
D03*
X37500Y81000D02*
D03*
X36000Y78000D02*
D03*
X37500Y75000D02*
D03*
X36000Y72000D02*
D03*
X37500Y69000D02*
D03*
X36000Y66000D02*
D03*
X34500Y81000D02*
D03*
Y75000D02*
D03*
Y69000D02*
D03*
X148500Y87000D02*
D03*
X139500D02*
D03*
X136500D02*
D03*
X121500Y77500D02*
D03*
Y84000D02*
D03*
X117000Y90000D02*
D03*
X118500Y87000D02*
D03*
X110000D02*
D03*
X107500Y88500D02*
D03*
X105000Y87000D02*
D03*
Y93000D02*
D03*
X124500Y72500D02*
D03*
Y77500D02*
D03*
X102000Y72500D02*
D03*
Y77500D02*
D03*
X136450Y72275D02*
D03*
X137700D02*
D03*
X139426Y74846D02*
D03*
X109876Y74846D02*
D03*
X108150Y72275D02*
D03*
X106900D02*
D03*
X123250Y61000D02*
D03*
X121788Y58985D02*
D03*
X124250Y61500D02*
D03*
X121000Y56250D02*
D03*
X117500Y58000D02*
D03*
X118500Y57000D02*
D03*
X119750D02*
D03*
X121000Y57500D02*
D03*
X159500Y87500D02*
D03*
X159000Y89000D02*
D03*
X157000D02*
D03*
X140550Y94000D02*
D03*
X142550D02*
D03*
X141550Y92500D02*
D03*
X139550D02*
D03*
X112000D02*
D03*
X110000D02*
D03*
X111000Y94000D02*
D03*
X113000D02*
D03*
X125250Y60000D02*
D03*
X115000Y63500D02*
D03*
X116250D02*
D03*
X115500Y65000D02*
D03*
X116750D02*
D03*
X115750Y60500D02*
D03*
X116750Y61750D02*
D03*
X117750Y60500D02*
D03*
X118750Y61750D02*
D03*
X115000Y66500D02*
D03*
X116250D02*
D03*
X125750Y56975D02*
D03*
X136250Y55000D02*
D03*
X135000Y54250D02*
D03*
X134000Y62750D02*
D03*
X134750Y63750D02*
D03*
X136000D02*
D03*
X131000Y64500D02*
D03*
X132500D02*
D03*
X133500Y65500D02*
D03*
Y67000D02*
D03*
X132500Y68000D02*
D03*
X154000Y66500D02*
D03*
X156000D02*
D03*
X154500Y68000D02*
D03*
X156500D02*
D03*
X154000Y69500D02*
D03*
X156000D02*
D03*
X154500Y71000D02*
D03*
X156500D02*
D03*
X154000Y57750D02*
D03*
X154750Y56500D02*
D03*
X156250D02*
D03*
X144250Y58750D02*
D03*
X143000Y60000D02*
D03*
Y61500D02*
D03*
X148750Y58250D02*
D03*
X146250Y58750D02*
D03*
X147500Y58250D02*
D03*
X77000Y80000D02*
D03*
X79000D02*
D03*
X77500Y78500D02*
D03*
X78500Y77000D02*
D03*
X76500D02*
D03*
X79500Y78500D02*
D03*
X81000Y68000D02*
D03*
X79500D02*
D03*
X79000Y70000D02*
D03*
X80500D02*
D03*
X127500Y80000D02*
D03*
X126000Y79500D02*
D03*
X131000Y78000D02*
D03*
X127500Y78500D02*
D03*
X129500Y78000D02*
D03*
X126000Y81000D02*
D03*
X121000Y88000D02*
D03*
X123000D02*
D03*
X120000Y89500D02*
D03*
X122000D02*
D03*
X121000Y91000D02*
D03*
X123000D02*
D03*
X129315Y85825D02*
D03*
X129315Y84725D02*
D03*
X130415D02*
D03*
X130415Y85825D02*
D03*
X83315Y74825D02*
D03*
X83315Y73725D02*
D03*
X84415D02*
D03*
Y74825D02*
D03*
X157500Y87500D02*
D03*
X140000Y83000D02*
D03*
X138000D02*
D03*
X109000Y77000D02*
D03*
X146000Y76500D02*
D03*
X144500D02*
D03*
X146000Y78500D02*
D03*
Y80500D02*
D03*
Y82000D02*
D03*
X145000Y83000D02*
D03*
X141500Y80500D02*
D03*
X138500Y77000D02*
D03*
X140000Y80000D02*
D03*
Y78500D02*
D03*
Y77000D02*
D03*
X142000Y83250D02*
D03*
X140000Y73125D02*
D03*
X141500Y73000D02*
D03*
X143500D02*
D03*
X145500D02*
D03*
X138750Y73125D02*
D03*
X109200D02*
D03*
X110450D02*
D03*
X112450Y83250D02*
D03*
X110450Y83000D02*
D03*
X108450D02*
D03*
X114950Y76500D02*
D03*
X116450D02*
D03*
Y78500D02*
D03*
Y80500D02*
D03*
Y82000D02*
D03*
X115450Y83000D02*
D03*
X111950Y80500D02*
D03*
X110450Y80000D02*
D03*
Y78500D02*
D03*
Y77000D02*
D03*
X111950Y73000D02*
D03*
X113950D02*
D03*
X115950D02*
D03*
D46*
X121512Y59750D02*
X122738D01*
X121512D02*
X121594Y59667D01*
Y59179D02*
X121788Y58985D01*
X121594Y59179D02*
Y59667D01*
X134994Y56768D02*
Y58244D01*
Y56768D02*
X135000Y56762D01*
X134988Y58250D02*
X134994Y58244D01*
X134558Y58730D02*
X134988Y58300D01*
X132750Y58730D02*
X134558D01*
X134988Y58250D02*
Y58300D01*
X125750Y56975D02*
X126235Y57460D01*
X127000D01*
X122994Y56756D02*
Y57994D01*
Y56756D02*
X123000Y56750D01*
X122988Y58000D02*
X122994Y57994D01*
X124656Y58132D02*
X125253Y58730D01*
X124594Y58132D02*
X124656D01*
X125253Y58730D02*
X127000D01*
X124512Y58050D02*
X124594Y58132D01*
X124512Y58000D02*
Y58050D01*
X124506Y56756D02*
Y57994D01*
X124500Y56750D02*
X124506Y56756D01*
Y57994D02*
X124512Y58000D01*
X82900Y80524D02*
X84500D01*
X82900Y80500D02*
Y80524D01*
X84500Y79000D02*
X86000D01*
X84500D02*
X84500D01*
X83024D02*
X84500D01*
X84500Y77000D02*
Y79000D01*
X128900Y91524D02*
X130500D01*
X128900Y91500D02*
Y91524D01*
X130500Y90000D02*
X132000D01*
X129000D02*
X130500D01*
Y88000D02*
Y90000D01*
D47*
X135000Y100000D02*
D03*
X65000D02*
D03*
Y50000D02*
D03*
X135000D02*
D03*
D51*
X102000Y80550D02*
D03*
Y56950D02*
D03*
Y69450D02*
D03*
Y93050D02*
D03*
D52*
Y78900D02*
D03*
Y82200D02*
D03*
Y55300D02*
D03*
Y58600D02*
D03*
Y67800D02*
D03*
Y71100D02*
D03*
Y91400D02*
D03*
Y94700D02*
D03*
D53*
Y77500D02*
D03*
Y83600D02*
D03*
Y53900D02*
D03*
Y60000D02*
D03*
Y66400D02*
D03*
Y72500D02*
D03*
Y90000D02*
D03*
Y96100D02*
D03*
D54*
X119988Y59750D02*
D03*
X121512D02*
D03*
X130800Y55250D02*
D03*
X132200D02*
D03*
X134988Y58250D02*
D03*
X136512D02*
D03*
X128000Y63500D02*
D03*
X129400D02*
D03*
X122738Y59750D02*
D03*
X124262D02*
D03*
X124512Y58000D02*
D03*
X122988D02*
D03*
X144350Y61500D02*
D03*
X145750D02*
D03*
X132000Y80000D02*
D03*
X133524D02*
D03*
X128976D02*
D03*
X130500D02*
D03*
X127476Y90000D02*
D03*
X129000D02*
D03*
X128900Y91500D02*
D03*
X127500Y91500D02*
D03*
X132000Y90000D02*
D03*
X133524D02*
D03*
X86000Y69000D02*
D03*
X87524D02*
D03*
X82976D02*
D03*
X84500D02*
D03*
X86000Y79000D02*
D03*
X87524D02*
D03*
X81500D02*
D03*
X83024D02*
D03*
X82900Y80500D02*
D03*
X81500Y80500D02*
D03*
X145750Y60000D02*
D03*
X144226D02*
D03*
D57*
X135000Y55238D02*
D03*
Y56762D02*
D03*
X124500Y55350D02*
D03*
Y56750D02*
D03*
X123000Y55350D02*
D03*
Y56750D02*
D03*
X156250Y62512D02*
D03*
Y60988D02*
D03*
X157750Y62500D02*
D03*
Y64024D02*
D03*
X156250Y57976D02*
D03*
Y59500D02*
D03*
X126000Y84200D02*
D03*
X126000Y82800D02*
D03*
X126000Y85800D02*
D03*
Y87200D02*
D03*
X130500Y90000D02*
D03*
X130500Y91524D02*
D03*
X80000Y73200D02*
D03*
Y71800D02*
D03*
X80000Y74800D02*
D03*
Y76200D02*
D03*
X84500Y79000D02*
D03*
X84500Y80524D02*
D03*
D74*
X129875Y59365D02*
D03*
D75*
X151000Y61500D02*
D03*
D76*
X129865Y85275D02*
D03*
X83865Y74275D02*
D03*
D77*
X35500Y91000D02*
D03*
X169500Y59000D02*
D03*
D78*
X129275Y60415D02*
D03*
Y59365D02*
D03*
X130475D02*
D03*
Y60415D02*
D03*
Y58315D02*
D03*
X129275D02*
D03*
X151889Y62135D02*
D03*
X151000Y62135D02*
D03*
X151000Y60865D02*
D03*
X151889D02*
D03*
X150111Y62135D02*
D03*
Y60865D02*
D03*
D79*
X171350Y77000D02*
D03*
X169600D02*
D03*
X170600Y79000D02*
D03*
X168700D02*
D03*
X171350Y73000D02*
D03*
X169600D02*
D03*
X170600Y71000D02*
D03*
X168700D02*
D03*
D80*
X97500Y72250D02*
D03*
Y80750D02*
D03*
Y69250D02*
D03*
Y77750D02*
D03*
X46000Y94900D02*
D03*
X49000D02*
D03*
D87*
X121889Y61500D02*
D03*
X120111D02*
D03*
X158500Y71000D02*
D03*
X160278D02*
D03*
D88*
X131000Y66250D02*
D03*
X127000D02*
D03*
D89*
Y61270D02*
D03*
Y60000D02*
D03*
X132750Y58730D02*
D03*
Y61270D02*
D03*
Y60000D02*
D03*
X127000Y58730D02*
D03*
Y57460D02*
D03*
X132750D02*
D03*
D90*
X135500Y60611D02*
D03*
Y62389D02*
D03*
D91*
X118980Y66750D02*
D03*
X123020D02*
D03*
D92*
X158349Y68500D02*
D03*
X161651D02*
D03*
D93*
X154048Y63786D02*
D03*
Y62486D02*
D03*
Y61836D02*
D03*
Y63136D02*
D03*
Y60536D02*
D03*
Y61186D02*
D03*
Y59236D02*
D03*
Y59886D02*
D03*
X147952Y63136D02*
D03*
X147952Y62486D02*
D03*
Y63786D02*
D03*
Y61186D02*
D03*
Y61836D02*
D03*
X147952Y59886D02*
D03*
X147952Y60536D02*
D03*
X147952Y59236D02*
D03*
D94*
X129100Y75000D02*
D03*
X125800D02*
D03*
X159100D02*
D03*
X155800D02*
D03*
X144100D02*
D03*
X140800D02*
D03*
X114100D02*
D03*
X110800D02*
D03*
D95*
X130500D02*
D03*
X124400D02*
D03*
X160500D02*
D03*
X154400D02*
D03*
X145500D02*
D03*
X139400D02*
D03*
X115500D02*
D03*
X109400D02*
D03*
D96*
X127450D02*
D03*
X157450D02*
D03*
X142450D02*
D03*
X112450D02*
D03*
D97*
X127960Y82550D02*
D03*
X129230D02*
D03*
Y88000D02*
D03*
X127960D02*
D03*
X130500Y82550D02*
D03*
X131770D02*
D03*
X130500Y88000D02*
D03*
X131770D02*
D03*
X81960Y71550D02*
D03*
X83230D02*
D03*
Y77000D02*
D03*
X81960D02*
D03*
X84500Y71550D02*
D03*
X85770D02*
D03*
X84500Y77000D02*
D03*
X85770D02*
D03*
D98*
X156200Y60988D02*
X156250D01*
X154048Y61186D02*
X156002D01*
X156200Y60988D01*
X154048Y62486D02*
X156224D01*
X156250Y59500D02*
Y60988D01*
X156250Y60988D01*
X156256Y62506D02*
X157744D01*
X157750Y62500D01*
X156250Y62512D02*
X156256Y62506D01*
X146450Y60200D02*
X146786Y60536D01*
X145900Y60200D02*
X146450D01*
X146786Y60536D02*
X147952D01*
X146580Y61420D02*
X146814Y61186D01*
X145750Y61500D02*
X145830Y61420D01*
X146814Y61186D02*
X147952D01*
X145830Y61420D02*
X146580D01*
X145750Y60000D02*
Y60050D01*
X145900Y60200D01*
X131770Y80000D02*
X132000D01*
X130500D02*
X131770D01*
Y82550D01*
X85770Y69000D02*
Y71550D01*
X84500Y69000D02*
X85770D01*
X86000D01*
M02*
